<?xml version="1.0" encoding="UTF-8"?>
<svg version="1.1" xmlns="http://www.w3.org/2000/svg" width="3943" height="2724">
<path d="M0 0 C0.68288086 0.22768066 1.36576172 0.45536133 2.06933594 0.68994141 C27.31278997 9.2513588 50.17842929 22.48073121 71 39 C71.54398438 39.42684082 72.08796875 39.85368164 72.6484375 40.29345703 C88.14822489 52.5496633 102.50888225 66.90974297 114 83 C114.44746582 83.61907227 114.89493164 84.23814453 115.35595703 84.87597656 C140.5001161 119.84769903 156.71560513 159.95677716 161 203 C161.11085938 204.0725 161.22171875 205.145 161.3359375 206.25 C166.7991193 268.8551104 147.69788111 330.89448504 108.4375 379.8125 C70.15828034 425.40270575 18.87736868 456.00600888 -40 466 C-41.26328125 466.21527344 -42.5265625 466.43054688 -43.828125 466.65234375 C-104.0369466 475.42745924 -168.65596313 461.02944126 -218 425 C-218.54769043 424.60103516 -219.09538086 424.20207031 -219.65966797 423.79101562 C-237.26422526 410.84173511 -253.54763129 396.27157646 -267 379 C-268.14662109 377.59621094 -268.14662109 377.59621094 -269.31640625 376.1640625 C-301.28891147 336.23692115 -318.24466093 285.84997857 -320 235 C-320.04125 233.93910156 -320.0825 232.87820313 -320.125 231.78515625 C-320.93047714 190.25274098 -310.53823759 149.52252067 -291 113 C-290.38640625 111.84371094 -289.7728125 110.68742187 -289.140625 109.49609375 C-281.55446347 95.71874667 -272.27263805 82.89662127 -262 71 C-261.319375 70.20851563 -260.63875 69.41703125 -259.9375 68.6015625 C-249.79999709 57.08506104 -239.07547201 46.47811292 -226.7578125 37.31787109 C-225.01692923 36.01269222 -223.30448619 34.67639131 -221.59375 33.33203125 C-188.24262104 7.50908903 -145.81184029 -7.83335079 -104 -12 C-102.93910156 -12.11085938 -101.87820313 -12.22171875 -100.78515625 -12.3359375 C-66.53941879 -15.34923663 -32.53776193 -10.94348158 0 0 Z " fill="#F96470" transform="translate(2046,329)"/>
<path d="M0 0 C0.96494385 0.00021149 1.9298877 0.00042297 2.92407227 0.00064087 C18.83060339 0.0353275 34.08622663 1.04865983 49.6875 4.375 C51.01297852 4.64787842 51.01297852 4.64787842 52.36523438 4.92626953 C89.08468876 12.67892415 123.89313002 29.33489297 152.6875 53.375 C153.26306641 53.84905273 153.83863281 54.32310547 154.43164062 54.81152344 C167.07882286 65.24858618 178.59604024 76.41851459 188.6875 89.375 C189.83412109 90.77878906 189.83412109 90.77878906 191.00390625 92.2109375 C219.28575047 127.52919561 236.18380552 171.49516082 240.6875 216.375 C240.79835938 217.46941406 240.90921875 218.56382812 241.0234375 219.69140625 C246.27433709 280.92824872 227.8291667 342.29966323 189.6875 390.375 C189.26065918 390.91898438 188.83381836 391.46296875 188.39404297 392.0234375 C176.57735856 406.96738444 162.76218295 420.97176091 147.33496094 432.17626953 C145.66891552 433.3885225 144.02563285 434.62760363 142.3828125 435.87109375 C91.24011395 474.06081456 25.53065246 487.90526089 -37.12988281 478.87109375 C-80.73688424 472.07380724 -121.89671881 453.21473472 -155.3125 424.375 C-156.46492188 423.38886719 -156.46492188 423.38886719 -157.640625 422.3828125 C-170.42467743 411.16501815 -182.33008255 399.16222228 -192.3125 385.375 C-192.75368164 384.77284668 -193.19486328 384.17069336 -193.64941406 383.55029297 C-222.66107358 343.6827249 -238.03492763 297.52590489 -240.3125 248.375 C-240.34714355 247.63137207 -240.38178711 246.88774414 -240.41748047 246.12158203 C-242.60945297 189.68850106 -222.4167137 131.59693748 -186.3125 88.375 C-185.59344482 87.50367432 -185.59344482 87.50367432 -184.85986328 86.61474609 C-174.69950344 74.330526 -163.92350594 63.18709416 -151.3125 53.375 C-150.68714355 52.8785498 -150.06178711 52.38209961 -149.41748047 51.87060547 C-139.78945099 44.22745251 -130.07605012 37.31722026 -119.3125 31.375 C-118.14509277 30.72168701 -118.14509277 30.72168701 -116.95410156 30.05517578 C-80.78847223 9.94517131 -41.30684561 -0.08381639 0 0 Z " fill="#F9656F" transform="translate(2278.3125,856.625)"/>
<path d="M0 0 C0.93876984 0.00021149 1.87753967 0.00042297 2.84475708 0.00064087 C18.57963557 0.03586808 33.69268545 1.08103034 49.125 4.375 C50.03668945 4.56755371 50.94837891 4.76010742 51.88769531 4.95849609 C104.8991395 16.50831384 156.00269972 46.95713569 189.125 90.375 C189.75220947 91.18759277 189.75220947 91.18759277 190.39208984 92.01660156 C217.86504424 127.75850429 235.55062473 170.42910348 240.125 215.375 C240.23585938 216.35082031 240.34671875 217.32664062 240.4609375 218.33203125 C246.49587836 280.5571647 227.10095728 342.51765389 188.59375 391.3828125 C184.30495642 396.5809389 179.79068218 401.51865624 175.125 406.375 C174.50737793 407.0251709 173.88975586 407.6753418 173.25341797 408.34521484 C163.28068617 418.79826795 152.9305742 428.04282008 141.125 436.375 C140.48320801 436.82955566 139.84141602 437.28411133 139.18017578 437.75244141 C86.77244436 474.5229265 22.27288303 488.5328103 -40.875 478.375 C-48.29138891 477.02818949 -55.58607583 475.28533246 -62.875 473.375 C-63.96651367 473.10115479 -63.96651367 473.10115479 -65.08007812 472.82177734 C-91.10593267 466.24241215 -116.07436812 453.93324429 -137.875 438.375 C-138.89851563 437.64667969 -139.92203125 436.91835937 -140.9765625 436.16796875 C-160.19706922 422.09490644 -177.80444732 405.63819067 -191.875 386.375 C-192.73306152 385.22394983 -193.59113451 384.07290823 -194.44921875 382.921875 C-216.96583035 352.37801204 -231.66062534 316.76782694 -237.875 279.375 C-238.19597656 277.48587891 -238.19597656 277.48587891 -238.5234375 275.55859375 C-247.06325434 217.20317867 -233.92698148 152.4444746 -198.875 104.375 C-198.42511719 103.75286621 -197.97523437 103.13073242 -197.51171875 102.48974609 C-191.37660817 94.03373451 -185.00184092 86.02567062 -177.875 78.375 C-176.66161781 76.98355334 -175.45302197 75.58791361 -174.25 74.1875 C-168.56159978 67.69389244 -162.48521623 62.09971167 -155.75 56.69140625 C-153.8990034 55.20004622 -152.06409151 53.68838254 -150.25 52.15234375 C-137.5583391 41.44375486 -123.53942695 33.08180457 -108.875 25.375 C-108.2243457 25.02727539 -107.57369141 24.67955078 -106.90332031 24.32128906 C-74.1984486 7.05055567 -36.68563045 -0.07674563 0 0 Z " fill="#F9656F" transform="translate(1654.875,856.625)"/>
<path d="M0 0 C50.09553949 -0.96885571 102.28403451 10.90728234 143.55859375 40.12109375 C144.42339355 40.73138428 144.42339355 40.73138428 145.30566406 41.35400391 C157.24574432 49.89812109 168.09287673 59.91480577 177.55859375 71.12109375 C177.5726123 69.30520752 177.5726123 69.30520752 177.58691406 67.45263672 C177.62689323 62.94591965 177.69267415 58.43987953 177.76611328 53.93359375 C177.79427696 51.9860913 177.81551435 50.03847553 177.82958984 48.09082031 C177.85108321 45.28521907 177.89776573 42.48097375 177.94921875 39.67578125 C177.95044739 38.80992401 177.95167603 37.94406677 177.95294189 37.05197144 C178.08427994 31.58762445 178.9916069 28.4969038 182.55859375 24.12109375 C183.23921875 23.25484375 183.23921875 23.25484375 183.93359375 22.37109375 C188.35243122 18.97198801 193.55643794 18.8657452 198.92163086 18.84643555 C199.63302719 18.84132462 200.34442352 18.83621368 201.07737732 18.83094788 C203.41365119 18.81712247 205.74962774 18.8180032 208.0859375 18.8203125 C209.71969206 18.81642184 211.35344562 18.81208641 212.98719788 18.80732727 C216.4058053 18.79988034 219.82430942 18.80014534 223.24291992 18.80541992 C227.61189176 18.81121418 231.98043962 18.79427738 236.34934139 18.77107525 C239.72179107 18.75630503 243.09413938 18.75547064 246.46661568 18.75858498 C248.07687787 18.75807347 249.687146 18.75286792 251.29737663 18.74277306 C253.55391456 18.7303609 255.80963611 18.73722796 258.06616211 18.7487793 C259.34712265 18.74814987 260.62808319 18.74752045 261.94786072 18.74687195 C267.30352219 19.30194076 271.12193249 20.97176474 275.37109375 24.37109375 C279.70454909 29.81886618 279.85112926 35.93271251 279.81027603 42.59976959 C279.81318291 43.43136406 279.81608979 44.26295853 279.81908476 45.11975282 C279.82638421 47.90661 279.81944162 50.69324697 279.81256104 53.48010254 C279.81486548 55.4981836 279.8180419 57.51626382 279.82201552 59.53434229 C279.8303743 65.08040493 279.8262333 70.62639884 279.82004309 76.17246175 C279.81552405 82.15344667 279.82249964 88.13441966 279.82800293 94.11540222 C279.83638984 105.15502263 279.8356524 116.19462259 279.83017999 127.2342438 C279.82514935 137.43272026 279.82383526 147.63118869 279.82622528 157.82966614 C279.82645444 158.84430592 279.82645444 158.84430592 279.82668822 159.87944349 C279.8273109 162.62526284 279.8279477 165.37108218 279.82860775 168.11690153 C279.83472608 193.87603941 279.8291783 219.63516333 279.81841395 245.39429907 C279.80892271 268.28093993 279.80977196 291.16755855 279.81933594 314.05419922 C279.83004465 339.76615347 279.83429217 365.47809538 279.82811141 391.19005156 C279.82746997 393.93087482 279.82684429 396.67169809 279.82622528 399.41252136 C279.82606713 400.08738448 279.82590897 400.76224761 279.82574602 401.45756112 C279.82347085 411.64975544 279.82613206 421.84194083 279.83118439 432.03413391 C279.83690032 443.6228334 279.83528603 455.21150788 279.8246229 466.8002044 C279.81936028 472.71491368 279.81731953 478.62957776 279.8239212 484.54428673 C279.82987049 489.95627561 279.82662236 495.36817727 279.8159661 500.78015822 C279.81372775 502.74035578 279.81487808 504.70056068 279.81971768 506.66075355 C279.82578395 509.32141367 279.81957645 511.98177354 279.81027603 514.64241791 C279.81495836 515.4065528 279.8196407 516.17068769 279.82446492 516.95797819 C279.78583451 522.4734246 279.3867075 527.86924503 275.7890625 532.30078125 C275.11488281 532.86023437 274.44070313 533.4196875 273.74609375 533.99609375 C273.07964844 534.57101562 272.41320313 535.1459375 271.7265625 535.73828125 C265.95232926 539.4213057 258.14121468 538.34250473 251.55859375 538.37109375 C249.82416016 538.40203125 249.82416016 538.40203125 248.0546875 538.43359375 C228.26799539 538.52202589 214.2206046 531.45702864 200.18359375 517.8125 C189.74229642 506.77300334 181.18516894 492.95708315 177.55859375 478.12109375 C177.03652344 478.71535156 176.51445313 479.30960938 175.9765625 479.921875 C136.70381666 524.14670088 80.58365226 543.69770588 22.68359375 548.80859375 C-48.18106494 552.86282929 -120.30138733 531.21229323 -173.984375 483.87890625 C-175.68414026 482.35143187 -177.37832353 480.81771923 -179.06640625 479.27734375 C-181.20527183 477.33547895 -183.3756001 475.44131779 -185.56640625 473.55859375 C-204.94481254 456.63660516 -220.38478257 435.12578964 -233.44140625 413.12109375 C-233.79170898 412.54085449 -234.14201172 411.96061523 -234.50292969 411.36279297 C-270.12422843 352.10597839 -279.34831307 276.82507618 -263.17138672 210.04052734 C-250.24032094 158.32491377 -222.32462823 105.44617665 -180.58203125 70.89453125 C-178.87322774 69.47884367 -177.20462553 68.0146764 -175.55078125 66.53515625 C-127.19118606 23.41614584 -64.07020407 2.25445667 0 0 Z M-116.44140625 147.12109375 C-117.3025 147.930625 -118.16359375 148.74015625 -119.05078125 149.57421875 C-150.11657988 179.48228575 -168.49314056 224.93045105 -169.64453125 267.7578125 C-170.16229647 307.77413811 -160.13087678 346.41743131 -136.44140625 379.12109375 C-135.67828125 380.18199219 -134.91515625 381.24289062 -134.12890625 382.3359375 C-105.79492686 420.54807181 -64.08476127 444.00682375 -17.44140625 451.12109375 C26.19357137 457.39749013 71.61009428 444.18589024 106.734375 418.1171875 C113.32157764 413.05582473 119.28595063 407.39373687 125.15625 401.5234375 C126.56846878 400.11121872 127.99308701 398.71088893 129.4453125 397.33984375 C158.48914122 369.61905278 176.07769828 325.81536043 177.68310547 286.03588867 C178.64780391 244.32316673 169.49867503 204.29133596 144.55859375 170.12109375 C143.41583984 168.53361328 143.41583984 168.53361328 142.25 166.9140625 C115.0098233 130.14195044 74.36464776 106.00748845 29.32470703 98.76171875 C-24.80433417 90.80052031 -77.42951281 109.44675095 -116.44140625 147.12109375 Z " fill="#2E3B53" transform="translate(778.44140625,1688.87890625)"/>
<path d="M0 0 C62.68068012 -1.081945 123.54460939 17.66842809 169.140625 61.59375 C175.23842751 67.61350063 175.23842751 67.61350063 177.58203125 71.12890625 C177.5960498 69.3663147 177.5960498 69.3663147 177.61035156 67.56811523 C177.6503846 63.18622676 177.71617999 58.80503057 177.78955078 54.42358398 C177.81768341 52.53142221 177.83893613 50.63914461 177.85302734 48.74682617 C177.87456411 46.01811755 177.92126794 43.29079034 177.97265625 40.5625 C177.97388489 39.72367783 177.97511353 38.88485565 177.97637939 38.02061462 C178.11814733 32.26681291 179.25780179 28.85962762 182.58203125 24.12890625 C188.3342486 19.57506751 192.41479792 19.00664849 199.61035156 18.96777344 C200.31009598 18.96280853 201.00984039 18.95784363 201.73078918 18.95272827 C204.04058831 18.93815122 206.35031872 18.93131141 208.66015625 18.92578125 C210.27195232 18.92002526 211.88374838 18.91426758 213.49554443 18.9085083 C216.87479978 18.89801038 220.25403143 18.8921601 223.63330078 18.88867188 C227.94839741 18.88319574 232.26317713 18.8591816 236.57817459 18.83069992 C239.90861911 18.81200831 243.23898837 18.80686444 246.5694809 18.805336 C248.15938801 18.80232264 249.74929421 18.79433892 251.33914948 18.78115082 C266.9559475 18.66087435 266.9559475 18.66087435 273.58203125 22.12890625 C278.31528559 26.86216059 279.80055444 31.43032655 279.85175663 38.07110062 C279.847646 38.84662108 279.84353536 39.62214153 279.83930016 40.42116261 C279.84280623 41.25690328 279.8463123 42.09264396 279.84992462 42.95371011 C279.85926166 45.7667166 279.85430936 48.57951711 279.84945679 51.39253235 C279.85319188 53.42467438 279.85779284 55.45681498 279.86318743 57.48895329 C279.87545019 63.08320392 279.87515311 68.6773949 279.87279868 74.27165592 C279.87239134 80.30109832 279.88342171 86.33052139 279.89291382 92.35995483 C279.90954265 104.17645193 279.9150501 115.99292973 279.91613857 127.80943552 C279.91705735 137.41213109 279.92117238 147.01482019 279.92753983 156.61751366 C279.92933489 159.38075341 279.93111452 162.14399317 279.93288958 164.90723294 C279.93355273 165.93763221 279.93355273 165.93763221 279.93422927 166.98884764 C279.94653926 186.31347111 279.95443023 205.63809235 279.95354271 224.96271992 C279.95351155 225.6914382 279.95348039 226.42015648 279.95344829 227.17095713 C279.95328208 230.86447809 279.95308399 234.55799905 279.95287888 238.25152002 C279.95281904 239.35185698 279.95281904 239.35185698 279.952758 240.47442298 C279.95267712 241.95785629 279.95259353 243.44128961 279.95250721 244.92472292 C279.95128164 268.00574868 279.9662954 291.08671567 279.99365234 314.16772461 C280.02436884 340.09392385 280.0415851 366.02008448 280.0397259 391.94630307 C280.03957664 394.7104859 280.03947922 397.47466872 280.03941727 400.23885155 C280.0393823 401.2597835 280.0393823 401.2597835 280.03934663 402.30134034 C280.03928507 413.25759109 280.05206055 424.21379086 280.0692818 435.17002645 C280.0862298 446.18009304 280.08787528 457.19009431 280.07506315 468.20016829 C280.06851896 474.1656715 280.06846873 480.13098981 280.08576965 486.0964756 C280.10144108 491.5561727 280.09869739 497.01553737 280.08120139 502.47522607 C280.07811841 504.45165417 280.08181243 506.42810672 280.09292154 508.40450601 C280.10701699 511.08978285 280.09647666 513.77388955 280.07980919 516.45912647 C280.08974555 517.22762343 280.09968191 517.99612038 280.10991937 518.78790513 C280.03803942 524.26022598 278.68984157 528.58189775 275.58203125 533.12890625 C268.33860155 539.01419288 261.48146669 538.31161121 252.51953125 538.31640625 C251.34197266 538.32865234 250.16441406 538.34089844 248.95117188 538.35351562 C229.69745923 538.38548084 215.43108439 532.56484843 201.58203125 519.12890625 C190.69448177 507.37375517 183.41186862 493.96351591 177.58203125 479.12890625 C176.25751953 480.59650391 176.25751953 480.59650391 174.90625 482.09375 C135.70396742 525.10255938 76.85898452 545.98932976 19.58203125 549.00390625 C-47.12338496 551.33722328 -113.14918931 532.85507926 -165.57324219 490.61523438 C-167.22091603 489.28767504 -168.88481106 487.98030654 -170.55078125 486.67578125 C-186.71753133 473.59042218 -202.36654296 458.09598263 -214.41796875 441.12890625 C-215.41599636 439.76253097 -216.41473311 438.39667348 -217.4140625 437.03125 C-223.94245764 428.02881858 -229.96198321 418.81786094 -235.41796875 409.12890625 C-235.81193848 408.43667969 -236.2059082 407.74445312 -236.61181641 407.03125 C-271.82105279 344.62312274 -279.22523326 268.30628168 -260.12744141 199.60595703 C-249.09980172 161.1040877 -230.35378564 126.5620565 -204.41796875 96.12890625 C-203.69738281 95.27683594 -202.97679687 94.42476562 -202.234375 93.546875 C-190.50098223 80.12094604 -177.76132263 67.71608341 -163.41796875 57.12890625 C-162.47308594 56.38898438 -161.52820312 55.6490625 -160.5546875 54.88671875 C-114.48952256 19.0794951 -57.73641953 2.17748782 0 0 Z M-106.41796875 138.12890625 C-107.3925 138.98226563 -108.36703125 139.835625 -109.37109375 140.71484375 C-144.21258944 171.65207537 -165.02219713 214.72463036 -169.16796875 261.06640625 C-169.27495646 263.0861254 -169.35820223 265.10723868 -169.41796875 267.12890625 C-169.45792969 268.25554687 -169.49789063 269.3821875 -169.5390625 270.54296875 C-170.45728658 320.99127985 -150.59132684 365.78087992 -116.41796875 402.12890625 C-115.8353125 402.76570313 -115.25265625 403.4025 -114.65234375 404.05859375 C-105.14800017 414.09095642 -93.24962714 422.09793181 -81.41796875 429.12890625 C-80.84530273 429.47018555 -80.27263672 429.81146484 -79.68261719 430.16308594 C-40.81321491 452.94408727 6.21419809 457.84885922 49.51953125 446.56640625 C94.51296097 434.04428889 132.77857828 402.99335962 155.70703125 362.50390625 C179.11153145 319.92381302 184.34020425 269.53966658 170.89453125 222.94140625 C160.77109062 190.29314704 141.74221807 158.49187672 114.58203125 137.12890625 C114.04271973 136.69900391 113.5034082 136.26910156 112.94775391 135.82617188 C103.33482429 128.20905018 93.4829604 121.74037728 82.58203125 116.12890625 C81.92686523 115.78375977 81.27169922 115.43861328 80.59667969 115.08300781 C63.42713894 106.11510154 44.74650529 100.70754915 25.58203125 98.12890625 C24.66292969 97.99871094 23.74382812 97.86851563 22.796875 97.734375 C-22.94312289 92.43221141 -71.92571605 107.61652886 -106.41796875 138.12890625 Z " fill="#2D3B53" transform="translate(1896.41796875,1688.87109375)"/>
<path d="M0 0 C10.61135647 10.22271293 10.61135647 10.22271293 12 13 C12.01401855 11.29070312 12.01401855 11.29070312 12.02832031 9.546875 C12.06841055 5.28981472 12.13422095 1.03346273 12.20751953 -3.22314453 C12.23561931 -5.05996553 12.25688818 -6.89690497 12.27099609 -8.73388672 C12.29257897 -11.38570314 12.33930499 -14.03611185 12.390625 -16.6875 C12.39185364 -17.49928711 12.39308228 -18.31107422 12.39434814 -19.14746094 C12.53736885 -24.80634763 13.75324059 -29.2974272 17 -34 C22.66994274 -38.60682848 26.88324392 -39.12253047 34.02832031 -39.16113281 C34.72806473 -39.16609772 35.42780914 -39.17106262 36.14875793 -39.17617798 C38.45855706 -39.19075503 40.76828747 -39.19759484 43.078125 -39.203125 C44.68992107 -39.20888099 46.30171713 -39.21463867 47.91351318 -39.22039795 C51.29276853 -39.23089587 54.67200018 -39.23674615 58.05126953 -39.24023438 C62.36636616 -39.24571051 66.68114588 -39.26972465 70.99614334 -39.29820633 C74.32658786 -39.31689794 77.65695712 -39.32204181 80.98744965 -39.32357025 C82.57735676 -39.32658361 84.16726296 -39.33456733 85.75711823 -39.34775543 C104.21508761 -39.48991386 104.21508761 -39.48991386 109.53643799 -34.58331299 C113.97147611 -29.57136248 114.1462982 -25.30398563 114.13422108 -18.91981125 C114.13657331 -18.08270192 114.13892554 -17.24559259 114.14134905 -16.3831163 C114.14805241 -13.5534734 114.14758042 -10.72387627 114.14717102 -7.89422607 C114.15046881 -5.85484886 114.15419419 -3.8154723 114.1583125 -1.77609658 C114.16835019 3.84739109 114.17205213 9.47086809 114.17470181 15.09436345 C114.17859958 21.15176553 114.18817821 27.20915912 114.19691467 33.26655579 C114.21575811 47.21198031 114.22593693 61.15740403 114.23437535 75.10283761 C114.23858057 81.99227569 114.24380271 88.88171291 114.24905988 95.77115026 C114.26695016 119.34865347 114.28194701 142.92615693 114.28938007 166.50366592 C114.28985483 167.98407125 114.29033072 169.46447658 114.29080774 170.9448819 C114.2911623 172.0461161 114.2911623 172.0461161 114.29152403 173.16959745 C114.29272524 176.8892694 114.29394068 180.60894134 114.29516602 184.32861328 C114.29540617 185.06679644 114.29564632 185.8049796 114.29589374 186.56553195 C114.30378856 210.50497373 114.3272241 234.44436599 114.35972196 258.38378615 C114.39400794 283.68655213 114.41373004 308.98928913 114.41702431 334.29207873 C114.41744186 337.06891299 114.41792143 339.84574724 114.41844749 342.62258148 C114.41857069 343.30632951 114.41869388 343.99007753 114.4188208 344.6945452 C114.42115429 355.70503761 114.43682247 366.71547258 114.45728934 377.72594451 C114.47752979 388.79000029 114.48269923 399.85400185 114.47351871 410.9180766 C114.46896098 416.9138243 114.47094569 422.90938519 114.49028015 428.9051075 C114.50781934 434.39134831 114.50698949 439.87726474 114.49138286 445.36350855 C114.4889927 447.35074819 114.4934027 449.33800974 114.50521151 451.32521573 C114.52025117 454.02268954 114.51071307 456.71900219 114.49498463 459.41644669 C114.50520683 460.19135104 114.51542904 460.9662554 114.52596101 461.7646417 C114.45582399 467.26084065 113.14104746 470.46740393 110 475 C102.63263338 480.83249858 95.93204749 480.18267215 86.875 480.1875 C85.6890625 480.19974609 84.503125 480.21199219 83.28125 480.22460938 C63.78085105 480.2568948 49.91983388 473.99009031 35.9375 460.4375 C25.16130909 449.60560919 16.64359335 435.90560915 13 421 C9.87925613 423.26963191 7.3437329 425.68631554 4.875 428.625 C-28.73583152 467.55036471 -85.42533464 485.02157166 -135 490 C-136.07507812 490.11214844 -137.15015625 490.22429688 -138.2578125 490.33984375 C-209.19887116 496.57923807 -281.68733499 473.96970549 -336.3125 428.31640625 C-351.30378518 415.39513864 -365.97148601 401.70489156 -377.72607422 385.72265625 C-379.02634022 383.96438165 -380.3557982 382.23153929 -381.69140625 380.5 C-392.45639816 366.39024667 -401.52619356 351.03506468 -409.06884766 334.97753906 C-409.69275936 333.65250372 -410.32535884 332.33152651 -410.96630859 331.01464844 C-421.397104 309.5519785 -427.9740644 286.4664895 -432 263 C-432.16226074 262.12746582 -432.32452148 261.25493164 -432.49169922 260.35595703 C-437.72570936 231.57160198 -437.50929413 198.71866089 -432 170 C-431.82307617 169.05157227 -431.64615234 168.10314453 -431.46386719 167.12597656 C-419.29550096 103.38391304 -385.33962685 41.62022033 -333 2 C-331.83791249 1.08673753 -330.67650179 0.17261346 -329.515625 -0.7421875 C-318.87604729 -9.02544014 -307.61302932 -16.16451255 -296 -23 C-295.33677734 -23.39171387 -294.67355469 -23.78342773 -293.99023438 -24.18701172 C-211.78409994 -72.06700785 -87.66417423 -73.14927741 0 0 Z M-288 95 C-319.60970538 130.68837704 -337.16635879 177.11393556 -334.75 224.9609375 C-331.51749346 274.82475132 -310.0169836 320.03813124 -272.34375 353.21484375 C-237.20408701 383.08143533 -191.99266049 397.18792127 -146.15527344 393.7890625 C-101.2279946 389.63466614 -58.21782203 367.41161447 -29.1875 332.6875 C-9.07715983 307.98399296 3.56780621 280.11464756 10 249 C10.23589844 247.88753906 10.47179688 246.77507812 10.71484375 245.62890625 C18.80363601 201.17006998 7.49210936 153.05972718 -17.6953125 115.87011719 C-44.83711806 76.96550817 -84.90911871 49.63118697 -131.875 41.25 C-190.17223004 31.57080496 -247.39827602 52.56444719 -288 95 Z " fill="#2D3B53" transform="translate(3312,1747)"/>
<path d="M0 0 C0.87566116 -0.00701431 1.75132233 -0.01402863 2.65351868 -0.02125549 C5.47870042 -0.0387237 8.30367241 -0.04511184 11.12890625 -0.046875 C12.57710754 -0.04788712 12.57710754 -0.04788712 14.05456543 -0.04891968 C29.14185887 -0.03216576 43.80729227 0.52377163 58.69140625 3.203125 C60.08601074 3.44458252 60.08601074 3.44458252 61.50878906 3.69091797 C104.21948668 11.31730497 143.40789023 30.16094197 174.69140625 60.203125 C175.26036621 60.74485352 175.82932617 61.28658203 176.41552734 61.84472656 C184.67871752 69.74904014 192.07691508 77.87422231 198.69140625 87.203125 C199.0874707 87.74952637 199.48353516 88.29592773 199.89160156 88.85888672 C224.81324233 123.43440523 237.89286588 166.03831985 241.69140625 208.203125 C241.77425464 209.08216775 241.85710302 209.9612105 241.94246197 210.86689091 C242.99464822 223.98324772 242.85569617 237.12434673 242.86610806 250.27427685 C242.8700571 253.94087459 242.87963033 257.60745887 242.88832092 261.27404785 C242.90793793 270.09399988 242.91812409 278.91395281 242.92704871 287.73392114 C242.93056491 291.06058237 242.93471035 294.38724268 242.93888837 297.71390314 C242.95732543 312.39499156 242.97308083 327.07608001 242.98078632 341.75717831 C242.98269584 345.33689818 242.98461625 348.91661804 242.98657227 352.49633789 C242.98705601 353.38593193 242.98753975 354.27552597 242.98803815 355.19207741 C242.9963567 369.63521207 243.02173721 384.07826442 243.05415294 398.52136307 C243.08721673 413.37476122 243.10523371 428.22811742 243.10843056 443.08155257 C243.11059426 451.41168418 243.11932452 459.74169505 243.14489174 468.0717907 C243.16658782 475.15620708 243.17465384 482.24047325 243.16492496 489.3249191 C243.1603796 492.93718226 243.16228062 496.54913532 243.1816864 500.16135597 C243.20255353 504.07933334 243.1923369 507.99688317 243.17915344 511.91490173 C243.19560731 513.6213631 243.19560731 513.6213631 243.21239358 515.36229843 C243.16048654 521.74523192 242.58875116 526.9613131 238.69140625 532.203125 C233.28414887 536.50686047 229.37071216 537.3287015 222.57714844 537.36425781 C221.85643661 537.36922272 221.13572479 537.37418762 220.39317322 537.37930298 C218.0081995 537.39391013 215.62329236 537.40072501 213.23828125 537.40625 C211.57781981 537.4120037 209.91735838 537.4177614 208.25689697 537.42352295 C204.77331229 537.43402955 201.28975065 537.4398741 197.80615234 537.44335938 C193.35304938 537.44883612 188.90025341 537.47284791 184.44724655 537.50133133 C181.01561611 537.52000351 177.58405884 537.52516579 174.1523819 537.52669525 C172.51140926 537.52971319 170.87043765 537.5377126 169.22951508 537.55088043 C166.92719049 537.56803335 164.62560564 537.5660383 162.32324219 537.55957031 C161.01546814 537.56321594 159.70769409 537.56686157 158.36029053 537.57061768 C153.63246457 537.09705643 149.62706634 535.8697023 145.94921875 532.703125 C142.69487228 528.3939214 141.56724916 525.54558965 141.56112099 520.20742989 C141.55749664 519.16938874 141.55387229 518.1313476 141.55013812 517.06185067 C141.55174049 515.34551849 141.55174049 515.34551849 141.55337524 513.59451294 C141.55055396 512.38170084 141.54773268 511.16888874 141.54482591 509.91932476 C141.5379178 506.54615873 141.53545294 503.17304084 141.53477478 499.79987121 C141.53293656 496.16349018 141.52532989 492.5271211 141.51829529 488.89074707 C141.50675957 482.58350905 141.49851988 476.27627372 141.49217606 469.96902847 C141.48184245 459.98233535 141.4612732 449.99567543 141.4390564 440.00900269 C141.43157584 436.58973133 141.42416209 433.17045983 141.41676903 429.75118828 C141.41491846 428.89650921 141.4130679 428.04183014 141.41116125 427.1612517 C141.39022351 417.42635204 141.37140456 407.69144868 141.35351562 397.95654297 C141.35187744 397.06656356 141.35023926 396.17658415 141.34855144 395.25963567 C141.32234075 380.87953079 141.30365798 366.49942336 141.28692372 352.11930479 C141.26944258 337.33512631 141.24052763 322.5509976 141.20203435 307.76685894 C141.17874876 298.66211491 141.16465014 289.55745211 141.16270672 280.45267807 C141.16058128 274.19413888 141.14751949 267.93568 141.12622739 261.67717697 C141.1143161 258.077634 141.10696671 254.47825028 141.11293983 250.87868881 C141.17665461 206.37587732 131.43406765 168.85235717 99.94140625 136.140625 C74.15922624 111.07131632 40.01716293 97.8375332 4.25390625 96.953125 C-33.31009163 97.92806846 -68.78514747 112.26088747 -95.30859375 139.203125 C-118.42030731 164.87842453 -132.47869406 196.78476105 -132.44662476 231.53881836 C-132.45085668 233.40248126 -132.45085668 233.40248126 -132.45517409 235.30379391 C-132.46205317 238.74055719 -132.46454486 242.17727317 -132.46522522 245.6140399 C-132.46707036 249.32506634 -132.47468015 253.03608122 -132.48170471 256.74710083 C-132.49321367 263.17434545 -132.50146657 269.60158746 -132.50782394 276.02883911 C-132.51816358 286.18843305 -132.5387296 296.34799444 -132.5609436 306.50756836 C-132.56842261 309.98524465 -132.57583641 313.46292107 -132.58323097 316.94059753 C-132.58508154 317.80961577 -132.5869321 318.678634 -132.58883875 319.57398611 C-132.60975264 329.45915165 -132.62858838 339.34432076 -132.64648438 349.22949219 C-132.64812256 350.13284439 -132.64976074 351.0361966 -132.65144856 351.96692312 C-132.67774923 366.6148927 -132.69638573 381.2628648 -132.71307628 395.91084802 C-132.73049501 410.95498819 -132.7593353 425.99907887 -132.79796565 441.04317951 C-132.82136129 450.32020271 -132.83535982 459.59714526 -132.83729328 468.8741982 C-132.83940217 475.229779 -132.85232725 481.58527951 -132.87377261 487.94082427 C-132.88580203 491.60751948 -132.89295265 495.27405529 -132.88706017 498.9407692 C-132.88078551 502.91643108 -132.89758433 506.89180597 -132.91659546 510.86743164 C-132.91106576 512.02511519 -132.90553607 513.18279875 -132.89983881 514.37556362 C-132.96270707 521.97516934 -133.64994213 527.05472177 -138.68359375 533.015625 C-143.43988326 536.97919959 -147.71654666 537.49968742 -153.75756836 537.4777832 C-154.4899321 537.48289413 -155.22229584 537.48800507 -155.97685242 537.49327087 C-158.38829815 537.50712613 -160.79945679 537.50621325 -163.2109375 537.50390625 C-164.8933574 537.50779533 -166.57577632 537.51213044 -168.25819397 537.51689148 C-171.78112982 537.52434487 -175.30396543 537.52406875 -178.8269043 537.51879883 C-183.33388175 537.51300436 -187.84044823 537.52993876 -192.34735775 537.5531435 C-195.82099289 537.56789913 -199.29452945 537.56875008 -202.76819038 537.56563377 C-204.4295184 537.56614603 -206.09085207 537.57136587 -207.75214958 537.58144569 C-210.07844374 537.593829 -212.40394249 537.58700776 -214.73022461 537.57543945 C-215.41145386 537.58308319 -216.09268311 537.59072693 -216.79455566 537.59860229 C-222.01065545 537.54147899 -226.0999372 536.26488753 -229.953125 532.66796875 C-233.91599525 527.48575381 -234.45483445 524.61532779 -234.44281483 518.21195602 C-234.44516706 517.37232419 -234.44751929 516.53269236 -234.4499428 515.66761714 C-234.45665754 512.82338162 -234.45617383 509.97919153 -234.45576477 507.13494873 C-234.45906185 505.08747228 -234.46278709 503.03999648 -234.46690625 500.99252152 C-234.47695201 495.34204075 -234.48064717 489.69157059 -234.48329556 484.04108214 C-234.48719098 477.95641485 -234.4967698 471.87175602 -234.50550842 465.78709412 C-234.5243586 451.7763547 -234.53453193 437.76561609 -234.5429691 423.75486766 C-234.54717325 416.83410471 -234.55239555 409.91334264 -234.55765363 402.99258043 C-234.57554496 379.31088077 -234.59054194 355.62918085 -234.59797382 331.94747543 C-234.59844858 330.4602803 -234.59892447 328.97308517 -234.59940149 327.48589005 C-234.59963786 326.74836099 -234.59987424 326.01083193 -234.60011778 325.25095351 C-234.601319 321.51414479 -234.60253444 317.77733606 -234.60375977 314.04052734 C-234.60399992 313.29894085 -234.60424007 312.55735436 -234.60448749 311.79329555 C-234.61238241 287.74317743 -234.63581761 263.6931086 -234.66831571 239.64301201 C-234.70259662 214.22723757 -234.72232334 188.81149197 -234.72561806 163.39569402 C-234.72603562 160.6067856 -234.72651518 157.81787721 -234.72704124 155.02896881 C-234.72716444 154.34224056 -234.72728763 153.65551231 -234.72741455 152.94797411 C-234.72974873 141.88608856 -234.7454208 130.82426015 -234.76588309 119.76239498 C-234.78611702 108.64782517 -234.79129592 97.53330932 -234.78211246 86.41872063 C-234.77755273 80.3947504 -234.77955088 74.3709661 -234.7988739 68.3470211 C-234.81639909 62.83612084 -234.81559484 57.32554362 -234.79997661 51.81464043 C-234.79758428 49.81729458 -234.80200744 47.81992697 -234.81380526 45.82261452 C-234.82881857 43.11389917 -234.81932524 40.40634415 -234.80357838 37.69765854 C-234.81380058 36.91663263 -234.82402279 36.13560672 -234.83455476 35.33091336 C-234.76831822 30.13409667 -233.58236618 27.21000379 -230.30859375 23.203125 C-225.40440534 18.92706144 -221.49481062 18.61043064 -215.28125 18.671875 C-214.41527695 18.6680481 -213.54930389 18.66422119 -212.65708923 18.66027832 C-210.82566159 18.65756362 -208.99419488 18.66489388 -207.1628418 18.68164062 C-204.41037294 18.70282272 -201.66058499 18.68194779 -198.90820312 18.65625 C-179.94755442 18.62593661 -162.65439619 22.36447267 -148.49609375 35.91015625 C-145.40858117 39.14653105 -142.72054745 42.43682506 -140.30859375 46.203125 C-139.93089844 46.76902344 -139.55320312 47.33492187 -139.1640625 47.91796875 C-135.24048762 54.63360067 -134.52046179 62.63813055 -133.30859375 70.203125 C-132.85871094 69.54828125 -132.40882813 68.8934375 -131.9453125 68.21875 C-123.76953049 56.61864246 -114.66988621 46.77711371 -103.30859375 38.203125 C-102.78426758 37.80383789 -102.25994141 37.40455078 -101.71972656 36.99316406 C-72.9821893 15.24904993 -36.37065542 0.19498997 0 0 Z " fill="#2D3B53" transform="translate(2548.30859375,1690.796875)"/>
<path d="M0 0 C3.35910643 4.66809919 4.82229513 9.24393411 4 15 C1.67625997 20.75299359 -1.74500977 25.75876343 -5.375 30.75 C-6.44585545 32.24440275 -7.5161443 33.73921164 -8.5859375 35.234375 C-9.1437793 36.01103516 -9.70162109 36.78769531 -10.27636719 37.58789062 C-13.21662831 41.70259032 -16.10531544 45.85318117 -19 50 C-20.17566996 51.67716135 -21.3514508 53.35424499 -22.52734375 55.03125 C-24.82595224 58.31295566 -27.10813045 61.60523323 -29.37890625 64.90625 C-30.44008807 66.43751116 -31.50128526 67.96876166 -32.5625 69.5 C-33.27696289 70.54994141 -33.27696289 70.54994141 -34.00585938 71.62109375 C-37.28907039 76.33808255 -40.36835985 80.12278662 -46 82 C-54.47827054 83.24307319 -59.69793253 80.53474646 -66.6875 76 C-68.63419548 74.79749997 -70.58211487 73.59697906 -72.53125 72.3984375 C-73.4696875 71.81288086 -74.408125 71.22732422 -75.375 70.62402344 C-112.9698734 47.36499276 -160.71020225 41.15723744 -203.6875 50.6875 C-216.31518516 53.73480086 -227.75272645 58.98923456 -238 67 C-238.886875 67.598125 -239.77375 68.19625 -240.6875 68.8125 C-248.80668489 76.49281003 -254.9134475 87.83497642 -255.23828125 99.16015625 C-255.58860149 114.53340208 -252.97345595 124.33304512 -242.33203125 135.796875 C-222.45695782 154.92608475 -191.24591389 160.38581763 -165.55749512 167.30993652 C-53.02181903 197.67431898 -53.02181903 197.67431898 -14 231 C-13.16984375 231.70769531 -12.3396875 232.41539062 -11.484375 233.14453125 C13.76588045 255.25786846 29.61937167 286.37913555 32 320 C32.74768832 336.6916967 33.15215242 353.71107597 29 370 C28.80664062 370.78165527 28.61328125 371.56331055 28.4140625 372.36865234 C18.23648455 412.36433484 -8.55999296 445.19879455 -43.53662109 466.54833984 C-106.49861378 503.80679126 -183.83700718 504.81832798 -253.375 487.75 C-273.97833337 482.4607034 -293.89544479 475.35130807 -313 466 C-313.95696777 465.5364209 -314.91393555 465.0728418 -315.89990234 464.59521484 C-363.28022372 441.447519 -363.28022372 441.447519 -370 427 C-371.65001619 419.81064373 -370.32597505 414.78549082 -366.47753906 408.5222168 C-364.5914705 405.73117712 -362.65199554 402.98639402 -360.6875 400.25 C-359.97980469 399.24936523 -359.27210937 398.24873047 -358.54296875 397.21777344 C-357.0818582 395.15199794 -355.61748681 393.08852504 -354.14990234 391.02734375 C-351.50361568 387.30102593 -348.88978272 383.55276521 -346.27832031 379.80200195 C-343.53101827 375.85945003 -340.76730521 371.92852775 -338 368 C-337.57187012 367.3910791 -337.14374023 366.7821582 -336.70263672 366.15478516 C-327.24867132 352.74955711 -327.24867132 352.74955711 -322 351 C-312.98543413 349.49472145 -307.32779421 353.12120647 -300 358 C-268.57721605 378.40812068 -234.20833398 392.49043431 -197 398 C-196.22317871 398.11569336 -195.44635742 398.23138672 -194.64599609 398.35058594 C-161.81433474 403.00432721 -125.08315196 400.91653712 -97.23828125 381.02734375 C-94.74608298 379.09393433 -92.36168985 377.08999101 -90 375 C-89.36449219 374.45859375 -88.72898437 373.9171875 -88.07421875 373.359375 C-78.13776603 364.28217207 -72.80787885 351.26039623 -71.9453125 337.984375 C-72.16511537 325.98941822 -76.13166985 316.4434478 -84.15234375 307.63671875 C-106.76992268 285.84707116 -141.89320868 277.76354351 -171.35159302 270.35534668 C-176.80094691 268.98306471 -182.24161341 267.57696261 -187.68359375 266.17578125 C-188.75165756 265.90148285 -189.81972137 265.62718445 -190.92015076 265.34457397 C-227.309233 255.98781906 -265.01115556 246.18106336 -296 224 C-297.04027344 223.26136719 -298.08054687 222.52273438 -299.15234375 221.76171875 C-305.81578205 216.89648448 -312.0147389 211.67352875 -318 206 C-318.50144531 205.5364209 -319.00289062 205.0728418 -319.51953125 204.59521484 C-328.47479394 196.2854501 -335.59733905 187.40079553 -342 177 C-342.37495605 176.39462402 -342.74991211 175.78924805 -343.13623047 175.16552734 C-361.78144403 144.41654001 -364.43667782 105.79050958 -356.36572266 71.28857422 C-346.4406491 31.56720765 -322.57700551 0.59524686 -287.6652832 -20.59838867 C-207.04141057 -67.88673644 -72.53126675 -62.86858534 0 0 Z " fill="#2D3B53" transform="translate(1529,1740)"/>
</svg>
