<?xml version="1.0" encoding="UTF-8"?>
<svg version="1.1" xmlns="http://www.w3.org/2000/svg" width="512" height="512">
<path d="M0 0 C1.21623047 0.66515625 1.21623047 0.66515625 2.45703125 1.34375 C3.98095203 2.1906462 5.49452854 3.05670243 6.9921875 3.94921875 C10.96634242 6.02907804 14.74349014 6.11454269 19.19335938 6.23852539 C32.35773012 6.64957283 42.50076704 9.25719696 52 19 C55.05052244 23.1387205 57.62314084 27.52069067 60.1171875 32.01171875 C63.3116889 37.19986884 67.81184208 39.41967233 73.0625 42.328125 C82.20233135 47.53005029 87.65084486 55.01240781 90.8125 65.0625 C92.02131688 69.93945087 92.24757028 74.6932117 92.4375 79.6875 C92.68151213 86.05954398 93.46863156 90.65957965 97 96 C103.08475147 107.04920574 104.84262121 117.33922177 101.3125 129.6875 C99.75374168 134.36934197 97.89324591 138.38357081 95.05078125 142.4140625 C92.87637124 145.69588578 92.87608875 148.82420729 92.76147461 152.64794922 C92.31306924 166.1474666 89.66676987 177.94975496 80 188 C70.94764398 195 70.94764398 195 67 195 C67.30067383 196.09723389 67.60134766 197.19446777 67.91113281 198.32495117 C70.74722448 208.67975492 73.57261653 219.0374264 76.38763428 229.39797974 C77.8351071 234.72399235 79.28629355 240.04893379 80.74609375 245.37158203 C82.15547329 250.51093173 83.55493134 255.6528899 84.94763184 260.79678345 C85.47995578 262.75606843 86.01581144 264.71439749 86.55529785 266.67172241 C87.31194185 269.41930431 88.05580901 272.17005696 88.796875 274.921875 C89.02129272 275.72532852 89.24571045 276.52878204 89.47692871 277.35658264 C90.81327864 282.38498911 91.34418648 286.79150165 91 292 C89.4375 294.0625 89.4375 294.0625 87 295 C81.92790561 294.60346963 78.20315122 293.38709735 73.7265625 291.015625 C72.5715625 290.40976562 71.4165625 289.80390625 70.2265625 289.1796875 C69.02595443 288.53662119 67.82543406 287.8933911 66.625 287.25 C65.43278462 286.6214599 64.2400792 285.99384841 63.046875 285.3671875 C56.65274242 281.99211084 50.30008627 278.54754121 44 275 C42.64479934 277.08330032 41.28983383 279.16675251 39.93530273 281.25048828 C38.76282317 283.05301797 37.58914268 284.85476703 36.41430664 286.65576172 C33.51954402 291.09833938 30.64351196 295.54958976 27.828125 300.04296875 C27.09493042 301.20421265 27.09493042 301.20421265 26.34692383 302.38891602 C25.42479264 303.85189879 24.51023386 305.3196889 23.60424805 306.79272461 C19.71443735 312.93425426 19.71443735 312.93425426 16 314 C12.98584583 313.85296809 11.55094782 313.59036487 9.47122192 311.36184692 C7.64041471 308.42273467 6.89443245 305.68855531 6.02294922 302.33544922 C5.84855316 301.6748349 5.6741571 301.01422058 5.49447632 300.33358765 C4.922698 298.15941669 4.36374373 295.98216101 3.8046875 293.8046875 C3.40866369 292.29039443 3.01176992 290.77632864 2.61404419 289.26248169 C1.57086718 285.28357934 0.53823603 281.30201829 -0.49182129 277.31970215 C-2.14473384 270.93780902 -3.81480835 264.56037756 -5.4826622 258.18237686 C-6.06427206 255.95284283 -6.64213092 253.72236403 -7.2192688 251.4916687 C-7.57338579 250.12968944 -7.92754023 248.76771991 -8.28173828 247.40576172 C-8.59023712 246.21425507 -8.89873596 245.02274841 -9.21658325 243.7951355 C-9.88421237 241.07388144 -9.88421237 241.07388144 -11 239 C-16.28 239 -21.56 239 -27 239 C-30.2182118 250.09637679 -33.35342909 261.20961019 -36.32421875 272.375 C-36.60049103 273.41035889 -36.87676331 274.44571777 -37.16140747 275.51245117 C-38.29512633 279.76331032 -39.42770617 284.01441773 -40.54907227 288.26855469 C-41.38378979 291.43094573 -42.22817143 294.59062413 -43.07421875 297.75 C-43.3242717 298.70825684 -43.57432465 299.66651367 -43.83195496 300.65380859 C-46.15401699 309.26793632 -46.15401699 309.26793632 -49 313 C-51.375 314 -51.375 314 -54 314 C-58.16414368 311.99128592 -60.11906898 309.80405012 -62.48828125 305.87890625 C-63.11283203 304.85990234 -63.73738281 303.84089844 -64.38085938 302.79101562 C-65.01830078 301.72560547 -65.65574219 300.66019531 -66.3125 299.5625 C-67.57752503 297.47931253 -68.84445528 295.39728083 -70.11328125 293.31640625 C-70.74057129 292.28531738 -71.36786133 291.25422852 -72.01416016 290.19189453 C-75.21713368 285.04366784 -78.59842264 280.0190243 -82 275 C-85.96618929 277.0428623 -89.93139398 279.08762025 -93.89575195 281.1340332 C-95.24054417 281.82789646 -96.58559004 282.52126836 -97.9309082 283.21411133 C-99.8804135 284.21822618 -101.82902443 285.22405491 -103.77734375 286.23046875 C-104.4093721 286.55606277 -105.04140045 286.8816568 -105.69258118 287.21711731 C-109.93313116 289.41280914 -114.08740606 291.72079311 -118.17626953 294.18701172 C-121.31910681 295.58803557 -123.81840178 294.97395864 -127 294 C-129 292 -129 292 -129.23577881 288.34144592 C-129.12690511 284.22413881 -128.31874743 280.51594013 -127.22753906 276.53686523 C-127.03889282 275.83802719 -126.85024658 275.13918915 -126.65588379 274.41917419 C-126.03531148 272.12959992 -125.40058403 269.84421579 -124.765625 267.55859375 C-124.32590772 265.94710772 -123.88710147 264.33537285 -123.44915771 262.72340393 C-122.29563445 258.4869367 -121.13011803 254.25386232 -119.96191406 250.02142334 C-118.78791374 245.76033764 -117.6247351 241.49630324 -116.4609375 237.23242188 C-115.14488452 232.41290829 -113.82781585 227.59369463 -112.50250244 222.77671814 C-109.95836975 213.52902706 -107.45612536 204.27149711 -105 195 C-105.94238525 194.69763428 -106.88477051 194.39526855 -107.85571289 194.08374023 C-117.08625252 190.90225367 -122.74907404 183.47874906 -127 175 C-129.6805812 168.55477902 -130.1401763 162.31715915 -130.375 155.4375 C-130.63054561 148.16280907 -132.19428488 143.26888934 -136 137 C-136.77652666 135.40850478 -137.52760614 133.80428626 -138.25 132.1875 C-138.56453125 131.50042969 -138.8790625 130.81335938 -139.203125 130.10546875 C-143.11614439 119.76665772 -141.33975529 108.8618157 -137 99 C-135.77504569 96.7886726 -134.49234092 94.69640411 -133.05078125 92.62109375 C-130.89310084 89.29233029 -130.85354944 86.1125537 -130.71020508 82.25024414 C-130.19056169 68.52659621 -127.79441064 56.04457224 -117.3125 46.25 C-114.19803174 43.67951756 -110.98514 41.91782394 -107.375 40.125 C-101.55940649 37.09321191 -99.21231995 33.56279797 -96 28 C-89.92290044 18.54525648 -82.91552962 10.77254547 -71.81640625 7.4765625 C-67.13224143 6.68395764 -62.3928471 6.53715466 -57.64648438 6.46533203 C-49.8704629 6.26061084 -43.95515093 3.73143074 -37.25 -0.125 C-26.3350576 -6.39329549 -10.96789882 -6.14359862 0 0 Z M-36 14 C-37.61332161 14.77480216 -39.2382119 15.52608721 -40.875 16.25 C-41.92300781 16.72179687 -41.92300781 16.72179687 -42.9921875 17.203125 C-47.11201496 18.83823162 -50.80904201 19.09537113 -55.24511719 19.18798828 C-64.33739789 19.42490245 -71.67069963 20.2399658 -78.71875 26.53515625 C-82.36552003 30.47031881 -84.87657282 35.09942411 -87.57421875 39.70703125 C-90.7546 44.82178137 -94.86986642 47.64199477 -99.88671875 50.703125 C-107.63631183 55.45888267 -113.87859159 60.79905872 -116.55957031 69.89941406 C-117.1405854 72.67050819 -117.16025108 75.42171719 -117.23925781 78.24438477 C-117.58504048 89.48347394 -120.1893013 97.32693902 -125.94921875 106.9921875 C-128.78334434 112.4075799 -128.95363056 118.75864432 -127.24609375 124.5625 C-125.72985503 128.46309844 -123.99003766 132.14012369 -121.875 135.75 C-118.53723921 141.53545204 -117.77015797 146.59540245 -117.625 153.1875 C-117.21142046 163.07610146 -115.42463007 171.87017142 -108 179 C-105.64091755 180.63323703 -103.15467807 181.96386439 -100.625 183.3125 C-92.11273023 188.14894694 -87.85405689 193.71988094 -83.0625 202.1875 C-79.03969743 209.08526548 -73.71141556 212.96923576 -66 215 C-63.10624272 215.26842706 -60.21697506 215.31475768 -57.3125 215.375 C-48.61865385 215.72313969 -41.77888858 217.37642224 -34.08984375 221.59765625 C-26.88765703 225.52865623 -21.21266013 227.89028825 -13 226 C-7.13752819 223.73807223 -1.5497493 220.88896368 3.9921875 217.93969727 C7.33078659 216.37716469 10.3488948 215.88490924 14.01171875 215.82421875 C26.05482215 215.61547488 26.05482215 215.61547488 37 211 C38.3303125 210.195625 38.3303125 210.195625 39.6875 209.375 C42.56044387 206.424409 44.36361735 203.18568588 46.4375 199.64453125 C50.97484146 191.96508083 55.40314715 187.49476703 63.0625 183 C70.73796646 178.49214487 75.17509183 174.34620985 78.109375 165.75 C79.08595146 161.6380991 79.28194971 157.88853069 79.375 153.6875 C79.66558157 146.73076759 80.75629522 141.24118774 84 135 C84.44214844 134.11441406 84.88429688 133.22882813 85.33984375 132.31640625 C86.19348081 130.61160645 87.06157679 128.91390667 87.94921875 127.2265625 C90.46867317 121.88794161 90.96104868 116.24353929 89.28125 110.57421875 C87.65319107 106.35308209 85.74884382 102.53354963 83.375 98.6875 C79.48589175 91.92643488 78.78471758 84.00288272 79.125 76.3125 C79.28658374 68.97390508 75.88628522 61.9932448 70.97265625 56.65234375 C67.55605361 53.79051619 63.65100182 51.77266069 59.76953125 49.609375 C53.29220149 45.84539776 49.98922298 40.11136717 46 34 C41.52871472 27.18951371 36.85880414 22.61960138 29 20 C26.94867523 19.8884476 24.89687517 19.7812985 22.84375 19.71020508 C11.36147894 19.30361898 2.91811865 17.62132215 -6.87109375 11.3046875 C-16.22016577 5.57516447 -27.33189968 8.85468581 -36 14 Z M-95 209 C-97.22096581 217.1611672 -99.43786864 225.3234224 -101.64957428 233.48710346 C-102.67665393 237.27767539 -103.70513582 241.06785522 -104.73681641 244.85717773 C-105.73214838 248.51319609 -106.72380453 252.17019313 -107.71290588 255.82790184 C-108.09116007 257.22411877 -108.4707437 258.61997623 -108.85166931 260.01546669 C-109.3844349 261.9680986 -109.91206401 263.92212979 -110.43945312 265.8762207 C-110.7414563 266.9887471 -111.04345947 268.1012735 -111.35461426 269.24751282 C-112.11414119 272.01560784 -112.11414119 272.01560784 -112 275 C-108.24315679 273.58380107 -104.80029227 271.86909428 -101.2890625 269.92578125 C-100.20882812 269.34119141 -99.12859375 268.75660156 -98.015625 268.15429688 C-95.75629191 266.92702089 -93.50361435 265.68741206 -91.2578125 264.43554688 C-86.75751168 262.02199269 -83.16838135 260.11209989 -78.05078125 259.62109375 C-73.5945437 261.63524465 -71.95968825 264.6046303 -69.5625 268.75 C-69.09803467 269.51046631 -68.63356934 270.27093262 -68.1550293 271.05444336 C-67.20887684 272.60773335 -66.27237906 274.16694606 -65.34570312 275.73193359 C-63.7275904 278.45912286 -62.05641801 281.15081923 -60.38061523 283.84277344 C-58.90474753 286.21900478 -57.45138073 288.60875667 -56 291 C-54.38340099 288.00404061 -53.36760483 285.10110715 -52.47192383 281.82006836 C-52.18855667 280.78897446 -51.90518951 279.75788055 -51.61323547 278.69554138 C-51.31418808 277.58816116 -51.01514069 276.48078094 -50.70703125 275.33984375 C-50.39674484 274.19842422 -50.08645844 273.0570047 -49.76676941 271.8809967 C-49.1131601 269.4700248 -48.46187476 267.05842184 -47.81274414 264.64624023 C-46.81474577 260.94582696 -45.80323234 257.24927998 -44.79101562 253.55273438 C-44.15802322 251.21116197 -43.52583422 248.8693722 -42.89453125 246.52734375 C-42.58941116 245.4179393 -42.28429108 244.30853485 -41.96992493 243.16551208 C-41.69601425 242.13757034 -41.42210358 241.1096286 -41.13989258 240.05053711 C-40.89499588 239.14548935 -40.65009918 238.24044159 -40.39778137 237.30796814 C-39.78704865 234.85091362 -39.78704865 234.85091362 -41 232 C-46.24428622 227.85601362 -52.49686778 227.69315687 -58.875 227.5 C-71.65870987 227.10522246 -81.04547918 223.41372702 -90 214 C-91.66421389 212.33088416 -93.33055787 210.66388658 -95 209 Z M56 209 C52.38563061 212.50028135 52.38563061 212.50028135 51 217 C50.41605469 217.27972656 49.83210938 217.55945313 49.23046875 217.84765625 C47.14121992 218.9270405 45.26126866 220.12606449 43.3125 221.4375 C35.1609011 226.47100096 28.08277637 227.1708551 18.68652344 227.4440918 C12.17630698 227.74205625 7.49748814 229.47811229 2 233 C4.94101556 245.94110873 8.27996995 258.75417316 11.75 271.5625 C12.26196709 273.46021948 12.77368719 275.35800561 13.28515625 277.25585938 C14.52060293 281.83800986 15.75934853 286.41925614 17 291 C19.49420104 287.95417107 21.7918752 284.90624671 23.875 281.56640625 C24.64070313 280.3453418 24.64070313 280.3453418 25.421875 279.09960938 C26.20304687 277.84374023 26.20304687 277.84374023 27 276.5625 C28.53831442 274.10081616 30.07777904 271.64057794 31.63671875 269.19189453 C32.47016485 267.8518732 33.27305562 266.49142083 34.01953125 265.10107422 C34.9375 263.46484375 34.9375 263.46484375 37 261 C42.63847196 259.49209177 46.08701051 260.43129406 51.02734375 263.18359375 C51.66112442 263.51794937 52.29490509 263.85230499 52.94789124 264.1967926 C54.95399993 265.26013323 56.94542627 266.3481336 58.9375 267.4375 C60.30184024 268.16638966 61.6670676 268.8936214 63.03320312 269.61914062 C66.3660381 271.39374423 69.68594925 273.19057714 73 275 C74.24835585 271.25493244 73.5885723 269.66331916 72.55297852 265.8762207 C72.2125502 264.61513992 71.87212189 263.35405914 71.52137756 262.05476379 C71.14073331 260.67838662 70.7599052 259.30206028 70.37890625 257.92578125 C69.99559798 256.51779322 69.61303418 255.10960233 69.23118591 253.70121765 C68.22426343 249.99528281 67.20724044 246.29219309 66.18811035 242.58959961 C65.14990757 238.81074406 64.12125196 235.02929296 63.09179688 231.24804688 C61.07054849 223.82945356 59.0386257 216.41383918 57 209 C56.67 209 56.34 209 56 209 Z " fill="#000000" transform="translate(275,8)"/>
<path d="M0 0 C7.95536546 7.17923224 10.10044056 15.5138383 10.72265625 26.015625 C12.18774039 78.75865398 -8.50440789 154.17546584 -44.88476562 193.68261719 C-52.42591676 201.59845445 -60.9205875 208.48428567 -69.4375 215.3125 C-92.22194748 232.87527015 -92.22194748 232.87527015 -103.4375 258.3125 C-102.53 258.869375 -101.6225 259.42625 -100.6875 260 C-96.59972953 262.90860591 -94.03248566 265.52754302 -92.4375 270.3125 C-92.30544725 272.74372766 -92.22547451 275.14555699 -92.19921875 277.578125 C-92.18711113 278.64555939 -92.18711113 278.64555939 -92.17475891 279.73455811 C-92.16093952 281.24082011 -92.15020778 282.74711315 -92.14233398 284.25341797 C-92.13083105 285.78573859 -92.11040565 287.31801968 -92.08081055 288.85009766 C-92.03790235 291.0722151 -92.02193299 293.29314345 -92.01171875 295.515625 C-91.99421066 296.19191956 -91.97670258 296.86821411 -91.95866394 297.56500244 C-91.98301388 302.97898817 -93.48590313 305.93931357 -96.4375 310.3125 C-100.5856551 314.15713156 -103.64089357 315.43184746 -109.23762512 315.45967102 C-110.72010994 315.47040398 -110.72010994 315.47040398 -112.23254395 315.48135376 C-113.31571899 315.48404266 -114.39889404 315.48673157 -115.51489258 315.48950195 C-116.65661423 315.49607315 -117.79833588 315.50264435 -118.97465515 315.50941467 C-122.76044782 315.52915797 -126.54620082 315.5408118 -130.33203125 315.55078125 C-132.2694346 315.55689454 -132.2694346 315.55689454 -134.2459774 315.56313133 C-140.37556359 315.58184342 -146.50512986 315.59640915 -152.63473874 315.6047433 C-159.70452324 315.6145152 -166.77399459 315.6408359 -173.84366876 315.68124419 C-179.97165205 315.71506526 -186.09950386 315.72689006 -192.2275753 315.73094749 C-194.832304 315.73582435 -197.43702909 315.74746938 -200.04169655 315.76598549 C-203.68536061 315.79028028 -207.32820391 315.78942916 -210.97192383 315.7824707 C-212.04902618 315.79528076 -213.12612854 315.80809082 -214.23587036 315.82128906 C-221.39804287 315.77139572 -224.89944965 314.74970331 -230.08203125 309.71484375 C-235.26926456 303.20911636 -234.65609094 297.11698954 -234.67773438 289.17114258 C-234.68741906 287.01799579 -234.71844452 284.86581268 -234.75 282.71289062 C-234.75653289 281.33333897 -234.76178224 279.95378052 -234.765625 278.57421875 C-234.7749707 277.32600342 -234.78431641 276.07778809 -234.79394531 274.79174805 C-234.13906546 268.39949271 -231.17810569 264.47498305 -226.4375 260.3125 C-225.11927374 259.6164384 -223.78813821 258.94337135 -222.4375 258.3125 C-222.45844727 257.39138428 -222.47939453 256.47026855 -222.50097656 255.52124023 C-222.5701056 252.02650487 -222.61975292 248.53251986 -222.65722656 245.03735352 C-222.67705498 243.53918832 -222.70412655 242.04109737 -222.73925781 240.54321289 C-223.36936409 212.938998 -211.39923846 189.47254 -192.7265625 169.64453125 C-190.31210336 167.1847495 -187.88013035 164.74432225 -185.4375 162.3125 C-184.90511719 161.75860596 -184.37273437 161.20471191 -183.82421875 160.6340332 C-179.84999109 156.54091362 -175.7442139 153.06639187 -171.0625 149.8125 C-170.34843994 149.31186035 -169.63437988 148.8112207 -168.89868164 148.29541016 C-158.42792712 141.08762472 -147.37180036 134.7815131 -136.4375 128.3125 C-124.84578859 121.45233318 -114.75805973 114.00216454 -104.80859375 104.91015625 C-104.02613281 104.19730469 -103.24367188 103.48445313 -102.4375 102.75 C-101.7775 102.12996094 -101.1175 101.50992188 -100.4375 100.87109375 C-95.49599489 97.02019426 -90.529103 96.83556156 -84.4609375 96.91796875 C-79.99689 97.50048658 -76.75744816 99.31090304 -73.4375 102.3125 C-73.1075 102.9725 -72.7775 103.6325 -72.4375 104.3125 C-71.7775 104.3125 -71.1175 104.3125 -70.4375 104.3125 C-55.87862531 87.36038564 -47.786077 66.08515503 -40.4375 45.3125 C-38.79107944 40.67653824 -37.13242252 36.04516575 -35.4609375 31.41818237 C-34.77061197 29.49492525 -34.0937861 27.56730964 -33.41796875 25.63891602 C-29.7844461 15.5263819 -25.66884102 6.44632889 -17.4375 -0.6875 C-11.62364524 -2.62545159 -5.51641224 -2.70805692 0 0 Z M-12.83203125 13.6171875 C-16.3030314 18.064528 -18.12112791 23.21277008 -20.125 28.4375 C-20.55361328 29.52772461 -20.98222656 30.61794922 -21.42382812 31.74121094 C-24.16286736 38.78074169 -26.71345367 45.87598807 -29.19848633 53.00854492 C-37.21705314 76.00879655 -46.80940902 96.50082134 -62.625 115.140625 C-65.55627801 118.65310469 -66.67844717 121.09933109 -67.32275391 125.60498047 C-70.08735278 144.65346865 -81.58791351 156.96357648 -96.4375 168.3125 C-97.01838379 168.75770996 -97.59926758 169.20291992 -98.19775391 169.66162109 C-121.11371188 187.13088761 -121.11371188 187.13088761 -127.6875 186.25 C-128.595 185.940625 -129.5025 185.63125 -130.4375 185.3125 C-131.1875 182.0625 -131.1875 182.0625 -131.4375 178.3125 C-128.37125009 174.37470619 -124.09810977 172.13835475 -119.875 169.625 C-112.89946537 165.36016127 -106.58238917 160.72542443 -100.4375 155.3125 C-99.40645026 154.43856577 -98.37519235 153.56487708 -97.34375 152.69140625 C-88.16096525 144.77433373 -80.95779153 136.64539131 -79.44921875 124.1875 C-79.43166946 119.88207422 -80.25159664 116.04779846 -82.4375 112.3125 C-85.51225245 110.26266503 -86.83743159 109.81592524 -90.4375 110.4609375 C-94.00903961 111.9816321 -96.27443541 114.94411202 -98.8984375 117.73046875 C-110.83022642 129.86418025 -126.63090471 138.21720918 -141.22265625 146.6796875 C-151.52348872 152.65613039 -161.34103549 158.59122915 -170.4375 166.3125 C-171.39785156 167.12203125 -172.35820312 167.9315625 -173.34765625 168.765625 C-179.79506978 174.40600327 -185.25988777 180.49777609 -190.4375 187.3125 C-191.04207031 188.08980469 -191.64664063 188.86710938 -192.26953125 189.66796875 C-207.86644995 210.68684114 -211.28292553 231.70367025 -208.4375 257.3125 C-178.4075 257.3125 -148.3775 257.3125 -117.4375 257.3125 C-116.01890812 252.35824818 -116.01890812 252.35824818 -114.6484375 247.390625 C-109.5854421 230.26161252 -95.9757556 219.06683262 -82.4375 208.3125 C-78.75269325 205.33421962 -75.08953116 202.33086748 -71.4375 199.3125 C-70.61113037 198.63380859 -70.61113037 198.63380859 -69.76806641 197.94140625 C-25.48508276 161.43669591 -8.77971394 96.05596965 -2.71484375 40.89453125 C-1.47986752 26.38426716 -1.47986752 26.38426716 -5.875 12.8125 C-8.7387806 10.06327063 -10.19435429 11.07847721 -12.83203125 13.6171875 Z M-220.4375 272.3125 C-222.55131704 276.54013409 -221.6668903 282.105088 -221.6875 286.75 C-221.708125 287.90822266 -221.72875 289.06644531 -221.75 290.25976562 C-221.75515625 291.36900391 -221.7603125 292.47824219 -221.765625 293.62109375 C-221.7749707 294.64001709 -221.78431641 295.65894043 -221.79394531 296.70874023 C-221.64829986 299.32993536 -221.64829986 299.32993536 -220.10449219 301.10571289 C-217.19944754 303.2087644 -214.58877512 303.4394708 -211.12417603 303.45294189 C-209.80359947 303.46150711 -209.80359947 303.46150711 -208.4563446 303.47024536 C-207.01156487 303.47192215 -207.01156487 303.47192215 -205.53759766 303.47363281 C-204.52106613 303.47859772 -203.50453461 303.48356262 -202.4571991 303.48867798 C-199.08864672 303.50330365 -195.72014143 303.51010197 -192.3515625 303.515625 C-190.01370238 303.5213757 -187.67584227 303.52713345 -185.33798218 303.53289795 C-180.43365255 303.54340881 -175.52933931 303.54925106 -170.625 303.55273438 C-164.33777876 303.55822211 -158.05077375 303.58225595 -151.76362038 303.61070633 C-146.9338009 303.62931973 -142.10403368 303.6345376 -137.27418137 303.63607025 C-134.95611767 303.63909976 -132.63805496 303.64713827 -130.3200264 303.66025543 C-127.07858006 303.67728996 -123.83766422 303.67544192 -120.59619141 303.66894531 C-119.63705338 303.6781601 -118.67791534 303.68737488 -117.68971252 303.6968689 C-112.85490751 303.66647946 -109.26975249 303.63449167 -105.4375 300.3125 C-104.683143 297.47486371 -104.683143 297.47486371 -104.80859375 294.21875 C-104.80666016 293.02378906 -104.80472656 291.82882812 -104.80273438 290.59765625 C-104.83850586 288.72400391 -104.83850586 288.72400391 -104.875 286.8125 C-104.85856445 284.93884766 -104.85856445 284.93884766 -104.84179688 283.02734375 C-104.8376981 278.14068154 -104.8376981 278.14068154 -105.4375 273.3125 C-108.23444952 270.67726952 -110.1469455 269.93745972 -113.95373535 269.9382782 C-114.85376785 269.93126389 -115.75380035 269.92424957 -116.68110657 269.91702271 C-117.66097031 269.92466644 -118.64083405 269.93231018 -119.65039062 269.94018555 C-120.68818161 269.93653488 -121.7259726 269.93288422 -122.79521179 269.92912292 C-126.22822393 269.92101204 -129.66076488 269.93463241 -133.09375 269.94921875 C-135.47741699 269.94973729 -137.86108441 269.94921983 -140.24475098 269.94770813 C-145.24151998 269.94779788 -150.23812773 269.95823276 -155.23486328 269.97631836 C-161.64431783 269.99900543 -168.05353668 269.99954984 -174.46302032 269.99280071 C-179.38545837 269.98946146 -184.30784255 269.99609004 -189.23027039 270.00592995 C-191.59380308 270.00978298 -193.95734177 270.01092974 -196.32087708 270.0093441 C-199.62223761 270.00897383 -202.9232944 270.02158342 -206.22460938 270.0378418 C-207.20447311 270.03536438 -208.18433685 270.03288696 -209.19389343 270.03033447 C-210.09392593 270.03741928 -210.99395844 270.04450409 -211.92126465 270.05180359 C-212.701437 270.05385646 -213.48160934 270.05590933 -214.28542328 270.05802441 C-216.74151451 270.34844866 -218.34380081 271.00857245 -220.4375 272.3125 Z " fill="#000000" transform="translate(494.4375,192.6875)"/>
<path d="M0 0 C8.31527653 3.14132669 12.66415482 12.39303029 16.14144897 19.99508667 C19.32461754 27.4285145 21.80378509 35.1723842 24.4375 42.8125 C29.74138326 58.19552353 35.33853025 73.07247348 43.4375 87.25 C43.99546265 88.23323242 43.99546265 88.23323242 44.56469727 89.23632812 C47.93911687 95.07856422 51.52309592 100.93261697 56 106 C56.66 106 57.32 106 58 106 C58.78375 105.21625 59.5675 104.4325 60.375 103.625 C64.36750734 99.63249266 67.11952691 98.69793359 72.75 98.625 C82.96378221 98.87230708 87.25788241 103.11525953 94.15625 110.2421875 C105.72997154 121.46615372 120.3113656 129.13880505 134.08740234 137.27539062 C151.69613363 147.701885 168.95209639 158.95570934 182 175 C183.15822266 176.40185547 183.15822266 176.40185547 184.33984375 177.83203125 C197.32189875 193.87686992 208.254337 213.57775289 208.09765625 234.70703125 C208.09553383 235.79512337 208.09553383 235.79512337 208.09336853 236.90519714 C208.08779931 239.2076745 208.07525261 241.51005235 208.0625 243.8125 C208.05748102 245.37955588 208.05291881 246.9466133 208.04882812 248.51367188 C208.03783998 252.34248589 208.02059673 256.17122611 208 260 C209.10601562 260.598125 210.21203125 261.19625 211.3515625 261.8125 C215.56516903 264.09118698 218.06506884 267.17078668 219.58886719 271.78198242 C220.59095917 277.18816155 220.22856452 282.83305658 220.25 288.3125 C220.2809375 290.27219727 220.2809375 290.27219727 220.3125 292.27148438 C220.36928301 306.23300653 220.36928301 306.23300653 215.24609375 311.9609375 C214.64925781 312.42757813 214.05242187 312.89421875 213.4375 313.375 C212.83808594 313.85710937 212.23867187 314.33921875 211.62109375 314.8359375 C208.71031901 316.92608418 206.86687344 317.12956449 203.32685852 317.14717102 C202.34135513 317.15432632 201.35585175 317.16148163 200.34048462 317.16885376 C199.25528534 317.17154266 198.17008606 317.17423157 197.05200195 317.17700195 C195.91203262 317.18357315 194.77206329 317.19014435 193.59754944 317.19691467 C189.8111261 317.2166843 186.0247425 317.22831902 182.23828125 317.23828125 C180.30137452 317.24439454 180.30137452 317.24439454 178.32533836 317.25063133 C172.19521274 317.26935401 166.0651071 317.28391532 159.93495876 317.2922433 C152.86517396 317.30200677 145.795703 317.32830088 138.72602874 317.36874419 C132.59858491 317.40259042 126.47127258 317.41439235 120.34374046 317.41844749 C117.73983827 317.42332156 115.13593962 317.4349587 112.53209877 317.45348549 C108.88613518 317.47781257 105.24099049 317.47692293 101.5949707 317.4699707 C99.98235352 317.48918579 99.98235352 317.48918579 98.3371582 317.50878906 C91.99179221 317.46471048 88.16661462 316.76534523 83 313 C78.45662186 308.09793411 77.8316269 304.21129107 77.76171875 297.734375 C77.74961113 296.66694061 77.74961113 296.66694061 77.73725891 295.57794189 C77.72343952 294.07167989 77.71270778 292.56538685 77.70483398 291.05908203 C77.69333105 289.52676141 77.67290565 287.99448032 77.64331055 286.46240234 C77.60040235 284.2402849 77.58443299 282.01935655 77.57421875 279.796875 C77.55671066 279.12058044 77.53920258 278.44428589 77.52116394 277.74749756 C77.54551876 272.3324275 79.04647169 269.37344843 82 265 C86.30769231 261 86.30769231 261 89 261 C85.8621164 240.85148426 71.04948749 229.24666894 55.65625 217.1171875 C50.3296958 212.87161048 45.15720571 208.44862906 40 204 C39.48115234 203.55785156 38.96230469 203.11570312 38.42773438 202.66015625 C-3.08178173 167.11071044 -19.04049483 96.57891461 -24.6875 44.25 C-25.61595005 31.63855352 -26.648107 16.880049 -19 6 C-13.08919174 -0.07752337 -8.20798284 -0.632301 0 0 Z M-7 13 C-13.64135813 21.3993647 -12.74503714 31.75678529 -11.69970703 41.91943359 C-5.15702886 95.76942549 9.86504687 163.1048853 53.9453125 198.515625 C57.96343102 201.78355771 61.87647715 205.16627149 65.79614258 208.55102539 C69.41501797 211.66704456 73.08541162 214.70061658 76.8125 217.6875 C91.65239285 229.79947137 97.78819088 240.75866807 103 259 C133.03 259 163.06 259 194 259 C196.9711988 232.25921079 193.45078475 211.19001742 176.625 189.75 C174.77997588 187.47386885 172.89637862 185.2333918 171 183 C170.19691406 182.03191406 169.39382812 181.06382812 168.56640625 180.06640625 C156.43699044 166.02496431 140.71339305 156.51271143 124.86546326 147.21336365 C109.30238125 138.08052824 94.73176153 129.02411524 81.64453125 116.46875 C77.71635217 112.698153 77.71635217 112.698153 72.5 112.0625 C68.97167817 112.6776538 68.97167817 112.6776538 67.125 115 C64.60773633 121.71270313 64.47384085 127.57758981 66.79296875 134.38671875 C71.95767384 145.56855598 81.29240398 154.00198639 90.9375 161.3125 C92.02708008 162.14998779 92.02708008 162.14998779 93.13867188 163.00439453 C98.84292116 167.31457254 104.77778102 171.11883359 111.08569336 174.48950195 C114.71422091 176.56777223 115.87806379 177.5532181 117 181.6640625 C117 185 117 185 116 187 C112.79204192 188.60397904 110.45313339 187.7502239 107 187 C104.32226646 185.77066721 101.89903232 184.23845417 99.4375 182.625 C98.74640137 182.18164307 98.05530273 181.73828613 97.34326172 181.28149414 C90.20949346 176.62375493 83.53857458 171.45223477 77 166 C75.6078125 164.85724609 75.6078125 164.85724609 74.1875 163.69140625 C68.07400184 158.463247 63.3667176 152.74764251 59 146 C58.57847656 145.36835938 58.15695313 144.73671875 57.72265625 144.0859375 C55.50051381 140.2789463 54.79531563 136.81655012 54.22363281 132.44970703 C52.85719427 122.54186172 48.91723307 117.16078752 42.4609375 109.734375 C27.89565945 92.44297539 20.0854005 70.48604432 12.75 49.4375 C7.21140845 29.50765277 7.21140845 29.50765277 -4 13 C-4.99 13 -5.98 13 -7 13 Z M91 275 C90.14366174 279.44903978 90.39783547 283.97824341 90.4375 288.5 C90.41365234 289.74910156 90.38980469 290.99820312 90.36523438 292.28515625 C90.36716797 293.48011719 90.36910156 294.67507813 90.37109375 295.90625 C90.37036865 297.00259766 90.36964355 298.09894531 90.36889648 299.22851562 C90.73508314 302.09972041 90.73508314 302.09972041 92.9065094 303.64994812 C97.33630547 305.58318642 101.3429136 305.4105656 106.12695312 305.37231445 C107.1437767 305.37596512 108.16060028 305.37961578 109.20823669 305.38337708 C112.56607821 305.39147646 115.92343624 305.37787714 119.28125 305.36328125 C121.61625162 305.36276257 123.95125369 305.36328057 126.28625488 305.36479187 C131.17869592 305.36470217 136.07097208 305.35427778 140.96337891 305.33618164 C147.23482431 305.31349477 153.50602882 305.31295073 159.77750397 305.31969929 C164.59875632 305.32304065 169.41995374 305.31640597 174.24119568 305.30657005 C176.55366224 305.30272068 178.86613491 305.30156875 181.17860413 305.3031559 C184.41020348 305.30352672 187.64149392 305.29090118 190.87304688 305.2746582 C192.30704079 305.27837433 192.30704079 305.27837433 193.77000427 305.28216553 C200.12554495 305.26153515 200.12554495 305.26153515 206 303 C208.10978822 298.78042357 207.18492875 293.19845541 207.1875 288.5625 C207.19974609 287.40427734 207.21199219 286.24605469 207.22460938 285.05273438 C207.22654297 283.94349609 207.22847656 282.83425781 207.23046875 281.69140625 C207.23457764 280.67248291 207.23868652 279.65355957 207.24291992 278.60375977 C207.18594162 275.76431763 207.18594162 275.76431763 205 273 C202.20033422 272.06677807 200.49859733 271.87058161 197.60401917 271.85955811 C196.70536133 271.85384796 195.80670349 271.84813782 194.8808136 271.84225464 C193.89735458 271.84113678 192.91389557 271.84001892 191.90063477 271.83886719 C190.86298981 271.83390228 189.82534485 271.82893738 188.7562561 271.82382202 C185.31796612 271.8091966 181.87972225 271.80239844 178.44140625 271.796875 C176.05631 271.79112474 173.67121377 271.78536699 171.28611755 271.77960205 C166.2834349 271.76909158 161.28076832 271.76324892 156.27807617 271.75976562 C149.86072208 271.7542748 143.44357951 271.73023422 137.02629185 271.70179367 C132.09957757 271.68319363 127.17291457 271.67796314 122.24616814 271.67642975 C119.8798297 271.67339774 117.51349227 271.66535086 115.14718819 271.65224457 C111.84088021 271.6352362 108.53509344 271.63705152 105.22875977 271.64355469 C104.24732498 271.6343399 103.2658902 271.62512512 102.25471497 271.6156311 C100.90249847 271.62398483 100.90249847 271.62398483 99.52296448 271.63250732 C98.74149331 271.63104076 97.96002214 271.6295742 97.15487003 271.6280632 C94.40174968 272.10325973 93.019878 273.09596848 91 275 Z " fill="#000000" transform="translate(32,191)"/>
<path d="M0 0 C13.34471876 -0.41645662 26.51470434 2.12257271 38.44140625 8.16015625 C39.42496094 8.65257812 40.40851563 9.145 41.421875 9.65234375 C59.79862147 19.58957535 73.42497026 36.38770523 79.83203125 56.23046875 C84.56287622 72.72938897 83.81654242 89.96378884 78.44140625 106.16015625 C77.93287109 107.72443359 77.93287109 107.72443359 77.4140625 109.3203125 C70.34796123 128.4063298 55.21469272 142.78268897 37.296875 151.73046875 C16.6802316 160.75531658 -5.06978181 161.14371717 -26.08984375 153.5703125 C-46.76898822 145.16358823 -61.82670867 129.57661588 -70.55859375 109.16015625 C-77.952331 88.41530748 -78.11292739 65.97392184 -68.82250977 45.79443359 C-65.26203521 38.51916582 -61.05161724 32.1458746 -55.55859375 26.16015625 C-54.883125 25.39316406 -54.20765625 24.62617187 -53.51171875 23.8359375 C-39.74887603 9.04339305 -19.89857742 1.24555981 0 0 Z M-47.203125 36.33203125 C-59.65434081 51.28174973 -63.66761163 69.07800735 -62.55859375 88.16015625 C-60.55911459 105.75557287 -51.04939749 120.1767394 -37.8671875 131.46484375 C-23.54698833 142.51245009 -6.81241782 147.64441984 11.18359375 145.65625 C29.9173172 142.80351274 44.81425286 134.02086187 56.75390625 119.34765625 C67.55906185 103.68337742 72.08062167 85.79703638 68.78515625 66.9765625 C65.1610185 49.47590192 55.18903144 35.19050621 40.8125 24.68359375 C11.35623592 5.75782276 -23.21867732 11.47056879 -47.203125 36.33203125 Z " fill="#000000" transform="translate(252.55859375,45.83984375)"/>
<path d="M0 0 C3.15458338 2.36759623 4.35445666 5.5888252 5.91796875 9.12890625 C6.44970703 10.32837891 6.98144531 11.52785156 7.52929688 12.76367188 C7.8012085 13.38685303 8.07312012 14.01003418 8.35327148 14.65209961 C9.18763009 16.5627979 10.03334073 18.46815483 10.88085938 20.37304688 C15 29.72284226 15 29.72284226 15 32 C16.12535156 32.04898438 17.25070312 32.09796875 18.41015625 32.1484375 C45.65050348 33.43366899 45.65050348 33.43366899 51 37 C51.875 39.3125 51.875 39.3125 52 42 C49.80019179 46.57839943 46.53566663 49.5519619 42.8125 52.875 C42.23532227 53.39876221 41.65814453 53.92252441 41.06347656 54.4621582 C37.21051038 57.94845725 33.32356455 61.39709027 29.390625 64.79296875 C28.57158034 65.50388111 27.76688674 66.23311326 27 67 C27.34046147 68.93175292 27.76195602 70.84928531 28.21484375 72.7578125 C28.48876953 73.94117188 28.76269531 75.12453125 29.04492188 76.34375 C29.6345274 78.84150993 30.22564474 81.33891353 30.81835938 83.8359375 C31.09357422 85.02703125 31.36878906 86.218125 31.65234375 87.4453125 C31.91007568 88.53344238 32.16780762 89.62157227 32.43334961 90.74267578 C33.92446906 99.31420347 33.92446906 99.31420347 31.9375 102.9375 C28.86136679 104.62441176 26.46740512 104.29306988 23 104 C20.36787993 102.91068817 18.06428822 101.43501931 15.6875 99.875 C15.03668457 99.46918701 14.38586914 99.06337402 13.71533203 98.64526367 C10.77273173 96.80695607 7.87144314 94.91468348 4.98046875 92.99609375 C4.12066406 92.44050781 3.26085937 91.88492188 2.375 91.3125 C1.64023437 90.81363281 0.90546875 90.31476563 0.1484375 89.80078125 C-2.87790659 88.67278027 -4.10395225 89.67776512 -7 91 C-8.69814192 91.89906549 -10.38007578 92.82923517 -12.046875 93.78515625 C-12.97371094 94.31560547 -13.90054688 94.84605469 -14.85546875 95.39257812 C-16.28826172 96.21918945 -16.28826172 96.21918945 -17.75 97.0625 C-18.72066406 97.61744141 -19.69132812 98.17238281 -20.69140625 98.74414062 C-25.09441568 101.02894065 -25.09441568 101.02894065 -29 104 C-35.16698656 104.45681382 -35.16698656 104.45681382 -37.9375 102.9375 C-40.58539565 98.1089844 -38.75378029 92.66484662 -37.44140625 87.65625 C-37.13912109 86.49222656 -36.83683594 85.32820313 -36.52539062 84.12890625 C-35.88162935 81.70272278 -35.21213722 79.2832261 -34.51757812 76.87109375 C-32.72628333 70.70050459 -32.72628333 70.70050459 -34.20629883 64.75805664 C-36.02338067 62.90967578 -37.86491538 61.46446078 -40 60 C-40.95003906 59.19433594 -41.90007812 58.38867188 -42.87890625 57.55859375 C-43.76449219 56.85863281 -44.65007812 56.15867188 -45.5625 55.4375 C-56.35471341 46.69387731 -56.35471341 46.69387731 -58 42.375 C-58 39.47075803 -57.86785648 38.25699325 -56 36 C-50.25701974 33.96093653 -44.54638743 33.39668265 -38.5 32.875 C-37.58863281 32.78863281 -36.67726562 32.70226562 -35.73828125 32.61328125 C-30.80340183 32.16465585 -25.95454079 31.90472037 -21 32 C-20.60941406 30.7521875 -20.21882813 29.504375 -19.81640625 28.21875 C-17.89908135 22.47240456 -15.4523678 17.00562033 -12.9375 11.5 C-12.49083984 10.4996875 -12.04417969 9.499375 -11.58398438 8.46875 C-11.15279297 7.52 -10.72160156 6.57125 -10.27734375 5.59375 C-9.88796631 4.73458984 -9.49858887 3.87542969 -9.09741211 2.99023438 C-7.00516859 -0.80419704 -3.98790006 -0.32554286 0 0 Z M-4 24 C-4.22139648 24.5347998 -4.44279297 25.06959961 -4.67089844 25.62060547 C-5.68354389 28.04473748 -6.71644747 30.45971235 -7.75 32.875 C-8.09804687 33.71675781 -8.44609375 34.55851562 -8.8046875 35.42578125 C-9.15273437 36.23144531 -9.50078125 37.03710938 -9.859375 37.8671875 C-10.17358398 38.61081543 -10.48779297 39.35444336 -10.81152344 40.12060547 C-12.29050566 42.45939043 -13.41596628 43.06120483 -16 44 C-18.19824219 44.41064453 -18.19824219 44.41064453 -20.546875 44.6328125 C-21.81337891 44.75849609 -21.81337891 44.75849609 -23.10546875 44.88671875 C-23.97816406 44.96535156 -24.85085937 45.04398438 -25.75 45.125 C-26.63816406 45.21136719 -27.52632812 45.29773438 -28.44140625 45.38671875 C-30.62702936 45.59823066 -32.81308238 45.80240227 -35 46 C-34.24976563 46.75023438 -33.49953125 47.50046875 -32.7265625 48.2734375 C-29.484375 51.515625 -26.2421875 54.7578125 -23 58 C-22.443125 58.49757812 -21.88625 58.99515625 -21.3125 59.5078125 C-19.44382953 61.63231286 -19.60269744 63.59083539 -19.6953125 66.328125 C-20.37463065 72.2852226 -21.71982196 78.14775754 -23 84 C-15.99533999 80.58065269 -15.99533999 80.58065269 -9.25 76.6875 C-5.54467862 74.76358313 -4.11366805 74.52087866 0 75 C2.93905296 76.26067998 5.63832502 77.85205648 8.375 79.5 C9.11105469 79.92925781 9.84710938 80.35851562 10.60546875 80.80078125 C12.41044544 81.85563776 14.20618718 82.92626881 16 84 C17.49294742 81.01410516 16.39417217 79.0612285 15.5625 75.875 C13.26068022 66.17523849 13.26068022 66.17523849 14 61 C15.64408165 58.86269385 16.93510594 57.65645347 19 56 C20.77708418 54.42368564 22.54745942 52.83978832 24.3125 51.25 C25.19550781 50.47140625 26.07851563 49.6928125 26.98828125 48.890625 C27.65214844 48.26671875 28.31601562 47.6428125 29 47 C29 46.67 29 46.34 29 46 C28.44538086 45.9498877 27.89076172 45.89977539 27.31933594 45.84814453 C24.79538036 45.61538326 22.27276461 45.37031964 19.75 45.125 C18.44095703 45.00705078 18.44095703 45.00705078 17.10546875 44.88671875 C16.26113281 44.80292969 15.41679687 44.71914062 14.546875 44.6328125 C13.38430176 44.52283936 13.38430176 44.52283936 12.19824219 44.41064453 C9.74521885 43.95240539 8.08712073 43.37525167 6 42 C4.81152344 40.12060547 4.81152344 40.12060547 3.859375 37.8671875 C3.51132812 37.06152344 3.16328125 36.25585938 2.8046875 35.42578125 C2.45664062 34.58402344 2.10859375 33.74226563 1.75 32.875 C1.38648438 32.02550781 1.02296875 31.17601562 0.6484375 30.30078125 C-0.24629019 28.20523482 -1.1284596 26.10527117 -2 24 C-2.66 24 -3.32 24 -4 24 Z " fill="#000000" transform="translate(259,70)"/>
<path d="M0 0 C1.9375 1.125 1.9375 1.125 3 3 C3.5625 5.875 3.5625 5.875 3 9 C-0.86811954 12.60876011 -4.88666702 15.26962345 -9.5 17.8828125 C-10.09876953 18.22375946 -10.69753906 18.56470642 -11.31445312 18.91598511 C-13.20651397 19.99127471 -15.1032203 21.05806142 -17 22.125 C-18.27112561 22.84714202 -19.54196142 23.5697944 -20.8125 24.29296875 C-36.22576861 33.03601076 -36.22576861 33.03601076 -39.6875 32.875 C-43.55244755 31.41258741 -43.55244755 31.41258741 -45 29 C-45.25 25.6875 -45.25 25.6875 -44 22 C-42.40576172 20.62182617 -42.40576172 20.62182617 -40.3046875 19.29296875 C-39.49257813 18.77806885 -38.68046875 18.26316895 -37.84375 17.73266602 C-36.9053125 17.16088623 -35.966875 16.58910645 -35 16 C-33.9275 15.34636475 -32.855 14.69272949 -31.75 14.01928711 C-28.76549639 12.21857234 -25.75936632 10.45759648 -22.74267578 8.71142578 C-21.49019756 7.98286002 -20.24151118 7.24773905 -18.99658203 6.50634766 C-17.17005589 5.41902739 -15.33287328 4.35219366 -13.4921875 3.2890625 C-12.41308105 2.65693848 -11.33397461 2.02481445 -10.22216797 1.37353516 C-6.54467248 -0.19409552 -3.95965306 -0.33974244 0 0 Z " fill="#000000" transform="translate(439,4)"/>
<path d="M0 0 C3.89104413 1.69169268 7.48458523 3.82877492 11.125 6 C12.14166748 6.59216309 13.15833496 7.18432617 14.20581055 7.79443359 C17.14670285 9.51411386 20.0743841 11.254495 23 13 C24.44120849 13.84669088 25.88258735 14.69309189 27.32421875 15.5390625 C35.67602507 20.5140376 35.67602507 20.5140376 38 24 C38.4375 26.4375 38.4375 26.4375 38 29 C35.875 31.375 35.875 31.375 33 33 C28.495392 32.66002227 25.36575534 31.34757139 21.515625 29.05078125 C20.49726562 28.44943359 19.47890625 27.84808594 18.4296875 27.22851562 C17.38039063 26.59623047 16.33109375 25.96394531 15.25 25.3125 C14.21617188 24.69955078 13.18234375 24.08660156 12.1171875 23.45507812 C10.06368155 22.23564733 8.01348839 21.01061902 5.96679688 19.77978516 C4.02126502 18.61265816 2.06959438 17.45569069 0.11132812 16.31005859 C-0.77619141 15.78879395 -1.66371094 15.2675293 -2.578125 14.73046875 C-3.3609082 14.27438232 -4.14369141 13.8182959 -4.95019531 13.34838867 C-6.94388536 12.03691295 -8.485182 10.84251454 -10 9 C-10.38976435 5.88188517 -10.50422245 3.88980433 -8.9375 1.125 C-5.9368509 -0.61731238 -3.32334666 -0.62519507 0 0 Z " fill="#000000" transform="translate(80,4)"/>
<path d="M0 0 C2.0625 1.625 2.0625 1.625 3 4 C2.93377046 7.24524746 2.8143715 9.18757769 0.4699707 11.52636719 C-2.99877869 13.59589089 -6.56746207 14.49765269 -10.45703125 15.515625 C-11.27821945 15.73571228 -12.09940765 15.95579956 -12.94548035 16.18255615 C-14.67995833 16.644233 -16.41570034 17.10118358 -18.15258789 17.55371094 C-20.79715129 18.24598215 -23.43454262 18.96185266 -26.07226562 19.6796875 C-27.76263768 20.12645222 -29.45338205 20.5718111 -31.14453125 21.015625 C-31.92705765 21.23011292 -32.70958405 21.44460083 -33.51582336 21.66558838 C-38.31963945 22.89072833 -42.07388827 23.20128057 -47 22 C-49 20 -49 20 -49.3125 16.5625 C-49 13 -49 13 -47.71183777 11.35600281 C-44.79991786 9.0493756 -41.21422462 8.42919648 -37.67578125 7.51953125 C-36.85554977 7.30181564 -36.0353183 7.08410004 -35.19023132 6.85978699 C-33.4540778 6.40186219 -31.71654743 5.94913048 -29.9777832 5.5012207 C-27.33581219 4.81852397 -24.70015746 4.1146577 -22.06445312 3.40820312 C-20.37273375 2.96485439 -18.68068586 2.52275699 -16.98828125 2.08203125 C-16.20777908 1.87270462 -15.42727692 1.66337799 -14.62312317 1.44770813 C-9.61304928 0.17583611 -5.17378081 -0.33604257 0 0 Z " fill="#000000" transform="translate(460,54)"/>
<path d="M0 0 C4.6601228 0.12292292 8.93920852 1.13407912 13.42504883 2.3371582 C14.25006393 2.55200363 15.07507904 2.76684906 15.9250946 2.98820496 C17.65495509 3.44154933 19.38353188 3.8998182 21.11083984 4.36279297 C23.75546051 5.06928134 26.40509917 5.7539129 29.0559082 6.43676758 C30.74179753 6.88143478 32.42735709 7.32735454 34.11254883 7.7746582 C34.90317215 7.97791214 35.69379547 8.18116608 36.50837708 8.39057922 C42.98603791 10.15366253 42.98603791 10.15366253 45.43676758 13.25512695 C46.18213795 19.21808992 46.18213795 19.21808992 43.99926758 22.25512695 C36.22019831 25.2908613 25.33371292 20.66333775 17.50610352 18.60913086 C15.18231595 18.00396766 12.8530312 17.42436873 10.52270508 16.8449707 C9.03011299 16.45720179 7.53791022 16.06793055 6.04614258 15.67700195 C5.356474 15.50908142 4.66680542 15.34116089 3.95623779 15.16815186 C-0.76956354 13.88684367 -3.52145533 12.09079464 -6.56323242 8.25512695 C-6.45869218 2.92357461 -5.61948868 0.40235462 0 0 Z " fill="#000000" transform="translate(55.563232421875,53.744873046875)"/>
<path d="M0 0 C0.88787201 -0.01283524 1.77574402 -0.02567047 2.69052124 -0.03889465 C3.65197052 -0.04628159 4.6134198 -0.05366852 5.60400391 -0.0612793 C7.08376205 -0.07338692 7.08376205 -0.07338692 8.59341431 -0.08573914 C10.68318929 -0.09958342 12.77298691 -0.11030403 14.86279297 -0.11816406 C18.06081856 -0.13539167 21.25781446 -0.17927665 24.45556641 -0.22338867 C26.48420463 -0.23351414 28.51285164 -0.2420307 30.54150391 -0.2487793 C31.97760513 -0.27504143 31.97760513 -0.27504143 33.44271851 -0.30183411 C40.03414263 -0.28026827 40.03414263 -0.28026827 43.34863281 1.97705078 C44.70556641 4.17700195 44.70556641 4.17700195 44.58056641 7.80200195 C43.70556641 11.17700195 43.70556641 11.17700195 41.70556641 13.17700195 C39.70094299 13.43096924 39.70094299 13.43096924 37.21166992 13.43579102 C36.28052872 13.44209534 35.34938751 13.44839966 34.39002991 13.45489502 C32.87752907 13.44882233 32.87752907 13.44882233 31.33447266 13.44262695 C30.30120346 13.44454041 29.26793427 13.44645386 28.20335388 13.44842529 C26.01520545 13.44978804 23.82704897 13.44608538 21.63891602 13.43774414 C18.28529713 13.42705686 14.93221529 13.43763098 11.57861328 13.45043945 C9.45556522 13.44911766 7.33251749 13.44655486 5.20947266 13.44262695 C3.70000816 13.44869965 3.70000816 13.44869965 2.16004944 13.45489502 C1.22575607 13.4485907 0.29146271 13.44228638 -0.67114258 13.43579102 C-1.49339828 13.43419983 -2.31565399 13.43260864 -3.16282654 13.43096924 C-5.29443359 13.17700195 -5.29443359 13.17700195 -8.29443359 11.17700195 C-9.16943359 8.86450195 -9.16943359 8.86450195 -9.29443359 6.17700195 C-6.94696241 1.25849091 -5.31637537 0.06684706 0 0 Z " fill="#000000" transform="translate(425.29443359375,106.822998046875)"/>
<path d="M0 0 C1.33169472 -0.01429802 1.33169472 -0.01429802 2.69029236 -0.02888489 C4.12472435 -0.02751778 4.12472435 -0.02751778 5.58813477 -0.02612305 C6.57322525 -0.03040817 7.55831573 -0.0346933 8.57325745 -0.03910828 C10.65706615 -0.04485243 12.74089492 -0.04535121 14.82470703 -0.04101562 C18.01377571 -0.03785741 21.20191532 -0.061308 24.39086914 -0.08666992 C26.41495651 -0.08894306 28.43904638 -0.08964634 30.46313477 -0.08862305 C31.41739853 -0.09783279 32.37166229 -0.10704254 33.35484314 -0.11653137 C34.24579178 -0.11030258 35.13674042 -0.10407379 36.0546875 -0.09765625 C36.83617661 -0.09828568 37.61766571 -0.0989151 38.4228363 -0.0995636 C41.17465447 0.37516815 42.55178249 1.3980127 44.59204102 3.2746582 C45.63043801 6.16733554 45.82733103 7.62308585 44.77954102 10.5246582 C43.59204102 12.2746582 43.59204102 12.2746582 41.59204102 13.2746582 C40.09693783 13.38442239 38.59716388 13.43369622 37.09814453 13.45166016 C36.16700333 13.46449539 35.23586212 13.47733063 34.27650452 13.49055481 C32.76400368 13.50163521 32.76400368 13.50163521 31.22094727 13.51293945 C30.18767807 13.5210112 29.15440887 13.52908295 28.08982849 13.53739929 C25.90169964 13.55124344 23.71354916 13.56196411 21.52539062 13.56982422 C18.17154391 13.58707077 14.81867421 13.63095834 11.46508789 13.67504883 C9.34204828 13.68517251 7.21900028 13.69368963 5.09594727 13.70043945 C3.58648277 13.72670158 3.58648277 13.72670158 2.04652405 13.75349426 C1.11223068 13.7505687 0.17793732 13.74764313 -0.78466797 13.74462891 C-2.01805153 13.75342827 -2.01805153 13.75342827 -3.27635193 13.7624054 C-5.40795898 13.2746582 -5.40795898 13.2746582 -7.20472717 11.47184753 C-9.02301381 8.15152309 -8.33420407 5.84731783 -7.40795898 2.2746582 C-4.28222108 0.19083293 -3.55707246 0.02099265 0 0 Z " fill="#000000" transform="translate(50.407958984375,106.725341796875)"/>
</svg>
