<?xml version="1.0" encoding="UTF-8"?>
<svg version="1.1" xmlns="http://www.w3.org/2000/svg" width="512" height="512">
<path d="M0 0 C2.90206785 0.01073214 5.80351698 0.00002654 8.70556641 -0.01269531 C24.88381562 -0.0265077 40.53846378 1.22669762 56.34228516 4.82324219 C57.4741626 5.07936279 58.60604004 5.3354834 59.7722168 5.59936523 C79.76465468 10.30679473 98.98388246 17.19908311 117.40478516 26.26074219 C118.05237793 26.57301758 118.6999707 26.88529297 119.3671875 27.20703125 C136.24204869 35.41211718 151.83125695 46.50661589 166.40478516 58.26074219 C167.91685547 59.46730469 167.91685547 59.46730469 169.45947266 60.69824219 C175.22335562 65.34604171 180.66084687 70.04645289 185.40478516 75.76074219 C187.12171221 77.7906281 188.83389358 79.68985061 190.71728516 81.57324219 C204.61202935 95.46798638 215.6459382 111.27103288 225.40478516 128.26074219 C225.79762695 128.94185059 226.19046875 129.62295898 226.59521484 130.32470703 C239.78324414 153.4684055 248.67482429 178.63663763 254.21728516 204.63574219 C254.41233643 205.54904297 254.6073877 206.46234375 254.80834961 207.40332031 C257.87938377 222.69482168 258.73169143 237.69886669 258.66552734 253.26269531 C258.65479841 256.25704181 258.66549333 259.25078862 258.67822266 262.24511719 C258.72570729 319.47501766 237.0061199 372.55126879 202.84228516 417.76074219 C202.42462891 418.31922852 202.00697266 418.87771484 201.57666016 419.453125 C200.56859358 420.76176957 199.49256398 422.01756639 198.40478516 423.26074219 C197.74478516 423.26074219 197.08478516 423.26074219 196.40478516 423.26074219 C196.16373047 423.82921875 195.92267578 424.39769531 195.67431641 424.98339844 C194.15510428 427.70863126 192.33059535 429.52764558 190.09228516 431.69824219 C189.28146484 432.49101562 188.47064453 433.28378906 187.63525391 434.10058594 C186.89919922 434.8134375 186.16314453 435.52628906 185.40478516 436.26074219 C184.57978516 437.08574219 183.75478516 437.91074219 182.90478516 438.76074219 C182.07978516 439.58574219 181.25478516 440.41074219 180.40478516 441.26074219 C179.80794922 441.89238281 179.21111328 442.52402344 178.59619141 443.17480469 C172.0719238 449.95046609 164.90122422 455.61955456 157.40478516 461.26074219 C156.86257324 461.67437012 156.32036133 462.08799805 155.76171875 462.51416016 C125.81952532 485.25263028 91.30249977 499.83493081 54.77978516 508.01074219 C53.47738892 508.30863647 53.47738892 508.30863647 52.14868164 508.61254883 C36.79782018 511.90493989 21.45743887 512.59008066 5.80957031 512.52148438 C2.90750247 512.51075224 0.00605334 512.52145784 -2.89599609 512.53417969 C-19.07424531 512.54799207 -34.72889347 511.29478675 -50.53271484 507.69824219 C-51.66459229 507.44212158 -52.79646973 507.18600098 -53.96264648 506.92211914 C-73.93739436 502.21885494 -93.20802875 495.36359542 -111.59521484 486.26074219 C-112.2800293 485.92187988 -112.96484375 485.58301758 -113.67041016 485.23388672 C-133.89880411 475.08998578 -152.39577524 461.79667052 -169.08349609 446.54980469 C-170.77511804 445.00813989 -172.48127135 443.48228774 -174.20068359 441.97167969 C-178.64365501 438.05971394 -182.82484362 434.12653611 -186.63427734 429.59277344 C-188.1664915 427.77059844 -189.72191323 425.98611372 -191.30615234 424.20996094 C-198.83797983 415.70310772 -205.40158973 406.78025236 -211.59521484 397.26074219 C-212.29259766 396.19339844 -212.98998047 395.12605469 -213.70849609 394.02636719 C-231.22436072 366.3660439 -242.67372988 336.19448586 -248.90771484 304.13574219 C-249.03722534 303.47016296 -249.16673584 302.80458374 -249.3001709 302.11883545 C-251.43708041 291.01933069 -252.74429561 280.26128883 -252.79833984 268.95996094 C-252.80403992 268.00289749 -252.80973999 267.04583405 -252.81561279 266.05976868 C-252.82500052 264.04205405 -252.83157176 262.02432453 -252.83544922 260.0065918 C-252.84506869 256.99401304 -252.87611693 253.9821434 -252.90771484 250.96972656 C-252.97963186 237.80688864 -251.84981868 225.2227142 -249.59521484 212.26074219 C-249.31291016 210.55035767 -249.31291016 210.55035767 -249.02490234 208.80541992 C-240.97777961 162.19261864 -218.56863913 114.67904516 -184.59521484 81.26074219 C-183.14787368 79.64450124 -181.71027735 78.01947917 -180.28271484 76.38574219 C-177.00541844 72.73236259 -173.68239465 69.37689327 -169.92724609 66.22167969 C-168.1050711 64.68946554 -166.32058637 63.13404381 -164.54443359 61.54980469 C-131.2654734 32.07456746 -90.10065188 13.45016854 -46.90771484 4.01074219 C-46.23353516 3.85968018 -45.55935547 3.70861816 -44.86474609 3.55297852 C-30.0349903 0.48707868 -15.09161249 -0.0661578 0 0 Z " fill="#2D83DC" transform="translate(253.59521484375,-0.2607421875)"/>
<path d="M0 0 C1.175625 0.9590625 1.175625 0.9590625 2.375 1.9375 C2.375 2.5975 2.375 3.2575 2.375 3.9375 C3.035 3.9375 3.695 3.9375 4.375 3.9375 C8.84136291 11.19533973 9.68853889 17.8952211 7.8671875 26.2734375 C5.90703092 32.15390723 2.70894106 36.44775039 -2.5625 39.8125 C-5.80686296 41.0043068 -8.19793622 41.18229027 -11.625 40.9375 C-12.76308679 38.11613514 -12.64183768 36.98623022 -11.62890625 34.0546875 C-10.91541016 32.44980469 -10.91541016 32.44980469 -10.1875 30.8125 C-7.27473023 23.58331376 -6.24179384 17.94151784 -8.8125 10.5 C-10.99028441 7.42106342 -12.07092675 6.27027747 -15.625 4.9375 C-23.75008089 3.75614737 -29.90467738 5.31601688 -36.625 9.9375 C-50.56864696 20.66056709 -60.89383836 35.75932806 -63.9375 53.3125 C-64.68523014 59.67888808 -64.8259597 66.03062159 -64.875 72.4375 C-64.88442627 73.38157715 -64.89385254 74.3256543 -64.90356445 75.29833984 C-64.87989161 80.29822345 -64.41776561 84.2137049 -62.625 88.9375 C-62.625 90.2575 -62.625 91.5775 -62.625 92.9375 C-61.965 92.9375 -61.305 92.9375 -60.625 92.9375 C-59.546875 94.51171875 -59.546875 94.51171875 -58.375 96.625 C-54.96623738 102.28956142 -51.00854718 105.83120657 -44.625 107.9375 C-33.23257841 109.22157373 -24.84259364 106.52149546 -15.625 99.9375 C-14.3058418 99.24320621 -12.97850594 98.56219505 -11.625 97.9375 C-11.625 97.2775 -11.625 96.6175 -11.625 95.9375 C-10.965 95.9375 -10.305 95.9375 -9.625 95.9375 C-9.356875 95.36773437 -9.08875 94.79796875 -8.8125 94.2109375 C-7.57624899 91.84416747 -6.14279121 89.75891901 -4.625 87.5625 C-0.98745259 81.95114828 1.63401651 76.05507451 4.3125 69.9375 C9.79129784 57.57930939 15.61859282 47.41521477 27.375 39.9375 C32.13628773 38.2682039 37.41785576 38.29278471 42.375 38.9375 C45.17059593 40.29195539 46.28193198 41.51394756 48.375 43.9375 C49.0234375 46.109375 49.0234375 46.109375 49.375 47.9375 C50.18904297 47.21433594 50.18904297 47.21433594 51.01953125 46.4765625 C52.09267578 45.52910156 52.09267578 45.52910156 53.1875 44.5625 C54.24904297 43.62277344 54.24904297 43.62277344 55.33203125 42.6640625 C60.04571511 38.68041381 62.4023723 38.55828554 68.375 38.9375 C70.375 40.9375 70.375 40.9375 70.67578125 43.93359375 C70.53013532 48.83616253 68.99828688 53.34572085 67.5625 58 C67.0088457 59.880667 66.45806258 61.76218163 65.91015625 63.64453125 C65.51207764 65.00892334 65.51207764 65.00892334 65.10595703 66.40087891 C61.83814858 77.74106923 60.99140871 88.2024479 61.375 99.9375 C68.06989461 98.27760878 70.65060195 96.56878986 74.375 90.9375 C82.03008464 78.16570082 86.92647892 63.66320402 87.53027344 48.77490234 C87.75973576 44.99049922 88.06901038 43.26136881 90.71484375 40.4609375 C94.24033008 38.44193652 96.36967844 38.36531121 100.375 38.9375 C103.0703125 40.48046875 103.0703125 40.48046875 105.375 42.9375 C105.78153504 45.76807609 105.89998594 47.94940046 105.75 50.75 C105.73582031 51.43642578 105.72164062 52.12285156 105.70703125 52.83007812 C105.58126593 57.2612094 105.072757 61.56222043 104.375 65.9375 C104.70371094 65.33164062 105.03242188 64.72578125 105.37109375 64.1015625 C110.67922409 54.7511974 118.47955852 43.88522074 128.375 38.9375 C133.20411 38.41612706 137.11666846 38.20347327 141.375 40.6875 C145.26726223 45.06629501 145.79279247 48.51957543 145.70703125 54.2421875 C143.95103093 73.78543814 143.95103093 73.78543814 140.375 80.9375 C140.30318179 83.65510108 140.28200494 86.34609388 140.3125 89.0625 C140.31926758 90.19365234 140.31926758 90.19365234 140.32617188 91.34765625 C140.33796501 93.21097127 140.35590058 95.07424555 140.375 96.9375 C149.23895708 93.42754064 153.16987197 88.34585975 157.21484375 79.72265625 C160.44334854 71.97207068 162.41598413 64.47587932 163.3125 56.125 C164.15389667 48.78741463 166.18879466 44.12370534 171.375 38.9375 C173.9765625 38.7421875 173.9765625 38.7421875 177 38.8125 C178.00289063 38.83054688 179.00578125 38.84859375 180.0390625 38.8671875 C181.19535156 38.90199219 181.19535156 38.90199219 182.375 38.9375 C183.37561622 43.04734808 183.44948499 46.8251773 183.3671875 51.046875 C183.34727982 52.44847321 183.32835427 53.85008564 183.31030273 55.25170898 C183.2998996 55.97752167 183.28949646 56.70333435 183.27877808 57.45114136 C182.41445282 77.18960239 182.41445282 77.18960239 187.375 95.9375 C196.70963419 92.99226197 201.08856014 81.90155571 205.375 73.75 C206.72263149 71.15267218 208.05291809 68.54799969 209.375 65.9375 C208.74867676 65.80698242 208.12235352 65.67646484 207.47705078 65.54199219 C204.6952266 64.7420158 203.92131446 63.51508977 202.25 61.1875 C201.75242187 60.51203125 201.25484375 59.8365625 200.7421875 59.140625 C196.89925289 52.94801037 196.50503091 47.0836747 197.375 39.9375 C199.3293067 34.01805036 201.97250185 29.29580966 207.375 25.9375 C210.83750243 24.20624879 214.58908229 24.45934776 218.375 24.9375 C221.99137901 27.09193856 223.79002661 29.09221673 225.375 32.9375 C226.98958413 43.30482971 223.41368909 53.17028506 220.375 62.9375 C221.80109479 62.65651659 223.22520938 62.36547304 224.6484375 62.0703125 C225.44169434 61.90934082 226.23495117 61.74836914 227.05224609 61.58251953 C233.47168897 59.79986575 237.40531698 54.92509602 241.546875 50 C246.15569147 44.80030962 251.2696109 39.44139143 258.3984375 38.56640625 C268.56223058 38.36502573 268.56223058 38.36502573 272.125 41.25 C274.375 43.9375 274.375 43.9375 275.375 46.9375 C276.035 46.9375 276.695 46.9375 277.375 46.9375 C277.973125 46.174375 278.57125 45.41125 279.1875 44.625 C281.86949056 41.32998303 284.0606683 39.22288965 288.40234375 38.6875 C290.5625 38.625 290.5625 38.625 294.375 38.9375 C296.375 40.9375 296.375 40.9375 296.6484375 44.01171875 C296.3338983 48.52760304 295.30682193 52.43762466 294 56.75 C293.5351937 58.35081947 293.07292903 59.95237923 292.61328125 61.5546875 C292.28577881 62.69502441 292.28577881 62.69502441 291.95166016 63.85839844 C290.84627819 67.84376375 290.09261107 71.8687149 289.375 75.9375 C289.09849609 77.25234375 289.09849609 77.25234375 288.81640625 78.59375 C286.42585611 89.41658584 286.42585611 89.41658584 288.375 99.9375 C290.67281554 100.05385105 290.67281554 100.05385105 293.375 98.9375 C298.16243155 94.13782438 300.92280445 88.16896163 303.375 81.9375 C304.695 81.9375 306.015 81.9375 307.375 81.9375 C308.09130778 89.56219839 307.08441953 94.80615428 302.375 100.9375 C296.8887562 106.8484112 291.02595622 110.97051834 282.75 111.3125 C278.83560225 111.3548942 276.5195588 110.26437256 273.375 107.9375 C271.57421875 105.45703125 271.57421875 105.45703125 270.0625 102.75 C269.55074219 101.84894531 269.03898437 100.94789063 268.51171875 100.01953125 C267.94904297 98.98892578 267.94904297 98.98892578 267.375 97.9375 C266.818125 98.62457031 266.26125 99.31164062 265.6875 100.01953125 C260.36946848 106.29876103 256.54545889 110.14432192 248.30859375 111.203125 C243.57719602 111.45450856 240.29820044 110.52324575 236.375 107.9375 C231.35086009 102.91336009 229.25247465 96.78272774 229.01171875 89.80859375 C229.01303032 87.99731721 229.030184 86.18598871 229.0625 84.375 C229.05766602 83.0147168 229.05766602 83.0147168 229.05273438 81.62695312 C229.09479288 76.35434662 229.6573876 71.92610335 231.375 66.9375 C230.570625 67.2675 229.76625 67.5975 228.9375 67.9375 C224.63695205 69.14467135 220.80533819 69.11471353 216.375 68.9375 C216.12105469 69.79730469 215.86710937 70.65710938 215.60546875 71.54296875 C212.21201496 80.90459206 205.66411203 89.31569518 199.375 96.9375 C198.89546875 97.56269531 198.4159375 98.18789063 197.921875 98.83203125 C193.26478731 104.70456765 187.76156767 108.73211151 180.6875 111.25 C177.1235859 110.91378169 176.57403785 110.68426861 174.1875 108.25 C168.78118883 100.99833462 167.11103719 91.7832009 165.76953125 83.01953125 C165.58085312 80.95565507 165.58085312 80.95565507 164.375 79.9375 C163.87871094 80.98808594 163.38242187 82.03867187 162.87109375 83.12109375 C152.04734562 105.66564507 152.04734562 105.66564507 139.375 110.9375 C135.07083139 111.92022168 132.05735315 111.27223928 128.0625 109.3125 C122.78776397 104.65110537 121.79105806 99.53078096 121.1796875 92.78125 C120.84528783 85.55821713 122.29612336 78.94764368 123.87280273 71.95117188 C125.21148029 65.96099446 126.09892696 60.08012521 126.375 53.9375 C121.10863137 56.59324526 117.77036239 59.25725073 114.4375 64.1875 C114.01637939 64.7966626 113.59525879 65.4058252 113.16137695 66.03344727 C106.14876708 76.45645295 101.14897127 87.54961553 97.48046875 99.53515625 C96.30459228 103.15419656 95.0094342 106.50132732 93.375 109.9375 C90.19621306 111.52689347 87.8793228 111.35326711 84.375 110.9375 C80.64755356 107.69624223 79.19729247 105.4495324 78.5625 100.5625 C78.500625 99.36625 78.43875 98.17 78.375 96.9375 C77.48748047 97.96810547 77.48748047 97.96810547 76.58203125 99.01953125 C75.79183594 99.92058594 75.00164062 100.82164062 74.1875 101.75 C73.41019531 102.64332031 72.63289062 103.53664063 71.83203125 104.45703125 C67.2181495 109.11492459 63.28957269 110.55309473 56.875 110.9921875 C52.83113013 110.90372785 50.81980996 110.14217837 47.375 107.9375 C45.67863545 105.68277094 44.61511775 103.50959606 43.375 100.9375 C42.715 99.9475 42.055 98.9575 41.375 97.9375 C40.818125 98.62457031 40.26125 99.31164062 39.6875 100.01953125 C34.33850364 106.33532256 30.55868219 110.02183937 22.34375 111.23828125 C17.13504735 111.58886701 13.26248749 110.28946626 9.375 106.9375 C5.87858144 101.98424037 4.10509614 96.71759391 2.375 90.9375 C1.97410156 91.62714844 1.57320313 92.31679688 1.16015625 93.02734375 C-6.87144626 106.30407443 -18.16588821 117.00559192 -33.625 120.9375 C-46.67889007 122.295326 -58.10250594 121.26707708 -68.875 113.3125 C-81.33353758 102.59420259 -85.18657204 88.86675776 -86.625 72.9375 C-88.04771488 51.94621551 -80.52574212 32.36316022 -66.9609375 16.5 C-50.79886983 -1.22962607 -22.67247726 -14.01285053 0 0 Z " fill="#F9FCFE" transform="translate(145.625,198.0625)"/>
<path d="M0 0 C1.32 1.32 2.64 2.64 4 4 C4.99 3.67 5.98 3.34 7 3 C6.6875 4.9375 6.6875 4.9375 6 7 C5.01 7.33 4.02 7.66 3 8 C1.77479736 11.00847418 1.77479736 11.00847418 1 14 C1.99 14 2.98 14 4 14 C4.66 14 5.32 14 6 14 C5.67 15.32 5.34 16.64 5 18 C2.36 18.66 -0.28 19.32 -3 20 C-2.505 20.99 -2.505 20.99 -2 22 C-4.31 22.99 -6.62 23.98 -9 25 C-9 24.34 -9 23.68 -9 23 C-9.5775 23.33 -10.155 23.66 -10.75 24 C-13 25 -13 25 -17 25 C-18.68496298 25.96885372 -20.35178756 26.96986723 -22 28 C-24.125 28.625 -24.125 28.625 -26 29 C-26.99 29.33 -27.98 29.66 -29 30 C-29.99 30 -30.98 30 -32 30 C-34.62374655 30.81608777 -34.62374655 30.81608777 -37 32 C-37.495 32.99 -37.495 32.99 -38 34 C-39.66666667 34.66666667 -41.33333333 35.33333333 -43 36 C-43.495 36.99 -43.495 36.99 -44 38 C-44.66 38 -45.32 38 -46 38 C-47.37310707 39.29233607 -48.71034824 40.62437146 -50 42 C-50.99 41.505 -50.99 41.505 -52 41 C-52.495 41.99 -52.495 41.99 -53 43 C-52.34 43.99 -51.68 44.98 -51 46 C-51 46.66 -51 47.32 -51 48 C-48.9254644 48.1490712 -48.9254644 48.1490712 -47 47 C-47 47.66 -47 48.32 -47 49 C-46.01 49.495 -46.01 49.495 -45 50 C-44.67 49.01 -44.34 48.02 -44 47 C-41.25 45.9375 -41.25 45.9375 -38 45 C-34.34727445 43.73615068 -34.34727445 43.73615068 -31.375 41.375 C-30.92125 40.92125 -30.4675 40.4675 -30 40 C-29.01 40 -28.02 40 -27 40 C-26.505 39.01 -26.505 39.01 -26 38 C-25.01 38 -24.02 38 -23 38 C-21.43593472 37.84872598 -19.87340748 37.68097478 -18.3125 37.5 C-17.50425781 37.4071875 -16.69601562 37.314375 -15.86328125 37.21875 C-14.94095703 37.11046875 -14.94095703 37.11046875 -14 37 C-14 35.35 -14 33.7 -14 32 C-12.515 32.495 -12.515 32.495 -11 33 C-10.01 32.67 -9.02 32.34 -8 32 C-7.34 32.66 -6.68 33.32 -6 34 C-5.34 34 -4.68 34 -4 34 C-4 33.34 -4 32.68 -4 32 C-3.34 32 -2.68 32 -2 32 C-2 32.66 -2 33.32 -2 34 C-1.34 34 -0.68 34 0 34 C0 35.32 0 36.64 0 38 C-2.31 38 -4.62 38 -7 38 C-7 37.34 -7 36.68 -7 36 C-7.66 36 -8.32 36 -9 36 C-9 36.99 -9 37.98 -9 39 C-8.34 39 -7.68 39 -7 39 C-6.505 40.98 -6.505 40.98 -6 43 C-3.14458129 42.59208304 -2.0819403 42.0819403 0 40 C2.12109905 37.87890095 3.12115618 37.4798073 6 37 C6.66 36.67 7.32 36.34 8 36 C9.0625 37.875 9.0625 37.875 10 40 C9.505 40.99 9.505 40.99 9 42 C5.71585695 42.95067299 4.30306592 43.10102197 1 42 C-0.10836423 43.88316159 -0.10836423 43.88316159 -1 46 C-0.67 46.66 -0.34 47.32 0 48 C-0.66 48 -1.32 48 -2 48 C-2 48.66 -2 49.32 -2 50 C-3.2375 50.144375 -4.475 50.28875 -5.75 50.4375 C-8.56504499 50.78688502 -11.2701497 51.20379366 -14 52 C-14 52.66 -14 53.32 -14 54 C-13.34 54.33 -12.68 54.66 -12 55 C-12.99 55.66 -13.98 56.32 -15 57 C-15.66 56.34 -16.32 55.68 -17 55 C-17.33 55.99 -17.66 56.98 -18 58 C-19.48828125 59.5703125 -19.48828125 59.5703125 -21.3125 61.125 C-21.90675781 61.64320313 -22.50101562 62.16140625 -23.11328125 62.6953125 C-25.09410003 64.06507125 -26.64732079 64.57412871 -29 65 C-29.33 64.34 -29.66 63.68 -30 63 C-30.556875 63.20625 -31.11375 63.4125 -31.6875 63.625 C-34.659538 64.10695211 -36.31979941 63.26565028 -39 62 C-38.34 60.35 -37.68 58.7 -37 57 C-36.01 57.33 -35.02 57.66 -34 58 C-31.90708843 57.91428339 -31.90708843 57.91428339 -30 57 C-28.90833725 55.06669397 -28.90833725 55.06669397 -28 53 C-27.01 52.34 -26.02 51.68 -25 51 C-25.33 50.01 -25.66 49.02 -26 48 C-27.65 48.66 -29.3 49.32 -31 50 C-31 49.34 -31 48.68 -31 48 C-31.928125 48.474375 -32.85625 48.94875 -33.8125 49.4375 C-37 51 -37 51 -40 52 C-40.495 52.99 -40.495 52.99 -41 54 C-41.66 54 -42.32 54 -43 54 C-43.99 54.66 -44.98 55.32 -46 56 C-48.33247761 56.33926947 -50.66585471 56.67240066 -53 57 C-55.33588323 57.95584438 -55.33588323 57.95584438 -57 59 C-57 59.66 -57 60.32 -57 61 C-59 62.625 -59 62.625 -61 64 C-62.32 63.34 -63.64 62.68 -65 62 C-65.309375 63.11375 -65.309375 63.11375 -65.625 64.25 C-67.43727737 67.87455474 -69.47881982 69.06680304 -73 71 C-75.875 71.75 -75.875 71.75 -78 72 C-78 71.34 -78 70.68 -78 70 C-79.32 69.67 -80.64 69.34 -82 69 C-81.34 69 -80.68 69 -80 69 C-79.79375 67.948125 -79.5875 66.89625 -79.375 65.8125 C-78.10535863 61.31851758 -75.82283209 59.57456039 -72 57 C-71.01 57 -70.02 57 -69 57 C-67.31562256 56.37943989 -65.64991582 55.70710678 -64 55 C-62.63875 54.505 -62.63875 54.505 -61.25 54 C-58.84296517 53.21568639 -58.84296517 53.21568639 -58 51 C-59.485 51.495 -59.485 51.495 -61 52 C-61.33 51.01 -61.66 50.02 -62 49 C-62.78375 49.495 -63.5675 49.99 -64.375 50.5 C-67 52 -67 52 -69 52 C-69.33 52.99 -69.66 53.98 -70 55 C-71.11375 54.7215625 -71.11375 54.7215625 -72.25 54.4375 C-74.98555755 54.00229766 -76.40699621 54.19527469 -79 55 C-79.66 55 -80.32 55 -81 55 C-81.33 55.99 -81.66 56.98 -82 58 C-82.66 57.67 -83.32 57.34 -84 57 C-84.99 57.99 -85.98 58.98 -87 60 C-89.42857143 53.71428571 -89.42857143 53.71428571 -88 50 C-86.700625 50.0928125 -86.700625 50.0928125 -85.375 50.1875 C-81.49465537 49.9719253 -79.29430988 49.02150833 -76 47 C-75.34 46.01 -74.68 45.02 -74 44 C-73.34 44 -72.68 44 -72 44 C-71.67 43.34 -71.34 42.68 -71 42 C-70.67 42.66 -70.34 43.32 -70 44 C-69.505 43.608125 -69.01 43.21625 -68.5 42.8125 C-58.42574257 35.50866337 -58.42574257 35.50866337 -53 35 C-53 34.34 -53 33.68 -53 33 C-52.319375 32.9175 -51.63875 32.835 -50.9375 32.75 C-48.28231457 32.07208032 -46.63219434 31.31087552 -44.3125 29.9375 C-41 28 -41 28 -39 28 C-38.01 27.67 -37.02 27.34 -36 27 C-36 26.01 -36 25.02 -36 24 C-34.68 24.33 -33.36 24.66 -32 25 C-31.5875 24.38125 -31.175 23.7625 -30.75 23.125 C-28.88106682 20.85558114 -27.64972621 20.16899686 -25 19 C-24.13375 18.46375 -23.2675 17.9275 -22.375 17.375 C-20 16 -20 16 -18 16 C-15.24750021 13.59156268 -13.44077046 11.36179774 -12 8 C-11.34 8 -10.68 8 -10 8 C-9.979375 7.401875 -9.95875 6.80375 -9.9375 6.1875 C-9 4 -9 4 -5.4375 2.25 C-4.303125 1.8375 -3.16875 1.425 -2 1 C-1.505 1.495 -1.505 1.495 -1 2 C-0.67 1.34 -0.34 0.68 0 0 Z M-56 45 C-56.33 45.66 -56.66 46.32 -57 47 C-56.01 46.67 -55.02 46.34 -54 46 C-54.66 45.67 -55.32 45.34 -56 45 Z M-59 47 C-58.67 47.66 -58.34 48.32 -58 49 C-57.67 48.34 -57.34 47.68 -57 47 C-57.66 47 -58.32 47 -59 47 Z " fill="#594AE7" transform="translate(395,332)"/>
<path d="M0 0 C1.99097846 2.98646769 2.94124926 5.59687262 4 9 C1.33333333 9 -1.33333333 9 -4 9 C-6.169283 12.1635377 -7.66749209 15.4124787 -9 19 C-8.34 19.33 -7.68 19.66 -7 20 C-7.33 20.66 -7.66 21.32 -8 22 C-9.32 22 -10.64 22 -12 22 C-12.99 21.01 -12.99 21.01 -14 20 C-14 21.65 -14 23.3 -14 25 C-15.32 25.66 -16.64 26.32 -18 27 C-17.505 27.99 -17.505 27.99 -17 29 C-17.66 29 -18.32 29 -19 29 C-19.495 30.485 -19.495 30.485 -20 32 C-20.99 31.01 -20.99 31.01 -22 30 C-22.33 31.32 -22.66 32.64 -23 34 C-23.66 34 -24.32 34 -25 34 C-25.0825 34.61875 -25.165 35.2375 -25.25 35.875 C-26 38 -26 38 -27.875 39.1875 C-29.56752155 39.83464059 -31.28096593 40.42698864 -33 41 C-33.33 42.65 -33.66 44.3 -34 46 C-35.98 45.505 -35.98 45.505 -38 45 C-38 45.99 -38 46.98 -38 48 C-38.66 48 -39.32 48 -40 48 C-40.495 48.99 -40.495 48.99 -41 50 C-41.33 49.34 -41.66 48.68 -42 48 C-49.00470558 50.00319481 -49.00470558 50.00319481 -55 54 C-55.33 53.34 -55.66 52.68 -56 52 C-56.99 52.99 -56.99 52.99 -58 54 C-59.32 54 -60.64 54 -62 54 C-62.495 54.99 -62.495 54.99 -63 56 C-63.99 56.66 -64.98 57.32 -66 58 C-67.70884005 56.37660195 -69.37446717 54.70680947 -71 53 C-71 52.34 -71 51.68 -71 51 C-70.401875 50.855625 -69.80375 50.71125 -69.1875 50.5625 C-67.43849596 50.1127561 -65.71322977 49.57107659 -64 49 C-63.505 48.01 -63.505 48.01 -63 47 C-60.91425445 44.6162908 -58.88333011 43.29252729 -56 42 C-56.33 41.01 -56.66 40.02 -57 39 C-57.86625 39.7734375 -57.86625 39.7734375 -58.75 40.5625 C-61 42 -61 42 -63.0625 41.6875 C-63.701875 41.460625 -64.34125 41.23375 -65 41 C-65.99 41 -66.98 41 -68 41 C-68.66 41 -69.32 41 -70 41 C-71.2065625 42.0209375 -71.2065625 42.0209375 -72.4375 43.0625 C-73.283125 43.701875 -74.12875 44.34125 -75 45 C-75.99 44.67 -76.98 44.34 -78 44 C-78.495 44.99 -78.495 44.99 -79 46 C-80.97746603 46.73080266 -82.98072489 47.39421747 -85 48 C-85.99 48.33 -86.98 48.66 -88 49 C-88.99 49 -89.98 49 -91 49 C-91.825 49.66 -92.65 50.32 -93.5 51 C-96 53 -96 53 -99 53 C-101.06669397 53.90833725 -101.06669397 53.90833725 -103 55 C-103.99 55.495 -103.99 55.495 -105 56 C-105.33 54.68 -105.66 53.36 -106 52 C-107.98 52.66 -109.96 53.32 -112 54 C-112.495 53.505 -112.495 53.505 -113 53 C-113.33 53.66 -113.66 54.32 -114 55 C-113.34 55.33 -112.68 55.66 -112 56 C-112.66 56 -113.32 56 -114 56 C-114 56.66 -114 57.32 -114 58 C-115.65 58.66 -117.3 59.32 -119 60 C-118.34 58.68 -117.68 57.36 -117 56 C-117.99 56 -118.98 56 -120 56 C-120.66 56 -121.32 56 -122 56 C-122 56.66 -122 57.32 -122 58 C-123.32 57.67 -124.64 57.34 -126 57 C-126.33 57.66 -126.66 58.32 -127 59 C-127.99 58.67 -128.98 58.34 -130 58 C-131.1875 55.4375 -131.1875 55.4375 -132 53 C-130.1875 51.4375 -130.1875 51.4375 -128 50 C-127.01 50.33 -126.02 50.66 -125 51 C-124.01 50.34 -123.02 49.68 -122 49 C-121.34 49.66 -120.68 50.32 -120 51 C-119.01 50.01 -118.02 49.02 -117 48 C-115.989375 48.433125 -114.97875 48.86625 -113.9375 49.3125 C-110.25231246 50.36292434 -110.25231246 50.36292434 -108.15234375 49.0546875 C-106.96330877 48.14004521 -105.78990508 47.20473109 -104.6328125 46.25 C-101.6276445 43.94939292 -98.65466103 44 -95 44 C-94.01 43.484375 -93.02 42.96875 -92 42.4375 C-89 41 -89 41 -86 42 C-85.01 41.01 -84.02 40.02 -83 39 C-82.34 39.66 -81.68 40.32 -81 41 C-80.67 40.01 -80.34 39.02 -80 38 C-79.29875 38.2475 -78.5975 38.495 -77.875 38.75 C-73.84469458 39.10046134 -72.20724847 37.32013719 -69 35 C-67.66893378 34.65772583 -66.33599921 34.32248257 -65 34 C-64.54625 33.54625 -64.0925 33.0925 -63.625 32.625 C-60.42383607 29.42383607 -56.33867324 27.97970041 -52 27 C-47.96149977 25.69021614 -44.91680559 23.63628267 -41.55078125 21.12109375 C-40 20 -40 20 -38 19 C-37.505 17.515 -37.505 17.515 -37 16 C-35.01276732 15.29618843 -33.01222047 14.6288189 -31 14 C-30.67 13.34 -30.34 12.68 -30 12 C-29.34 12.165 -28.68 12.33 -28 12.5 C-21.29456405 13.61757266 -14.87698406 13.7319396 -9 10 C-5.75602479 6.85724087 -2.8424605 3.50701724 0 0 Z " fill="#4663E1" transform="translate(413,295)"/>
<path d="M0 0 C0.495 0.99 0.495 0.99 1 2 C0.54560547 3.22783203 0.54560547 3.22783203 0.08203125 4.48046875 C-1.35422126 9.15217817 -1.32969132 13.45423437 -1.3125 18.3125 C-1.32861328 19.21162109 -1.34472656 20.11074219 -1.36132812 21.03710938 C-1.36534264 26.58918453 -0.61960453 31.04882272 1.45239258 36.21166992 C2 38 2 38 1 40 C-1.32156597 40.40729228 -3.6568787 40.74438677 -6 41 C-6 41.99 -6 42.98 -6 44 C-6.66 44 -7.32 44 -8 44 C-8 43.34 -8 42.68 -8 42 C-12.54711989 43.64692505 -16.03012164 46.02536168 -19.9140625 48.85546875 C-20.60242188 49.23316406 -21.29078125 49.61085938 -22 50 C-22.99 49.67 -23.98 49.34 -25 49 C-27.16715557 49.87483915 -27.16715557 49.87483915 -29 51 C-29 51.99 -29 52.98 -29 54 C-29.66 54.66 -30.32 55.32 -31 56 C-31.99 56 -32.98 56 -34 56 C-36.95822222 56.57255914 -39.33239126 57.62316968 -42 59 C-45 60 -45 60 -46.9375 59.4375 C-49.60357285 58.8719694 -50.72275075 59.61738438 -53 61 C-53.495 60.505 -53.495 60.505 -54 60 C-54.66 60.66 -55.32 61.32 -56 62 C-57.5159375 62.2475 -57.5159375 62.2475 -59.0625 62.5 C-60.5165625 62.7475 -60.5165625 62.7475 -62 63 C-62.33 63.66 -62.66 64.32 -63 65 C-64.64142963 66.0409066 -66.30712215 67.04504326 -68 68 C-68.33 67.34 -68.66 66.68 -69 66 C-69.886875 66.474375 -70.77375 66.94875 -71.6875 67.4375 C-74.58943272 68.80633619 -76.83490131 69.64832237 -80 70 C-80.66 69.67 -81.32 69.34 -82 69 C-80.49592796 64.48778387 -76.95409693 62.28515992 -73 60 C-69.60601635 58.89498207 -67.37973193 58.87342269 -64 60 C-63.62875 59.360625 -63.2575 58.72125 -62.875 58.0625 C-60.41646442 55.35811086 -58.53682668 55.46132522 -55 55 C-54.67 54.34 -54.34 53.68 -54 53 C-53.01 53.66 -52.02 54.32 -51 55 C-50.401875 54.649375 -49.80375 54.29875 -49.1875 53.9375 C-47 53 -47 53 -44 54 C-43.67 53.01 -43.34 52.02 -43 51 C-41.68 51 -40.36 51 -39 51 C-38.525625 50.525625 -38.05125 50.05125 -37.5625 49.5625 C-35.50188636 47.50188636 -33.83341869 47.48375441 -31 47 C-28.93330603 46.09166275 -28.93330603 46.09166275 -27 45 C-26.319375 44.690625 -25.63875 44.38125 -24.9375 44.0625 C-22.90393799 42.94732083 -21.55305332 41.70835865 -20 40 C-19.01 40.33 -18.02 40.66 -17 41 C-16.67 40.01 -16.34 39.02 -16 38 C-13.9375 36.8125 -13.9375 36.8125 -12 36 C-12.33 35.01 -12.66 34.02 -13 33 C-14.65 33.99 -16.3 34.98 -18 36 C-18.99 35.34 -19.98 34.68 -21 34 C-21 33.34 -21 32.68 -21 32 C-21.66 32.66 -22.32 33.32 -23 34 C-25.24307376 35.93368427 -26.62751869 36.92732072 -29.5625 37.5 C-32.32368451 38.06639682 -33.23561338 38.86416357 -35 41 C-35.33 40.01 -35.66 39.02 -36 38 C-36.99 37.505 -36.99 37.505 -38 37 C-37.38253906 36.29617188 -36.76507813 35.59234375 -36.12890625 34.8671875 C-31.41858106 29.37539283 -27.03586388 23.84328771 -23.125 17.75 C-22.74327637 17.15912598 -22.36155273 16.56825195 -21.96826172 15.95947266 C-19.97888781 12.80321188 -18.46068224 9.74650048 -17.1875 6.25 C-15 3 -15 3 -12.203125 2.11328125 C-9.13348434 1.59555478 -6.09824766 1.28324346 -3 1 C-2.01 0.67 -1.02 0.34 0 0 Z M-17 29 C-17 29.66 -17 30.32 -17 31 C-16.34 30.67 -15.68 30.34 -15 30 C-15.66 29.67 -16.32 29.34 -17 29 Z " fill="#3A76DD" transform="translate(377,264)"/>
<path d="M0 0 C2.76223278 2.76223278 2.57856291 5.20706617 3 9 C4.32 8.67 5.64 8.34 7 8 C6.39368508 11.39536357 5.10421197 13.30660868 3 16 C2.30251417 17.31747324 1.63040043 18.64914193 1 20 C0.67 20.66 0.34 21.32 0 22 C-0.66 22 -1.32 22 -2 22 C-2.33 22.66 -2.66 23.32 -3 24 C-4.31328657 25.35308313 -5.64499081 26.68870078 -7 28 C-7.99 27.34 -8.98 26.68 -10 26 C-10.61875 26.495 -11.2375 26.99 -11.875 27.5 C-14 29 -14 29 -16 29 C-16.33 29.66 -16.66 30.32 -17 31 C-17.99 30.67 -18.98 30.34 -20 30 C-21.12516085 31.83284443 -21.12516085 31.83284443 -22 34 C-21.67 34.99 -21.34 35.98 -21 37 C-20.01 37 -19.02 37 -18 37 C-18.33 38.65 -18.66 40.3 -19 42 C-17.515 42.495 -17.515 42.495 -16 43 C-17.98 43.495 -17.98 43.495 -20 44 C-20 44.66 -20 45.32 -20 46 C-23.13685998 47.04561999 -25.72365939 47 -29 47 C-29.66 47.99 -30.32 48.98 -31 50 C-32.32 49.67 -33.64 49.34 -35 49 C-35 49.66 -35 50.32 -35 51 C-37.475 51.495 -37.475 51.495 -40 52 C-40.33 51.34 -40.66 50.68 -41 50 C-42.32 51.32 -43.64 52.64 -45 54 C-45.99 53.67 -46.98 53.34 -48 53 C-47.67 51.68 -47.34 50.36 -47 49 C-46.34 49.33 -45.68 49.66 -45 50 C-44.9071875 49.071875 -44.9071875 49.071875 -44.8125 48.125 C-44 46 -44 46 -41.625 44.6875 C-39 44 -39 44 -36 45 C-36 44.34 -36 43.68 -36 43 C-35.01 43 -34.02 43 -33 43 C-33.020625 42.21625 -33.04125 41.4325 -33.0625 40.625 C-33 38 -33 38 -32 36 C-33.32 36 -34.64 36 -36 36 C-36.66 36.66 -37.32 37.32 -38 38 C-38 37.01 -38 36.02 -38 35 C-39.485 35.495 -39.485 35.495 -41 36 C-40.34 34.02 -39.68 32.04 -39 30 C-37.35 29.67 -35.7 29.34 -34 29 C-33.67 28.01 -33.34 27.02 -33 26 C-32.01 26 -31.02 26 -30 26 C-30 25.34 -30 24.68 -30 24 C-31.65 23.67 -33.3 23.34 -35 23 C-33.83726711 19.51180132 -33.21629947 18.6927892 -30 17 C-28.2675 17.309375 -28.2675 17.309375 -26.5 17.625 C-25.345 17.74875 -24.19 17.8725 -23 18 C-20.36073642 15.95118716 -20.36073642 15.95118716 -19 13 C-19.12563582 10.73575649 -19.12563582 10.73575649 -20 9 C-16.52176885 7.84058962 -14.54104422 8.29179116 -11 9 C-11 8.34 -11 7.68 -11 7 C-11.66 6.67 -12.32 6.34 -13 6 C-12.01 5.67 -11.02 5.34 -10 5 C-9.34 4.34 -8.68 3.68 -8 3 C-8 5 -8 7 -8 9 C-7.34 8.67 -6.68 8.34 -6 8 C-5.34 8.33 -4.68 8.66 -4 9 C-4 8.01 -4 7.02 -4 6 C-3.34 5.67 -2.68 5.34 -2 5 C-1.27840576 3.35636866 -0.60648579 1.68949614 0 0 Z M-1 8 C-1.33 9.32 -1.66 10.64 -2 12 C-1.01 12.495 -1.01 12.495 0 13 C0.33 12.01 0.66 11.02 1 10 C0.34 9.34 -0.32 8.68 -1 8 Z " fill="#6537ED" transform="translate(345,412)"/>
<path d="M0 0 C2.75 0.6875 2.75 0.6875 4.38671875 2.22265625 C6.30228208 5.68603867 6.32446522 8.94814534 6.3125 12.8125 C6.31080811 13.59931152 6.30911621 14.38612305 6.30737305 15.19677734 C5.94145509 27.52539782 1.55642987 41.66150787 -7.1875 50.6875 C-9.95451004 52.02908063 -12.21920231 51.8941453 -15.25 51.6875 C-20.24553542 45.13085976 -20.08895548 38.70418566 -19.25 30.6875 C-17.03346637 20.23304724 -12.11099576 2.56194141 0 0 Z " fill="#2491DA" transform="translate(186.25,246.3125)"/>
<path d="M0 0 C1.32 1.32 2.64 2.64 4 4 C4.99 3.67 5.98 3.34 7 3 C6.6875 4.9375 6.6875 4.9375 6 7 C5.01 7.33 4.02 7.66 3 8 C1.77479736 11.00847418 1.77479736 11.00847418 1 14 C1.99 14 2.98 14 4 14 C4.66 14 5.32 14 6 14 C5.67 15.32 5.34 16.64 5 18 C2.36 18.66 -0.28 19.32 -3 20 C-2.505 20.99 -2.505 20.99 -2 22 C-4.31 22.99 -6.62 23.98 -9 25 C-9 24.34 -9 23.68 -9 23 C-9.5775 23.33 -10.155 23.66 -10.75 24 C-13 25 -13 25 -17 25 C-18.68496298 25.96885372 -20.35178756 26.96986723 -22 28 C-24.125 28.625 -24.125 28.625 -26 29 C-26.99 29.33 -27.98 29.66 -29 30 C-29.99 30 -30.98 30 -32 30 C-34.62374655 30.81608777 -34.62374655 30.81608777 -37 32 C-37.495 32.99 -37.495 32.99 -38 34 C-39.66666667 34.66666667 -41.33333333 35.33333333 -43 36 C-43.495 36.99 -43.495 36.99 -44 38 C-44.66 38 -45.32 38 -46 38 C-47.37310707 39.29233607 -48.71034824 40.62437146 -50 42 C-50.99 41.505 -50.99 41.505 -52 41 C-53.2236068 43.0745356 -53.2236068 43.0745356 -53 46 C-55.97 46.495 -55.97 46.495 -59 47 C-59 47.66 -59 48.32 -59 49 C-59.53625 49.12375 -60.0725 49.2475 -60.625 49.375 C-63.4948864 50.13023326 -66.2410121 50.89640484 -69 52 C-69.33 52.99 -69.66 53.98 -70 55 C-71.11375 54.7215625 -71.11375 54.7215625 -72.25 54.4375 C-74.98555755 54.00229766 -76.40699621 54.19527469 -79 55 C-79.66 55 -80.32 55 -81 55 C-81.33 55.99 -81.66 56.98 -82 58 C-82.66 57.67 -83.32 57.34 -84 57 C-84.99 57.99 -85.98 58.98 -87 60 C-89.42857143 53.71428571 -89.42857143 53.71428571 -88 50 C-86.700625 50.0928125 -86.700625 50.0928125 -85.375 50.1875 C-81.49465537 49.9719253 -79.29430988 49.02150833 -76 47 C-75.34 46.01 -74.68 45.02 -74 44 C-73.34 44 -72.68 44 -72 44 C-71.67 43.34 -71.34 42.68 -71 42 C-70.67 42.66 -70.34 43.32 -70 44 C-69.505 43.608125 -69.01 43.21625 -68.5 42.8125 C-58.42574257 35.50866337 -58.42574257 35.50866337 -53 35 C-53 34.34 -53 33.68 -53 33 C-52.319375 32.9175 -51.63875 32.835 -50.9375 32.75 C-48.28231457 32.07208032 -46.63219434 31.31087552 -44.3125 29.9375 C-41 28 -41 28 -39 28 C-38.01 27.67 -37.02 27.34 -36 27 C-36 26.01 -36 25.02 -36 24 C-34.68 24.33 -33.36 24.66 -32 25 C-31.5875 24.38125 -31.175 23.7625 -30.75 23.125 C-28.88106682 20.85558114 -27.64972621 20.16899686 -25 19 C-24.13375 18.46375 -23.2675 17.9275 -22.375 17.375 C-20 16 -20 16 -18 16 C-15.24750021 13.59156268 -13.44077046 11.36179774 -12 8 C-11.34 8 -10.68 8 -10 8 C-9.979375 7.401875 -9.95875 6.80375 -9.9375 6.1875 C-9 4 -9 4 -5.4375 2.25 C-4.303125 1.8375 -3.16875 1.425 -2 1 C-1.505 1.495 -1.505 1.495 -1 2 C-0.67 1.34 -0.34 0.68 0 0 Z " fill="#5155E5" transform="translate(395,332)"/>
<path d="M0 0 C3.44266307 3.44266307 3.21686503 8.05460768 3.375 12.75 C3.25603255 25.85129062 -1.32787641 39.33104519 -9.9609375 49.25390625 C-12 51 -12 51 -15.5625 51.125 C-19 50 -19 50 -20.6953125 47.35546875 C-24.33740754 37.98852371 -22.38101329 26.62433951 -18.5546875 17.5859375 C-9.58631048 -2.00643708 -9.58631048 -2.00643708 0 0 Z " fill="#4175DB" transform="translate(415,247)"/>
<path d="M0 0 C2.34260643 0.2602896 4.67724823 0.59952556 7 1 C9.81237541 0.64025105 9.81237541 0.64025105 12 0 C12 3 12 3 9.75 5.5625 C7.44155902 7.60861814 5.77210425 8.79875482 3 10 C2.01 10.66 1.02 11.32 0 12 C-0.66 12.33 -1.32 12.66 -2 13 C-2.33 13.66 -2.66 14.32 -3 15 C-4.65 14.01 -6.3 13.02 -8 12 C-8.0825 12.61875 -8.165 13.2375 -8.25 13.875 C-9 16 -9 16 -11.0625 17.25 C-11.701875 17.4975 -12.34125 17.745 -13 18 C-13 17.01 -13 16.02 -13 15 C-13.53109375 15.33773438 -14.0621875 15.67546875 -14.609375 16.0234375 C-15.31578125 16.46945312 -16.0221875 16.91546875 -16.75 17.375 C-17.44609375 17.81585938 -18.1421875 18.25671875 -18.859375 18.7109375 C-20.86517383 19.91880906 -22.89178296 20.98387737 -25 22 C-25.66 21.34 -26.32 20.68 -27 20 C-27.70125 20.28875 -28.4025 20.5775 -29.125 20.875 C-32 22 -32 22 -35.25 23 C-38.13213612 23.69115171 -38.13213612 23.69115171 -39 26 C-41.3140622 26.73075648 -43.64828869 27.40138258 -46 28 C-46.66 26.68 -47.32 25.36 -48 24 C-48.66 24.66 -49.32 25.32 -50 26 C-50.33 25.34 -50.66 24.68 -51 24 C-53.30532837 22.69364726 -55.47571223 21.84142926 -58 21 C-58 18.69 -58 16.38 -58 14 C-57.01 14 -56.02 14 -55 14 C-54.67 13.34 -54.34 12.68 -54 12 C-53.01 13.98 -52.02 15.96 -51 18 C-49.68 18 -48.36 18 -47 18 C-46.34 18 -45.68 18 -45 18 C-45 17.34 -45 16.68 -45 16 C-42 14 -42 14 -39.8125 14.375 C-39.214375 14.58125 -38.61625 14.7875 -38 15 C-38 14.34 -38 13.68 -38 13 C-37.01 13.33 -36.02 13.66 -35 14 C-34.34 13.01 -33.68 12.02 -33 11 C-30.6875 10.375 -30.6875 10.375 -28 10 C-27.13375 9.79375 -26.2675 9.5875 -25.375 9.375 C-23 9 -23 9 -20 10 C-19.67 9.34 -19.34 8.68 -19 8 C-17.906875 7.855625 -16.81375 7.71125 -15.6875 7.5625 C-11.9009344 6.9848883 -10.86697227 6.29357782 -8 4 C-7.154375 3.835 -6.30875 3.67 -5.4375 3.5 C-2.92033567 3.24529238 -2.92033567 3.24529238 -1.625 1.375 C-1.08875 0.92125 -0.5525 0.4675 0 0 Z " fill="#475BE7" transform="translate(331,350)"/>
<path d="M0 0 C3.34943055 3.34943055 3.46217754 8.44601539 4.32421875 12.99609375 C5.77698999 20.11821619 8.30482674 26.36579209 13 32 C12.01 32.495 12.01 32.495 11 33 C10.01 32.505 10.01 32.505 9 32 C8.505 32.99 8.505 32.99 8 34 C5.7457491 34.85506068 4.41311629 35.10661066 2.0625 34.5 C-0.5379494 33.86958802 -2.40899205 34.45452464 -5 35 C-5.66 34.67 -6.32 34.34 -7 34 C-7.33 34.66 -7.66 35.32 -8 36 C-8.99 35.01 -9.98 34.02 -11 33 C-11 34.65 -11 36.3 -11 38 C-11.66 38 -12.32 38 -13 38 C-13 37.01 -13 36.02 -13 35 C-14.485 35.495 -14.485 35.495 -16 36 C-16.66 35.34 -17.32 34.68 -18 34 C-18.2475 34.61875 -18.495 35.2375 -18.75 35.875 C-20.20628639 38.35068687 -21.37812506 38.95125002 -24 40 C-24.66 39.34 -25.32 38.68 -26 38 C-26.99 38 -27.98 38 -29 38 C-33 33.54285714 -33 33.54285714 -33 32 C-32.38253906 31.92523438 -31.76507813 31.85046875 -31.12890625 31.7734375 C-22.10308284 30.37216811 -15.84250636 26.90366117 -10.375 19.5 C-6.33639986 13.3144157 -3.1593933 6.66449529 0 0 Z M-9 29 C-9.66 29.66 -10.32 30.32 -11 31 C-10.01 31 -9.02 31 -8 31 C-7.67 30.34 -7.34 29.68 -7 29 C-7.66 29 -8.32 29 -9 29 Z " fill="#3475E0" transform="translate(310,277)"/>
<path d="M0 0 C1.85741418 5.407174 -0.55236529 10.32024736 -2.1875 15.5625 C-2.54118652 16.70332031 -2.89487305 17.84414063 -3.25927734 19.01953125 C-8.63380432 35.72913399 -15.60137105 52.1447719 -25 67 C-25.66 66.67 -26.32 66.34 -27 66 C-26.690625 65.4225 -26.38125 64.845 -26.0625 64.25 C-24.75540822 61.48204095 -24 59.06638853 -24 56 C-25.32 57.32 -26.64 58.64 -28 60 C-29.65 59.01 -31.3 58.02 -33 57 C-33 57.66 -33 58.32 -33 59 C-32.34 59 -31.68 59 -31 59 C-31.33 59.99 -31.66 60.98 -32 62 C-34.73030993 63.2676439 -35.87352646 63.04311598 -38.75 62.0625 C-39.86375 61.5365625 -39.86375 61.5365625 -41 61 C-40.34 60.34 -39.68 59.68 -39 59 C-39 58.01 -39 57.02 -39 56 C-38.01 55.505 -38.01 55.505 -37 55 C-36.7525 54.195625 -36.505 53.39125 -36.25 52.5625 C-35 50 -35 50 -32.0625 48.8125 C-31.051875 48.544375 -30.04125 48.27625 -29 48 C-28.01 47.34 -27.02 46.68 -26 46 C-25.34 46 -24.68 46 -24 46 C-22.33907049 44.84640698 -22.33907049 44.84640698 -20.625 43.3125 C-20.03976562 42.81363281 -19.45453125 42.31476563 -18.8515625 41.80078125 C-14.70273111 37.76573638 -12.25991899 33.84081598 -10.1875 28.4375 C-9.74792969 27.32246094 -9.30835938 26.20742188 -8.85546875 25.05859375 C-8.0227976 22.08150923 -7.87762658 20.81626214 -9 18 C-9.45375 18.66 -9.9075 19.32 -10.375 20 C-10.91125 20.66 -11.4475 21.32 -12 22 C-12.66 22 -13.32 22 -14 22 C-14.33 22.66 -14.66 23.32 -15 24 C-15.66 23.67 -16.32 23.34 -17 23 C-17.33 23.66 -17.66 24.32 -18 25 C-19.44197868 26.44197868 -21.17691571 27.11786244 -23 28 C-23.33 27.34 -23.66 26.68 -24 26 C-23.05988318 24.29883624 -22.05104383 22.63495707 -21 21 C-20.31903578 19.67391178 -19.64669414 18.34313399 -19 17 C-19 17.66 -19 18.32 -19 19 C-15.31592726 17.95100433 -15.31592726 17.95100433 -13 15.125 C-12.67 14.42375 -12.34 13.7225 -12 13 C-9.67391054 10.97997495 -7.27905211 9.19378619 -4.75 7.4375 C-2.71209814 6.02354486 -2.71209814 6.02354486 -2 3 C-1.34 3 -0.68 3 0 3 C0 2.01 0 1.02 0 0 Z M-7 16 C-6 18 -6 18 -6 18 Z " fill="#762FE8" transform="translate(504,316)"/>
<path d="M0 0 C1.32 0.99 2.64 1.98 4 3 C3.67 3.99 3.34 4.98 3 6 C2.01 6.33 1.02 6.66 0 7 C0 7.66 0 8.32 0 9 C-0.66 9 -1.32 9 -2 9 C-2 8.34 -2 7.68 -2 7 C-6.54711989 8.64692505 -10.03012164 11.02536168 -13.9140625 13.85546875 C-14.60242188 14.23316406 -15.29078125 14.61085938 -16 15 C-16.99 14.67 -17.98 14.34 -19 14 C-21.16715557 14.87483915 -21.16715557 14.87483915 -23 16 C-23 16.99 -23 17.98 -23 19 C-23.66 19.66 -24.32 20.32 -25 21 C-25.99 21 -26.98 21 -28 21 C-30.95822222 21.57255914 -33.33239126 22.62316968 -36 24 C-39 25 -39 25 -40.9375 24.4375 C-43.60357285 23.8719694 -44.72275075 24.61738438 -47 26 C-47.33 25.67 -47.66 25.34 -48 25 C-48.66 25.66 -49.32 26.32 -50 27 C-51.5159375 27.2475 -51.5159375 27.2475 -53.0625 27.5 C-54.5165625 27.7475 -54.5165625 27.7475 -56 28 C-56.33 28.66 -56.66 29.32 -57 30 C-58.64142963 31.0409066 -60.30712215 32.04504326 -62 33 C-62.33 32.34 -62.66 31.68 -63 31 C-63.886875 31.474375 -64.77375 31.94875 -65.6875 32.4375 C-68.58943272 33.80633619 -70.83490131 34.64832237 -74 35 C-74.66 34.67 -75.32 34.34 -76 34 C-74.49592796 29.48778387 -70.95409693 27.28515992 -67 25 C-63.60601635 23.89498207 -61.37973193 23.87342269 -58 25 C-57.62875 24.360625 -57.2575 23.72125 -56.875 23.0625 C-54.41646442 20.35811086 -52.53682668 20.46132522 -49 20 C-48.67 19.34 -48.34 18.68 -48 18 C-47.01 18.66 -46.02 19.32 -45 20 C-44.401875 19.649375 -43.80375 19.29875 -43.1875 18.9375 C-41 18 -41 18 -38 19 C-37.505 17.515 -37.505 17.515 -37 16 C-35.68 16 -34.36 16 -33 16 C-32.525625 15.525625 -32.05125 15.05125 -31.5625 14.5625 C-29.50188636 12.50188636 -27.83341869 12.48375441 -25 12 C-22.93330603 11.09166275 -22.93330603 11.09166275 -21 10 C-19.9790625 9.5359375 -19.9790625 9.5359375 -18.9375 9.0625 C-16.90393799 7.94732083 -15.55305332 6.70835865 -14 5 C-13.01 5.33 -12.02 5.66 -11 6 C-10.67 5.01 -10.34 4.02 -10 3 C-8.68 3 -7.36 3 -6 3 C-4.948125 2.4740625 -4.948125 2.4740625 -3.875 1.9375 C-3.25625 1.628125 -2.6375 1.31875 -2 1 C-1.01 1.495 -1.01 1.495 0 2 C0 1.34 0 0.68 0 0 Z " fill="#3D6DE1" transform="translate(371,299)"/>
<path d="M0 0 C0.99 0.33 1.98 0.66 3 1 C2.34 1.33 1.68 1.66 1 2 C1.99 2.33 2.98 2.66 4 3 C4.66 2.34 5.32 1.68 6 1 C5.67 3.31 5.34 5.62 5 8 C3.02 7.67 1.04 7.34 -1 7 C-0.505 9.475 -0.505 9.475 0 12 C-3.98896051 14.78018459 -7.23003145 15.37000415 -12 16 C-12.66 16.66 -13.32 17.32 -14 18 C-16.125 18.625 -16.125 18.625 -18 19 C-17.67 18.01 -17.34 17.02 -17 16 C-17.66 15.67 -18.32 15.34 -19 15 C-19.66 16.98 -20.32 18.96 -21 21 C-21.66 21 -22.32 21 -23 21 C-23.33 21.99 -23.66 22.98 -24 24 C-24.66 23.67 -25.32 23.34 -26 23 C-26 22.34 -26 21.68 -26 21 C-27.32 21.33 -28.64 21.66 -30 22 C-30 22.66 -30 23.32 -30 24 C-31.32 24.33 -32.64 24.66 -34 25 C-34 24.34 -34 23.68 -34 23 C-34.66 23.33 -35.32 23.66 -36 24 C-35.67 25.32 -35.34 26.64 -35 28 C-36.65 27.67 -38.3 27.34 -40 27 C-40 26.01 -40 25.02 -40 24 C-40.66 23.34 -41.32 22.68 -42 22 C-40.68 21.34 -39.36 20.68 -38 20 C-38 18.68 -38 17.36 -38 16 C-34.30458414 15.04975021 -31.69541586 15.04975021 -28 16 C-27.67 14.68 -27.34 13.36 -27 12 C-25.63875 11.87625 -25.63875 11.87625 -24.25 11.75 C-20.59922161 10.90751268 -19.36615417 9.82118382 -17 7 C-16.01 7.33 -15.02 7.66 -14 8 C-13.67 7.67 -13.34 7.34 -13 7 C-11.00628175 5.65729179 -9.0065438 4.32346506 -7 3 C-6.01 3.66 -5.02 4.32 -4 5 C-2.68 3.35 -1.36 1.7 0 0 Z " fill="#5A43EC" transform="translate(340,397)"/>
<path d="M0 0 C0.495 1.485 0.495 1.485 1 3 C1.99 3 2.98 3 4 3 C3.1875 5.4375 3.1875 5.4375 2 8 C1.01 8.33 0.02 8.66 -1 9 C-1 8.34 -1 7.68 -1 7 C-1.66 7 -2.32 7 -3 7 C-3.33 7.66 -3.66 8.32 -4 9 C-5.64142963 10.0409066 -7.30712215 11.04504326 -9 12 C-9.66 11.34 -10.32 10.68 -11 10 C-11.99 10 -12.98 10 -14 10 C-14 9.34 -14 8.68 -14 8 C-14.66 8 -15.32 8 -16 8 C-16.33 8.99 -16.66 9.98 -17 11 C-19.98459129 12.95542188 -21.26414791 13 -25 13 C-25.66 13.66 -26.32 14.32 -27 15 C-27.66 14.01 -28.32 13.02 -29 12 C-29 12.66 -29 13.32 -29 14 C-29.66 14 -30.32 14 -31 14 C-31.33 14.66 -31.66 15.32 -32 16 C-32.721875 15.649375 -33.44375 15.29875 -34.1875 14.9375 C-37.95574912 13.68141696 -40.30716228 14.47098821 -44 15.625 C-46 16 -46 16 -48.5625 15.375 C-49.366875 15.25125 -50.17125 15.1275 -51 15 C-52.58333333 16.41666667 -52.58333333 16.41666667 -54 18 C-55.32 18 -56.64 18 -58 18 C-58.33 17.34 -58.66 16.68 -59 16 C-59.99 16.66 -60.98 17.32 -62 18 C-65.29444058 17.79409746 -67.31110367 17.57408028 -69.875 15.4375 C-70.24625 14.963125 -70.6175 14.48875 -71 14 C-70.01 13.34 -69.02 12.68 -68 12 C-67.01 13.485 -67.01 13.485 -66 15 C-65.67 13.68 -65.34 12.36 -65 11 C-64.0925 11.350625 -63.185 11.70125 -62.25 12.0625 C-59.14443099 12.95833722 -57.89345341 13.28597929 -55 12 C-54.67 11.34 -54.34 10.68 -54 10 C-46 10 -46 10 -44.125 10.625 C-41.26115449 11.1303845 -39.61144287 10.16827707 -37 9 C-36.34 9 -35.68 9 -35 9 C-34.2575 8.62875 -33.515 8.2575 -32.75 7.875 C-29.18922486 6.74202609 -27.37739234 7.58620786 -24 9 C-23.67 8.01 -23.34 7.02 -23 6 C-22.505 6.99 -22.505 6.99 -22 8 C-21.48050781 7.72285156 -20.96101563 7.44570313 -20.42578125 7.16015625 C-16.63783995 5.19266733 -13.29300887 3.53662611 -9 3 C-9 3.66 -9 4.32 -9 5 C-7.35 4.67 -5.7 4.34 -4 4 C-3.67 3.01 -3.34 2.02 -3 1 C-2.01 1.495 -2.01 1.495 -1 2 C-0.67 1.34 -0.34 0.68 0 0 Z " fill="#5E2FF8" transform="translate(206,467)"/>
<path d="M0 0 C0.99 0 1.98 0 3 0 C6.7608486 6.51880424 6.7608486 6.51880424 7.96875 8.94921875 C13.21894262 19.38994272 20.2344852 30.2344852 28.51953125 38.51953125 C30.43724479 40.43724479 32.02789801 42.54314611 33.6875 44.6875 C37.03332363 48.92719859 40.59564364 52.7128348 44.53125 56.40625 C46 58 46 58 46 60 C46.59039062 60.25910156 47.18078125 60.51820313 47.7890625 60.78515625 C50.16697393 62.09174716 51.54447428 63.44545731 53.375 65.4375 C59.04360593 71.27723366 65.54197836 76.07695149 72 81 C72.73734375 81.58136719 73.4746875 82.16273438 74.234375 82.76171875 C76.09052102 84.18896455 76.09052102 84.18896455 79 85 C80.68816933 86.64488294 82.35353315 88.31337542 84 90 C85.31175986 91.02813611 86.6369893 92.04084432 88 93 C86.515 93.495 86.515 93.495 85 94 C82.67884918 92.60248006 80.59284201 91.18476022 78.4375 89.5625 C77.49922363 88.87232788 77.49922363 88.87232788 76.54199219 88.16821289 C68.53156504 82.23840284 60.87100523 76.01293178 53.51171875 69.2890625 C51.8200968 67.74739771 50.11394349 66.22154556 48.39453125 64.7109375 C43.95155984 60.79897175 39.77037123 56.86579393 35.9609375 52.33203125 C34.42872335 50.50985625 32.87330162 48.72537153 31.2890625 46.94921875 C20.36493699 34.61092073 11.44426464 21.12024442 3 7 C2.4328125 6.09636719 1.865625 5.19273437 1.28125 4.26171875 C0 2 0 2 0 0 Z " fill="#5547F4" transform="translate(31,377)"/>
<path d="M0 0 C0.99 0.66 1.98 1.32 3 2 C2.4740625 2.8971875 2.4740625 2.8971875 1.9375 3.8125 C0.66695302 6.10813214 0.66695302 6.10813214 2 9 C2.99 9 3.98 9 5 9 C4.67 10.65 4.34 12.3 4 14 C4.99 14.33 5.98 14.66 7 15 C5.68 15.33 4.36 15.66 3 16 C3 16.66 3 17.32 3 18 C-0.13685998 19.04561999 -2.72365939 19 -6 19 C-6.66 19.99 -7.32 20.98 -8 22 C-9.32 21.67 -10.64 21.34 -12 21 C-12 21.66 -12 22.32 -12 23 C-13.65 23.33 -15.3 23.66 -17 24 C-17.33 23.34 -17.66 22.68 -18 22 C-19.32 23.32 -20.64 24.64 -22 26 C-22.99 25.67 -23.98 25.34 -25 25 C-24.67 23.68 -24.34 22.36 -24 21 C-23.34 21.33 -22.68 21.66 -22 22 C-21.938125 21.38125 -21.87625 20.7625 -21.8125 20.125 C-21 18 -21 18 -18.625 16.6875 C-16 16 -16 16 -13 17 C-13 16.34 -13 15.68 -13 15 C-12.01 15 -11.02 15 -10 15 C-10.061875 14.2575 -10.12375 13.515 -10.1875 12.75 C-10 10 -10 10 -8.4375 8 C-6.68442897 6.03330722 -6.68442897 6.03330722 -7.3125 3.25 C-7.539375 2.5075 -7.76625 1.765 -8 1 C-6.68 1.99 -5.36 2.98 -4 4 C-2.68 2.68 -1.36 1.36 0 0 Z " fill="#6B2BF1" transform="translate(322,440)"/>
<path d="M0 0 C2 0.875 2 0.875 3.25 3.4375 C3.4975 4.241875 3.745 5.04625 4 5.875 C3.01 5.545 2.02 5.215 1 4.875 C1 5.535 1 6.195 1 6.875 C0.01 7.205 -0.98 7.535 -2 7.875 C-2.495 6.885 -2.495 6.885 -3 5.875 C-4.98 6.865 -4.98 6.865 -7 7.875 C-7 7.215 -7 6.555 -7 5.875 C-7.66 5.875 -8.32 5.875 -9 5.875 C-9.66 7.525 -10.32 9.175 -11 10.875 C-11.99 10.545 -12.98 10.215 -14 9.875 C-16.14419403 10.4857124 -16.14419403 10.4857124 -18.375 11.4375 C-22.62155449 12.97540391 -22.62155449 12.97540391 -26.0625 12.0625 C-26.701875 11.670625 -27.34125 11.27875 -28 10.875 C-28.99 12.36 -28.99 12.36 -30 13.875 C-34.97093824 13.46346263 -39.44508386 13.07899168 -44 10.875 C-41.18342636 7.6411562 -39.32713231 6.20785633 -35 5.875 C-34.01 6.205 -33.02 6.535 -32 6.875 C-30.32457024 6.58895102 -28.65614657 6.25718767 -27 5.875 C-22 5.875 -22 5.875 -20 6.875 C-19.67 5.885 -19.34 4.895 -19 3.875 C-15.82757352 2.56464993 -13.44118336 1.875 -10 1.875 C-6.69263756 1.40251965 -3.19180281 -0.19948768 0 0 Z M-13 5.875 C-13 6.535 -13 7.195 -13 7.875 C-12.34 7.545 -11.68 7.215 -11 6.875 C-11.66 6.545 -12.32 6.215 -13 5.875 Z " fill="#6428F9" transform="translate(209,485.125)"/>
<path d="M0 0 C0.64257812 1.76293945 0.64257812 1.76293945 1 4 C0.12304688 5.87182617 0.12304688 5.87182617 -1.28125 7.79296875 C-2.04526123 8.85656616 -2.04526123 8.85656616 -2.82470703 9.94165039 C-3.37755371 10.68278076 -3.93040039 11.42391113 -4.5 12.1875 C-5.05155762 12.94474365 -5.60311523 13.7019873 -6.17138672 14.48217773 C-7.76789247 16.66478702 -9.3816726 18.83354626 -11 21 C-11.75539063 22.02867187 -12.51078125 23.05734375 -13.2890625 24.1171875 C-16.60593576 28.53498039 -16.60593576 28.53498039 -18 30 C-18.66 30 -19.32 30 -20 30 C-20.24105469 30.56847656 -20.48210937 31.13695312 -20.73046875 31.72265625 C-22.24968088 34.44788908 -24.07418981 36.26690339 -26.3125 38.4375 C-27.12332031 39.23027344 -27.93414062 40.02304687 -28.76953125 40.83984375 C-29.87361328 41.90912109 -29.87361328 41.90912109 -31 43 C-31.825 43.825 -32.65 44.65 -33.5 45.5 C-34.325 46.325 -35.15 47.15 -36 48 C-36.89525391 48.94746094 -36.89525391 48.94746094 -37.80859375 49.9140625 C-46.45772398 58.89646196 -56.41968163 66.21443943 -66.5 73.5 C-67.06291748 73.90919678 -67.62583496 74.31839355 -68.20581055 74.73999023 C-71.65929677 77.19897126 -75.16489243 79.1979615 -79 81 C-79 80.01 -79 79.02 -79 78 C-77.05078125 76.52734375 -77.05078125 76.52734375 -74.3125 74.9375 C-50.7341718 60.52517151 -29.28914709 40.21576526 -13 18 C-11.98595574 16.63390769 -10.97162292 15.26802955 -9.95703125 13.90234375 C-4.86467183 7.03181361 -4.86467183 7.03181361 0 0 Z " fill="#7135F1" transform="translate(470,393)"/>
<path d="M0 0 C1.31751062 3.66252746 0.6629365 5.9931921 -0.4765625 9.65625 C-0.81816406 10.76226562 -1.15976562 11.86828125 -1.51171875 13.0078125 C-2.06279297 14.73644531 -2.06279297 14.73644531 -2.625 16.5 C-2.96917969 17.62148438 -3.31335938 18.74296875 -3.66796875 19.8984375 C-6.03362969 27.45807727 -8.82800159 34.74312675 -12 42 C-13.79538542 35.60130042 -11.13612687 30.57292231 -8.7421875 24.62109375 C-7.96662004 21.88211605 -8.02323769 20.62736697 -9 18 C-9.45375 18.66 -9.9075 19.32 -10.375 20 C-10.91125 20.66 -11.4475 21.32 -12 22 C-12.66 22 -13.32 22 -14 22 C-14.33 22.66 -14.66 23.32 -15 24 C-15.66 23.67 -16.32 23.34 -17 23 C-17.33 23.66 -17.66 24.32 -18 25 C-19.44197868 26.44197868 -21.17691571 27.11786244 -23 28 C-23.33 27.34 -23.66 26.68 -24 26 C-23.05988318 24.29883624 -22.05104383 22.63495707 -21 21 C-20.31903578 19.67391178 -19.64669414 18.34313399 -19 17 C-19 17.66 -19 18.32 -19 19 C-15.31592726 17.95100433 -15.31592726 17.95100433 -13 15.125 C-12.67 14.42375 -12.34 13.7225 -12 13 C-9.67391054 10.97997495 -7.27905211 9.19378619 -4.75 7.4375 C-2.71209814 6.02354486 -2.71209814 6.02354486 -2 3 C-1.34 3 -0.68 3 0 3 C0 2.01 0 1.02 0 0 Z M-7 16 C-6 18 -6 18 -6 18 Z " fill="#7037E6" transform="translate(504,316)"/>
<path d="M0 0 C2.12988281 0.41210938 2.12988281 0.41210938 4 1 C3.44344727 1.48871582 2.88689453 1.97743164 2.31347656 2.48095703 C-5.44605412 9.37258373 -12.88579424 16.56478436 -20.25 23.875 C-21.21011993 24.82678131 -21.21011993 24.82678131 -22.18963623 25.79779053 C-31.77304821 35.33917659 -40.45134541 44.98816185 -47.83447266 56.37548828 C-49.07740227 58.10788326 -50.45604095 59.53399056 -52 61 C-51.49294289 56.31409291 -49.35953697 53.19315186 -46.625 49.5 C-46.18454346 48.89486572 -45.74408691 48.28973145 -45.2902832 47.66625977 C-39.09732246 39.2728099 -32.39378352 31.35789137 -25 24 C-23.71790108 22.5515609 -22.4465839 21.09348943 -21.1875 19.625 C-18.02514554 16.04218268 -14.74191252 12.84529156 -11.08203125 9.77734375 C-9.56198321 8.47974177 -8.08538825 7.1307409 -6.63671875 5.75390625 C-5.84910156 5.01011719 -5.06148437 4.26632813 -4.25 3.5 C-3.53328125 2.8090625 -2.8165625 2.118125 -2.078125 1.40625 C-1.39234375 0.9421875 -0.7065625 0.478125 0 0 Z " fill="#13B2D5" transform="translate(95,56)"/>
<path d="M0 0 C0.33 0.66 0.66 1.32 1 2 C1.763125 1.62875 2.52625 1.2575 3.3125 0.875 C4.199375 0.58625 5.08625 0.2975 6 0 C6.99 0.66 7.98 1.32 9 2 C9.66 1.67 10.32 1.34 11 1 C13 4 13 4 13 7 C12.34 7 11.68 7 11 7 C10.67 7.99 10.34 8.98 10 10 C9.01 8.68 8.02 7.36 7 6 C5.35 6.66 3.7 7.32 2 8 C2 8.66 2 9.32 2 10 C1.34 10 0.68 10 0 10 C-0.33 9.01 -0.66 8.02 -1 7 C-1.309375 7.61875 -1.61875 8.2375 -1.9375 8.875 C-2.625 10.25 -3.3125 11.625 -4 13 C-4.66 12.67 -5.32 12.34 -6 12 C-5.67 11.01 -5.34 10.02 -5 9 C-5.99 8.67 -6.98 8.34 -8 8 C-8.66 9.98 -9.32 11.96 -10 14 C-10.66 14 -11.32 14 -12 14 C-12.33 14.66 -12.66 15.32 -13 16 C-13.66 16 -14.32 16 -15 16 C-15.33 15.34 -15.66 14.68 -16 14 C-16.99 13.67 -17.98 13.34 -19 13 C-19.33 13.66 -19.66 14.32 -20 15 C-20.33 14.34 -20.66 13.68 -21 13 C-18.63707344 10.47411298 -17.33537489 9.11179163 -14 8 C-13.566875 7.0409375 -13.566875 7.0409375 -13.125 6.0625 C-12 4 -12 4 -9.625 2.6875 C-7 2 -7 2 -4.875 2.5625 C-4.25625 2.706875 -3.6375 2.85125 -3 3 C-1.22809091 1.64555699 -1.22809091 1.64555699 0 0 Z " fill="#5936F5" transform="translate(218,450)"/>
<path d="M0 0 C3.06381504 2.68083816 4.70917463 4.87752388 6 8.75 C6.06802967 10.47795352 6.08495645 12.20835365 6.0625 13.9375 C6.05347656 14.83855469 6.04445312 15.73960937 6.03515625 16.66796875 C6.02355469 17.35503906 6.01195312 18.04210937 6 18.75 C5.67 18.75 5.34 18.75 5 18.75 C4.8453125 16.9865625 4.8453125 16.9865625 4.6875 15.1875 C4.13536206 10.87008803 3.0733473 7.58953204 1 3.75 C-3.63874824 0.73177516 -8.683916 1.00644315 -14 1.75 C-25.81990903 5.62174509 -35.98027422 16.2671296 -41.65356445 27.08056641 C-44.15673744 32.18148326 -46.2962246 37.31974046 -48 42.75 C-48.66 42.75 -49.32 42.75 -50 42.75 C-50.33 43.74 -50.66 44.73 -51 45.75 C-50.48741356 40.11154919 -48.96616001 35.88417381 -46.375 30.875 C-46.01672119 30.17318604 -45.65844238 29.47137207 -45.28930664 28.74829102 C-42.41048123 23.25061802 -39.17866827 18.35896592 -35 13.75 C-34.44699219 13.12867188 -33.89398438 12.50734375 -33.32421875 11.8671875 C-24.78457108 2.79749274 -12.72805639 -5.30335683 0 0 Z " fill="#1FB5D3" transform="translate(133,203.25)"/>
<path d="M0 0 C0.495 2.475 0.495 2.475 1 5 C0.360625 5.103125 -0.27875 5.20625 -0.9375 5.3125 C-1.9584375 5.6528125 -1.9584375 5.6528125 -3 6 C-3.33 6.99 -3.66 7.98 -4 9 C-4.598125 8.773125 -5.19625 8.54625 -5.8125 8.3125 C-6.534375 8.209375 -7.25625 8.10625 -8 8 C-9.64594139 9.39588754 -9.64594139 9.39588754 -11 11 C-11.66 11 -12.32 11 -13 11 C-13.33 10.01 -13.66 9.02 -14 8 C-14.66 8.66 -15.32 9.32 -16 10 C-16.66 9.01 -17.32 8.02 -18 7 C-18.33 8.32 -18.66 9.64 -19 11 C-20.65 11.33 -22.3 11.66 -24 12 C-24.33 11.34 -24.66 10.68 -25 10 C-25.99 11.485 -25.99 11.485 -27 13 C-28.65 11.35 -30.3 9.7 -32 8 C-30.34015202 7.31653318 -28.67163195 6.65411685 -27 6 C-26.113125 5.649375 -25.22625 5.29875 -24.3125 4.9375 C-19.91259489 3.69224384 -15.54808955 3.34155613 -11 3 C-10.01 4.485 -10.01 4.485 -9 6 C-8.67 4.35 -8.34 2.7 -8 1 C-5.23735711 0.40267181 -2.83967231 0 0 0 Z " fill="#6528F8" transform="translate(243,476)"/>
<path d="M0 0 C3.78611227 0.54087318 5.55400767 2.11722332 8 5 C8 5.66 8 6.32 8 7 C8.88558594 7.38865234 8.88558594 7.38865234 9.7890625 7.78515625 C12.16697393 9.09174716 13.54447428 10.44545731 15.375 12.4375 C21.04360593 18.27723366 27.54197836 23.07695149 34 28 C34.73734375 28.58136719 35.4746875 29.16273438 36.234375 29.76171875 C38.09052102 31.18896455 38.09052102 31.18896455 41 32 C42.68816933 33.64488294 44.35353315 35.31337542 46 37 C47.31175986 38.02813611 48.6369893 39.04084432 50 40 C49.01 40.33 48.02 40.66 47 41 C44.67884918 39.60248006 42.59284201 38.18476022 40.4375 36.5625 C39.49922363 35.87232788 39.49922363 35.87232788 38.54199219 35.16821289 C30.53710618 29.24250473 22.87790536 23.02428073 15.52734375 16.30078125 C13.78691309 14.71637065 12.02782916 13.15228915 10.25390625 11.60546875 C9.36574219 10.82816406 8.47757813 10.05085938 7.5625 9.25 C6.75941406 8.55390625 5.95632812 7.8578125 5.12890625 7.140625 C2.9261664 4.92575997 1.48723946 2.73537289 0 0 Z " fill="#603BF3" transform="translate(69,430)"/>
<path d="M0 0 C1.32 0 2.64 0 4 0 C6.62136193 7.86408579 4.40756648 15.33304723 2 23 C-1.73907104 20.50728597 -1.97913078 19.31906209 -3 15 C-3.60421976 9.1765716 -3.14323938 5.107764 0 0 Z " fill="#2A85D8" transform="translate(357,232)"/>
<path d="M0 0 C4.60959619 0.50104306 7.00230477 2.28285405 10.5 5.25 C11.4178125 6.01828125 12.335625 6.7865625 13.28125 7.578125 C17.11776862 10.99571343 20.71741677 14.54597929 24 18.5 C25.71692705 20.52988591 27.42910842 22.42910842 29.3125 24.3125 C31.86736267 26.86736267 34.39210108 29.4376115 36.875 32.0625 C37.67679687 32.89910156 38.47859375 33.73570313 39.3046875 34.59765625 C41 37 41 37 40.7578125 39.30859375 C40.50773437 39.86675781 40.25765625 40.42492187 40 41 C39.35417969 40.20980469 38.70835937 39.41960937 38.04296875 38.60546875 C31.76080947 31.04156196 25.12415156 23.90647457 18.1875 16.9375 C17.38787842 16.12885498 16.58825684 15.32020996 15.7644043 14.48706055 C12.35065791 11.09036336 9.01533803 7.87612174 5.05078125 5.12890625 C2 3 2 3 0 0 Z " fill="#249BDB" transform="translate(415,57)"/>
<path d="M0 0 C2.20480175 2.20480175 2.41419387 3.0337382 3.03515625 5.9921875 C3.20466797 6.77980469 3.37417969 7.56742187 3.54882812 8.37890625 C3.71833984 9.20261719 3.88785156 10.02632813 4.0625 10.875 C4.40724112 12.49746194 4.7522831 14.11985998 5.09765625 15.7421875 C5.24726807 16.4626123 5.39687988 17.18303711 5.55102539 17.92529297 C5.99187091 19.96243556 6.48341864 21.98086913 7 24 C5.35 23.67 3.7 23.34 2 23 C2 22.01 2 21.02 2 20 C2.66 20 3.32 20 4 20 C3.34 18.68 2.68 17.36 2 16 C1.34 16.99 0.68 17.98 0 19 C-0.556875 18.835 -1.11375 18.67 -1.6875 18.5 C-4.18815807 17.95931717 -6.4489198 17.96615482 -9 18 C-7.69100294 15.18585648 -6.37721835 12.37397463 -5.0625 9.5625 C-4.68931641 8.76005859 -4.31613281 7.95761719 -3.93164062 7.13085938 C-3.39506836 5.98520508 -3.39506836 5.98520508 -2.84765625 4.81640625 C-2.51773682 4.10943604 -2.18781738 3.40246582 -1.84790039 2.67407227 C-1 1 -1 1 0 0 Z " fill="#3C83DF" transform="translate(310,277)"/>
<path d="M0 0 C0.33 0.66 0.66 1.32 1 2 C0.55527344 3.17949219 0.55527344 3.17949219 0.1015625 4.3828125 C-1.46236301 9.51825584 -1.46713196 14.53379806 -1.625 19.875 C-1.68300781 21.47988281 -1.68300781 21.47988281 -1.7421875 23.1171875 C-1.83602452 25.74462408 -1.92171557 28.37206171 -2 31 C-2.28875 30.38125 -2.5775 29.7625 -2.875 29.125 C-3.93720042 26.86674235 -3.93720042 26.86674235 -6 25 C-5.67 24.34 -5.34 23.68 -5 23 C-4.74514009 18.49747494 -4.82519412 15.00622135 -7 11 C-7.99 10.34 -8.98 9.68 -10 9 C-9.34 7.68 -8.68 6.36 -8 5 C-10.31 4.67 -12.62 4.34 -15 4 C-15 3.67 -15 3.34 -15 3 C-13.75283203 2.80083984 -13.75283203 2.80083984 -12.48046875 2.59765625 C-11.39378906 2.42105469 -10.30710937 2.24445313 -9.1875 2.0625 C-8.10855469 1.88847656 -7.02960938 1.71445312 -5.91796875 1.53515625 C-2.95066644 1.06128079 -2.95066644 1.06128079 0 0 Z M-5 10 C-4 12 -4 12 -4 12 Z " fill="#4482DE" transform="translate(377,264)"/>
<path d="M0 0 C1.64826111 2.96687001 2.44271087 5.65626525 3 9 C2.34 9 1.68 9 1 9 C0.67 9.99 0.34 10.98 0 12 C-0.66 12.66 -1.32 13.32 -2 14 C-2.6425235 16.06874034 -2.6425235 16.06874034 -3 18 C-3.928125 18.12375 -3.928125 18.12375 -4.875 18.25 C-7.15042479 18.79923543 -7.15042479 18.79923543 -8.125 20.875 C-8.41375 21.57625 -8.7025 22.2775 -9 23 C-9.66 23.99 -10.32 24.98 -11 26 C-11.99 25.67 -12.98 25.34 -14 25 C-13.42655063 22.13275314 -13.1385485 21.1385485 -11 19 C-11 19.66 -11 20.32 -11 21 C-10.34 21 -9.68 21 -9 21 C-9.33 19.68 -9.66 18.36 -10 17 C-9.34 16.67 -8.68 16.34 -8 16 C-8 14.35 -8 12.7 -8 11 C-7.01 11 -6.02 11 -5 11 C-4.87625 10.030625 -4.7525 9.06125 -4.625 8.0625 C-4.41875 7.051875 -4.2125 6.04125 -4 5 C-3.34 4.67 -2.68 4.34 -2 4 C-0.86649466 1.98330173 -0.86649466 1.98330173 0 0 Z " fill="#4371DB" transform="translate(498,172)"/>
<path d="M0 0 C1.31751062 3.66252746 0.6629365 5.9931921 -0.4765625 9.65625 C-0.81816406 10.76226562 -1.15976562 11.86828125 -1.51171875 13.0078125 C-1.87910156 14.16023438 -2.24648438 15.31265625 -2.625 16.5 C-3.14126953 18.18222656 -3.14126953 18.18222656 -3.66796875 19.8984375 C-6.03362969 27.45807727 -8.82800159 34.74312675 -12 42 C-13.52201657 36.58067691 -11.95337186 32.6010087 -10 27.4375 C-8.81769861 24.30353197 -7.79658802 21.25036363 -7 18 C-6.67 17.34 -6.34 16.68 -6 16 C-6.04125 14.865625 -6.0825 13.73125 -6.125 12.5625 C-6 9 -6 9 -4.5625 7.25 C-3.7890625 6.63125 -3.7890625 6.63125 -3 6 C-2.67 5.01 -2.34 4.02 -2 3 C-1.34 3 -0.68 3 0 3 C0 2.01 0 1.02 0 0 Z " fill="#6547E8" transform="translate(504,316)"/>
<path d="M0 0 C1.32 1.32 2.64 2.64 4 4 C5.32 3.34 6.64 2.68 8 2 C8 3.65 8 5.3 8 7 C6 8 6 8 4 9 C3.401875 9.309375 2.80375 9.61875 2.1875 9.9375 C-0.83004157 11.40316305 -3.91047942 12.69289514 -7 14 C-7.625 11.125 -7.625 11.125 -8 8 C-7.34 7.34 -6.68 6.68 -6 6 C-5.71125 5.34 -5.4225 4.68 -5.125 4 C-3.7636296 1.57978596 -2.53453445 1.01381378 0 0 Z M0 3 C0 6 0 6 0 6 Z " fill="#683FE6" transform="translate(428,361)"/>
<path d="M0 0 C0.99 0 1.98 0 3 0 C3.66 1.98 4.32 3.96 5 6 C4.01 6 3.02 6 2 6 C2 6.99 2 7.98 2 9 C1.01 9 0.02 9 -1 9 C-0.731875 9.556875 -0.46375 10.11375 -0.1875 10.6875 C-0.125625 11.450625 -0.06375 12.21375 0 13 C-2.46026571 15.87030999 -4.85489214 17.90326143 -8 20 C-8.66 20 -9.32 20 -10 20 C-10.33 20.99 -10.66 21.98 -11 23 C-11.66 22.67 -12.32 22.34 -13 22 C-12.2595614 17.00203947 -9.07559798 13.9706616 -5.4375 10.6875 C-2.34639983 7.27936392 -1.40300654 4.35670452 0 0 Z " fill="#3E75DB" transform="translate(492,161)"/>
<path d="M0 0 C0.66 0 1.32 0 2 0 C1.12482457 6.89200649 -0.95614088 12.62706732 -3.875 18.875 C-4.21466797 19.61226318 -4.55433594 20.34952637 -4.90429688 21.10913086 C-6.80494132 25.06292384 -8.60920204 28.09577395 -12 31 C-12 27 -12 27 -10 25 C-10 24.01 -10 23.02 -10 22 C-9.01 22 -8.02 22 -7 22 C-7 20.68 -7 19.36 -7 18 C-6.34 18 -5.68 18 -5 18 C-5.33 17.01 -5.66 16.02 -6 15 C-5.5625 12.3125 -5.5625 12.3125 -5 10 C-5.66 10 -6.32 10 -7 10 C-6.61736522 7.22589786 -6.28659286 6.23112328 -4.0625 4.4375 C-3.381875 3.963125 -2.70125 3.48875 -2 3 C-1.34 2.01 -0.68 1.02 0 0 Z " fill="#7431EA" transform="translate(490,352)"/>
<path d="M0 0 C0.94148531 2.82445592 1.07311695 4.14171618 0.87890625 7.01171875 C0.83056641 7.76904297 0.78222656 8.52636719 0.73242188 9.30664062 C0.67634766 10.09232422 0.62027344 10.87800781 0.5625 11.6875 C0.51029297 12.48478516 0.45808594 13.28207031 0.40429688 14.10351562 C0.27480978 16.06936522 0.13809959 18.03473665 0 20 C8.00069289 15.55291436 10.74393409 9.31283494 14 1 C14.66 1.66 15.32 2.32 16 3 C14.9760101 5.23884181 13.93215486 7.46436551 12.875 9.6875 C12.59140625 10.31333984 12.3078125 10.93917969 12.015625 11.58398438 C9.75252324 16.28238043 7.28174438 18.99182966 3 22 C0.6875 21.9375 0.6875 21.9375 -1 21 C-4.06813187 14.86373626 -1.88838257 6.25526725 0 0 Z " fill="#5166DF" transform="translate(434,277)"/>
<path d="M0 0 C0.33 0.99 0.66 1.98 1 3 C0.34 2.67 -0.32 2.34 -1 2 C-0.67 1.34 -0.34 0.68 0 0 Z M-1 3 C-1.33 4.32 -1.66 5.64 -2 7 C-2.66 7 -3.32 7 -4 7 C-4.33 7.99 -4.66 8.98 -5 10 C-6.9914056 10.38133299 -8.99279077 10.71325582 -11 11 C-11.33 10.67 -11.66 10.34 -12 10 C-12.66 11.65 -13.32 13.3 -14 15 C-14.33 14.34 -14.66 13.68 -15 13 C-15.66 13 -16.32 13 -17 13 C-16.34 11.02 -15.68 9.04 -15 7 C-14.34 7 -13.68 7 -13 7 C-12.34 6.01 -11.68 5.02 -11 4 C-7.60477658 3.32095532 -4.46006569 3 -1 3 Z " fill="#6F2BEE" transform="translate(359,433)"/>
<path d="M0 0 C0.99 0.33 1.98 0.66 3 1 C0.26234922 3.19370536 -2.30340555 4.70070701 -5.5546875 6.0078125 C-6.41707031 6.35457031 -7.27945312 6.70132812 -8.16796875 7.05859375 C-9.06128906 7.41050781 -9.95460938 7.76242187 -10.875 8.125 C-11.76058594 8.48464844 -12.64617187 8.84429687 -13.55859375 9.21484375 C-18.03052517 10.99428591 -22.17607039 12.47462153 -27 13 C-27.33 12.34 -27.66 11.68 -28 11 C-27.22285645 10.70230713 -26.44571289 10.40461426 -25.64501953 10.09790039 C-22.1379453 8.75381065 -18.63146616 7.40817523 -15.125 6.0625 C-13.90167969 5.59392578 -12.67835938 5.12535156 -11.41796875 4.64257812 C-10.25136719 4.19462891 -9.08476562 3.74667969 -7.8828125 3.28515625 C-6.80402832 2.87144775 -5.72524414 2.45773926 -4.61376953 2.03149414 C-2.07222133 1.07263528 -2.07222133 1.07263528 0 0 Z " fill="#663EEC" transform="translate(361,487)"/>
<path d="M0 0 C0.66 0.33 1.32 0.66 2 1 C1.01 2.485 1.01 2.485 0 4 C0 4.66 0 5.32 0 6 C-0.66 6.66 -1.32 7.32 -2 8 C-2.6425235 10.06874034 -2.6425235 10.06874034 -3 12 C-3.66 12 -4.32 12 -5 12 C-5.33 11.01 -5.66 10.02 -6 9 C-8.475 10.485 -8.475 10.485 -11 12 C-13 9 -13 9 -12.8984375 6.9140625 C-12 5 -12 5 -10.0390625 4.0234375 C-9.24242187 3.80945313 -8.44578125 3.59546875 -7.625 3.375 C-4.51757485 2.51463799 -2.74876969 1.83251313 0 0 Z " fill="#6246E4" transform="translate(419,358)"/>
<path d="M0 0 C0.99 0 1.98 0 3 0 C6.77110694 6.53658537 6.77110694 6.53658537 7.953125 8.9296875 C11.13371427 15.21965883 15.02305652 21.18754414 19 27 C16.52017738 26.62564978 15.29942576 26.33419172 13.59960938 24.43701172 C13.18517578 23.77459473 12.77074219 23.11217773 12.34375 22.4296875 C11.87839844 21.6975 11.41304687 20.9653125 10.93359375 20.2109375 C10.46050781 19.44007813 9.98742188 18.66921875 9.5 17.875 C9.02691406 17.12734375 8.55382813 16.3796875 8.06640625 15.609375 C0 2.78356562 0 2.78356562 0 0 Z " fill="#544FEF" transform="translate(31,377)"/>
<path d="M0 0 C0.62890625 1.80615234 0.62890625 1.80615234 1 4 C-0.5851752 6.38376726 -2.15773743 8.45683709 -4 10.625 C-5.01903049 11.86807033 -6.03594978 13.11287427 -7.05078125 14.359375 C-7.80415771 15.27879883 -7.80415771 15.27879883 -8.57275391 16.21679688 C-11.59356393 19.99100084 -14.29653059 23.99554361 -17 28 C-17.64477539 26.22558594 -17.64477539 26.22558594 -18 24 C-17.10717773 22.20410156 -17.10717773 22.20410156 -15.68359375 20.390625 C-15.16603516 19.71773437 -14.64847656 19.04484375 -14.11523438 18.3515625 C-13.56158203 17.65804687 -13.00792969 16.96453125 -12.4375 16.25 C-11.64762695 15.23292969 -11.64762695 15.23292969 -10.84179688 14.1953125 C-9.77779016 12.82525734 -8.70925461 11.4587074 -7.63623047 10.09570312 C-5.03911521 6.76928752 -2.51895583 3.38578463 0 0 Z " fill="#1CA9D7" transform="translate(61,89)"/>
<path d="M0 0 C0.556875 0.226875 1.11375 0.45375 1.6875 0.6875 C0.36298828 1.5228125 0.36298828 1.5228125 -0.98828125 2.375 C-2.20110457 3.14491456 -3.41329892 3.91582045 -4.625 4.6875 C-5.25639893 5.08960693 -5.88779785 5.49171387 -6.53833008 5.90600586 C-11.5715831 9.14252893 -16.3608394 12.60473855 -21.10546875 16.25390625 C-23.3125 17.6875 -23.3125 17.6875 -26.3125 17.6875 C-23.1057394 13.13438953 -19.48570166 10.510104 -14.875 7.5625 C-14.21951172 7.13324219 -13.56402344 6.70398437 -12.88867188 6.26171875 C-11.6149994 5.4313405 -10.33602007 4.60903169 -9.05126953 3.79589844 C-7.54392145 2.83502224 -6.06404212 1.83131224 -4.58984375 0.8203125 C-2.3125 -0.3125 -2.3125 -0.3125 0 0 Z " fill="#10B4D5" transform="translate(126.3125,36.3125)"/>
<path d="M0 0 C0.99 0.66 1.98 1.32 3 2 C1.07423885 4.43929746 -0.80090595 6.80090595 -3 9 C-3.66 9 -4.32 9 -5 9 C-6.63676257 10.9600281 -6.63676257 10.9600281 -8 13 C-8 12.01 -8 11.02 -8 10 C-8.99 9.67 -9.98 9.34 -11 9 C-11 7.02 -11 5.04 -11 3 C-8 3 -8 3 -5 4 C-4.54625 3.525625 -4.0925 3.05125 -3.625 2.5625 C-2 1 -2 1 0 0 Z " fill="#6F2AEF" transform="translate(339,442)"/>
<path d="M0 0 C-4.54810242 3.1772458 -9.21179588 5.74321401 -14.1875 8.1875 C-15.25387695 8.72020508 -15.25387695 8.72020508 -16.34179688 9.26367188 C-19.19893974 10.68014816 -21.970918 11.990306 -25 13 C-25.66 12.34 -26.32 11.68 -27 11 C-23.5644212 9.18384089 -20.12621865 7.3727061 -16.6875 5.5625 C-15.71103516 5.04623047 -14.73457031 4.52996094 -13.72851562 3.99804688 C-12.79072266 3.50498047 -11.85292969 3.01191406 -10.88671875 2.50390625 C-9.59060669 1.82050171 -9.59060669 1.82050171 -8.26831055 1.12329102 C-3.58612627 -1.19537542 -3.58612627 -1.19537542 0 0 Z " fill="#1CA7D6" transform="translate(156,22)"/>
<path d="M0 0 C1.32 0 2.64 0 4 0 C4.96070434 2.88211302 5.10581883 4.69850044 5.0625 7.6875 C5.05347656 8.49574219 5.04445313 9.30398437 5.03515625 10.13671875 C5.02355469 10.75160156 5.01195312 11.36648437 5 12 C4.67 11.01 4.34 10.02 4 9 C2.68 9 1.36 9 0 9 C0 8.34 0 7.68 0 7 C-0.66 7 -1.32 7 -2 7 C-2 9.64 -2 12.28 -2 15 C-2.33 15 -2.66 15 -3 15 C-3.35050464 9.158256 -3.16727335 5.1468192 0 0 Z " fill="#3F94DC" transform="translate(357,232)"/>
<path d="M0 0 C0.66 0 1.32 0 2 0 C2.38897161 1.62171239 2.76078298 3.24754925 3.125 4.875 C3.33382813 5.77992188 3.54265625 6.68484375 3.7578125 7.6171875 C3.83773438 8.40351563 3.91765625 9.18984375 4 10 C3.34 10.66 2.68 11.32 2 12 C1.34 11.34 0.68 10.68 0 10 C-0.99 11.485 -0.99 11.485 -2 13 C-4.625 13.1875 -4.625 13.1875 -7 13 C-7.33 12.34 -7.66 11.68 -8 11 C-7.34 11 -6.68 11 -6 11 C-6 10.34 -6 9.68 -6 9 C-5.34 9 -4.68 9 -4 9 C-3.34 7.02 -2.68 5.04 -2 3 C-1.34 3 -0.68 3 0 3 C0 2.01 0 1.02 0 0 Z " fill="#4A67DF" transform="translate(502,189)"/>
<path d="M0 0 C0.33 0 0.66 0 1 0 C1.0271045 3.04172719 1.04688964 6.08320997 1.0625 9.125 C1.07087891 9.9809375 1.07925781 10.836875 1.08789062 11.71875 C1.10538306 16.26678411 0.93192358 20.52383164 0 25 C-0.99 24.67 -1.98 24.34 -3 24 C-2.37638195 15.91950228 -1.68453431 7.94137605 0 0 Z " fill="#6146E7" transform="translate(511,260)"/>
<path d="M0 0 C0.66 0 1.32 0 2 0 C1.39733215 4.50727647 -0.36599794 7.8587963 -2.5625 11.8125 C-3.0565332 12.7087207 -3.0565332 12.7087207 -3.56054688 13.62304688 C-4.36773267 15.08533998 -5.18304917 16.5431399 -6 18 C-6.99 18 -7.98 18 -9 18 C-8.690625 17.4225 -8.38125 16.845 -8.0625 16.25 C-7.07416636 14.15705816 -6.4831387 12.25464725 -6 10 C-5.01 10 -4.02 10 -3 10 C-3 8.68 -3 7.36 -3 6 C-2.34 6 -1.68 6 -1 6 C-1.33 5.01 -1.66 4.02 -2 3 C-1.34 2.01 -0.68 1.02 0 0 Z " fill="#6F34EC" transform="translate(486,364)"/>
<path d="M0 0 C0 3.63 0 7.26 0 11 C-0.33 11 -0.66 11 -1 11 C-1 8.36 -1 5.72 -1 3 C-1.54269531 3.51691406 -2.08539063 4.03382813 -2.64453125 4.56640625 C-3.35996094 5.22511719 -4.07539063 5.88382812 -4.8125 6.5625 C-5.87404297 7.55443359 -5.87404297 7.55443359 -6.95703125 8.56640625 C-7.63121094 9.03949219 -8.30539062 9.51257813 -9 10 C-9.99 9.67 -10.98 9.34 -12 9 C-4.8 0 -4.8 0 0 0 Z " fill="#3C9ADE" transform="translate(272,252)"/>
<path d="M0 0 C1.89999023 3.11793268 1.27420824 6.2000374 0.90625 9.6875 C0.84501953 10.38939453 0.78378906 11.09128906 0.72070312 11.81445312 C0.56772376 13.5442967 0.39512398 15.27238497 0.21875 17 C-0.44125 17 -1.10125 17 -1.78125 17 C-1.78125 12.05 -1.78125 7.1 -1.78125 2 C-4.42125 1.67 -7.06125 1.34 -9.78125 1 C-9.78125 0.67 -9.78125 0.34 -9.78125 0 C-2.37799292 -1.33501357 -2.37799292 -1.33501357 0 0 Z " fill="#4099DF" transform="translate(329.78125,236)"/>
<path d="M0 0 C0.99 0 1.98 0 3 0 C4.17154293 2.28929053 5.33738074 4.58118362 6.5 6.875 C6.83386719 7.52597656 7.16773438 8.17695313 7.51171875 8.84765625 C10 13.7734375 10 13.7734375 10 16 C9.01 16 8.02 16 7 16 C4.69 10.72 2.38 5.44 0 0 Z " fill="#3F6FE5" transform="translate(21,357)"/>
<path d="M0 0 C0.66 0.33 1.32 0.66 2 1 C1.67 4.3 1.34 7.6 1 11 C-1.5654594 8.4345406 -1.54046087 6.52313332 -2 3 C-1.34 3 -0.68 3 0 3 C0 2.01 0 1.02 0 0 Z M-2 6 C-2 6.66 -2 7.32 -2 8 C-6.47058824 12 -6.47058824 12 -9 12 C-9 11.34 -9 10.68 -9 10 C-8.34 10 -7.68 10 -7 10 C-7 9.34 -7 8.68 -7 8 C-4 6 -4 6 -2 6 Z " fill="#6843E7" transform="translate(506,299)"/>
<path d="M0 0 C0.66 0 1.32 0 2 0 C2 1.32 2 2.64 2 4 C3.65 3.34 5.3 2.68 7 2 C7 2.66 7 3.32 7 4 C7.66 4.33 8.32 4.66 9 5 C8.34 5 7.68 5 7 5 C6.67 5.66 6.34 6.32 6 7 C3.5 7.6875 3.5 7.6875 1 8 C0 7 0 7 -0.0625 3.4375 C-0.041875 2.303125 -0.02125 1.16875 0 0 Z " fill="#258FDC" transform="translate(4,293)"/>
<path d="M0 0 C1.65 0.33 3.3 0.66 5 1 C4.69320313 1.66386719 4.38640625 2.32773438 4.0703125 3.01171875 C2.79562176 6.57061807 2.3106827 10.0806277 1.875 13.8125 C1.78863281 14.50537109 1.70226562 15.19824219 1.61328125 15.91210938 C1.40283919 17.60733706 1.20058328 19.30357755 1 21 C0.67 21 0.34 21 0 21 C0.33 15.39 0.66 9.78 1 4 C0.34 3.67 -0.32 3.34 -1 3 C-0.67 2.01 -0.34 1.02 0 0 Z " fill="#459CDF" transform="translate(308,241)"/>
<path d="M0 0 C2.3422013 1.51109761 3.77132446 2.46097908 4.875 5.0625 C4.936875 6.0215625 4.936875 6.0215625 5 7 C4.34 7.66 3.68 8.32 3 9 C1.0625 8.3125 1.0625 8.3125 -1 7 C-1.875 4.5 -1.875 4.5 -2 2 C-1.34 1.34 -0.68 0.68 0 0 Z " fill="#6039EF" transform="translate(305,429)"/>
<path d="M0 0 C0 0.66 0 1.32 0 2 C0.66 2.33 1.32 2.66 2 3 C-0.97 5.475 -0.97 5.475 -4 8 C-4.99 7.34 -5.98 6.68 -7 6 C-5.81636731 2.44910192 -3.99368042 0 0 0 Z " fill="#543CF4" transform="translate(199,443)"/>
<path d="M0 0 C0.66 1.32 1.32 2.64 2 4 C1.01 4.495 1.01 4.495 0 5 C-0.33 5.99 -0.66 6.98 -1 8 C-1.66 8 -2.32 8 -3 8 C-3 7.34 -3 6.68 -3 6 C-3.99 5.67 -4.98 5.34 -6 5 C-6 4.01 -6 3.02 -6 2 C-2.25 0 -2.25 0 0 0 Z " fill="#663CE9" transform="translate(388,392)"/>
<path d="M0 0 C3 2 3 2 3.76953125 3.80859375 C4.05762592 6.54793461 3.52117971 8.44292821 2.6875 11.0625 C2.42324219 11.91972656 2.15898437 12.77695312 1.88671875 13.66015625 C1 16 1 16 -1 19 C-1.66 18.67 -2.32 18.34 -3 18 C-2.2575 16.88625 -2.2575 16.88625 -1.5 15.75 C1.003491 10.88405974 0.23217124 5.31414164 0 0 Z " fill="#5A6AE1" transform="translate(452,278)"/>
<path d="M0 0 C0.99 0.33 1.98 0.66 3 1 C2.02526874 2.66926454 1.04510211 4.33535642 0.0625 6 C-0.75541016 7.3921875 -0.75541016 7.3921875 -1.58984375 8.8125 C-2.05519531 9.534375 -2.52054688 10.25625 -3 11 C-3.33 11 -3.66 11 -4 11 C-3.38461538 3.49230769 -3.38461538 3.49230769 -1.4375 1 C-0.963125 0.67 -0.48875 0.34 0 0 Z " fill="#419CDF" transform="translate(253,254)"/>
<path d="M0 0 C0.66 0 1.32 0 2 0 C2.33820166 1.5823006 2.67035939 3.16589375 3 4.75 C3.185625 5.63171875 3.37125 6.5134375 3.5625 7.421875 C4 10 4 10 4 14 C3.34 13.67 2.68 13.34 2 13 C2.33 12.34 2.66 11.68 3 11 C2.01 10.67 1.02 10.34 0 10 C0 6.7 0 3.4 0 0 Z " fill="#4E63E3" transform="translate(505,202)"/>
<path d="M0 0 C4.63607655 1.19213397 6.49826189 3.52902771 9.1796875 7.24609375 C10 9 10 9 9 12 C7.49707257 10.18992669 5.99772829 8.37687764 4.5 6.5625 C3.6646875 5.55316406 2.829375 4.54382813 1.96875 3.50390625 C0 1 0 1 0 0 Z " fill="#5E46ED" transform="translate(47,404)"/>
<path d="M0 0 C1.32 0.33 2.64 0.66 4 1 C2.50164772 5.66154042 -0.88463591 6.86610751 -5 9 C-5 8.34 -5 7.68 -5 7 C-5.66 7 -6.32 7 -7 7 C-6.67 6.01 -6.34 5.02 -6 4 C-4.35 4 -2.7 4 -1 4 C-0.67 2.68 -0.34 1.36 0 0 Z " fill="#3A6CE4" transform="translate(294,325)"/>
<path d="M0 0 C0.99 0.33 1.98 0.66 3 1 C0.44977144 3.97526665 -2.40293526 5.50122302 -6 7 C-6.99 6.67 -7.98 6.34 -9 6 C-6.11861791 3.75892504 -3.25320657 1.66831106 0 0 Z " fill="#643FEE" transform="translate(373,481)"/>
<path d="M0 0 C3.25597758 0.24118352 4.7276304 1.52224212 6.8125 3.875 C7.534375 4.90625 8.25625 5.9375 9 7 C8.67 7.99 8.34 8.98 8 10 C6.66370254 8.52351062 5.33103329 7.0437367 4 5.5625 C3.2575 4.73878906 2.515 3.91507812 1.75 3.06640625 C0 1 0 1 0 0 Z " fill="#643CF0" transform="translate(69,430)"/>
<path d="M0 0 C0.33 0 0.66 0 1 0 C0.45144652 4.571279 -0.41744803 8.67435795 -2 13 C-2.66 13 -3.32 13 -4 13 C-4.33 13.99 -4.66 14.98 -5 16 C-4.49228528 10.03435204 -2.61407872 5.36190101 0 0 Z " fill="#3DB5DA" transform="translate(87,233)"/>
<path d="M0 0 C0.99 0.66 1.98 1.32 3 2 C2.34 2 1.68 2 1 2 C1 2.66 1 3.32 1 4 C1.66 4.33 2.32 4.66 3 5 C2.67 5.66 2.34 6.32 2 7 C1.01 7 0.02 7 -1 7 C-1.33 7.66 -1.66 8.32 -2 9 C-2.6875 6.75 -2.6875 6.75 -3 4 C-1.5625 1.6875 -1.5625 1.6875 0 0 Z " fill="#5F2FF6" transform="translate(216,467)"/>
<path d="M0 0 C0.33 0.99 0.66 1.98 1 3 C0.01 4.485 0.01 4.485 -1 6 C-1.66 6 -2.32 6 -3 6 C-3 6.66 -3 7.32 -3 8 C-3.66 8 -4.32 8 -5 8 C-5.33 6.02 -5.66 4.04 -6 2 C-4.02 1.34 -2.04 0.68 0 0 Z " fill="#6B35EA" transform="translate(383,407)"/>
<path d="M0 0 C0.66 0.33 1.32 0.66 2 1 C2.625 3.5625 2.625 3.5625 3 6 C0.36 6.33 -2.28 6.66 -5 7 C-3.35 4.69 -1.7 2.38 0 0 Z " fill="#398BE0" transform="translate(187,295)"/>
<path d="M0 0 C0.66 0.66 1.32 1.32 2 2 C-2.95 4.97 -2.95 4.97 -8 8 C-8.66 7.34 -9.32 6.68 -10 6 C-6.7 4.02 -3.4 2.04 0 0 Z " fill="#6E33F2" transform="translate(388,473)"/>
<path d="M0 0 C0 3 0 3 -2 6 C-4.30144109 7.07136051 -6.6340213 8.07989717 -9 9 C-7.52210526 4.32 -7.52210526 4.32 -5.0625 2.8125 C-4.381875 2.544375 -3.70125 2.27625 -3 2 C-2.01 1.34 -1.02 0.68 0 0 Z " fill="#18A2D3" transform="translate(332,178)"/>
<path d="M0 0 C2.60186108 2.60186108 2.29810177 3.82354355 2.3125 7.4375 C2.32925781 8.40558594 2.34601563 9.37367188 2.36328125 10.37109375 C2 13 2 13 -1 16 C-0.67 10.72 -0.34 5.44 0 0 Z " fill="#14ACD1" transform="translate(154,210)"/>
<path d="M0 0 C0.99 0.33 1.98 0.66 3 1 C0.03 5.95 0.03 5.95 -3 11 C-4 7 -4 7 -3.22265625 5.078125 C-1.61132812 2.5390625 -1.61132812 2.5390625 0 0 Z " fill="#18ACD5" transform="translate(37,123)"/>
<path d="M0 0 C1.9375 0.75 1.9375 0.75 4 2 C4.75 4.125 4.75 4.125 5 6 C4.01 6.33 3.02 6.66 2 7 C-0.13324818 4.86675182 -0.53238345 3.8992226 -1 1 C-0.67 0.67 -0.34 0.34 0 0 Z " fill="#663EE7" transform="translate(395,386)"/>
<path d="M0 0 C-4.33542505 3.32382587 -6.47141274 4.12018668 -12 4 C-8.59914501 0.59914501 -4.67235329 -1.5574511 0 0 Z " fill="#722EF1" transform="translate(364,488)"/>
<path d="M0 0 C0.66 0.66 1.32 1.32 2 2 C0.35 4.64 -1.3 7.28 -3 10 C-3.66 9.34 -4.32 8.68 -5 8 C-3.35 5.36 -1.7 2.72 0 0 Z " fill="#7134EF" transform="translate(476,383)"/>
<path d="M0 0 C0.66 0.66 1.32 1.32 2 2 C-3.75 6 -3.75 6 -6 6 C-6.33 6.66 -6.66 7.32 -7 8 C-6.875 5.6875 -6.875 5.6875 -6 3 C-2.9375 1.1875 -2.9375 1.1875 0 0 Z " fill="#6F37E5" transform="translate(476,344)"/>
<path d="M0 0 C0.886875 0.103125 1.77375 0.20625 2.6875 0.3125 C2.6875 0.6425 2.6875 0.9725 2.6875 1.3125 C1.0375 1.3125 -0.6125 1.3125 -2.3125 1.3125 C-2.56 1.910625 -2.8075 2.50875 -3.0625 3.125 C-4.47620012 5.59897521 -5.96305383 6.74620255 -8.3125 8.3125 C-8.3125 5.3125 -8.3125 5.3125 -6.1875 2.625 C-3.3125 0.3125 -3.3125 0.3125 0 0 Z " fill="#4885DD" transform="translate(412.3125,246.6875)"/>
<path d="M0 0 C-0.33 0.99 -0.66 1.98 -1 3 C-1.639375 2.360625 -2.27875 1.72125 -2.9375 1.0625 C-6.91930882 -1.61912635 -10.294792 -1.79498004 -15 -2 C-15 -2.33 -15 -2.66 -15 -3 C-8.74509557 -4.56372611 -5.44673303 -3.29633454 0 0 Z " fill="#36ABDB" transform="translate(194,239)"/>
<path d="M0 0 C0 0.66 0 1.32 0 2 C-5.445 3.485 -5.445 3.485 -11 5 C-10.67 4.01 -10.34 3.02 -10 2 C-6.54310037 0.78368346 -3.67168136 0 0 0 Z " fill="#10B2D4" transform="translate(183,11)"/>
<path d="M0 0 C1.32 0.66 2.64 1.32 4 2 C-5.41002278 4.48063781 -5.41002278 4.48063781 -10 3 C-6.83783053 1.1261218 -4.63834261 0.90166642 -1 1 C-0.67 0.67 -0.34 0.34 0 0 Z " fill="#6F2CF2" transform="translate(311,504)"/>
<path d="M0 0 C0 0.66 0 1.32 0 2 C-0.66 2.66 -1.32 3.32 -2 4 C-1.67 4.66 -1.34 5.32 -1 6 C-1.99 6 -2.98 6 -4 6 C-4 6.66 -4 7.32 -4 8 C-4.66 8 -5.32 8 -6 8 C-6.25 5.6875 -6.25 5.6875 -6 3 C-3.95575462 1.02389614 -2.8823175 0 0 0 Z " fill="#602FF5" transform="translate(244,463)"/>
<path d="M0 0 C0.99 0 1.98 0 3 0 C2 3 1 6 0 9 C-0.66 9 -1.32 9 -2 9 C-1.125 1.125 -1.125 1.125 0 0 Z " fill="#6230F4" transform="translate(266,455)"/>
<path d="M0 0 C0.33 0.66 0.66 1.32 1 2 C1.66 2.33 2.32 2.66 3 3 C1.68 4.32 0.36 5.64 -1 7 C-1 6.34 -1 5.68 -1 5 C-1.99 5 -2.98 5 -4 5 C-4 4.01 -4 3.02 -4 2 C-2.68 1.34 -1.36 0.68 0 0 Z " fill="#5449EC" transform="translate(310,398)"/>
<path d="M0 0 C0.33 0.66 0.66 1.32 1 2 C3.02463255 2.65213292 3.02463255 2.65213292 5 3 C5 3.66 5 4.32 5 5 C3.02253397 5.73080266 1.01927511 6.39421747 -1 7 C-1.66 6.67 -2.32 6.34 -3 6 C-3 5.34 -3 4.68 -3 4 C-2.34 3.67 -1.68 3.34 -1 3 C-0.67 2.01 -0.34 1.02 0 0 Z " fill="#5754E1" transform="translate(407,337)"/>
<path d="M0 0 C0.66 0 1.32 0 2 0 C1.34 3.3 0.68 6.6 0 10 C-0.99 10 -1.98 10 -3 10 C-2.49287967 6.28111761 -1.88391785 3.26545761 0 0 Z " fill="#25AED6" transform="translate(134,228)"/>
<path d="M0 0 C2.33524782 2.25740623 4.18705073 4.2805761 6 7 C6 7.99 6 8.98 6 10 C5.01 9.67 4.02 9.34 3 9 C2.65657551 7.66923011 2.32380126 6.33568021 2 5 C1.01 4.34 0.02 3.68 -1 3 C-0.67 2.01 -0.34 1.02 0 0 Z " fill="#2796D7" transform="translate(464,106)"/>
<path d="M0 0 C1.32 1.32 2.64 2.64 4 4 C3.34 4.66 2.68 5.32 2 6 C2 5.34 2 4.68 2 4 C1.34 4 0.68 4 0 4 C0 4.66 0 5.32 0 6 C-1.32 6.33 -2.64 6.66 -4 7 C-3.02391783 4.07175348 -1.89213369 2.38573379 0 0 Z " fill="#6C34EA" transform="translate(397,398)"/>
<path d="M0 0 C0.66 0 1.32 0 2 0 C1.39301257 4.12751449 -0.03810791 7.3321148 -2 11 C-2.33 11 -2.66 11 -3 11 C-3 9.35 -3 7.7 -3 6 C-2.34 6 -1.68 6 -1 6 C-1.33 5.01 -1.66 4.02 -2 3 C-1.34 2.01 -0.68 1.02 0 0 Z " fill="#5E4BE7" transform="translate(486,364)"/>
<path d="M0 0 C0.99 0.99 1.98 1.98 3 3 C1.33333333 4.66666667 -0.33333333 6.33333333 -2 8 C-2.66 7.34 -3.32 6.68 -4 6 C-2.25 1.125 -2.25 1.125 0 0 Z " fill="#6940E4" transform="translate(477,325)"/>
<path d="M0 0 C1.65 0.33 3.3 0.66 5 1 C2.525 4.465 2.525 4.465 0 8 C-0.99 7.67 -1.98 7.34 -3 7 C-2.2575 6.38125 -2.2575 6.38125 -1.5 5.75 C0.43386092 3.87797662 0.43386092 3.87797662 0 0 Z " fill="#258ED7" transform="translate(347,223)"/>
<path d="M0 0 C1.98 0.66 3.96 1.32 6 2 C5.01 2.495 5.01 2.495 4 3 C4 3.66 4 4.32 4 5 C3.34 5 2.68 5 2 5 C1.67 5.66 1.34 6.32 1 7 C-0.0625 5.1875 -0.0625 5.1875 -1 3 C-0.67 2.01 -0.34 1.02 0 0 Z " fill="#1D9DD4" transform="translate(336,189)"/>
<path d="M0 0 C0.99 0.33 1.98 0.66 3 1 C2.01 2.485 2.01 2.485 1 4 C1 4.99 1 5.98 1 7 C-0.65 7.33 -2.3 7.66 -4 8 C-2.68 5.36 -1.36 2.72 0 0 Z " fill="#387DD8" transform="translate(480,161)"/>
<path d="M0 0 C0.99 0.33 1.98 0.66 3 1 C1.68 3.64 0.36 6.28 -1 9 C-1.66 9 -2.32 9 -3 9 C-2.44271087 5.65626525 -1.64826111 2.96687001 0 0 Z " fill="#19B0D7" transform="translate(29,137)"/>
<path d="M0 0 C1.32 0.66 2.64 1.32 4 2 C3.01 2.495 3.01 2.495 2 3 C1.67 3.99 1.34 4.98 1 6 C0.01 5.67 -0.98 5.34 -2 5 C-1.34 3.35 -0.68 1.7 0 0 Z " fill="#6A3FE4" transform="translate(470,332)"/>
<path d="M0 0 C0 0.33 0 0.66 0 1 C-1.65 1 -3.3 1 -5 1 C-5.268125 1.61875 -5.53625 2.2375 -5.8125 2.875 C-7 5 -7 5 -10 7 C-10 4 -10 4 -8.375 1.8125 C-5.39500988 -0.46170299 -3.66075376 -0.3327958 0 0 Z " fill="#2FA4DA" transform="translate(189,247)"/>
<path d="M0 0 C4.40114397 0.50298788 6.71195019 2.08772731 10 5 C9.34 5.66 8.68 6.32 8 7 C6.66382648 6.02471263 5.3311249 5.04466681 4 4.0625 C3.2575 3.51722656 2.515 2.97195312 1.75 2.41015625 C1.1725 1.94480469 0.595 1.47945312 0 1 C0 0.67 0 0.34 0 0 Z " fill="#1AA7D8" transform="translate(403,48)"/>
<path d="M0 0 C3.40312738 1.05875074 6.01353231 2.00902154 9 4 C8.67 4.99 8.34 5.98 8 7 C8 6.34 8 5.68 8 5 C6.8553125 4.814375 6.8553125 4.814375 5.6875 4.625 C3 4 3 4 0 2 C0 1.34 0 0.68 0 0 Z " fill="#1CA3D5" transform="translate(380,32)"/>
<path d="M0 0 C0.99 1.32 1.98 2.64 3 4 C1 7 1 7 -1.125 7.6875 C-1.74375 7.790625 -2.3625 7.89375 -3 8 C-2.67 7.01 -2.34 6.02 -2 5 C-1.34 5 -0.68 5 0 5 C-0.2784375 4.0409375 -0.2784375 4.0409375 -0.5625 3.0625 C-0.706875 2.381875 -0.85125 1.70125 -1 1 C-0.67 0.67 -0.34 0.34 0 0 Z " fill="#6434F0" transform="translate(298,443)"/>
<path d="M0 0 C1.65 0.33 3.3 0.66 5 1 C5 1.66 5 2.32 5 3 C2.69 3.33 0.38 3.66 -2 4 C-2 3.34 -2 2.68 -2 2 C-1.34 2 -0.68 2 0 2 C0 1.34 0 0.68 0 0 Z " fill="#5F3DEE" transform="translate(315,423)"/>
<path d="M0 0 C0.99 0.33 1.98 0.66 3 1 C2.01 1.495 2.01 1.495 1 2 C1 2.66 1 3.32 1 4 C0.34 4 -0.32 4 -1 4 C-1.33 4.66 -1.66 5.32 -2 6 C-3.32 5.67 -4.64 5.34 -6 5 C-1.60546875 0.99609375 -1.60546875 0.99609375 0 0 Z " fill="#5454E3" transform="translate(379,357)"/>
<path d="M0 0 C0.99 0 1.98 0 3 0 C2.67 0.99 2.34 1.98 2 3 C1.34 3 0.68 3 0 3 C-1.70680947 4.62553283 -3.37660195 6.29115995 -5 8 C-5 7.01 -5 6.02 -5 5 C-4.34 5 -3.68 5 -3 5 C-2.5359375 4.0409375 -2.5359375 4.0409375 -2.0625 3.0625 C-1 1 -1 1 0 0 Z " fill="#6940E4" transform="translate(492,312)"/>
<path d="M0 0 C0.33 0 0.66 0 1 0 C1.33 3.3 1.66 6.6 2 10 C1.34 10 0.68 10 0 10 C0 8.68 0 7.36 0 6 C-0.66 6 -1.32 6 -2 6 C-1.125 1.125 -1.125 1.125 0 0 Z " fill="#3D89E1" transform="translate(224,294)"/>
<path d="M0 0 C1.98 0.99 1.98 0.99 4 2 C3.67 4.31 3.34 6.62 3 9 C0.90250005 6.64031256 0.03094296 5.45383006 -0.1875 2.25 C-0.125625 1.5075 -0.06375 0.765 0 0 Z " fill="#388ADB" transform="translate(357,244)"/>
<path d="M0 0 C1.64826111 2.96687001 2.44271087 5.65626525 3 9 C2.01 9 1.02 9 0 9 C0 7.68 0 6.36 0 5 C-0.66 4.67 -1.32 4.34 -2 4 C-1.34 2.68 -0.68 1.36 0 0 Z " fill="#5263E3" transform="translate(498,172)"/>
<path d="M0 0 C2.475 0.495 2.475 0.495 5 1 C5.33 1.99 5.66 2.98 6 4 C4.35 4.66 2.7 5.32 1 6 C0.67 4.02 0.34 2.04 0 0 Z " fill="#397DDB" transform="translate(485,149)"/>
<path d="M0 0 C3.37503669 1.1858237 5.64722731 2.27573689 8 5 C7.01 5.495 7.01 5.495 6 6 C3.96166576 4.7260411 1.96147874 3.38938077 0 2 C0 1.34 0 0.68 0 0 Z " fill="#1AA5D7" transform="translate(390,38)"/>
<path d="M0 0 C0 0.66 0 1.32 0 2 C0.66 2.33 1.32 2.66 2 3 C-1 5 -1 5 -4 5 C-4 3.68 -4 2.36 -4 1 C-2 0 -2 0 0 0 Z " fill="#6A29F4" transform="translate(287,467)"/>
<path d="M0 0 C0.99 0 1.98 0 3 0 C3.99 2.31 4.98 4.62 6 7 C5.01 7 4.02 7 3 7 C0 2.77777778 0 2.77777778 0 0 Z " fill="#4E5AED" transform="translate(31,377)"/>
<path d="M0 0 C1.32 0.33 2.64 0.66 4 1 C4 4 4 4 2.5 5.6875 C2.005 6.120625 1.51 6.55375 1 7 C0.67 4.69 0.34 2.38 0 0 Z " fill="#653CEA" transform="translate(359,406)"/>
<path d="M0 0 C1.65 0.33 3.3 0.66 5 1 C4.01 1.495 4.01 1.495 3 2 C1.86649466 4.01669827 1.86649466 4.01669827 1 6 C1 5.34 1 4.68 1 4 C0.34 4 -0.32 4 -1 4 C-0.67 2.68 -0.34 1.36 0 0 Z " fill="#6446E3" transform="translate(492,297)"/>
<path d="M0 0 C0.66 0.33 1.32 0.66 2 1 C-1.465 3.97 -1.465 3.97 -5 7 C-5.99 6.34 -6.98 5.68 -8 5 C-6.20963542 3.99088542 -4.41927083 2.98177083 -2.62890625 1.97265625 C-1.02121854 1.1027487 -1.02121854 1.1027487 0 0 Z " fill="#21AAD6" transform="translate(148,233)"/>
<path d="M0 0 C0.99 0 1.98 0 3 0 C4.42944945 2.35438733 5.08661261 3.48032433 4.625 6.25 C4.41875 6.8275 4.2125 7.405 4 8 C2.22293791 5.33440687 1.12451727 2.9719385 0 0 Z " fill="#515DEA" transform="translate(21,357)"/>
<path d="M0 0 C2.25 0.25 2.25 0.25 4 1 C2.02 2.32 0.04 3.64 -2 5 C-2.66 4.67 -3.32 4.34 -4 4 C-2.25 1.9375 -2.25 1.9375 0 0 Z " fill="#0CB9D4" transform="translate(124,36)"/>
<path d="M0 0 C6.75 0.75 6.75 0.75 9 3 C6 4 6 4 2.8125 2.5625 C1.884375 2.046875 0.95625 1.53125 0 1 C0 0.67 0 0.34 0 0 Z " fill="#1F9FDA" transform="translate(364,25)"/>
</svg>
