<?xml version="1.0" encoding="UTF-8"?>
<svg version="1.1" xmlns="http://www.w3.org/2000/svg" width="512" height="512">
<path d="M0 0 C1.01790619 0.00215515 2.03581238 0.0043103 3.08456421 0.00653076 C17.69363523 0.05620146 32.02575853 0.30709809 46.375 3.3125 C47.34985352 3.51117676 48.32470703 3.70985352 49.32910156 3.91455078 C97.7109774 14.03517194 141.69928269 35.9516877 177.375 70.3125 C178.3640332 71.26068604 178.3640332 71.26068604 179.37304688 72.22802734 C188.86130305 81.37247479 197.6012044 90.66984009 205.375 101.3125 C206.23306152 102.46355017 207.09113451 103.61459177 207.94921875 104.765625 C213.98736829 112.95680614 219.34595521 121.47054105 224.375 130.3125 C224.73948242 130.94430176 225.10396484 131.57610352 225.47949219 132.22705078 C247.08534998 169.97532572 256.85198095 212.74189997 256.6875 255.9375 C256.68534485 256.95540619 256.6831897 257.97331238 256.68096924 259.02206421 C256.63129854 273.63113523 256.38040191 287.96325853 253.375 302.3125 C253.07698486 303.77478027 253.07698486 303.77478027 252.77294922 305.26660156 C242.65232806 353.6484774 220.7358123 397.63678269 186.375 433.3125 C185.74287598 433.97185547 185.11075195 434.63121094 184.45947266 435.31054688 C175.31502521 444.79880305 166.01765991 453.5387044 155.375 461.3125 C154.22394983 462.17056152 153.07290823 463.02863451 151.921875 463.88671875 C143.73224019 469.92427396 135.22961724 475.30707302 126.375 480.3125 C125.66778809 480.7146875 124.96057617 481.116875 124.23193359 481.53125 C101.09654164 494.5566741 75.92537591 503.30551461 49.9375 508.625 C49.21860596 508.77235596 48.49971191 508.91971191 47.7590332 509.0715332 C33.08339502 511.86090125 18.55831162 512.66142619 3.64770508 512.62817383 C0.70811513 512.6250221 -2.2304558 512.64854926 -5.16992188 512.67382812 C-18.54306192 512.71848737 -31.43916711 511.51301542 -44.625 509.3125 C-46.33055054 509.03031616 -46.33055054 509.03031616 -48.07055664 508.74243164 C-91.33802759 500.97044532 -132.38793216 480.98345309 -165.625 452.3125 C-166.37007813 451.67828125 -167.11515625 451.0440625 -167.8828125 450.390625 C-181.38779833 438.57948485 -194.05918743 425.82889772 -204.625 411.3125 C-205.48149066 410.16255169 -206.33826433 409.01281411 -207.1953125 407.86328125 C-213.23534209 399.67315742 -218.61867614 391.16870382 -223.625 382.3125 C-224.0271875 381.60528809 -224.429375 380.89807617 -224.84375 380.16943359 C-237.8691741 357.03404164 -246.61801461 331.86287591 -251.9375 305.875 C-252.08485596 305.15610596 -252.23221191 304.43721191 -252.3840332 303.6965332 C-255.35789088 288.05024391 -255.99800362 272.57681954 -255.9375 256.6875 C-255.93534485 255.66959381 -255.9331897 254.65168762 -255.93096924 253.60293579 C-255.88129854 238.99386477 -255.63040191 224.66174147 -252.625 210.3125 C-252.42632324 209.33764648 -252.22764648 208.36279297 -252.02294922 207.35839844 C-241.90232806 158.9765226 -219.9858123 114.98821731 -185.625 79.3125 C-184.99287598 78.65314453 -184.36075195 77.99378906 -183.70947266 77.31445312 C-174.56502521 67.82619695 -165.26765991 59.0862956 -154.625 51.3125 C-153.47394983 50.45443848 -152.32290823 49.59636549 -151.171875 48.73828125 C-142.98224019 42.70072604 -134.47961724 37.31792698 -125.625 32.3125 C-124.91778809 31.9103125 -124.21057617 31.508125 -123.48193359 31.09375 C-100.34654164 18.0683259 -75.17537591 9.31948539 -49.1875 4 C-48.46860596 3.85264404 -47.74971191 3.70528809 -47.0090332 3.5534668 C-31.36274391 0.57960912 -15.88931954 -0.06050362 0 0 Z M-148.625 153.3125 C-144.86907482 157.69441271 -141.14836231 161.95820143 -137.14312744 166.08958435 C-136.6254838 166.62642713 -136.10784015 167.16326991 -135.57451034 167.71638066 C-133.85949979 169.49332715 -132.14134007 171.26718873 -130.42285156 173.04077148 C-129.81794262 173.66634256 -129.21303368 174.29191364 -128.58979416 174.93644142 C-116.66725025 187.26614925 -104.66272727 199.51534106 -92.62964249 211.73710537 C-84.98199908 219.50765684 -77.36068572 227.30089172 -69.79882812 235.1550293 C-63.18243344 242.02708337 -56.52068584 248.85120626 -49.80156302 255.62290817 C-46.25482477 259.20048011 -42.73367133 262.79652979 -39.26605988 266.45098686 C-22.44434263 285.28787319 -22.44434263 285.28787319 0.27978516 293.93164062 C18.30191595 292.94693908 31.95224939 274.99233945 43.47359896 262.883075 C47.16857873 259.02792019 50.93825585 255.24716784 54.70004272 251.4573822 C61.79362441 244.28851514 68.81799561 237.05567823 75.81952798 229.79700893 C83.79974097 221.5308352 91.85818883 213.34275097 99.9224503 205.15868962 C111.78600518 193.11447242 123.61951506 181.04111298 135.38003159 168.89620399 C136.65317287 167.58161358 137.92710427 166.26778789 139.20185852 164.95476151 C140.93282419 163.17097377 142.66042923 161.38400521 144.38687134 159.59584045 C145.15402212 158.80645626 145.15402212 158.80645626 145.9366709 158.00112492 C148.32720773 155.98308953 148.32720773 155.98308953 149.375 153.3125 C51.035 153.3125 -47.305 153.3125 -148.625 153.3125 Z M-161.625 167.3125 C-161.625 228.6925 -161.625 290.0725 -161.625 353.3125 C-155.91756642 348.44425269 -155.91756642 348.44425269 -150.51832581 343.32608032 C-149.41846596 342.22828247 -149.41846596 342.22828247 -148.29638672 341.10830688 C-147.51739014 340.32571503 -146.73839355 339.54312317 -145.93579102 338.73681641 C-145.09596176 337.89713318 -144.25613251 337.05744995 -143.39085388 336.19232178 C-141.10853433 333.90942854 -138.82843614 331.62434536 -136.54934049 329.33823442 C-134.15953318 326.94213865 -131.76685787 324.54891015 -129.37449646 322.15536499 C-124.85363958 317.6314109 -120.33533597 313.10491577 -115.81796354 308.57748258 C-110.67115943 303.41946712 -105.52148576 298.2643206 -100.37157929 293.10940289 C-89.78620948 282.51360519 -79.20441544 271.91424313 -68.625 261.3125 C-70.04976139 258.0703389 -71.77686078 255.91134037 -74.27552795 253.41473389 C-75.03410599 252.65196136 -75.79268402 251.88918884 -76.57424927 251.103302 C-77.40705414 250.27611664 -78.23985901 249.44893127 -79.09790039 248.59667969 C-80.41266106 247.2790715 -80.41266106 247.2790715 -81.75398254 245.93484497 C-84.15515216 243.53060668 -86.56070269 241.13092149 -88.96847463 238.73330593 C-91.48572309 236.2248445 -93.99769458 233.71110895 -96.51036072 231.19805908 C-100.72787001 226.98148576 -104.94923193 222.76880108 -109.1730957 218.55859375 C-114.06274005 213.68469966 -118.94711305 208.8055736 -123.82852179 203.92343211 C-128.52045377 199.23089086 -133.21523122 194.54120794 -137.91161919 189.85312653 C-139.91278943 187.85549484 -141.91310087 185.85700889 -143.91276741 183.85787201 C-146.69934388 181.072482 -149.49015714 178.29136188 -152.28149414 175.51074219 C-153.11632324 174.6754599 -153.95115234 173.84017761 -154.8112793 172.97958374 C-155.56703751 172.22809052 -156.32279572 171.47659729 -157.10145569 170.70233154 C-157.76162721 170.04383587 -158.42179873 169.38534019 -159.10197544 168.70689011 C-160.40377332 167.1999545 -160.40377332 167.1999545 -161.625 167.3125 Z M159.81515408 168.7492981 C158.79887731 169.76695755 158.79887731 169.76695755 157.7620697 170.80517578 C156.98659286 171.57927795 156.21111603 172.35338013 155.41213989 173.15093994 C154.55546722 174.01120789 153.69879456 174.87147583 152.81616211 175.7578125 C151.91868759 176.65514099 151.02121307 177.55246948 150.09654236 178.47698975 C147.62749345 180.94575059 145.16154969 183.4175925 142.69612956 185.8899765 C140.12207985 188.47025829 137.54521643 191.04772685 134.96864319 193.62548828 C130.08635215 198.51089307 125.20661679 203.3988424 120.32778221 208.28769875 C114.77481132 213.85182943 109.21901599 219.41313621 103.66297519 224.9742012 C92.23049228 236.41714948 80.80158243 247.86365961 69.375 259.3125 C70.79976139 262.5546611 72.52686078 264.71365963 75.02552795 267.21026611 C75.78410599 267.97303864 76.54268402 268.73581116 77.32424927 269.521698 C78.57345657 270.76247604 78.57345657 270.76247604 79.84790039 272.02832031 C80.7244075 272.90672577 81.60091461 273.78513123 82.50398254 274.69015503 C84.90515216 277.09439332 87.31070269 279.49407851 89.71847463 281.89169407 C92.23572309 284.4001555 94.74769458 286.91389105 97.26036072 289.42694092 C101.47787001 293.64351424 105.69923193 297.85619892 109.9230957 302.06640625 C114.81274005 306.94030034 119.69711305 311.8194264 124.57852179 316.70156789 C129.27045377 321.39410914 133.96523122 326.08379206 138.66161919 330.77187347 C140.66278943 332.76950516 142.66310087 334.76799111 144.66276741 336.76712799 C147.44934388 339.552518 150.24015714 342.33363812 153.03149414 345.11425781 C153.86632324 345.9495401 154.70115234 346.78482239 155.5612793 347.64541626 C156.31703751 348.39690948 157.07279572 349.14840271 157.85145569 349.92266846 C158.51162721 350.58116413 159.17179873 351.23965981 159.85197544 351.91810989 C161.15377332 353.4250455 161.15377332 353.4250455 162.375 353.3125 C162.375 291.9325 162.375 230.5525 162.375 167.3125 C161.14413153 167.19958321 161.14413153 167.19958321 159.81515408 168.7492981 Z M-58.97218323 276.53269958 C-59.68876099 277.24645752 -60.40533875 277.96021545 -61.14363098 278.69560242 C-61.93484848 279.48884415 -62.72606598 280.28208588 -63.54125977 281.09936523 C-64.78505905 282.34053604 -64.78505905 282.34053604 -66.0539856 283.60678101 C-68.33467698 285.88381319 -70.61308697 288.16309795 -72.89036679 290.44354129 C-75.26851277 292.82421044 -77.64908784 295.20244852 -80.02928162 297.58106995 C-84.02677633 301.57674284 -88.02215214 305.57452541 -92.01635742 309.57348633 C-96.64115565 314.2037272 -101.26954552 318.83035442 -105.899818 323.4551205 C-109.86767451 327.41844624 -113.83358785 331.38370849 -117.79786915 335.35061032 C-120.16884764 337.72315178 -122.54050593 340.09500309 -124.91391182 342.4651165 C-127.55773928 345.10642001 -130.19836607 347.75088119 -132.83813477 350.39624023 C-133.6313765 351.18745773 -134.42461823 351.97867523 -135.24189758 352.79386902 C-135.95565552 353.51044678 -136.66941345 354.22702454 -137.40480042 354.96531677 C-138.03032083 355.59121421 -138.65584124 356.21711164 -139.30031681 356.86197567 C-140.73739171 358.10817119 -140.73739171 358.10817119 -140.625 359.3125 C-47.565 359.3125 45.495 359.3125 141.375 359.3125 C136.63580848 353.74098534 136.63580848 353.74098534 131.65432739 348.47157288 C130.98136124 347.79723206 130.30839508 347.12289124 129.61503601 346.42811584 C128.89789932 345.71457443 128.18076263 345.00103302 127.44189453 344.26586914 C126.6704863 343.49431488 125.89907806 342.72276062 125.10429382 341.92782593 C122.57449856 339.39872282 120.04118838 336.87317225 117.5078125 334.34765625 C115.74496979 332.5866802 113.98234891 330.82548205 112.21994019 329.06407166 C107.59604219 324.44397933 102.96914819 319.82689888 98.34161377 315.21044922 C93.61367011 310.49330732 88.88912441 305.77276249 84.1640625 301.05273438 C74.90382486 291.80319965 65.64051475 282.55674835 56.375 273.3125 C55.2747036 274.24563806 54.17585331 275.1804814 53.07759094 276.11601257 C52.15946861 276.89661561 52.15946861 276.89661561 51.22279835 277.6929884 C48.3005705 280.25418882 45.58122449 283.00251374 42.85546875 285.76953125 C42.27082352 286.3579631 41.68617828 286.94639496 41.08381653 287.55265808 C39.24089685 289.4076644 37.40130031 291.26591081 35.5625 293.125 C33.12134981 295.59270161 30.67692892 298.05709517 28.23046875 300.51953125 C27.39300362 301.36944389 27.39300362 301.36944389 26.53862 302.23652649 C19.84615907 308.97167963 12.59379824 307.67484456 3.57373047 307.77246094 C1.70172452 307.79900503 -0.17013695 307.83986108 -2.04150391 307.89550781 C-19.59633125 308.41118669 -19.59633125 308.41118669 -24.02734375 304.65234375 C-25.25395532 303.22888197 -26.44856959 301.77770676 -27.625 300.3125 C-29.21365343 298.67994815 -30.83935535 297.08947005 -32.4675293 295.49636841 C-34.28708766 293.71310671 -36.08479037 291.91037746 -37.87695312 290.09960938 C-38.481604 289.48883545 -39.08625488 288.87806152 -39.70922852 288.2487793 C-40.32080811 287.63043213 -40.9323877 287.01208496 -41.5625 286.375 C-44.00627773 283.90471778 -46.45330138 281.43771783 -48.90234375 278.97265625 C-49.46267807 278.40402359 -50.02301239 277.83539093 -50.60032654 277.24952698 C-51.92310528 275.91825835 -53.27142905 274.61244825 -54.625 273.3125 C-56.4997066 273.3125 -57.72392236 275.28519064 -58.97218323 276.53269958 Z " fill="#000000" transform="translate(255.625,-0.3125)"/>
</svg>
