<?xml version="1.0" encoding="UTF-8"?>
<svg version="1.1" xmlns="http://www.w3.org/2000/svg" width="512" height="256">
<path d="M0 0 C0.77456039 -0.0065712 1.54912079 -0.0131424 2.34715271 -0.01991272 C4.90705472 -0.03959904 7.46689809 -0.05129991 10.02685547 -0.0612793 C10.90434322 -0.06535482 11.78183098 -0.06943035 12.68590927 -0.07362938 C17.33340976 -0.0944735 21.98088089 -0.10878055 26.62841797 -0.11816406 C31.40972714 -0.12920541 36.19056798 -0.16358366 40.97171211 -0.20333576 C44.66424374 -0.22958606 48.35666536 -0.23786349 52.04928207 -0.24144554 C53.810598 -0.24629233 55.57190965 -0.25785142 57.3331337 -0.27648354 C70.57074039 -0.40778458 81.14458311 0.72750609 91.26904297 10.17700195 C99.04378438 18.67456513 101.02236343 26.98987465 100.61279297 38.26293945 C99.68115868 48.87086624 94.40437156 55.54268103 86.70654297 62.48950195 C82.47401277 65.41971517 79.4823406 67.17700195 74.26904297 67.17700195 C74.26904297 67.83700195 74.26904297 68.49700195 74.26904297 69.17700195 C75.07341797 69.21825195 75.87779297 69.25950195 76.70654297 69.30200195 C84.95047569 71.32682753 91.52532371 77.28936801 96.26904297 84.17700195 C100.77568062 92.16292824 102.40503726 101.37002491 100.64013672 110.3918457 C97.40665778 121.12050177 92.03667748 127.77112147 82.26904297 133.17700195 C81.66576172 133.51860352 81.06248047 133.86020508 80.44091797 134.2121582 C71.72047728 138.28801635 60.18841574 137.0894502 51.26904297 134.17700195 C51.26904297 133.51700195 51.26904297 132.85700195 51.26904297 132.17700195 C50.21716797 131.83668945 50.21716797 131.83668945 49.14404297 131.48950195 C43.24990451 128.79869962 40.2867749 125.48833121 37.07763672 119.98950195 C36.548396 119.08844727 36.01915527 118.18739258 35.47387695 117.2590332 C34.87748413 116.22842773 34.87748413 116.22842773 34.26904297 115.17700195 C34.26539734 115.91678787 34.26175171 116.65657379 34.25799561 117.41877747 C34.21992326 124.43522192 34.16285563 131.45120561 34.08514023 138.46730518 C34.04584937 142.07327241 34.01357203 145.67900218 33.99804688 149.28515625 C33.98275731 152.77383647 33.94809978 156.26186302 33.90073395 159.75024986 C33.87896076 161.71017329 33.87657986 163.67028185 33.87469482 165.63032532 C33.69407651 176.80924323 31.33567974 187.00281003 23.26904297 195.17700195 C14.83034033 202.18271735 6.39232696 204.79115578 -4.51220703 204.53637695 C-9.39609303 203.99108871 -13.35840925 202.33135944 -17.73095703 200.17700195 C-19.30876953 199.58918945 -19.30876953 199.58918945 -20.91845703 198.98950195 C-25.16159129 196.25503766 -28.01893812 192.40550482 -30.73095703 188.17700195 C-30.73095703 187.51700195 -30.73095703 186.85700195 -30.73095703 186.17700195 C-31.39095703 185.84700195 -32.05095703 185.51700195 -32.73095703 185.17700195 C-36.46985963 176.81945497 -36.67435903 166.78481756 -33.73095703 158.17700195 C-31.91562717 154.39225588 -29.90205465 150.76818858 -27.73095703 147.17700195 C-27.07095703 147.17700195 -26.41095703 147.17700195 -25.73095703 147.17700195 C-25.73095703 146.51700195 -25.73095703 145.85700195 -25.73095703 145.17700195 C-23.90283203 143.73950195 -23.90283203 143.73950195 -21.48095703 142.17700195 C-20.69205078 141.66137695 -19.90314453 141.14575195 -19.09033203 140.61450195 C-15.20614796 138.24797921 -13.40742086 137.17700195 -8.73095703 137.17700195 C-8.73095703 136.51700195 -8.73095703 135.85700195 -8.73095703 135.17700195 C-9.53533203 135.13575195 -10.33970703 135.09450195 -11.16845703 135.05200195 C-19.44844531 133.01832062 -25.91273363 127.04046081 -30.73095703 120.17700195 C-32.36589524 117.25965909 -33.60455241 114.32201289 -34.73095703 111.17700195 C-34.99134766 110.5530957 -35.25173828 109.92918945 -35.52001953 109.28637695 C-38.04609514 102.04293123 -35.49072108 94.41963309 -32.65673828 87.5871582 C-27.4229279 77.4151347 -19.9889084 72.77539395 -9.73095703 68.17700195 C-10.28783203 67.95786133 -10.84470703 67.7387207 -11.41845703 67.51293945 C-21.97073015 63.12804218 -29.316648 57.36386704 -33.80126953 46.6105957 C-36.891051 37.04897466 -36.34637303 27.90809637 -32.10595703 18.80200195 C-26.93902068 9.50886288 -20.23373212 3.97970728 -10.06838989 0.62898254 C-6.72123297 -0.01824459 -3.39622395 0.01255588 0 0 Z M33.26904297 69.17700195 C33.26904297 76.43700195 33.26904297 83.69700195 33.26904297 91.17700195 C36.09084522 87.55751444 36.09084522 87.55751444 37.55810547 85.02856445 C41.2176795 78.92927441 45.24258959 75.79287398 51.26904297 72.17700195 C52.58904297 71.18700195 53.90904297 70.19700195 55.26904297 69.17700195 C48.00904297 69.17700195 40.74904297 69.17700195 33.26904297 69.17700195 Z " fill="#A159FE" transform="translate(77.73095703125,25.822998046875)"/>
<path d="M0 0 C0.77456039 -0.0065712 1.54912079 -0.0131424 2.34715271 -0.01991272 C4.90705472 -0.03959904 7.46689809 -0.05129991 10.02685547 -0.0612793 C10.90434322 -0.06535482 11.78183098 -0.06943035 12.68590927 -0.07362938 C17.33340976 -0.0944735 21.98088089 -0.10878055 26.62841797 -0.11816406 C31.40972714 -0.12920541 36.19056798 -0.16358366 40.97171211 -0.20333576 C44.66424374 -0.22958606 48.35666536 -0.23786349 52.04928207 -0.24144554 C53.810598 -0.24629233 55.57190965 -0.25785142 57.3331337 -0.27648354 C70.57074039 -0.40778458 81.14458311 0.72750609 91.26904297 10.17700195 C99.04378438 18.67456513 101.02236343 26.98987465 100.61279297 38.26293945 C99.68115868 48.87086624 94.40437156 55.54268103 86.70654297 62.48950195 C82.47401277 65.41971517 79.4823406 67.17700195 74.26904297 67.17700195 C73.93904297 67.83700195 73.60904297 68.49700195 73.26904297 69.17700195 C62.78499225 69.31659656 52.301166 69.42292288 41.81637192 69.48787498 C36.94674381 69.51906378 32.07775587 69.5613061 27.20849609 69.62963867 C22.50109908 69.69527929 17.79431414 69.73080141 13.08649445 69.74626541 C11.29885485 69.75727218 9.51124521 69.77876448 7.72386932 69.81138229 C-3.18047269 70.00229226 -11.33338226 69.42509139 -20.73095703 63.17700195 C-21.33715881 62.78676849 -21.9433606 62.39653503 -22.56793213 61.99447632 C-29.37116348 56.99619767 -33.44970318 49.19113757 -35.31689453 41.1262207 C-36.91626368 29.73448764 -34.00867783 20.19250887 -27.12939453 11.0480957 C-19.82496175 3.03399054 -10.52995809 0.03892937 0 0 Z " fill="#FD7161" transform="translate(77.73095703125,25.822998046875)"/>
<path d="M0 0 C0.81162598 0.00012085 1.62325195 0.0002417 2.45947266 0.00036621 C3.72428467 0.00804016 3.72428467 0.00804016 5.01464844 0.01586914 C6.18809814 0.01737976 6.18809814 0.01737976 7.38525391 0.0189209 C10.29819207 0.0241397 13.21110928 0.03810096 16.12402344 0.05102539 C22.64152344 0.07165039 29.15902344 0.09227539 35.87402344 0.11352539 C35.87402344 22.55352539 35.87402344 44.99352539 35.87402344 68.11352539 C29.35652344 68.40227539 22.83902344 68.69102539 16.12402344 68.98852539 C14.0927832 69.09535645 12.06154297 69.2021875 9.96875 69.31225586 C-0.62432076 69.74317971 -8.17686126 69.36761294 -17.12597656 63.11352539 C-18.03114014 62.52680054 -18.03114014 62.52680054 -18.95458984 61.92822266 C-25.77106997 56.95953167 -29.8476533 49.11500298 -31.71191406 41.06274414 C-33.31128321 29.67101108 -30.40369736 20.1290323 -23.52441406 10.98461914 C-17.58068615 4.46342003 -8.89808127 -0.02815849 0 0 Z " fill="#F14E1E" transform="translate(74.1259765625,25.886474609375)"/>
<path d="M0 0 C0.92091431 0.00424484 1.84182861 0.00848969 2.79064941 0.01286316 C5.70449245 0.0295281 8.61761939 0.06715687 11.53125 0.10546875 C13.51821911 0.12053136 15.50519917 0.134217 17.4921875 0.14648438 C22.33881357 0.17939159 27.18491078 0.23108844 32.03125 0.29296875 C32.13098738 5.78811499 32.2031242 11.28272101 32.25097656 16.77856445 C32.27094895 18.64356682 32.29813668 20.50850773 32.33300781 22.37329102 C32.57068487 35.42106266 32.44140545 46.90281583 23.7890625 57.51171875 C16.50432187 64.89358926 7.83886744 68.3581374 -2.40625 68.73046875 C-8.66935044 68.58413463 -13.40073348 67.03633455 -18.96875 64.29296875 C-20.5465625 63.70515625 -20.5465625 63.70515625 -22.15625 63.10546875 C-26.39938425 60.37100445 -29.25673109 56.52147161 -31.96875 52.29296875 C-31.96875 51.63296875 -31.96875 50.97296875 -31.96875 50.29296875 C-32.62875 49.96296875 -33.28875 49.63296875 -33.96875 49.29296875 C-37.7076526 40.93542177 -37.91215199 30.90078436 -34.96875 22.29296875 C-33.15342014 18.50822268 -31.13984762 14.88415538 -28.96875 11.29296875 C-28.30875 11.29296875 -27.64875 11.29296875 -26.96875 11.29296875 C-26.96875 10.63296875 -26.96875 9.97296875 -26.96875 9.29296875 C-25.28125 7.890625 -25.28125 7.890625 -22.96875 6.35546875 C-22.22625 5.85144531 -21.48375 5.34742188 -20.71875 4.828125 C-13.66165912 0.88858421 -7.95479672 -0.14038038 0 0 Z " fill="#0ACE83" transform="translate(78.96875,161.70703125)"/>
<path d="M0 0 C9.06654164 6.3777535 14.05693618 13.76995609 16.375 24.5625 C17.88226553 34.86697879 15.34770308 42.97290692 9.8125 51.6875 C6.64687533 55.87272771 2.53206178 58.46081428 -2 61 C-2.60457031 61.34289062 -3.20914063 61.68578125 -3.83203125 62.0390625 C-12.55625036 66.10656335 -24.07932895 64.91287218 -33 62 C-33 61.34 -33 60.68 -33 60 C-33.70125 59.773125 -34.4025 59.54625 -35.125 59.3125 C-43.71125094 55.39268979 -47.91376268 48.12076433 -51.375 39.625 C-53.33547233 28.25426048 -51.87823233 18.3257756 -45.3125 8.6875 C-41.8620705 4.446166 -37.7573712 1.62842712 -33 -1 C-32.38511719 -1.34160156 -31.77023438 -1.68320313 -31.13671875 -2.03515625 C-21.51246932 -6.46602055 -9.06921053 -5.05206773 0 0 Z " fill="#1ABBFC" transform="translate(162,98)"/>
<path d="M0 0 C3.69776369 1.43801921 6.41123465 2.97977376 9 6 C11.21654627 4.97088923 13.10869177 3.91765775 15.0625 2.4375 C18.98029856 -0.46925377 23.30308825 -0.59443981 28 0 C33.8353295 1.84662326 37.08284119 4.51574143 40 10 C41.27385127 13.8215538 41.12353188 17.4068447 41.09765625 21.38671875 C41.0962413 22.20372757 41.09482635 23.02073639 41.09336853 23.86250305 C41.08777294 26.47087268 41.07522129 29.07915634 41.0625 31.6875 C41.05748443 33.45637897 41.05292162 35.22525928 41.04882812 36.99414062 C41.03780496 41.32946019 41.02054338 45.66471552 41 50 C37.7 50 34.4 50 31 50 C30.9906543 48.93040039 30.98130859 47.86080078 30.97167969 46.75878906 C30.93176488 42.7850603 30.86600279 38.81210456 30.79248047 34.83886719 C30.76427933 33.12021831 30.74306046 31.40143995 30.72900391 29.68261719 C30.70756167 27.20961253 30.66090844 24.73816325 30.609375 22.265625 C30.60814636 21.49881409 30.60691772 20.73200317 30.60565186 19.94195557 C30.5088442 16.40496576 30.29619754 14.38528641 28.11035156 11.54199219 C25.56998028 9.68579309 24.15601239 9.07514315 21 9 C16.70200702 10.57957082 16.70200702 10.57957082 14 14 C13.84323225 16.69655446 13.74163685 19.37129977 13.68359375 22.0703125 C13.66281265 22.86654022 13.64203156 23.66276794 13.62062073 24.48312378 C13.55515851 27.03032685 13.49625585 29.57763425 13.4375 32.125 C13.3943116 33.85027127 13.35069721 35.57553193 13.30664062 37.30078125 C13.19948055 41.53374685 13.09820377 45.76681753 13 50 C9.30458414 50.95024979 6.69541586 50.95024979 3 50 C2.98541748 49.02651611 2.97083496 48.05303223 2.95581055 47.05004883 C2.89766704 43.42484524 2.82043623 39.8002524 2.73754883 36.17553711 C2.70437468 34.60923199 2.67631942 33.04280949 2.65356445 31.47631836 C2.61987884 29.21938237 2.56755951 26.96351474 2.51171875 24.70703125 C2.50532883 24.01100296 2.4989389 23.31497467 2.49235535 22.59785461 C2.362779 18.27535771 1.73787053 15.39317588 -1 12 C-4.89744079 10.84520273 -7.04479867 10.59669277 -10.8125 12.1875 C-14.18275803 14.97999951 -14.9072894 17.01383178 -15.31884766 21.39160156 C-15.36020117 22.72434574 -15.39139265 24.05743213 -15.4140625 25.390625 C-15.43342865 26.09523865 -15.4527948 26.79985229 -15.4727478 27.52581787 C-15.53232735 29.76709039 -15.57884123 32.00841489 -15.625 34.25 C-15.66319979 35.77345938 -15.70225269 37.29689762 -15.7421875 38.8203125 C-15.83801018 42.54668106 -15.92212107 46.27320835 -16 50 C-19.3 50 -22.6 50 -26 50 C-26 34.16 -26 18.32 -26 2 C-22.7 2 -19.4 2 -16 2 C-15.67 2.66 -15.34 3.32 -15 4 C-14.195625 3.34 -13.39125 2.68 -12.5625 2 C-8.52842578 -0.67984599 -4.6986116 -0.70731788 0 0 Z " fill="#010001" transform="translate(370,104)"/>
<path d="M0 0 C0 -0.99 0 -1.98 0 -3 C3.3 -3 6.6 -3 10 -3 C10.12420407 4.08001409 10.21462658 11.15938481 10.2746582 18.24023438 C10.29970084 20.6456203 10.333745 23.05093089 10.37719727 25.45605469 C10.4382988 28.92662206 10.46631363 32.39617772 10.48828125 35.8671875 C10.51408768 36.93113739 10.5398941 37.99508728 10.56648254 39.09127808 C10.56917802 46.3735965 9.18398463 51.95335131 5 58 C-0.58033618 63.48362511 -6.11414995 65.6915992 -13.9375 66.3125 C-18.4194115 66.19870147 -21.93734305 64.85314177 -26 63 C-26.33 62.34 -26.66 61.68 -27 61 C-26.00390625 59.0546875 -26.00390625 59.0546875 -24.5625 56.875 C-24.08941406 56.15054688 -23.61632812 55.42609375 -23.12890625 54.6796875 C-22.57009766 53.84824219 -22.57009766 53.84824219 -22 53 C-20.9790625 53.495 -20.9790625 53.495 -19.9375 54 C-16.34116838 55.2242831 -13.78329077 55.39824113 -10 55 C-5.66270205 52.74794145 -2.86602629 50.5613976 -1 46 C-0.77194545 43.27854899 -0.86065315 40.740488 -1 38 C-1.763125 38.474375 -2.52625 38.94875 -3.3125 39.4375 C-8.15954002 42.25554653 -12.55856085 42.82934112 -18.05859375 41.50390625 C-22.79434112 39.91935562 -25.70723666 37.85723705 -29 34 C-29.8353125 33.0409375 -29.8353125 33.0409375 -30.6875 32.0625 C-34.29496821 26.39362139 -34.64757033 20.53641307 -34 14 C-32.47563663 7.25945573 -29.11080277 2.20032391 -23.4375 -1.8125 C-15.10555674 -5.87165185 -7.7512173 -4.50979916 0 0 Z M-23 12 C-24.24283781 15.72851342 -24.5280726 19.12746761 -24 23 C-21.77708378 27.36350222 -19.54977416 30.09544338 -15 32 C-10.02077887 32.53348798 -6.93461624 32.16955197 -3 29 C0.37622501 25.15808878 0.50941037 21.36020742 0.35546875 16.44140625 C-0.27938111 12.08117368 -2.34289168 9.30201368 -5.75 6.625 C-13.4056066 4.49844261 -17.94938315 5.98317818 -23 12 Z " fill="#020102" transform="translate(321,108)"/>
<path d="M0 0 C0.99 0.66 1.98 1.32 3 2 C3 0.68 3 -0.64 3 -2 C6.3 -2 9.6 -2 13 -2 C13 13.84 13 29.68 13 46 C9.7 46 6.4 46 3 46 C2.67 45.01 2.34 44.02 2 43 C1.2265625 43.680625 1.2265625 43.680625 0.4375 44.375 C-4.59005764 47.72670509 -10.06216335 48.60384779 -16 48 C-23.67745702 46.040326 -28.63092075 42.61430054 -33 36 C-36.829256 29.31247792 -37.15688644 21.72395296 -35.34375 14.3203125 C-32.97699595 7.60770833 -29.33259843 2.47577053 -23.0859375 -1.09375 C-15.03572657 -4.55758578 -7.79521544 -3.49440692 0 0 Z M-23.8125 13.0625 C-26.66470854 17.7161034 -26.59381196 22.71342411 -26 28 C-23.81341387 32.37317227 -21.17345903 35.43901378 -17 38 C-12.2188504 39.25407203 -9.28229402 39.45466624 -4.75 37.4375 C-0.90560546 35.18989138 1.20651839 33.18479043 3 29 C3.5910653 23.34699083 3.99508369 18.00777993 1 13 C0.34 13 -0.32 13 -1 13 C-1.2475 12.38125 -1.495 11.7625 -1.75 11.125 C-3.25884407 8.55996509 -4.27573895 8.10521623 -7 7 C-14.16523585 5.87961767 -18.94169266 7.51985716 -23.8125 13.0625 Z " fill="#010101" transform="translate(456,107)"/>
<path d="M0 0 C12.87 0 25.74 0 39 0 C39 3.3 39 6.6 39 10 C29.43 10 19.86 10 10 10 C10 15.94 10 21.88 10 28 C17.26 28 24.52 28 32 28 C32 31.3 32 34.6 32 38 C24.74 38 17.48 38 10 38 C10 49.22 10 60.44 10 72 C6.7 72 3.4 72 0 72 C0 48.24 0 24.48 0 0 Z " fill="#000000" transform="translate(215,82)"/>
<path d="M0 0 C2.97 0 5.94 0 9 0 C9 16.17 9 32.34 9 49 C6.03 49 3.06 49 0 49 C0 32.83 0 16.66 0 0 Z " fill="#000000" transform="translate(265,105)"/>
<path d="M0 0 C1.875 1.125 1.875 1.125 3 3 C3.39415803 6.15326426 3.58260835 8.11075568 1.8125 10.8125 C-0.62398929 12.40882057 -2.05861032 13 -5 13 C-7.875 10.9375 -7.875 10.9375 -10 8 C-10 4.8125 -10 4.8125 -9 2 C-5.53076119 -0.31282587 -4.07794425 -0.42478586 0 0 Z " fill="#050404" transform="translate(273,85)"/>
<path d="" fill="#735C69" transform="translate(0,0)"/>
</svg>
