<?xml version="1.0" encoding="UTF-8"?>
<svg version="1.1" xmlns="http://www.w3.org/2000/svg" width="548" height="309">
<path d="M0 0 C13.83754904 0.10251909 24.67263088 1.82418484 34.88644409 11.93850708 C48.94895441 29.35858418 42.83723628 64.18692401 41.53709412 85.11875916 C41.14181519 87.59622192 41.14181519 87.59622192 39.14181519 89.59622192 C36.63693237 89.85018921 36.63693237 89.85018921 33.43869019 89.85501099 C32.24405151 89.86131531 31.04941284 89.86761963 29.818573 89.87411499 C28.52274292 89.87006653 27.22691284 89.86601807 25.89181519 89.86184692 C24.55424936 89.86319371 23.21668402 89.86513435 21.87911987 89.86764526 C19.07471052 89.87059593 16.2704285 89.86630086 13.46603394 89.85696411 C9.86776596 89.84556946 6.26979633 89.85212926 2.67153931 89.86410904 C-0.0907924 89.87132928 -2.85305314 89.86903899 -5.61538696 89.86385345 C-7.58857415 89.86186667 -9.56176407 89.86795034 -11.53494263 89.87411499 C-12.7295813 89.86781067 -13.92421997 89.86150635 -15.15505981 89.85501099 C-16.21047974 89.8534198 -17.26589966 89.85182861 -18.353302 89.85018921 C-20.85818481 89.59622192 -20.85818481 89.59622192 -22.85818481 87.59622192 C-23.05666089 84.92659706 -23.130923 82.36070901 -23.11697388 79.68997192 C-23.12047852 78.87359253 -23.12398315 78.05721313 -23.12759399 77.21609497 C-23.13641829 74.50938489 -23.13055974 71.8029348 -23.12380981 69.09622192 C-23.12515626 67.22057037 -23.12709663 65.34491915 -23.12960815 63.4692688 C-23.13256036 59.53499026 -23.12825867 55.60080243 -23.118927 51.66653442 C-23.10753241 46.61547628 -23.11409137 41.56463066 -23.12607193 36.51358032 C-23.13328792 32.63949981 -23.1310038 28.76546995 -23.12581635 24.89138794 C-23.12447913 23.02859472 -23.12613008 21.16579694 -23.13077545 19.30300903 C-23.13583642 16.7027055 -23.12813662 14.10274947 -23.11697388 11.50247192 C-23.12102234 10.72734253 -23.1250708 9.95221313 -23.12924194 9.15359497 C-23.03840534 -2.22823147 -8.93473376 0.11281616 0 0 Z " fill="#6288EF" transform="translate(170.85818481445313,28.403778076171875)"/>
<path d="M0 0 C5.59404623 0.84373063 10.00286849 2.17144178 13.85897827 6.5532074 C16.88475099 11.1025551 18.91783149 16.02649278 20.9468689 21.08250427 C22.62355851 24.91401046 24.58948454 28.43758008 26.72616577 32.02586365 C27.0978186 32.65148193 27.46947144 33.27710022 27.85238647 33.92167664 C28.60075577 35.17703327 29.35042366 36.43161669 30.10140991 37.68540955 C31.86883203 40.64310857 33.604331 43.61574263 35.31991577 46.60398865 C36.19341675 48.10639099 36.19341675 48.10639099 37.08456421 49.6391449 C38.56232113 52.7561737 39.2858426 55.0952477 39.46054077 58.54148865 C38.50424194 61.21043396 38.50424194 61.21043396 37.00350952 63.86961365 C36.46790405 64.8338324 35.93229858 65.79805115 35.38046265 66.79148865 C34.80876343 67.78148865 34.23706421 68.77148865 33.64804077 69.79148865 C33.08794312 70.7969574 32.52784546 71.80242615 31.95077515 72.83836365 C27.81991577 80.18211365 27.81991577 80.18211365 25.46054077 82.54148865 C22.83071899 82.84255981 22.83071899 82.84255981 19.45370483 82.91136169 C18.19189392 82.94025986 16.93008301 82.96915802 15.6300354 82.99893188 C14.24543352 83.01858836 12.86080806 83.03664035 11.47616577 83.0532074 C10.77940483 83.0626066 10.08264389 83.07200581 9.36476898 83.08168983 C5.675041 83.12928314 1.98545567 83.16295451 -1.70449829 83.18675232 C-5.50984786 83.21443459 -9.31231209 83.29356315 -13.11660385 83.38429546 C-16.04725211 83.44421713 -18.97721895 83.46402858 -21.90842438 83.47326088 C-23.31038491 83.48482333 -24.71230854 83.51162096 -26.11367035 83.55418968 C-37.06404237 83.86703726 -37.06404237 83.86703726 -40.68669128 80.61236572 C-42.24336541 78.3105052 -43.41067882 76.07593366 -44.53945923 73.54148865 C-45.31582617 72.21677888 -46.10380612 70.89870056 -46.91055298 69.5922699 C-47.60398257 68.34874533 -48.29287226 67.10267714 -48.97695923 65.85398865 C-49.52126587 64.91716248 -49.52126587 64.91716248 -50.0765686 63.96141052 C-52.45122649 59.61619522 -52.6936348 57.28514652 -51.53945923 52.54148865 C-50.3788147 49.96214294 -50.3788147 49.96214294 -48.90664673 47.3657074 C-48.35702271 46.38400574 -47.80739868 45.40230408 -47.24111938 44.39085388 C-45.99733537 42.23792061 -44.74400956 40.09047803 -43.48233032 37.94798279 C-42.82571411 36.82899597 -42.1690979 35.71000916 -41.49258423 34.55711365 C-41.15711578 33.98689987 -40.82164734 33.4166861 -40.47601318 32.82919312 C-38.1363336 28.77822869 -36.23000406 24.65017072 -34.39883423 20.33836365 C-26.90025508 3.7743726 -17.90683338 -1.86602482 0 0 Z M-7.53945923 30.54148865 C-9.6860929 34.33270275 -11.83163055 38.12453597 -13.97695923 41.91648865 C-14.58861938 42.99672302 -15.20027954 44.0769574 -15.83047485 45.18992615 C-16.41377563 46.22117615 -16.99707642 47.25242615 -17.59805298 48.31492615 C-18.13744507 49.26802673 -18.67683716 50.22112732 -19.23257446 51.20310974 C-20.03162414 52.63283098 -20.80698627 54.07654272 -21.53945923 55.54148865 C-11.63945923 55.54148865 -1.73945923 55.54148865 8.46054077 55.54148865 C7.26429077 53.45836365 6.06804077 51.37523865 4.83554077 49.22898865 C1.29319453 43.0448063 -2.15897529 36.81587171 -5.53945923 30.54148865 C-6.19945923 30.54148865 -6.85945923 30.54148865 -7.53945923 30.54148865 Z " fill="#5FA066" transform="translate(367.5394592285156,35.45851135253906)"/>
<path d="M0 0 C0.71484055 0.00202423 1.42968109 0.00404846 2.16618347 0.00613403 C2.91574814 0.00438171 3.66531281 0.00262939 4.43759155 0.00082397 C6.92722354 -0.00359463 9.41678508 -0.00065653 11.90641785 0.00271606 C13.62895217 0.00204303 15.35148639 0.001073 17.07402039 -0.00018311 C20.68889772 -0.00166009 24.3037504 0.00049449 27.91862488 0.00515747 C32.56283277 0.01085476 37.20698289 0.00757576 41.85118866 0.00158501 C45.40953511 -0.00202059 48.96786775 -0.00088203 52.5262146 0.0017128 C54.23911547 0.00238207 55.95201757 0.00155363 57.66491699 -0.00076675 C60.05469606 -0.00329326 62.44438026 0.00054727 64.83415222 0.00613403 C65.90641304 0.00309769 65.90641304 0.00309769 67.00033569 0 C71.88590516 0.02126588 71.88590516 0.02126588 73.00016785 1.13552856 C73.09904577 2.87935392 73.12815817 4.627184 73.12956238 6.37380981 C73.13271454 7.4916687 73.1358667 8.60952759 73.13911438 9.76126099 C73.13607803 11.58621094 73.13607803 11.58621094 73.13298035 13.44802856 C73.13393707 14.68722046 73.1348938 15.92641235 73.13587952 17.20315552 C73.13656159 19.82941137 73.13520322 22.4555749 73.13053894 25.08181763 C73.12484165 28.4548157 73.12812087 31.82773422 73.1341114 35.20072937 C73.13858555 38.40816533 73.13545667 41.61559157 73.13298035 44.82302856 C73.13500458 46.03966187 73.13702881 47.25629517 73.13911438 48.50979614 C73.13438614 50.18658447 73.13438614 50.18658447 73.12956238 51.89724731 C73.12876678 52.88684448 73.12797119 53.87644165 73.12715149 54.89602661 C73.00016785 57.13552856 73.00016785 57.13552856 72.00016785 58.13552856 C69.60207635 58.23580652 67.23277286 58.27171533 64.83415222 58.2649231 C64.08458755 58.26667542 63.33502289 58.26842773 62.56274414 58.27023315 C60.07311216 58.27465176 57.58355061 58.27171366 55.09391785 58.26834106 C53.37138353 58.2690141 51.6488493 58.26998412 49.92631531 58.27124023 C46.31143797 58.27271722 42.69658529 58.27056263 39.08171082 58.26589966 C34.43750292 58.26020237 29.79335281 58.26348137 25.14914703 58.26947212 C21.59080059 58.27307772 18.03246794 58.27193916 14.47412109 58.26934433 C12.76122023 58.26867506 11.04831813 58.26950349 9.3354187 58.27182388 C6.94563963 58.27435039 4.55595544 58.27050986 2.16618347 58.2649231 C1.45134293 58.26694733 0.73650238 58.26897156 0 58.27105713 C-4.88556947 58.24979125 -4.88556947 58.24979125 -5.99983215 57.13552856 C-6.09871007 55.39170321 -6.12782247 53.64387313 -6.12922668 51.89724731 C-6.13237885 50.77938843 -6.13553101 49.66152954 -6.13877869 48.50979614 C-6.13675446 47.29316284 -6.13473022 46.07652954 -6.13264465 44.82302856 C-6.13360138 43.58383667 -6.13455811 42.34464478 -6.13554382 41.06790161 C-6.13622589 38.44164576 -6.13486753 35.81548223 -6.13020325 33.1892395 C-6.12450596 29.81624143 -6.12778517 26.44332291 -6.13377571 23.07032776 C-6.13824986 19.8628918 -6.13512098 16.65546556 -6.13264465 13.44802856 C-6.13466888 12.23139526 -6.13669312 11.01476196 -6.13877869 9.76126099 C-6.13562653 8.6434021 -6.13247437 7.52554321 -6.12922668 6.37380981 C-6.12843109 5.38421265 -6.1276355 4.39461548 -6.1268158 3.37503052 C-5.88805732 -0.83574862 -3.68357856 0.01603386 0 0 Z " fill="#BC5045" transform="translate(228.9998321533203,117.86447143554688)"/>
<path d="M0 0 C0.95184677 0.00142502 1.90369354 0.00285004 2.88438416 0.00431824 C3.96212601 0.00124161 5.03986786 -0.00183502 6.15026855 -0.00500488 C7.31799301 0.00218063 8.48571747 0.00936615 9.68882751 0.01676941 C10.88221237 0.01722763 12.07559723 0.01768585 13.30514526 0.01815796 C15.8312428 0.0211831 18.35733843 0.02907716 20.88340759 0.04142761 C24.76587984 0.05967803 28.64811374 0.0619374 32.53062439 0.06169128 C34.97919418 0.06660646 37.42776233 0.07243478 39.87632751 0.07926941 C41.63095055 0.08093864 41.63095055 0.08093864 43.42102051 0.0826416 C45.03290504 0.09221138 45.03290504 0.09221138 46.67735291 0.10197449 C47.62840408 0.10578629 48.57945526 0.10959808 49.55932617 0.11352539 C51.71617126 0.24723816 51.71617126 0.24723816 52.71617126 1.24723816 C52.94150436 3.27523606 53.16384312 5.3039869 53.33726501 7.33708191 C53.57839354 9.48013296 53.57839354 9.48013296 55.71617126 11.24723816 C55.94664001 14.07536316 55.94664001 14.07536316 55.90367126 17.49723816 C55.89722595 18.61614441 55.89078064 19.73505066 55.88414001 20.88786316 C55.71617126 24.24723816 55.71617126 24.24723816 55.2073822 27.02848816 C54.68483028 30.45260575 54.63570141 33.64460167 54.68882751 37.10661316 C54.70107361 38.38665222 54.7133197 39.66669128 54.72593689 40.98551941 C54.7508698 43.00236941 54.77902961 45.01907908 54.81211853 47.03581238 C54.84221827 48.99679844 54.85947238 50.95796854 54.87632751 52.91911316 C54.89316589 54.08539246 54.91000427 55.25167175 54.92735291 56.45329285 C54.71617126 59.24723816 54.71617126 59.24723816 52.71617126 61.24723816 C50.32518005 61.50793457 50.32518005 61.50793457 47.28843689 61.52189636 C46.15386047 61.53142838 45.01928406 61.54096039 43.85032654 61.55078125 C42.6201178 61.54986984 41.38990906 61.54895844 40.12242126 61.54801941 C38.23601929 61.5544471 38.23601929 61.5544471 36.31150818 61.56100464 C33.64824008 61.56675673 30.98535847 61.56817299 28.3221283 61.56291199 C24.90535562 61.55711274 21.48912423 61.57405674 18.0724411 61.59725666 C14.8182715 61.61550847 11.56413288 61.61180936 8.30992126 61.61051941 C7.07971252 61.61972916 5.84950378 61.6289389 4.58201599 61.63842773 C2.88015137 61.62908455 2.88015137 61.62908455 1.14390564 61.61955261 C-0.35928223 61.62049675 -0.35928223 61.62049675 -1.89283752 61.62145996 C-2.68186462 61.49796677 -3.47089172 61.37447357 -4.28382874 61.24723816 C-6.58131888 57.80100294 -6.46102857 56.87478427 -6.19007874 52.87223816 C-6.1294928 51.80360535 -6.06890686 50.73497253 -6.00648499 49.63395691 C-5.86009308 47.40725898 -5.71171343 45.18069068 -5.56117249 42.95426941 C-5.20189634 36.55609639 -5.48923691 30.90339414 -6.81214905 24.6315155 C-7.38349627 21.74343218 -7.48516781 18.99879262 -7.40882874 16.05973816 C-7.39078186 15.13805847 -7.37273499 14.21637878 -7.35414124 13.26676941 C-7.33093811 12.6003241 -7.30773499 11.93387878 -7.28382874 11.24723816 C-6.29382874 10.91723816 -5.30382874 10.58723816 -4.28382874 10.24723816 C-4.34570374 8.32911316 -4.34570374 8.32911316 -4.40882874 6.37223816 C-4.47914124 4.19255066 -4.47914124 4.19255066 -4.28382874 2.24723816 C-2.28382874 0.24723816 -2.28382874 0.24723816 0 0 Z " fill="#4A65CB" transform="translate(77.28382873535156,96.75276184082031)"/>
<path d="M0 0 C1.42466177 -0.08061111 2.84790185 -0.19549753 4.26660156 -0.34863281 C13.36679613 -1.30864152 19.58527269 0.44653972 26.79071045 6.237854 C33.97322336 12.8249496 38.1180032 18.73832588 38.95515442 28.59300232 C39.09017405 34.29925162 38.79862151 39.93432658 38.42895508 45.62670898 C38.3470354 47.99297105 38.27341075 50.35953545 38.20825195 52.72631836 C37.65782288 69.64784118 37.65782288 69.64784118 36.24145508 71.06420898 C34.71210877 71.16260112 33.17825942 71.19219437 31.64575195 71.19360352 C30.17918152 71.19833176 30.17918152 71.19833176 28.6829834 71.20315552 C27.61946655 71.20113129 26.55594971 71.19910706 25.46020508 71.19702148 C23.83447571 71.19845657 23.83447571 71.19845657 22.17590332 71.19992065 C19.87923118 71.20060264 17.58255713 71.1987471 15.28588867 71.19458008 C11.7567108 71.1892321 8.22766021 71.19452449 4.69848633 71.20092773 C2.47322563 71.20026696 0.24796501 71.1989858 -1.97729492 71.19702148 C-3.04081177 71.19904572 -4.10432861 71.20106995 -5.20007324 71.20315552 C-6.17778687 71.20000336 -7.15550049 71.1968512 -8.1628418 71.19360352 C-9.02808472 71.19280792 -9.89332764 71.19201233 -10.78479004 71.19119263 C-12.75854492 71.06420898 -12.75854492 71.06420898 -13.75854492 70.06420898 C-13.85802685 67.95282998 -13.8865413 65.83808613 -13.88793945 63.72436523 C-13.89056793 62.73169144 -13.89056793 62.73169144 -13.89324951 61.71896362 C-13.89766709 59.52151909 -13.89473039 57.3241544 -13.89135742 55.12670898 C-13.89203049 53.60595687 -13.89300054 52.08520487 -13.89425659 50.56445312 C-13.89573344 47.37328062 -13.89357944 44.18213606 -13.88891602 40.9909668 C-13.88321873 36.89156368 -13.8864978 32.79222603 -13.89248848 28.69282532 C-13.89609446 25.55138654 -13.89495534 22.4099634 -13.89236069 19.26852417 C-13.89169152 17.75658155 -13.89251949 16.24463752 -13.89484024 14.73269653 C-13.89736737 12.62311011 -13.89352536 10.51363111 -13.88793945 8.40405273 C-13.88714386 7.20127686 -13.88634827 5.99850098 -13.88552856 4.75927734 C-13.59066951 -1.49873575 -4.98382013 0.22325634 0 0 Z " fill="#E4B52F" transform="translate(436.758544921875,95.935791015625)"/>
<path d="M0 0 C2.78142925 1.87563486 5.42899818 3.8455292 8 6 C6.55218207 9.44428265 4.72305391 11.36130962 1.875 13.75 C1.15054688 14.36359375 0.42609375 14.9771875 -0.3203125 15.609375 C-0.87460938 16.06828125 -1.42890625 16.5271875 -2 17 C-4.24301727 15.90457296 -6.33154495 14.78747118 -8.4375 13.4375 C-13.50373102 10.59546797 -19.3622862 10.10467122 -25.015625 11.49609375 C-31.16282788 13.57253442 -35.4198341 16.41906237 -38.875 22.0625 C-41.21342466 28.47566464 -41.19389114 36.20999154 -38.375 42.4375 C-35.61364585 47.11430051 -32.17782988 49.96058119 -27.25 52.3125 C-19.96276987 53.85402945 -13.60556349 53.75610473 -7 50 C-3.62765609 47.07730194 -2.01511524 45.03023048 0 41 C-6.6 41 -13.2 41 -20 41 C-20 36.71 -20 32.42 -20 28 C-8.45 28 3.1 28 15 28 C15 50.58522727 15 50.58522727 6.703125 59.46875 C-3.21683019 68.38760879 -13.9780971 68.76937142 -26.70410156 68.18212891 C-36.1622441 67.43183389 -42.81179696 61.84856206 -49 55 C-56.35173897 44.81493364 -56.95495893 35.26279619 -56 23 C-54.43036607 14.70639371 -49.22819276 8.48269696 -43 3 C-30.7186114 -5.18206025 -13.20099964 -8.00795934 0 0 Z " fill="#000000" transform="translate(189,198)"/>
<path d="M0 0 C1.87945312 -0.18175781 1.87945312 -0.18175781 3.796875 -0.3671875 C12.34137715 -0.66545554 17.49907476 1.35947516 23.7734375 7.0703125 C30.71785256 14.14682152 31.92796627 20.8585776 31.85067749 30.53839111 C31.74099829 33.65488483 31.5596161 36.76214057 31.375 39.875 C31.30818297 42.01411793 31.24823662 44.15346201 31.1953125 46.29296875 C30.73987317 61.63512683 30.73987317 61.63512683 29.375 63 C28.02955673 63.09785341 26.67907437 63.12797985 25.33007812 63.12939453 C24.47248901 63.13254669 23.6148999 63.13569885 22.73132324 63.13894653 C21.79904907 63.1369223 20.8667749 63.13489807 19.90625 63.1328125 C18.48028503 63.13424759 18.48028503 63.13424759 17.0255127 63.13571167 C15.01131118 63.13639357 12.99710748 63.13453862 10.98291016 63.13037109 C7.88829645 63.12502298 4.7938279 63.13031577 1.69921875 63.13671875 C-0.25260449 63.13605797 -2.20442764 63.13477681 -4.15625 63.1328125 C-5.55466125 63.13584885 -5.55466125 63.13584885 -6.98132324 63.13894653 C-7.83891235 63.13579437 -8.69650146 63.13264221 -9.58007812 63.12939453 C-10.33873169 63.12859894 -11.09738525 63.12780334 -11.87902832 63.12698364 C-13.625 63 -13.625 63 -14.625 62 C-14.7241056 60.13364212 -14.75299261 58.26351806 -14.75439453 56.39453125 C-14.75754669 55.19658936 -14.76069885 53.99864746 -14.76394653 52.7644043 C-14.7619223 51.46027588 -14.75989807 50.15614746 -14.7578125 48.8125 C-14.7584856 47.47110985 -14.75945568 46.12971981 -14.76071167 44.78833008 C-14.76218836 41.97378379 -14.76003504 39.15926918 -14.75537109 36.34472656 C-14.74967381 32.72959369 -14.75295297 29.11453505 -14.75894356 25.49940491 C-14.76254997 22.72855058 -14.76141022 19.95771398 -14.75881577 17.18685913 C-14.75782033 15.20310417 -14.76086741 13.21934853 -14.76394653 11.2355957 C-14.76079437 10.03765381 -14.75764221 8.83971191 -14.75439453 7.60546875 C-14.75359894 6.54481201 -14.75280334 5.48415527 -14.75198364 4.39135742 C-14.42954391 -1.68083142 -4.63826032 0.21041418 0 0 Z " fill="#5C9F63" transform="translate(254.625,15)"/>
<path d="M0 0 C7.87408949 4.49947971 7.87408949 4.49947971 10.5 6.40234375 C11.0775 6.81806641 11.655 7.23378906 12.25 7.66210938 C12.8275 8.08298828 13.405 8.50386719 14 8.9375 C14.5775 9.35451172 15.155 9.77152344 15.75 10.20117188 C16.3275 10.61818359 16.905 11.03519531 17.5 11.46484375 C18.07621094 11.87589355 18.65242188 12.28694336 19.24609375 12.71044922 C20.45054384 13.59601511 21.62962371 14.51682187 22.78515625 15.46533203 C25.62517088 17.72407993 27.22849307 18.95558929 30.91796875 19.16796875 C35.23582234 17.53167189 38.62641056 15.05903017 42.3125 12.3125 C43.81847176 11.21930965 45.32497749 10.12685448 46.83203125 9.03515625 C47.54955566 8.51066895 48.26708008 7.98618164 49.00634766 7.44580078 C51.46903234 5.65985678 53.97078591 3.94021553 56.5 2.25 C57.50546875 1.57710937 57.50546875 1.57710937 58.53125 0.890625 C60 0 60 0 61 0 C61 14.19 61 28.38 61 43 C40.87 43 20.74 43 0 43 C0 28.81 0 14.62 0 0 Z " fill="#E8E8E8" transform="translate(232,133)"/>
<path d="M0 0 C2.5 1.0625 2.5 1.0625 4 3 C4.375 6.5625 4.375 6.5625 4 10 C3.34 10.66 2.68 11.32 2 12 C6.29 12.33 10.58 12.66 15 13 C15 10.36 15 7.72 15 5 C13.02 5.33 11.04 5.66 9 6 C9.33 4.68 9.66 3.36 10 2 C12.97 1.34 15.94 0.68 19 0 C19 4.29 19 8.58 19 13 C23.95 13 28.9 13 34 13 C34.84617398 20.93288106 35.69288177 29.02598778 35 37 C32.37791857 39.62208143 31.22782357 39.25785134 27.57226562 39.2746582 C26.43768921 39.28419022 25.30311279 39.29372223 24.13415527 39.30354309 C22.90394653 39.30263168 21.67373779 39.30172028 20.40625 39.30078125 C18.51984802 39.30720894 18.51984802 39.30720894 16.59533691 39.31376648 C13.93206882 39.31951857 11.2691872 39.32093483 8.60595703 39.31567383 C5.18918436 39.30987458 1.77295296 39.32681858 -1.64373016 39.3500185 C-4.89789976 39.36827032 -8.15203838 39.3645712 -11.40625 39.36328125 C-12.63645874 39.372491 -13.86666748 39.38170074 -15.13415527 39.39118958 C-16.8360199 39.38184639 -16.8360199 39.38184639 -18.57226562 39.37231445 C-20.07545349 39.37325859 -20.07545349 39.37325859 -21.60900879 39.3742218 C-22.39803589 39.25072861 -23.18706299 39.12723541 -24 39 C-26.08243292 35.87635063 -26.23857547 35.42960923 -26.01171875 31.9453125 C-25.96466797 31.16542969 -25.91761719 30.38554687 -25.86914062 29.58203125 C-25.77922852 28.36580078 -25.77922852 28.36580078 -25.6875 27.125 C-25.63916016 26.32191406 -25.59082031 25.51882812 -25.54101562 24.69140625 C-25.28244981 20.71800245 -24.9203913 16.88609659 -24 13 C-22.84242187 12.95101562 -21.68484375 12.90203125 -20.4921875 12.8515625 C-18.9531033 12.77648522 -17.4140419 12.70093957 -15.875 12.625 C-14.73417969 12.57859375 -14.73417969 12.57859375 -13.5703125 12.53125 C-9.05367842 12.297631 -5.25847653 11.67345883 -1 10 C-0.32041397 7.60280568 -0.32041397 7.60280568 0 5 C-0.66 4.34 -1.32 3.68 -2 3 C-4.53951544 3.09111938 -4.53951544 3.09111938 -7 4 C-7.99 5.485 -7.99 5.485 -9 7 C-9.99 7 -10.98 7 -12 7 C-11.62120265 4.80297535 -11.09789619 3.16124078 -9.9375 1.25 C-6.80999538 -0.76774492 -3.55476782 -0.50782397 0 0 Z " fill="#5D83EC" transform="translate(97,119)"/>
<path d="M0 0 C25.99476323 -3.43839713 25.99476323 -3.43839713 33.48632812 1.70800781 C37.73216535 6.62664694 40.04127465 12.56793767 42.47021484 18.53222656 C44.16621173 22.37677488 46.13876925 25.93907883 48.26953125 29.5546875 C48.64093735 30.18503906 49.01234344 30.81539062 49.39500427 31.46484375 C50.14260649 32.72862649 50.89155652 33.99161294 51.64187622 35.25378418 C53.40980722 38.2391731 55.13906501 41.24465961 56.859375 44.2578125 C57.44170898 45.2698877 58.02404297 46.28196289 58.62402344 47.32470703 C60 50 60 50 61 54 C50.77 54 40.54 54 30 54 C27.64875 49.9575 25.2975 45.915 22.875 41.75 C22.14651855 40.50186523 21.41803711 39.25373047 20.66748047 37.96777344 C17.00486098 31.643869 13.58533159 25.26566312 10.36669922 18.70556641 C8.47186173 14.95447869 6.34054778 11.38073767 4.125 7.8125 C0 1.11598558 0 1.11598558 0 0 Z " fill="#F2CE58" transform="translate(346,38)"/>
<path d="M0 0 C1.04905518 0.00410889 2.09811035 0.00821777 3.17895508 0.01245117 C4.36859863 0.01374023 5.55824219 0.0150293 6.78393555 0.01635742 C8.0757373 0.02924805 9.36753906 0.04213867 10.69848633 0.05541992 C12.03198054 0.06230522 13.36547676 0.0688103 14.69897461 0.07495117 C29.30989424 0.16937903 43.91181967 0.67736391 58.51098633 1.24291992 C57.3192409 5.0836046 55.97589281 8.48112808 53.94458008 11.94995117 C53.45924805 12.78333008 52.97391602 13.61670898 52.47387695 14.4753418 C51.97049805 15.32676758 51.46711914 16.17819336 50.94848633 17.05541992 C50.44124023 17.92618164 49.93399414 18.79694336 49.41137695 19.6940918 C45.6726992 26.08120705 45.6726992 26.08120705 44.51098633 27.24291992 C42.5472948 27.33692662 40.58019434 27.36035374 38.61425781 27.35644531 C37.35302597 27.35636978 36.09179413 27.35629425 34.79234314 27.35621643 C33.40558839 27.35110902 32.01883404 27.34589301 30.63208008 27.34057617 C29.22103424 27.33871193 27.80998776 27.33728806 26.39894104 27.33628845 C22.67858098 27.33246371 18.95825973 27.32263382 15.23791504 27.31158447 C11.44417852 27.3013694 7.65043575 27.29679063 3.85668945 27.29174805 C-3.59189598 27.2810115 -11.0404494 27.26393562 -18.48901367 27.24291992 C-17.40530017 25.03799943 -16.31747654 22.83526523 -15.22729492 20.63354492 C-14.92537231 20.01817871 -14.62344971 19.4028125 -14.31237793 18.76879883 C-5.25033283 0.512416 -5.25033283 0.512416 0 0 Z " fill="#5D84EC" transform="translate(348.489013671875,90.757080078125)"/>
<path d="M0 0 C4.42420487 2.67355176 8.65951171 6.6126636 10.16015625 11.65625 C10.27230469 12.2440625 10.38445312 12.831875 10.5 13.4375 C3.875 16.4375 3.875 16.4375 0.5 16.4375 C-0.03625 15.48875 -0.5725 14.54 -1.125 13.5625 C-3.99741533 9.78300615 -5.7113584 9.28980348 -10.25 8.55078125 C-14.18092496 8.3528701 -17.06866617 9.32085658 -20.15234375 11.7265625 C-21.92358273 13.9752659 -21.81031173 15.30033016 -21.6875 18.125 C-21.66042969 18.93324219 -21.63335937 19.74148437 -21.60546875 20.57421875 C-21.57066406 21.18910156 -21.53585938 21.80398437 -21.5 22.4375 C-20.86835938 22.69015625 -20.23671875 22.9428125 -19.5859375 23.203125 C-18.56757813 23.61046875 -17.54921875 24.0178125 -16.5 24.4375 C-15.46987793 24.84258789 -15.46987793 24.84258789 -14.41894531 25.25585938 C-11.98185719 26.21919214 -9.55344149 27.20259029 -7.125 28.1875 C-5.8875 28.67089844 -5.8875 28.67089844 -4.625 29.1640625 C2.18963314 31.95481702 7.60769087 35.26330405 11.4375 41.6875 C13.19046767 47.87444471 13.58623626 53.6759375 11 59.6875 C8.03612193 64.92474692 3.15834379 68.5513854 -2.5 70.4375 C-19.96197779 71.71743554 -19.96197779 71.71743554 -25.92578125 67 C-33.63300398 59.35015113 -33.63300398 59.35015113 -35.5 54.4375 C-35.37890625 52.296875 -35.37890625 52.296875 -34.5 50.4375 C-32.65234375 49.390625 -32.65234375 49.390625 -30.4375 48.6875 C-29.70402344 48.44515625 -28.97054687 48.2028125 -28.21484375 47.953125 C-27.64894531 47.78296875 -27.08304688 47.6128125 -26.5 47.4375 C-26.13648438 48.12457031 -25.77296875 48.81164062 -25.3984375 49.51953125 C-21.51567497 56.71595945 -21.51567497 56.71595945 -14.5 60.4375 C-9.0857597 61.0281444 -5.23903811 60.13224716 -0.5 57.4375 C1.49431732 54.44602401 1.49822408 52.53695143 1.5625 48.9375 C0.42817368 45.20089566 -0.67641357 43.7588812 -3.94921875 41.671875 C-7.32587909 40.03784029 -10.83803373 38.85622502 -14.375 37.625 C-22.38581699 34.81242764 -29.05465236 31.23038137 -33.0625 23.375 C-34.10786575 16.35611568 -33.73582541 11.23389267 -29.5 5.4375 C-21.54848676 -1.95404752 -10.31250658 -4.6856826 0 0 Z " fill="#000000" transform="translate(261.5,195.5625)"/>
<path d="M0 0 C6.95923606 7.5391724 7.25 12.89945257 7.25 23.4375 C-4.63 23.4375 -16.51 23.4375 -28.75 23.4375 C-26.67703652 31.89245843 -26.67703652 31.89245843 -23.1875 35 C-17.67274401 37.30617069 -12.50443285 37.12610821 -6.75 35.6875 C-4.37986193 34.20616371 -3.87943598 32.93839396 -2.75 30.4375 C1.42587745 29.04554085 3.38474776 30.61426781 7.25 32.4375 C6.77147104 36.74426065 4.42347304 38.66915117 1.25 41.4375 C0.73953125 41.90929687 0.2290625 42.38109375 -0.296875 42.8671875 C-6.85767437 48.00551267 -14.88360841 47.28901662 -22.75 46.4375 C-28.65904107 45.00903812 -32.12654291 41.59327212 -35.49609375 36.64453125 C-39.96852616 28.77249289 -40.83617775 21.17901506 -38.6875 12.4375 C-36.51846814 5.79739774 -32.52595456 1.15859183 -26.625 -2.5 C-17.20187788 -5.98245817 -8.65312259 -4.91654693 0 0 Z M-26.75 10.4375 C-27.41 12.0875 -28.07 13.7375 -28.75 15.4375 C-20.17 15.4375 -11.59 15.4375 -2.75 15.4375 C-4.2855892 9.92396641 -4.2855892 9.92396641 -7.75 6.4375 C-15.31711965 3.91512678 -21.38970785 4.40717133 -26.75 10.4375 Z " fill="#000000" transform="translate(415.75,219.5625)"/>
<path d="M0 0 C3.3 0 6.6 0 10 0 C10.01458252 0.97348389 10.02916504 1.94696777 10.04418945 2.94995117 C10.10233296 6.57515476 10.17956377 10.1997476 10.26245117 13.82446289 C10.29562532 15.39076801 10.32368058 16.95719051 10.34643555 18.52368164 C10.38012116 20.78061763 10.43244049 23.03648526 10.48828125 25.29296875 C10.49467117 25.98899704 10.5010611 26.68502533 10.50764465 27.40214539 C10.63766808 31.73955629 11.35102356 34.53988871 14 38 C17.46806043 39.73403022 21.2080721 39.46579045 25 39 C28.39184632 37.12365948 29.64734604 35.86813133 31.10302734 32.28466797 C32.06194124 28.77317436 32.31754263 25.70589412 32.4140625 22.0703125 C32.45273437 20.78125 32.49140625 19.4921875 32.53125 18.1640625 C32.56269758 16.81771293 32.59394511 15.47135868 32.625 14.125 C32.66323041 12.75518486 32.70228501 11.38539245 32.7421875 10.015625 C32.83622715 6.67721737 32.92188057 3.33881186 33 0 C36.3 0 39.6 0 43 0 C43 15.84 43 31.68 43 48 C39.7 48 36.4 48 33 48 C32.505 46.02 32.505 46.02 32 44 C30.824375 44.9590625 30.824375 44.9590625 29.625 45.9375 C24.04204779 50.32410531 17.87262666 49.5635867 11 49 C6.48234822 46.89695521 3.77957199 44.11788443 1 40 C-0.26125383 35.95022217 -0.12593914 31.93635781 -0.09765625 27.734375 C-0.0962413 26.94097717 -0.09482635 26.14757935 -0.09336853 25.33013916 C-0.08778415 22.80338728 -0.07523454 20.27672496 -0.0625 17.75 C-0.05748298 16.03385545 -0.05292043 14.31770951 -0.04882812 12.6015625 C-0.03781984 8.40100731 -0.02056596 4.20051883 0 0 Z " fill="#000000" transform="translate(280,217)"/>
<path d="M0 0 C3.3 0 6.6 0 10 0 C10 4.95 10 9.9 10 15 C13.63 15 17.26 15 21 15 C21 17.97 21 20.94 21 24 C17.37 24 13.74 24 10 24 C10.11798944 27.96952899 10.24221799 31.93880781 10.37231445 35.90795898 C10.41571223 37.25914147 10.4573837 38.61038053 10.49731445 39.96166992 C10.55489952 41.90036701 10.61914298 43.83886276 10.68359375 45.77734375 C10.72025146 46.94515381 10.75690918 48.11296387 10.79467773 49.31616211 C10.70076188 51.91779795 10.70076188 51.91779795 12 53 C13.34747084 53.23075082 14.70377565 53.41153063 16.0625 53.5625 C17.361875 53.706875 18.66125 53.85125 20 54 C21.49821059 57.37097383 22 59.20442119 22 63 C16.80388584 64.73203805 11.86639515 64.63387005 6.6875 62.875 C3.39446704 60.57753515 1.94992318 58.51160547 0 55 C-0.45410156 51.47314453 -0.45410156 51.47314453 -0.390625 47.6328125 C-0.38496521 46.95322479 -0.37930542 46.27363708 -0.37347412 45.57345581 C-0.35125351 43.42322451 -0.30109198 41.27471926 -0.25 39.125 C-0.22991614 37.6588784 -0.21166868 36.19273042 -0.1953125 34.7265625 C-0.15143811 31.15048992 -0.08251443 27.57541369 0 24 C-2.97 24 -5.94 24 -9 24 C-9 21.03 -9 18.06 -9 15 C-6.03 15 -3.06 15 0 15 C0 10.05 0 5.1 0 0 Z " fill="#000000" transform="translate(354,202)"/>
<path d="M0 0 C7.87408949 4.49947971 7.87408949 4.49947971 10.5 6.40234375 C11.0775 6.81806641 11.655 7.23378906 12.25 7.66210938 C12.8275 8.08298828 13.405 8.50386719 14 8.9375 C14.5775 9.35451172 15.155 9.77152344 15.75 10.20117188 C16.3275 10.61818359 16.905 11.03519531 17.5 11.46484375 C18.07621094 11.87589355 18.65242188 12.28694336 19.24609375 12.71044922 C20.45054384 13.59601511 21.62962371 14.51682187 22.78515625 15.46533203 C25.62517088 17.72407993 27.22849307 18.95558929 30.91796875 19.16796875 C35.23582234 17.53167189 38.62641056 15.05903017 42.3125 12.3125 C43.81847176 11.21930965 45.32497749 10.12685448 46.83203125 9.03515625 C47.54955566 8.51066895 48.26708008 7.98618164 49.00634766 7.44580078 C51.46903234 5.65985678 53.97078591 3.94021553 56.5 2.25 C57.50546875 1.57710937 57.50546875 1.57710937 58.53125 0.890625 C60 0 60 0 61 0 C61 14.19 61 28.38 61 43 C40.87 43 20.74 43 0 43 C0 28.81 0 14.62 0 0 Z M58 5 C55.81075974 6.62165945 53.66925168 8.27138324 51.5625 10 C49 12 49 12 46.6875 13.375 C44.29822369 14.8196787 42.33807294 16.36085813 40.1875 18.125 C36.06786212 21.3005542 33.10212124 21.56761684 28 22 C26.33333333 23.33333333 26.33333333 23.33333333 25 25 C24.15179688 25.40347656 23.30359375 25.80695313 22.4296875 26.22265625 C18.17682956 28.42658605 14.54625914 31.1596828 10.75 34.0625 C10.03070313 34.60455078 9.31140625 35.14660156 8.5703125 35.70507812 C4.63650343 38.67916553 4.63650343 38.67916553 1 42 C20.47 42 39.94 42 60 42 C60 30.12 60 18.24 60 6 C59.34 5.67 58.68 5.34 58 5 Z " fill="#E1E1E1" transform="translate(232,133)"/>
<path d="M0 0 C22.11 0 44.22 0 67 0 C63.96661327 3.03338673 61.48980468 5.18173463 58.0078125 7.53125 C57.05519531 8.17707031 56.10257812 8.82289062 55.12109375 9.48828125 C54.13238281 10.15214844 53.14367187 10.81601563 52.125 11.5 C51.14402344 12.16386719 50.16304688 12.82773438 49.15234375 13.51171875 C47.2635987 14.78872451 45.37085776 16.05984576 43.47363281 17.32421875 C42.00875485 18.3166114 40.55825569 19.33183107 39.14355469 20.39453125 C36.84052704 22.10964589 35.43192672 22.9959188 32.51953125 23.0234375 C29.21333062 21.68045368 26.51346309 19.76045078 23.6875 17.625 C22.46081754 16.72104987 21.23289982 15.81877422 20.00390625 14.91796875 C19.35953613 14.44407715 18.71516602 13.97018555 18.05126953 13.48193359 C13.76450255 10.38497149 9.36559039 7.44618289 4.97924805 4.49267578 C3.30267384 3.35281295 1.64871731 2.17979641 0 1 C0 0.67 0 0.34 0 0 Z " fill="#F0EFEF" transform="translate(229,118)"/>
<path d="M0 0 C5.9090625 -0.0309375 5.9090625 -0.0309375 11.9375 -0.0625 C13.18136475 -0.071604 14.42522949 -0.08070801 15.70678711 -0.09008789 C17.16483765 -0.09383423 17.16483765 -0.09383423 18.65234375 -0.09765625 C20.15269165 -0.10551147 20.15269165 -0.10551147 21.68334961 -0.11352539 C24 0 24 0 25 1 C25.08726223 2.78071246 25.10699041 4.5648314 25.09765625 6.34765625 C25.09515869 7.31968994 25.09266113 8.29172363 25.09008789 9.29321289 C25.08098389 10.53707764 25.07187988 11.78094238 25.0625 13.0625 C25.041875 17.001875 25.02125 20.94125 25 25 C16.75 25 8.5 25 0 25 C0 16.75 0 8.5 0 0 Z " fill="#F1F0EF" transform="translate(436,129)"/>
<path d="M0 0 C0.95184677 0.00142502 1.90369354 0.00285004 2.88438416 0.00431824 C3.96212601 0.00124161 5.03986786 -0.00183502 6.15026855 -0.00500488 C7.31799301 0.00218063 8.48571747 0.00936615 9.68882751 0.01676941 C10.88221237 0.01722763 12.07559723 0.01768585 13.30514526 0.01815796 C15.8312428 0.0211831 18.35733843 0.02907716 20.88340759 0.04142761 C24.76587984 0.05967803 28.64811374 0.0619374 32.53062439 0.06169128 C34.97919418 0.06660646 37.42776233 0.07243478 39.87632751 0.07926941 C41.63095055 0.08093864 41.63095055 0.08093864 43.42102051 0.0826416 C45.03290504 0.09221138 45.03290504 0.09221138 46.67735291 0.10197449 C47.62840408 0.10578629 48.57945526 0.10959808 49.55932617 0.11352539 C51.71617126 0.24723816 51.71617126 0.24723816 52.71617126 1.24723816 C52.71617126 4.21723816 52.71617126 7.18723816 52.71617126 10.24723816 C33.90617126 10.24723816 15.09617126 10.24723816 -4.28382874 10.24723816 C-4.28382874 0.46375016 -4.28382874 0.46375016 0 0 Z " fill="#C4C4C3" transform="translate(77.28382873535156,96.75276184082031)"/>
<path d="M0 0 C7.59 0 15.18 0 23 0 C23 6.93 23 13.86 23 21 C15.41 21 7.82 21 0 21 C0 14.07 0 7.14 0 0 Z " fill="#E4EAE4" transform="translate(251,46)"/>
<path d="M0 0 C3.3 0 6.6 0 10 0 C10 15.84 10 31.68 10 48 C6.7 48 3.4 48 0 48 C0 32.16 0 16.32 0 0 Z " fill="#000000" transform="translate(331,217)"/>
<path d="M0 0 C0.33 0 0.66 0 1 0 C1.02526739 7.24486551 1.0428318 14.48971974 1.05493164 21.73461914 C1.05997356 24.20142033 1.06680691 26.66821852 1.07543945 29.13500977 C1.08751125 32.67204529 1.09322956 36.20904145 1.09765625 39.74609375 C1.10281754 40.85649521 1.10797882 41.96689667 1.11329651 43.11094666 C1.11337204 44.13192947 1.11344757 45.15291229 1.11352539 46.20483398 C1.115746 47.10862289 1.11796661 48.0124118 1.12025452 48.94358826 C1 51 1 51 0 52 C-2.33297433 52.04092937 -4.66705225 52.04241723 -7 52 C-7.15211778 45.66486373 -7.25719976 39.33019798 -7.32958984 32.99365234 C-7.35976553 30.83819989 -7.40071202 28.68287024 -7.45263672 26.52783203 C-7.5254163 23.42970507 -7.55944832 20.33320068 -7.5859375 17.234375 C-7.61690521 16.27070007 -7.64787292 15.30702515 -7.67977905 14.31414795 C-7.68107575 11.73718163 -7.63556848 9.49812002 -7 7 C-4.02587891 4.54785156 -4.02587891 4.54785156 -1 3 C-0.67 2.01 -0.34 1.02 0 0 Z " fill="#A63D2F" transform="translate(301,124)"/>
<path d="M0 0 C5.60525362 4.66732274 10.79461593 9.64317437 15.9375 14.8125 C16.71673828 15.58787109 17.49597656 16.36324219 18.29882812 17.16210938 C19.03423828 17.89880859 19.76964844 18.63550781 20.52734375 19.39453125 C21.19499756 20.06331299 21.86265137 20.73209473 22.55053711 21.42114258 C24 23 24 23 24 24 C20.75017 24.08728882 17.5006425 24.14048658 14.25 24.1875 C12.86941406 24.22520508 12.86941406 24.22520508 11.4609375 24.26367188 C10.57148438 24.27333984 9.68203125 24.28300781 8.765625 24.29296875 C7.94868164 24.3086792 7.13173828 24.32438965 6.29003906 24.34057617 C3.36730951 23.90590584 2.05038304 23.12228561 0 21 C-0.45410156 18.73168945 -0.45410156 18.73168945 -0.390625 16.11328125 C-0.37773437 15.17548828 -0.36484375 14.23769531 -0.3515625 13.27148438 C-0.31804687 12.29501953 -0.28453125 11.31855469 -0.25 10.3125 C-0.23195312 9.32443359 -0.21390625 8.33636719 -0.1953125 7.31835938 C-0.14815447 4.87793158 -0.08236042 2.43945231 0 0 Z " fill="#ADC3F7" transform="translate(188,30)"/>
<path d="M0 0 C4.9050093 2.70901661 9.47420317 5.63912352 14 8.9375 C14.5775 9.35451172 15.155 9.77152344 15.75 10.20117188 C16.3275 10.61818359 16.905 11.03519531 17.5 11.46484375 C18.07621094 11.87589355 18.65242188 12.28694336 19.24609375 12.71044922 C20.45054384 13.59601511 21.62962371 14.51682187 22.78515625 15.46533203 C25.62517088 17.72407993 27.22849307 18.95558929 30.91796875 19.16796875 C35.2357486 17.53169983 38.62659607 15.0591974 42.3125 12.3125 C43.8171155 11.21923572 45.32231878 10.12677991 46.828125 9.03515625 C47.90416992 8.24842529 47.90416992 8.24842529 49.00195312 7.44580078 C52.59098554 4.84875167 56.28557005 2.41279211 60 0 C60.495 0.99 60.495 0.99 61 2 C59.948125 2.70125 58.89625 3.4025 57.8125 4.125 C55.27342741 5.92329688 53.29127388 7.67608769 51.375 10.125 C48.98348538 13.01999139 47.23294542 14.19556535 44 16 C42.72603887 17.03783902 41.45550216 18.07988884 40.1875 19.125 C36.04183588 22.30073515 33.15333728 22.66207624 28 23 C26.31697925 23.62423023 24.64591985 24.2836411 23 25 C22.5968457 24.59160889 22.19369141 24.18321777 21.77832031 23.76245117 C19.93821617 21.90147279 18.09415612 20.04446276 16.25 18.1875 C15.61578125 17.54490234 14.9815625 16.90230469 14.328125 16.24023438 C13.709375 15.61826172 13.090625 14.99628906 12.453125 14.35546875 C11.88754883 13.78465576 11.32197266 13.21384277 10.73925781 12.62573242 C8.99105625 10.92078257 8.99105625 10.92078257 6.78417969 9.4152832 C6.19540039 8.94823975 5.60662109 8.48119629 5 8 C5 7.34 5 6.68 5 6 C4.34 6 3.68 6 3 6 C1.375 4.6875 1.375 4.6875 0 3 C0 2.01 0 1.02 0 0 Z " fill="#C8C8C8" transform="translate(232,133)"/>
<path d="M0 0 C0.02698189 1.62490954 0.04638757 3.24994633 0.0625 4.875 C0.07410156 5.77992187 0.08570313 6.68484375 0.09765625 7.6171875 C0 10 0 10 -1 12 C-1 13.32 -1 14.64 -1 16 C-6.61 16 -12.22 16 -18 16 C-18 13.03 -18 10.06 -18 7 C-15.03 7 -12.06 7 -9 7 C-9 6.34 -9 5.68 -9 5 C-11.97 5 -14.94 5 -18 5 C-18 3.68 -18 2.36 -18 1 C-11.97403427 -0.0712828 -6.11090483 -0.09945415 0 0 Z " fill="#D8E3D9" transform="translate(272,48)"/>
<path d="M0 0 C6.27 0 12.54 0 19 0 C19 3.63 19 7.26 19 11 C12.73 11 6.46 11 0 11 C0 7.37 0 3.74 0 0 Z " fill="#E4B52E" transform="translate(439,136)"/>
<path d="M0 0 C4.72899388 3.86917681 9.11269322 8.00302036 13.4375 12.3125 C13.98180664 12.85229492 14.52611328 13.39208984 15.08691406 13.94824219 C19 17.87627307 19 17.87627307 19 19 C16.20807795 19.05380578 13.4171859 19.09357669 10.625 19.125 C9.8309375 19.14175781 9.036875 19.15851563 8.21875 19.17578125 C6.14507985 19.19335473 4.07116759 19.10335168 2 19 C0 17 0 17 -0.1953125 13.0859375 C-0.18200376 11.51550649 -0.15813602 9.94513779 -0.125 8.375 C-0.11597656 7.57320313 -0.10695313 6.77140625 -0.09765625 5.9453125 C-0.07406223 3.96341477 -0.03819065 1.98167019 0 0 Z " fill="#F1DB8A" transform="translate(455,97)"/>
<path d="M0 0 C2.5 1.0625 2.5 1.0625 4 3 C4.49125459 6.85985753 4.56021138 9.08965651 2.5 12.4375 C2.005 12.953125 1.51 13.46875 1 14 C1.99 14.33 2.98 14.66 4 15 C5.20853081 20.31753555 5.20853081 20.31753555 4.3125 23.25 C2.65403428 25.46128762 1.64093338 26.14348107 -1 27 C-5.04597003 27.43349679 -7.12303347 27.65210332 -10.4375 25.1875 C-12 23 -12 23 -12 20 C-11.01 20 -10.02 20 -9 20 C-8.34 20.99 -7.68 21.98 -7 23 C-3.91634129 23.2502157 -3.91634129 23.2502157 -1 23 C-0.01 19.535 -0.01 19.535 1 16 C-1.64 15.67 -4.28 15.34 -7 15 C-7 14.01 -7 13.02 -7 12 C-5.02 11.34 -3.04 10.68 -1 10 C-0.32041397 7.60280568 -0.32041397 7.60280568 0 5 C-0.66 4.34 -1.32 3.68 -2 3 C-4.53951544 3.09111938 -4.53951544 3.09111938 -7 4 C-7.99 5.485 -7.99 5.485 -9 7 C-9.99 7 -10.98 7 -12 7 C-11.62120265 4.80297535 -11.09789619 3.16124078 -9.9375 1.25 C-6.80999538 -0.76774492 -3.55476782 -0.50782397 0 0 Z " fill="#DBE0ED" transform="translate(97,119)"/>
<path d="M0 0 C5.61 0 11.22 0 17 0 C17 0.66 17 1.32 17 2 C18.423125 1.9690625 18.423125 1.9690625 19.875 1.9375 C23 2 23 2 25 3 C25.125 5.875 25.125 5.875 25 9 C23 11 23 11 19.875 11.125 C18.92625 11.08375 17.9775 11.0425 17 11 C16.34 9.68 15.68 8.36 15 7 C13.68 7 12.36 7 11 7 C11 7.66 11 8.32 11 9 C8.03469503 7.64199529 5.70868729 6.07571737 3.25 3.9375 C2.63640625 3.41027344 2.0228125 2.88304687 1.390625 2.33984375 C0.93171875 1.89769531 0.4728125 1.45554688 0 1 C0 0.67 0 0.34 0 0 Z " fill="#5A7CE0" transform="translate(73,132)"/>
<path d="M0 0 C2.89852365 1.31307372 4.98277217 2.72684638 7.234375 4.96875 C8.09482422 5.82533203 8.09482422 5.82533203 8.97265625 6.69921875 C9.85244141 7.59060547 9.85244141 7.59060547 10.75 8.5 C11.35199219 9.09425781 11.95398438 9.68851563 12.57421875 10.30078125 C13.14269531 10.87183594 13.71117187 11.44289063 14.296875 12.03125 C14.81604492 12.55267578 15.33521484 13.07410156 15.87011719 13.61132812 C17 15 17 15 17 17 C14.54137599 17.05383848 12.0839245 17.09359038 9.625 17.125 C8.57699219 17.15013672 8.57699219 17.15013672 7.5078125 17.17578125 C5.67102514 17.19344267 3.83398037 17.10303261 2 17 C0 15 0 15 -0.1953125 11.5234375 C-0.18201493 10.14049032 -0.15816232 8.75761346 -0.125 7.375 C-0.11597656 6.66859375 -0.10695313 5.9621875 -0.09765625 5.234375 C-0.07407603 3.48943902 -0.03820461 1.74467705 0 0 Z " fill="#A0CDAE" transform="translate(268,16)"/>
<path d="M0 0 C0 13.53 0 27.06 0 41 C-20.13 41 -40.26 41 -61 41 C-61 27.8 -61 14.6 -61 1 C-60.01 1.495 -60.01 1.495 -59 2 C-59.33 14.54 -59.66 27.08 -60 40 C-40.53 40 -21.06 40 -1 40 C-1.33 28.12 -1.66 16.24 -2 4 C-3.65 4.99 -5.3 5.98 -7 7 C-7 6.01 -7 5.02 -7 4 C-2.65714286 0 -2.65714286 0 0 0 Z " fill="#DEDBDA" transform="translate(293,135)"/>
<path d="M0 0 C1 1 1 1 1 10 C-17.81 10 -36.62 10 -56 10 C-56 9.67 -56 9.34 -56 9 C-40.82 9 -25.64 9 -10 9 C-10.495 5.535 -10.495 5.535 -11 2 C-7.36736489 -0.32488647 -4.23314767 -0.23961213 0 0 Z " fill="#B5B8C4" transform="translate(129,97)"/>
<path d="M0 0 C1.8125 1.1875 1.8125 1.1875 3 3 C3.54068562 6.63031776 3.46379841 8.32214079 1.375 11.375 C-1 13 -1 13 -4 13.5625 C-7 13 -7 13 -9.4375 10.875 C-11 8 -11 8 -11.0625 4.875 C-10 2 -10 2 -7.75 0.0625 C-4.55083641 -1.17354048 -3.19537581 -1.17724372 0 0 Z " fill="#000000" transform="translate(340,195)"/>
<path d="M0 0 C10.56 0 21.12 0 32 0 C32 1.32 32 2.64 32 4 C21.44 4 10.88 4 0 4 C0 2.68 0 1.36 0 0 Z " fill="#EDEEF1" transform="translate(164,90)"/>
<path d="M0 0 C10.56 0 21.12 0 32 0 C32 1.32 32 2.64 32 4 C21.44 4 10.88 4 0 4 C0 2.68 0 1.36 0 0 Z " fill="#EDEEF1" transform="translate(164,82)"/>
<path d="M0 0 C10.56 0 21.12 0 32 0 C32 1.32 32 2.64 32 4 C21.44 4 10.88 4 0 4 C0 2.68 0 1.36 0 0 Z " fill="#EEEFF1" transform="translate(164,74)"/>
<path d="M0 0 C0.66 0 1.32 0 2 0 C2.875 2 2.875 2 3 5 C1.72624455 7.09259824 0.24368463 8.91093767 -1.3046875 10.80859375 C-3.54347896 13.70251543 -5.209816 16.79515347 -6.921875 20.01953125 C-8 22 -8 22 -10 25 C-11.32 24.67 -12.64 24.34 -14 24 C-12.42099545 21.12260256 -10.83601498 18.24853838 -9.25 15.375 C-8.58484375 14.16263672 -8.58484375 14.16263672 -7.90625 12.92578125 C-2.95528906 3.9703666 -2.95528906 3.9703666 0 0 Z " fill="#4E6EBB" transform="translate(344,93)"/>
<path d="M0 0 C0 8.91 0 17.82 0 27 C-0.99 27 -1.98 27 -3 27 C-3 19.41 -3 11.82 -3 4 C-5.31 4.66 -7.62 5.32 -10 6 C-9.67 4.68 -9.34 3.36 -9 2 C-2.25 0 -2.25 0 0 0 Z " fill="#D1D1D1" transform="translate(116,119)"/>
<path d="M0 0 C7.92 0 15.84 0 24 0 C24 1.32 24 2.64 24 4 C16.08 4 8.16 4 0 4 C0 2.68 0 1.36 0 0 Z " fill="#ECEDF0" transform="translate(164,98)"/>
<path d="M0 0 C0 3.3 0 6.6 0 10 C-0.33 9.01 -0.66 8.02 -1 7 C-2.670625 7.061875 -2.670625 7.061875 -4.375 7.125 C-8 7 -8 7 -10 5 C-12.68839385 4.73008094 -15.29141936 4.91262643 -18 5 C-18 3.68 -18 2.36 -18 1 C-11.97403427 -0.0712828 -6.11090483 -0.09945415 0 0 Z " fill="#E4EAE5" transform="translate(272,48)"/>
<path d="M0 0 C2.5 1.0625 2.5 1.0625 4 3 C4.56619391 6.89258312 4.62346631 9.05233121 2.4375 12.375 C-0.6785229 14.4523486 -3.30463414 14.71574109 -7 15 C-7 14.01 -7 13.02 -7 12 C-5.02 11.34 -3.04 10.68 -1 10 C-0.32041397 7.60280568 -0.32041397 7.60280568 0 5 C-0.66 4.34 -1.32 3.68 -2 3 C-4.53951544 3.09111938 -4.53951544 3.09111938 -7 4 C-7.99 5.485 -7.99 5.485 -9 7 C-9.99 7 -10.98 7 -12 7 C-11.62120265 4.80297535 -11.09789619 3.16124078 -9.9375 1.25 C-6.80999538 -0.76774492 -3.55476782 -0.50782397 0 0 Z " fill="#CCCDD1" transform="translate(97,119)"/>
<path d="M0 0 C5.28 0 10.56 0 16 0 C16 0.66 16 1.32 16 2 C12.26513121 2.5745952 8.78706732 3 5 3 C4.67 3.66 4.34 4.32 4 5 C2.68 3.35 1.36 1.7 0 0 Z " fill="#CB972C" transform="translate(458,116)"/>
<path d="M0 0 C0.99 0 1.98 0 3 0 C3 4.62 3 9.24 3 14 C2.01 14 1.02 14 0 14 C0 9.38 0 4.76 0 0 Z " fill="#EBEBED" transform="translate(113,132)"/>
<path d="M0 0 C0.33 0.66 0.66 1.32 1 2 C0.24074219 2.54269531 -0.51851563 3.08539063 -1.30078125 3.64453125 C-2.29464844 4.35996094 -3.28851563 5.07539063 -4.3125 5.8125 C-5.29863281 6.52019531 -6.28476562 7.22789062 -7.30078125 7.95703125 C-9.938053 9.83721827 -9.938053 9.83721827 -11.6875 11.78125 C-12.3371875 12.38453125 -12.3371875 12.38453125 -13 13 C-15.6875 12.6875 -15.6875 12.6875 -18 12 C-12 8 -6 4 0 0 Z " fill="#C0BCBC" transform="translate(279,142)"/>
<path d="M0 0 C0.33 0 0.66 0 1 0 C1.25 2.29296875 1.25 2.29296875 1 5 C-0.75 6.80078125 -0.75 6.80078125 -3 8.3125 C-3.7425 8.82425781 -4.485 9.33601562 -5.25 9.86328125 C-5.8275 10.23839844 -6.405 10.61351562 -7 11 C-6.8125 8.6875 -6.8125 8.6875 -6 6 C-3.5 4.375 -3.5 4.375 -1 3 C-0.67 2.01 -0.34 1.02 0 0 Z " fill="#953D32" transform="translate(301,124)"/>
<path d="M0 0 C2.31 0 4.62 0 7 0 C7 1.32 7 2.64 7 4 C4.69 4 2.38 4 0 4 C0 2.68 0 1.36 0 0 Z " fill="#6DA871" transform="translate(264,60)"/>
<path d="M0 0 C2.31 0 4.62 0 7 0 C7 1.32 7 2.64 7 4 C4.69 4 2.38 4 0 4 C0 2.68 0 1.36 0 0 Z " fill="#6DA872" transform="translate(254,60)"/>
<path d="M0 0 C2.31 0 4.62 0 7 0 C7 1.32 7 2.64 7 4 C4.69 4 2.38 4 0 4 C0 2.68 0 1.36 0 0 Z " fill="#6DA873" transform="translate(264,49)"/>
<path d="M0 0 C2.31 0 4.62 0 7 0 C7 1.32 7 2.64 7 4 C4.69 4 2.38 4 0 4 C0 2.68 0 1.36 0 0 Z " fill="#6EA974" transform="translate(254,49)"/>
<path d="M0 0 C0.33 1.32 0.66 2.64 1 4 C3.64 4 6.28 4 9 4 C9 4.33 9 4.66 9 5 C7.88625 5.103125 6.7725 5.20625 5.625 5.3125 C4.42875 5.539375 3.2325 5.76625 2 6 C1.01 7.485 1.01 7.485 0 9 C-0.33 8.01 -0.66 7.02 -1 6 C-3.31 5.67 -5.62 5.34 -8 5 C-8 4.67 -8 4.34 -8 4 C-5.36 4 -2.72 4 0 4 C0 2.68 0 1.36 0 0 Z " fill="#FAF7FA" transform="translate(262,49)"/>
<path d="M0 0 C0.99 0 1.98 0 3 0 C4.01405257 1.32267727 5.01268258 2.65724831 6 4 C8.08334635 5.2516467 8.08334635 5.2516467 10 6 C3.539801 6.36567164 3.539801 6.36567164 1.0625 4.6875 C0 3 0 3 0 0 Z " fill="#F1F0EE" transform="translate(85,139)"/>
<path d="M0 0 C0.66 0 1.32 0 2 0 C1.67 1.65 1.34 3.3 1 5 C-1.64 5.33 -4.28 5.66 -7 6 C-7 5.01 -7 4.02 -7 3 C-5.5459375 2.5359375 -5.5459375 2.5359375 -4.0625 2.0625 C-1.15934208 1.30476658 -1.15934208 1.30476658 0 0 Z " fill="#C2C7D7" transform="translate(97,128)"/>
<path d="M0 0 C0.33 0.99 0.66 1.98 1 3 C-0.21484375 5.04296875 -0.21484375 5.04296875 -1.9375 7.1875 C-2.50339844 7.90292969 -3.06929688 8.61835937 -3.65234375 9.35546875 C-4.09707031 9.89816406 -4.54179687 10.44085938 -5 11 C-5.33 10.34 -5.66 9.68 -6 9 C-5.0390625 7.08984375 -5.0390625 7.08984375 -3.625 4.9375 C-3.16351563 4.22464844 -2.70203125 3.51179688 -2.2265625 2.77734375 C-1 1 -1 1 0 0 Z " fill="#5372CF" transform="translate(346,95)"/>
<path d="M0 0 C2.97 0.33 5.94 0.66 9 1 C9 2.32 9 3.64 9 5 C8.34 5 7.68 5 7 5 C7 4.34 7 3.68 7 3 C4.69 2.34 2.38 1.68 0 1 C0 0.67 0 0.34 0 0 Z " fill="#E6E7EB" transform="translate(91,132)"/>
<path d="M0 0 C1.98 0.495 1.98 0.495 4 1 C3.67 2.32 3.34 3.64 3 5 C1.68 4.67 0.36 4.34 -1 4 C-0.67 2.68 -0.34 1.36 0 0 Z " fill="#E9E9E9" transform="translate(85,99)"/>
<path d="M0 0 C2.31 0 4.62 0 7 0 C7 0.99 7 1.98 7 3 C4.69 3 2.38 3 0 3 C0 2.01 0 1.02 0 0 Z " fill="#599D5F" transform="translate(264,55)"/>
<path d="M0 0 C2.31 0 4.62 0 7 0 C7 0.99 7 1.98 7 3 C4.69 3 2.38 3 0 3 C0 2.01 0 1.02 0 0 Z " fill="#599D60" transform="translate(254,55)"/>
<path d="M0 0 C0.33 0.66 0.66 1.32 1 2 C-3.455 4.97 -3.455 4.97 -8 8 C-8.33 7.34 -8.66 6.68 -9 6 C-6.03 4.02 -3.06 2.04 0 0 Z " fill="#C0BCBB" transform="translate(292,133)"/>
<path d="M0 0 C0 0.66 0 1.32 0 2 C-1.53125 3.2890625 -1.53125 3.2890625 -3.5 4.625 C-4.1496875 5.07101563 -4.799375 5.51703125 -5.46875 5.9765625 C-5.9740625 6.31429687 -6.479375 6.65203125 -7 7 C-7 6.01 -7 5.02 -7 4 C-2.65714286 0 -2.65714286 0 0 0 Z " fill="#D0D0D0" transform="translate(293,135)"/>
<path d="M0 0 C3.37503669 1.1858237 5.64722731 2.27573689 8 5 C7.34 5.66 6.68 6.32 6 7 C4.02 4.69 2.04 2.38 0 0 Z " fill="#A34F46" transform="translate(225,128)"/>
<path d="M0 0 C0.66 0.33 1.32 0.66 2 1 C1.67 1.99 1.34 2.98 1 4 C-0.65 4.33 -2.3 4.66 -4 5 C-3.6875 3.0625 -3.6875 3.0625 -3 1 C-2.01 0.67 -1.02 0.34 0 0 Z " fill="#C1C5D0" transform="translate(110,120)"/>
<path d="M0 0 C0 3 0 3 0 3 Z M-3 3 C-2.34 3.33 -1.68 3.66 -1 4 C-2.485 6.475 -2.485 6.475 -4 9 C-4.625 7.125 -4.625 7.125 -5 5 C-4.34 4.34 -3.68 3.68 -3 3 Z M-7 9 C-5 10 -5 10 -5 10 Z " fill="#506FCB" transform="translate(339,107)"/>
<path d="M0 0 C0.99 0.33 1.98 0.66 3 1 C2.67 2.32 2.34 3.64 2 5 C1.01 5 0.02 5 -1 5 C-0.67 3.35 -0.34 1.7 0 0 Z " fill="#EDEDED" transform="translate(116,99)"/>
</svg>
