<?xml version="1.0" encoding="UTF-8"?>
<svg version="1.1" xmlns="http://www.w3.org/2000/svg" width="512" height="512">
<path d="M0 0 C0.95158997 -0.00960754 1.90317993 -0.01921509 2.88360596 -0.02911377 C4.41026886 -0.03548859 4.41026886 -0.03548859 5.96777344 -0.04199219 C7.02695984 -0.04769226 8.08614624 -0.05339233 9.1774292 -0.05926514 C11.41661587 -0.06869858 13.65581632 -0.07524253 15.89501953 -0.07910156 C19.30103098 -0.08879287 22.70643508 -0.11982679 26.11230469 -0.15136719 C28.29329071 -0.15789937 30.47428102 -0.16314899 32.65527344 -0.16699219 C33.66495178 -0.17933899 34.67463013 -0.19168579 35.71490479 -0.20440674 C45.79493423 -0.17303233 54.38631847 2.46492748 62.07714844 9.16113281 C70.57311901 18.96791028 71.39118238 27.36040622 71.41308594 39.95019531 C71.41952779 41.29910416 71.42625713 42.64801166 71.43325806 43.99691772 C71.4451937 46.81942983 71.44894304 49.64181993 71.44775391 52.46435547 C71.44755161 56.04480771 71.4747764 59.62445826 71.50929832 63.20472145 C71.53177221 65.99152057 71.53558518 68.77813352 71.53453445 71.56501389 C71.53797968 73.51505192 71.55951954 75.46503184 71.58163452 77.41494751 C71.53582726 86.48006273 70.17339759 94.9686345 66.07714844 103.16113281 C67.21152344 103.11988281 68.34589844 103.07863281 69.51464844 103.03613281 C89.48727099 103.14180806 102.13280094 120.06462464 115.17871094 133.16503906 C116.50941314 134.49761072 117.84033954 135.82995852 119.17147827 137.16209412 C122.64238756 140.63678706 126.11028095 144.11447435 129.57751465 147.59283447 C133.12893043 151.15455456 136.68324589 154.71337852 140.23730469 158.27246094 C147.18673001 165.23255019 154.13296669 172.19581223 161.07714844 179.16113281 C164.46807612 177.55918588 166.64407913 175.80512242 169.26464844 173.09863281 C170.04582031 172.30199219 170.82699219 171.50535156 171.63183594 170.68457031 C172.84226563 169.43546875 172.84226563 169.43546875 174.07714844 168.16113281 C175.67653188 166.51065086 177.28052491 164.86462017 178.88964844 163.22363281 C179.59734375 162.49273437 180.30503906 161.76183594 181.03417969 161.00878906 C183.02064936 159.21223045 184.57745797 158.09727187 187.07714844 157.16113281 C190.42920355 157.33755677 193.05106145 157.59843995 196.01464844 159.22363281 C197.88920113 162.64193477 198.12225451 165.49387439 197.07714844 169.16113281 C194.52049547 172.91601662 191.3096972 175.99491974 188.07714844 179.16113281 C186.91139947 180.335242 185.74742208 181.51111207 184.58496094 182.68847656 C181.43668813 185.86766108 178.26298522 189.01961215 175.07714844 192.16113281 C175.92277344 193.15113281 176.76839844 194.14113281 177.63964844 195.16113281 C178.18492187 195.80179688 178.73019531 196.44246094 179.29199219 197.10253906 C180.47124595 198.46242251 181.67168322 199.80425324 182.89355469 201.12597656 C183.49039062 201.77695313 184.08722656 202.42792969 184.70214844 203.09863281 C185.25128906 203.68515625 185.80042969 204.27167969 186.36621094 204.87597656 C187.94353977 206.98268288 189.02921516 208.95088032 190.18408203 211.30395508 C190.71779922 212.38677513 190.71779922 212.38677513 191.26229858 213.49147034 C191.53119904 214.04245895 191.80009949 214.59344757 192.07714844 215.16113281 C192.73589966 214.4846167 193.39465088 213.80810059 194.07336426 213.11108398 C200.28938226 206.73277008 206.52651187 200.3757804 212.78482819 194.03895569 C216.00153186 190.7805323 219.21038641 187.5151051 222.40234375 184.23242188 C225.48410438 181.06362521 228.58510364 177.91487928 231.70030212 174.77896118 C232.88426527 173.58023611 234.06117372 172.37449993 235.23072815 171.16171265 C236.87288455 169.46132042 238.53857455 167.7878003 240.21191406 166.11816406 C240.68809174 165.61322418 241.16426941 165.1082843 241.65487671 164.58804321 C244.36244124 161.9444632 246.48256097 160.80646821 250.19372559 160.60131836 C254.07714844 161.16113281 254.07714844 161.16113281 256.54876709 162.53033447 C258.94253035 166.65071217 258.60084884 170.5718492 258.53125 175.25390625 C258.53183411 176.27861526 258.53241821 177.30332428 258.53302002 178.35908508 C258.530233 181.74657041 258.49911068 185.13317617 258.46777344 188.52050781 C258.46031328 190.86891194 258.45461928 193.21732229 258.45062256 195.56573486 C258.43534868 201.74726544 258.39605119 207.92842018 258.35180664 214.10980225 C258.30369879 221.52615085 258.28532834 228.94262511 258.26199341 236.35908508 C258.22320185 247.62669573 258.14655902 258.89348171 258.07714844 270.16113281 C285.79714844 270.16113281 313.51714844 270.16113281 342.07714844 270.16113281 C342.04234375 262.84441406 342.00753906 255.52769531 341.97167969 247.98925781 C341.95635441 243.35904152 341.94191276 238.72885641 341.93066406 234.09863281 C341.91271788 226.74635336 341.89146814 219.39418579 341.85083008 212.04199219 C341.81827787 206.1157178 341.80030406 200.18956336 341.79251671 194.26320648 C341.78696578 192.00013083 341.77612644 189.73706187 341.75995827 187.47403717 C341.73823932 184.30871803 341.73517924 181.14389707 341.73657227 177.97851562 C341.72039352 176.56942429 341.72039352 176.56942429 341.70388794 175.13186646 C341.73405041 168.81454212 341.73405041 168.81454212 343.41874695 165.60614014 C345.91398395 163.43197679 347.8033456 163.22660887 351.07714844 163.16113281 C354.6062091 164.7652513 355.90487751 165.90272643 358.07714844 169.16113281 C358.32324409 171.10763073 358.32324409 171.10763073 358.31765747 173.35624695 C358.32178146 174.63717728 358.32178146 174.63717728 358.32598877 175.94398499 C358.31879822 176.87762375 358.31160767 177.81126251 358.30419922 178.77319336 C358.30449127 179.75874207 358.30478333 180.74429077 358.30508423 181.75970459 C358.3036891 185.02250931 358.28811916 188.28508665 358.27246094 191.54785156 C358.26873146 193.80800756 358.26588418 196.06816517 358.2638855 198.32832336 C358.25624391 204.28122408 358.23659085 210.23402744 358.21447754 216.18688965 C358.19403046 222.25967084 358.18488621 228.33246775 358.17480469 234.40527344 C358.15334549 246.32394292 358.11815901 258.24251454 358.07714844 270.16113281 C366.32714844 270.16113281 374.57714844 270.16113281 383.07714844 270.16113281 C382.99151132 255.22650606 382.89781749 240.29198092 382.78962135 225.35750103 C382.7396319 218.42219404 382.6931882 211.48689806 382.65527344 204.55151367 C382.61864649 197.85355949 382.57189812 191.1557446 382.51908493 184.45789528 C382.50060888 181.90758261 382.48547611 179.35724337 382.47380447 176.80689049 C382.45682562 173.22391518 382.42776266 169.64122026 382.39599609 166.05834961 C382.39383591 165.01321198 382.39167572 163.96807434 382.38945007 162.89126587 C382.24779557 150.31430107 380.45739333 139.27956176 371.76074219 129.75878906 C364.68687346 123.04599948 355.67218383 120.31287377 346.07714844 119.53613281 C340.6382081 119.69055068 337.26722827 122.33948787 332.88964844 125.33691406 C321.38346646 132.79995154 306.62091594 132.89543035 293.44433594 130.50097656 C288.20096054 128.91974978 284.46323316 126.72610523 280.13964844 123.41113281 C271.76849338 117.71630324 260.44327632 119.10437862 250.82568359 120.48413086 C242.98046366 122.36701869 238.03732845 128.57739737 232.70214844 134.22363281 C231.22776455 135.75561359 229.74907705 137.28328927 228.2684021 138.80918884 C226.93629092 140.18633962 225.61504414 141.57397512 224.29443359 142.9621582 C221.14141383 146.08914004 219.63381548 147.1081169 215.13964844 147.53613281 C212.18118717 147.44351064 211.16754999 147.21763378 208.57714844 145.59863281 C206.32802021 141.94379945 206.18459811 140.41791131 207.07714844 136.16113281 C209.27112022 133.02448262 211.85748112 130.359346 214.5703125 127.66650391 C216.23107255 126.00735833 217.85310002 124.31472987 219.47558594 122.61816406 C231.89975324 109.74554446 241.866208 103.28101463 260.07714844 102.16113281 C259.79456177 101.39576706 259.5119751 100.63040131 259.2208252 99.84184265 C256.24696237 91.1427545 255.48896385 83.39451357 255.54589844 74.24316406 C255.54319348 72.85080191 255.5393028 71.45844162 255.53430176 70.06608582 C255.5284595 67.17253323 255.53679997 64.27948009 255.55566406 61.38598633 C255.57851618 57.70444922 255.56525887 54.02407506 255.54137421 50.34257984 C255.52682649 47.47608383 255.5315617 44.60985762 255.54188538 41.74335289 C255.54579263 39.73504744 255.53379861 37.72673083 255.5213623 35.71846008 C255.62974047 25.07190646 257.65613011 16.79342205 265.08886719 8.91503906 C273.6787312 1.33773269 283.0778097 -0.14967632 294.12792969 -0.13964844 C295.70890694 -0.14607613 295.70890694 -0.14607613 297.32182312 -0.15263367 C299.54486373 -0.15835868 301.76792307 -0.15889076 303.9909668 -0.15454102 C307.36833142 -0.15138709 310.74481416 -0.17484312 314.12207031 -0.20019531 C316.29068901 -0.20246929 318.45931004 -0.20317135 320.62792969 -0.20214844 C322.12529411 -0.21596306 322.12529411 -0.21596306 323.65290833 -0.23005676 C334.55166376 -0.1591699 343.23906857 2.38300002 351.07714844 10.16113281 C356.43943101 16.76351499 359.3082892 23.00932379 359.36767578 31.61865234 C359.38043549 32.88081573 359.39319519 34.14297913 359.40634155 35.44338989 C359.40940084 36.81024012 359.41162772 38.17709243 359.41308594 39.54394531 C359.419524 40.96393972 359.42625309 42.38393284 359.43325806 43.80392456 C359.44520757 46.77784289 359.4489416 49.75164531 359.44775391 52.72558594 C359.44755155 56.50456547 359.47477691 60.28278594 359.50929832 64.06158638 C359.53173436 66.99589325 359.5355863 69.93002279 359.53453445 72.86440659 C359.53686835 74.2556404 359.54556454 75.6468808 359.56119919 77.03802872 C359.66096388 86.83696264 358.49848419 95.31846131 354.07714844 104.16113281 C355.27339844 104.18175781 356.46964844 104.20238281 357.70214844 104.22363281 C369.04532922 105.52765202 379.62996944 112.83468045 387.07714844 121.16113281 C395.58458512 132.06179832 398.70461699 143.40659934 398.53125 157.08984375 C398.53183411 158.32054596 398.53241821 159.55124817 398.53302002 160.81924438 C398.53073114 164.15353975 398.51084614 167.48681122 398.48272419 170.82092571 C398.45750605 174.3202219 398.45535262 177.81953564 398.45062256 181.31890869 C398.43825212 187.92725731 398.40551216 194.53533729 398.3652246 201.14356828 C398.32032065 208.67449949 398.29847333 216.20544439 398.27844286 223.73647642 C398.23677319 239.21151679 398.16653842 254.68628999 398.07714844 270.16113281 C399.14674805 270.14018555 400.21634766 270.11923828 401.31835938 270.09765625 C405.29153017 270.02518656 409.26464269 269.97930818 413.23828125 269.94140625 C414.95713123 269.92130653 416.67591296 269.89402193 418.39453125 269.859375 C420.86703333 269.81078247 423.33863054 269.78814846 425.81152344 269.77050781 C426.96173981 269.7395401 426.96173981 269.7395401 428.13519287 269.70794678 C431.53553594 269.70652082 433.69030425 269.90687367 436.56140137 271.79394531 C438.51884563 274.85094453 438.58439692 276.80432284 438.59472656 280.42675781 C438.60733521 281.69487305 438.61994385 282.96298828 438.63293457 284.26953125 C438.62577474 285.65007076 438.61757074 287.0306052 438.60839844 288.41113281 C438.61109406 289.83073187 438.61497707 291.25032913 438.61999512 292.66992188 C438.62588702 295.64243175 438.61733798 298.61446023 438.59863281 301.58691406 C438.57584244 305.39372068 438.58896732 309.1993993 438.61292267 313.00616455 C438.62738958 315.93677238 438.62277079 318.86711356 438.6124115 321.79772949 C438.60974663 323.20113255 438.61300561 324.60455996 438.62232971 326.00793457 C438.63250784 327.97045416 438.61423884 329.93305883 438.59472656 331.89550781 C438.59154419 333.01151367 438.58836182 334.12751953 438.58508301 335.27734375 C438.07714844 338.16113281 438.07714844 338.16113281 436.56140137 340.52832031 C433.0593691 342.83008355 429.8576871 342.66069421 425.81152344 342.55175781 C425.01812561 342.54609802 424.22472778 342.54043823 423.4072876 342.53460693 C420.8799537 342.51226428 418.35405178 342.46207457 415.82714844 342.41113281 C414.11102312 342.39106496 412.39487552 342.37281468 410.67871094 342.35644531 C406.47764064 342.31240676 402.27763709 342.24339607 398.07714844 342.16113281 C398.0817574 342.80681591 398.08636637 343.45249901 398.091115 344.11774826 C398.20151103 359.82476792 398.28426421 375.53165275 398.3362093 391.23896408 C398.36199696 398.83490679 398.39715775 406.43059063 398.4543457 414.02636719 C398.50416405 420.64645536 398.53643538 427.26635607 398.54759091 433.88662648 C398.55411253 437.3924958 398.5694504 440.8978288 398.60579872 444.40352631 C398.64603598 448.3159952 398.64709886 452.22793822 398.64477539 456.140625 C398.66275177 457.30443695 398.68072815 458.4682489 398.69924927 459.66732788 C398.69237595 460.73300995 398.68550262 461.79869202 398.67842102 462.89666748 C398.68302999 463.82214764 398.68763895 464.74762779 398.69238758 465.7011528 C397.79805237 469.27707407 396.14409133 470.1892836 393.07714844 472.16113281 C389.69191265 472.66368014 389.69191265 472.66368014 385.72917175 472.66729069 C384.99552308 472.67340405 384.26187441 472.67951741 383.50599396 472.68581602 C381.04004852 472.70145484 378.57508115 472.68853481 376.10913086 472.67579651 C374.32645943 472.68112003 372.54379249 472.68818459 370.76113415 472.69684356 C365.85650807 472.71552349 360.95218284 472.70914754 356.047544 472.69869053 C350.76047961 472.69171373 345.47347797 472.70768484 340.18643188 472.72068787 C329.82675335 472.7423582 319.46718454 472.74219326 309.10749078 472.73406232 C300.68992567 472.7277692 292.27239264 472.72889303 283.85482788 472.7353344 C282.65799289 472.73623605 281.4611579 472.73713771 280.22805518 472.73806668 C277.7969075 472.73991783 275.36575982 472.74178039 272.93461215 472.74365424 C250.12367056 472.76024313 227.31279076 472.75150407 204.50185287 472.73466866 C183.618614 472.719969 162.73551896 472.73460198 141.85229862 472.76343883 C120.4236753 472.79280911 98.99511843 472.80381214 77.56647587 472.79425663 C75.14414026 472.79323404 72.72180463 472.79223944 70.29946899 472.79127312 C68.51159329 472.79055853 68.51159329 472.79055853 66.68759888 472.78982951 C58.27757741 472.78766234 49.86761864 472.79748548 41.45761108 472.81204414 C31.21225696 472.82953217 20.96708632 472.82950085 10.72173953 472.80669249 C5.49173476 472.79551849 0.26205366 472.79245915 -4.96793747 472.81099319 C-9.75217546 472.82772982 -14.53580575 472.82153992 -19.32000387 472.79677641 C-21.05411493 472.79187023 -22.78827438 472.79547065 -24.52234519 472.80826385 C-26.87392802 472.82436578 -29.22338905 472.80987773 -31.57487488 472.7875452 C-32.88257937 472.78727552 -34.19028387 472.78700583 -35.53761578 472.78672796 C-39.80759953 471.99763045 -41.28945018 470.55160446 -43.92285156 467.16113281 C-44.40638681 464.44369882 -44.58097868 462.35800869 -44.52412415 459.6504364 C-44.52839627 458.90295775 -44.53266839 458.15547909 -44.53706998 457.38534957 C-44.54529437 454.88511147 -44.51782638 452.38655764 -44.49047852 449.88647461 C-44.48906792 448.09265686 -44.48986026 446.29883622 -44.49269104 444.50502014 C-44.49412614 439.63744998 -44.46472113 434.77049536 -44.42982125 429.9030683 C-44.39857342 424.81552227 -44.39562825 419.72796227 -44.38969421 414.64033508 C-44.37415117 405.00722233 -44.33311636 395.37439316 -44.28294677 385.74140531 C-44.22706774 374.77418622 -44.19957041 363.80695362 -44.17446959 352.83962762 C-44.122201 330.27997211 -44.03424963 307.72056835 -43.92285156 285.16113281 C-44.93387939 284.88197021 -44.93387939 284.88197021 -45.96533203 284.59716797 C-46.85623535 284.34241699 -47.74713867 284.08766602 -48.66503906 283.82519531 C-49.54530762 283.57721191 -50.42557617 283.32922852 -51.33251953 283.07373047 C-59.50313857 280.19514668 -66.90607106 272.61572246 -71.02832031 265.16235352 C-74.9592439 256.34487923 -74.52855374 247.07066495 -74.44433594 237.60668945 C-74.42271558 234.7053849 -74.44430502 231.80650696 -74.46972656 228.90527344 C-74.4670863 227.05435653 -74.46196757 225.20344113 -74.45410156 223.35253906 C-74.46219849 222.48899307 -74.47029541 221.62544708 -74.4786377 220.73573303 C-74.38583197 214.81006539 -74.38583197 214.81006539 -72.10839844 211.61791992 C-68.88985937 209.47258674 -66.69932037 209.62163727 -62.92285156 210.16113281 C-60.73779297 211.73657227 -60.73779297 211.73657227 -58.92285156 214.16113281 C-58.40869141 217.50170898 -58.40869141 217.50170898 -58.38378906 221.45410156 C-58.3660997 222.51229851 -58.3660997 222.51229851 -58.34805298 223.59187317 C-58.31284127 225.84435008 -58.3036383 228.09590365 -58.29785156 230.34863281 C-58.5284331 249.03940698 -58.5284331 249.03940698 -49.42285156 264.84863281 C-46.4435941 267.2465133 -43.39559463 267.94015859 -39.70410156 268.80566406 C-38.08084961 269.19202026 -38.08084961 269.19202026 -36.42480469 269.58618164 C-35.59916016 269.77591553 -34.77351563 269.96564941 -33.92285156 270.16113281 C-33.93173401 268.90690018 -33.94061646 267.65266754 -33.94976807 266.36042786 C-34.0308274 254.54497122 -34.09080438 242.72957094 -34.13010025 230.91389942 C-34.15098178 224.83921032 -34.17931034 218.76474554 -34.22460938 212.69018555 C-34.26804606 206.82873515 -34.2919844 200.96750063 -34.30236053 195.10590172 C-34.30975575 192.868757 -34.32419672 190.6316242 -34.34577179 188.3945713 C-34.37477613 185.26286845 -34.37880871 182.13205954 -34.37695312 179.00024414 C-34.39133423 178.07379593 -34.40571533 177.14734772 -34.42053223 176.19282532 C-34.39374778 172.01974979 -34.27729152 169.74760049 -32.07806396 166.10868835 C-29.29964768 163.59797524 -27.65443548 163.16113281 -23.92285156 163.16113281 C-19.35763417 165.2915676 -19.35763417 165.2915676 -17.92285156 168.16113281 C-17.83129052 169.52960022 -17.80091212 170.90243028 -17.80259705 172.2739563 C-17.80122238 173.13494934 -17.79984772 173.99594238 -17.7984314 174.88302612 C-17.80382431 176.30290329 -17.80382431 176.30290329 -17.80932617 177.75146484 C-17.80918015 178.74662109 -17.80903412 179.74177734 -17.80888367 180.76708984 C-17.80958225 184.06773025 -17.81737213 187.36831473 -17.82519531 190.66894531 C-17.82705969 192.95295175 -17.8284835 195.23695859 -17.82948303 197.52096558 C-17.83330669 203.54125059 -17.8431357 209.5615116 -17.85418701 215.58178711 C-17.86619984 222.80042525 -17.87080409 230.01907141 -17.87664032 237.23771667 C-17.88634752 248.21220544 -17.90550516 259.18664148 -17.92285156 270.16113281 C9.79714844 270.16113281 37.51714844 270.16113281 66.07714844 270.16113281 C66.04234375 262.62785156 66.00753906 255.09457031 65.97167969 247.33300781 C65.95635462 242.566073 65.94191299 237.79916847 65.93066406 233.03222656 C65.91271709 225.46266386 65.89146519 217.89320981 65.85083008 210.32373047 C65.81828062 204.22239235 65.80030464 198.12117073 65.79251671 192.0197525 C65.78696529 189.68969132 65.77612501 187.35963665 65.75995827 185.02962494 C65.73824302 181.77091088 65.73517909 178.51268079 65.73657227 175.25390625 C65.72578644 174.28645981 65.71500061 173.31901337 65.70388794 172.32225037 C65.70801193 171.43326553 65.71213593 170.5442807 65.71638489 169.62835693 C65.71361951 168.857738 65.71085413 168.08711906 65.70800495 167.29314804 C66.18978019 164.51061987 67.10052461 163.16435222 69.07714844 161.16113281 C72.17142063 160.17714231 74.93716474 160.42497871 78.07714844 161.16113281 C81.15052733 163.01278369 83.4599078 165.42210339 85.92016602 168.01416016 C87.00977631 169.10661797 87.00977631 169.10661797 88.12139893 170.22114563 C90.50986831 172.62603918 92.86509185 175.06096251 95.22167969 177.49707031 C96.87862879 179.17589636 98.53773509 180.85259583 100.19889832 182.5272522 C104.56218666 186.93618722 108.89863927 191.37057822 113.22912598 195.81170654 C119.34163392 202.07103246 125.48910823 208.29604058 131.63395691 214.52359009 C134.90576931 217.8394444 138.1667919 221.16537829 141.4198761 224.49960327 C142.90688346 226.01624143 144.39395574 227.53281593 145.88110352 229.04931641 C146.5538884 229.74343124 147.22667328 230.43754608 147.91984558 231.1526947 C148.54339935 231.78650558 149.16695312 232.42031647 149.80940247 233.07333374 C150.34710172 233.62456594 150.88480097 234.17579815 151.43879414 234.74373436 C155.55792587 238.30734142 159.32530957 238.59803181 164.60449219 238.47363281 C168.32505843 238.00341907 170.34983281 236.68888876 173.07714844 234.16113281 C175.57920304 230.69054094 176.32760832 227.98631328 176.13964844 223.78613281 C174.62356838 214.90573184 166.71911212 208.51224905 160.59667969 202.421875 C159.76663422 201.58832489 158.93658875 200.75477478 158.08139038 199.89596558 C155.35579463 197.1616181 152.62300887 194.43459177 149.88964844 191.70800781 C147.98371257 189.80162573 146.07897533 187.8940473 144.17407227 185.9866333 C140.18994683 181.99888165 136.20165103 178.01533757 132.2109375 174.03417969 C127.60716595 169.44130506 123.01066334 164.8412501 118.41784 160.23742938 C114.46041296 156.27090889 110.49908002 152.30832085 106.53449154 148.34895825 C104.17257914 145.99015233 101.81242489 143.62966313 99.45498657 141.26638031 C96.82734256 138.63365111 94.19336183 136.00742844 91.55761719 133.3828125 C90.3978688 132.21699142 90.3978688 132.21699142 89.21469116 131.02761841 C79.98957255 121.87443956 73.60563472 119.78005168 60.7800293 119.62890625 C53.99379459 119.74870288 50.06031151 121.18908513 44.60839844 125.33691406 C34.57769694 132.56583011 20.90847986 132.32241255 9.07714844 131.16113281 C2.26601225 129.89898148 -2.73982668 127.38093047 -8.36035156 123.41113281 C-15.57145334 118.60028299 -22.06954753 119.20162903 -30.32128906 120.83300781 C-40.87402193 123.63723053 -48.07090024 128.70883949 -53.77441406 138.03613281 C-57.85053403 145.57834119 -58.05096963 153.83974993 -58.06347656 162.23925781 C-58.08177803 163.7444816 -58.10134581 165.24969044 -58.12207031 166.75488281 C-58.15116559 169.09434072 -58.17285604 171.43280933 -58.17333984 173.77246094 C-58.17666975 176.0539227 -58.21113872 178.33317942 -58.25097656 180.61425781 C-58.24390686 181.31222473 -58.23683716 182.01019165 -58.22955322 182.72930908 C-58.32178743 186.40724719 -58.69078806 187.91301768 -61.23828125 190.63671875 C-63.92285156 192.16113281 -63.92285156 192.16113281 -67.54785156 192.09863281 C-70.9069527 191.16554916 -71.8749361 190.81504199 -73.92285156 188.16113281 C-74.31053162 186.21070862 -74.31053162 186.21070862 -74.3269043 183.97192383 C-74.33958847 183.12996964 -74.35227264 182.28801544 -74.36534119 181.42054749 C-74.36240555 180.51122971 -74.35946991 179.60191193 -74.35644531 178.66503906 C-74.36430809 177.24915749 -74.36430809 177.24915749 -74.37232971 175.80467224 C-74.37875886 173.80151349 -74.37740141 171.79831703 -74.36889648 169.79516602 C-74.36046958 166.76605432 -74.38899944 163.73888218 -74.42089844 160.70996094 C-74.48403663 143.72350471 -71.54052424 130.33923654 -59.73535156 117.41113281 C-50.96383037 109.21123884 -39.75658519 104.42004065 -27.92285156 103.16113281 C-28.2 102.33871094 -28.47714844 101.51628906 -28.76269531 100.66894531 C-29.30603516 98.99445313 -29.30603516 98.99445313 -29.86035156 97.28613281 C-30.39982422 95.6503125 -30.39982422 95.6503125 -30.95019531 93.98144531 C-33.02988382 85.81303022 -33.08113415 77.46051187 -33.09082031 69.07128906 C-33.09581291 67.53353065 -33.09581291 67.53353065 -33.10090637 65.96470642 C-33.10593672 63.81086674 -33.10831591 61.65701937 -33.1081543 59.50317383 C-33.11034325 56.23603328 -33.12854768 52.96922958 -33.14746094 49.70214844 C-33.15039532 47.59602978 -33.15237982 45.48990955 -33.15332031 43.38378906 C-33.16050583 42.42199234 -33.16769135 41.46019562 -33.1750946 40.46925354 C-33.13515186 28.42282111 -31.41709414 18.15594581 -22.99707031 9.08691406 C-16.28123382 2.86661502 -9.18477177 0.07535607 0 0 Z M-13.29785156 22.47363281 C-17.76123338 29.85537966 -17.25722248 37.64644922 -17.23535156 46.03613281 C-17.25146484 47.26460937 -17.26757812 48.49308594 -17.28417969 49.75878906 C-17.39012098 60.94849402 -17.39012098 60.94849402 -12.5769043 70.73852539 C-6.45366818 76.18520404 -0.66930373 76.47847853 7.12792969 76.49707031 C8.10070358 76.50372711 9.07347748 76.51038391 10.07572937 76.51724243 C12.13078933 76.52735072 14.185882 76.53206002 16.2409668 76.53173828 C19.36855838 76.53610338 22.49472892 76.57242051 25.62207031 76.61035156 C27.62401864 76.61622188 29.62597363 76.62018983 31.62792969 76.62207031 C32.5552742 76.63644135 33.48261871 76.65081238 34.43806458 76.6656189 C41.15107191 76.61890176 46.74222312 75.36816313 51.70567322 70.59506226 C56.78762228 64.64915683 55.82499694 55.98256858 55.72900391 48.61621094 C55.70220245 46.16607017 55.72881555 43.72050849 55.76074219 41.27050781 C56.06133285 30.8379285 56.06133285 30.8379285 51.70608521 21.72692871 C45.95615967 16.19988187 39.37679867 15.56246176 31.73339844 15.62988281 C30.28060486 15.62414246 30.28060486 15.62414246 28.79846191 15.61828613 C26.7613012 15.61557769 24.72410508 15.62286364 22.68701172 15.63964844 C19.58579267 15.66107309 16.48689 15.63980997 13.38574219 15.61425781 C11.39745587 15.61690128 9.40917099 15.62202664 7.42089844 15.62988281 C6.50296509 15.62178589 5.58503174 15.61368896 4.63928223 15.60534668 C-2.58232214 15.70946765 -8.05529712 17.36904033 -13.29785156 22.47363281 Z M274.63964844 22.72363281 C271.77671753 27.18980502 271.95647144 31.2245816 272.01464844 36.34863281 C272.01916016 37.09822266 272.02367187 37.8478125 272.02832031 38.62011719 C272.0400849 40.46715664 272.05801978 42.31415494 272.07714844 44.16113281 C276.53784669 44.31419599 279.96341004 44.17029726 284.07714844 42.41113281 C284.92792969 42.05148438 285.77871094 41.69183594 286.65527344 41.32128906 C288.82510136 40.28187149 290.79919313 39.1362947 292.82714844 37.84863281 C296.07714844 36.16113281 296.07714844 36.16113281 298.95214844 35.91113281 C303.04946188 37.55005819 305.58733949 40.16387033 308.78417969 43.15722656 C317.68448572 50.93551786 328.71009613 51.82978295 340.07714844 51.16113281 C341.06714844 50.83113281 342.05714844 50.50113281 343.07714844 50.16113281 C343.19424487 46.64058367 343.26469534 43.1205417 343.32714844 39.59863281 C343.36066406 38.60798828 343.39417969 37.61734375 343.42871094 36.59667969 C343.51394179 30.18305783 342.93002604 26.35594624 339.07714844 21.16113281 C334.70677903 17.77186674 331.24490894 16.05472888 325.73266602 15.98413086 C324.8577803 15.97129562 323.98289459 15.95846039 323.08149719 15.94523621 C322.13775742 15.93784927 321.19401764 15.93046234 320.22167969 15.92285156 C319.2460759 15.91477982 318.27047211 15.90670807 317.26530457 15.89839172 C315.19829074 15.88455751 313.13125414 15.87383239 311.06420898 15.8659668 C307.91898636 15.84879301 304.77482571 15.80490511 301.62988281 15.76074219 C299.61882281 15.75061138 297.60775389 15.74209649 295.59667969 15.73535156 C294.66306107 15.71784348 293.72944244 15.70033539 292.76753235 15.68229675 C285.37326213 15.70658522 279.82267696 17.27480795 274.63964844 22.72363281 Z M290.76464844 56.03613281 C286.59224312 57.75848139 282.68808973 58.66359374 278.22167969 59.29394531 C277.06643799 59.46039551 275.91119629 59.6268457 274.72094727 59.79833984 C273.84849365 59.91806152 272.97604004 60.0377832 272.07714844 60.16113281 C271.95972345 64.45256438 271.88948848 68.74357555 271.82714844 73.03613281 C271.79363281 74.24011719 271.76011719 75.44410156 271.72558594 76.68457031 C271.6029478 87.96727929 274.30351942 96.81167942 282.07714844 105.16113281 C290.70569529 113.19460747 299.75802642 115.89736006 311.45605469 115.54394531 C320.71918541 114.56467151 328.45225787 110.12860787 334.76464844 103.34863281 C336.36943575 101.35869654 337.74074603 99.33970598 339.07714844 97.16113281 C339.49222656 96.50242188 339.90730469 95.84371094 340.33496094 95.16503906 C344.81853055 86.37034482 343.42125501 75.75111829 343.07714844 66.16113281 C342.08457031 66.1959375 341.09199219 66.23074219 340.06933594 66.26660156 C325.27857239 66.62958758 311.00947305 64.74198834 298.86621094 55.47363281 C295.77082774 53.20278401 294.00556896 54.58275765 290.76464844 56.03613281 Z M51.40611267 88.80461121 C45.11361345 91.20195641 39.52041361 91.58639367 32.83105469 91.52441406 C31.77989975 91.52491257 30.72874481 91.52541107 29.64573669 91.52592468 C27.43462218 91.5235963 25.2235044 91.51394134 23.01245117 91.49731445 C19.65291286 91.47372595 16.2941705 91.47676328 12.93457031 91.48339844 C10.77506043 91.47782022 8.61555386 91.47070945 6.45605469 91.46191406 C4.96810143 91.46328117 4.96810143 91.46328117 3.4500885 91.4646759 C-2.88621297 91.4011804 -8.75947899 90.63322249 -14.92285156 89.16113281 C-12.59412926 98.78651835 -7.04049273 105.7308482 1.26464844 111.16113281 C9.80711746 116.22333668 20.50892037 116.67423247 30.06152344 114.47363281 C38.96050667 111.15724155 46.30201889 105.41719791 51.07714844 97.16113281 C52.29384282 94.20892719 53.26275133 91.24726922 54.07714844 88.16113281 C52.93424039 88.10124035 52.93424039 88.10124035 51.40611267 88.80461121 Z M82.07714844 189.16113281 C82.07714844 215.89113281 82.07714844 242.62113281 82.07714844 270.16113281 C134.87714844 270.16113281 187.67714844 270.16113281 242.07714844 270.16113281 C242.07714844 243.43113281 242.07714844 216.70113281 242.07714844 189.16113281 C237.77789947 192.84620335 233.7983074 196.32303251 229.8671875 200.32104492 C229.39615601 200.79835556 228.92512451 201.2756662 228.43981934 201.7674408 C227.42995565 202.7910164 226.42119322 203.81567952 225.41345978 204.84135246 C223.80883517 206.47298608 222.19956086 208.09989795 220.58880615 209.72547913 C216.01344476 214.34321485 211.44080076 218.96352704 206.88476562 223.6003418 C204.08447668 226.44959435 201.27413968 229.2886072 198.4573288 232.1215229 C197.39646542 233.19217539 196.33923687 234.26644408 195.28601837 235.34461784 C185.95616084 244.89057991 175.9963163 254.30828315 162.01464844 254.66113281 C160.80679688 254.71269531 159.59894531 254.76425781 158.35449219 254.81738281 C145.40901126 253.66346103 136.50426074 243.3781902 128.03417969 234.66894531 C126.73233277 233.35333816 125.42905848 232.03914208 124.12443542 230.72628784 C120.72334107 227.29685651 117.3402694 223.85020573 113.96130371 220.39898682 C109.82937171 216.18488364 105.67773116 211.99021123 101.52743816 207.7942028 C98.30510002 204.53610243 95.08636053 201.27471286 91.87812805 198.00271606 C91.29204269 197.40668076 90.70595734 196.81064545 90.10211182 196.19654846 C89.00355183 195.07924562 87.90691037 193.96005219 86.81248474 192.83869934 C85.58630874 191.59390286 84.3345051 190.37442589 83.07714844 189.16113281 C82.74714844 189.16113281 82.41714844 189.16113281 82.07714844 189.16113281 Z M-27.92285156 286.16113281 C-27.92285156 342.26113281 -27.92285156 398.36113281 -27.92285156 456.16113281 C-15.05285156 456.16113281 -2.18285156 456.16113281 11.07714844 456.16113281 C11.09173096 451.8752417 11.10631348 447.58935059 11.12133789 443.17358398 C11.17159201 429.04000469 11.23801905 414.90653599 11.31286335 400.77306652 C11.35786036 392.20085566 11.39726592 383.62868672 11.42358398 375.05639648 C11.44653254 367.58621131 11.47989512 360.11615833 11.52585 352.64607793 C11.54982485 348.68941322 11.56852558 344.73287977 11.57476234 340.77614403 C11.58079408 337.05376288 11.60072385 333.33171777 11.63142395 329.60946083 C11.64444397 327.58831307 11.64262902 325.56708693 11.64042664 323.54589844 C11.65296478 322.34696457 11.66550293 321.1480307 11.67842102 319.9127655 C11.68533447 318.34617833 11.68533447 318.34617833 11.69238758 316.74794292 C12.07714844 314.16113281 12.07714844 314.16113281 13.38722515 312.32899952 C16.26971789 310.33697578 18.70152675 310.74658278 22.07714844 311.16113281 C24.82239241 313.24520748 25.94041982 314.43570252 26.58495712 317.85537338 C26.58864429 318.8914687 26.59233147 319.92756401 26.59613037 320.99505615 C26.61004318 322.18695053 26.62395599 323.37884491 26.63829041 324.6068573 C26.63326004 325.91093033 26.62822968 327.21500336 26.62304688 328.55859375 C26.6317827 329.94834043 26.64226853 331.33807704 26.65437317 332.72779846 C26.68225321 336.49818242 26.68563743 340.26823852 26.68465328 344.03871059 C26.6877807 347.97992244 26.71339527 351.92098625 26.7366333 355.86212158 C26.77721012 363.32413071 26.79753792 370.78605241 26.81060719 378.24815488 C26.82647158 386.74393229 26.8648848 395.23956081 26.90520048 403.7352519 C26.98762251 421.21052509 27.03872343 438.68570368 27.07714844 456.16113281 C39.94714844 456.16113281 52.81714844 456.16113281 66.07714844 456.16113281 C66.07714844 400.06113281 66.07714844 343.96113281 66.07714844 286.16113281 C35.05714844 286.16113281 4.03714844 286.16113281 -27.92285156 286.16113281 Z M82.07714844 286.16113281 C82.07714844 299.36113281 82.07714844 312.56113281 82.07714844 326.16113281 C86.11545898 326.18095215 90.15376953 326.20077148 94.31445312 326.22119141 C107.63775679 326.28801475 120.96097985 326.36555511 134.28419113 326.4486599 C142.36424615 326.49879705 150.44429098 326.54523983 158.52441406 326.58300781 C165.56645752 326.61593296 172.60842207 326.65576706 179.65037847 326.70392287 C183.37957373 326.7291827 187.10871668 326.75096548 190.83797455 326.76447678 C194.9995204 326.77968366 199.1608148 326.81031394 203.32226562 326.84228516 C204.56088348 326.84444534 205.79950134 326.84660553 207.07565308 326.84883118 C208.20864838 326.85999466 209.34164368 326.87115814 210.50897217 326.88265991 C211.49344707 326.88819067 212.47792198 326.89372143 213.49222946 326.89941978 C216.18299735 327.17184961 217.81514252 327.69983007 220.07714844 329.16113281 C221.48172581 331.97028755 221.32610001 334.04923816 221.07714844 337.16113281 C219.90676403 339.32400894 219.90676403 339.32400894 218.07714844 341.16113281 C215.58404255 341.6689415 215.58404255 341.6689415 212.55329895 341.68011475 C210.83062553 341.70098396 210.83062553 341.70098396 209.07315063 341.72227478 C207.81223602 341.71724442 206.55132141 341.71221405 205.25219727 341.70703125 C203.9118581 341.71576468 202.57152936 341.72624967 201.23121643 341.73835754 C197.59093168 341.76626709 193.95098628 341.76962116 190.31061006 341.76863766 C186.50685629 341.77176255 182.70325634 341.79737184 178.89958191 341.82061768 C171.69607613 341.86121387 164.49266096 341.88152682 157.28905839 341.89459157 C147.55536029 341.91341376 137.82182658 341.96348925 128.08823872 342.0118351 C112.75121713 342.08718698 97.41439395 342.12071314 82.07714844 342.16113281 C82.07714844 379.78113281 82.07714844 417.40113281 82.07714844 456.16113281 C181.40714844 456.16113281 280.73714844 456.16113281 383.07714844 456.16113281 C383.07714844 418.54113281 383.07714844 380.92113281 383.07714844 342.16113281 C373.22226562 342.13535156 363.36738281 342.10957031 353.21386719 342.08300781 C346.98402939 342.05785215 340.75422281 342.0316932 334.52441406 342.00097656 C324.62833853 341.9523709 314.7323669 341.90795329 304.83618164 341.89013672 C297.62965441 341.87714363 290.42333755 341.85023933 283.21692878 341.80651975 C279.39995031 341.78385178 275.5832318 341.7682253 271.76618004 341.76924896 C268.17503486 341.76999246 264.58446549 341.75216819 260.99346924 341.71996498 C259.0438893 341.70735462 257.09421297 341.71455417 255.14460754 341.72227478 C253.98774445 341.70836197 252.83088135 341.69444916 251.63896179 341.68011475 C250.63144206 341.67642757 249.62392233 341.6727404 248.5858717 341.6689415 C246.07714844 341.16113281 246.07714844 341.16113281 244.23417377 339.27615738 C242.80335799 336.66064807 242.91832471 335.32477039 243.38964844 332.41113281 C243.50953125 331.61191406 243.62941406 330.81269531 243.75292969 329.98925781 C243.85992187 329.38597656 243.96691406 328.78269531 244.07714844 328.16113281 C247.79263263 326.98985007 251.32383104 327.02236005 255.20184326 327.00291443 C256.27890231 326.99550746 256.27890231 326.99550746 257.37772012 326.98795086 C259.78371215 326.97259288 262.18967752 326.96421986 264.59570312 326.95581055 C266.32041152 326.94623069 268.04511757 326.93622054 269.76982117 326.92581177 C274.45330425 326.89876835 279.1367974 326.87775571 283.82031536 326.85780978 C288.71439641 326.83594678 293.60844643 326.80855962 298.50250244 326.78175354 C307.7707109 326.73183092 317.03893658 326.68689047 326.30717874 326.64373118 C336.85848179 326.59435514 347.40975372 326.53943836 357.96102667 326.48405159 C379.66637299 326.37023813 401.37174791 326.26412914 423.07714844 326.16113281 C423.07714844 312.96113281 423.07714844 299.76113281 423.07714844 286.16113281 C310.54714844 286.16113281 198.01714844 286.16113281 82.07714844 286.16113281 Z " fill="#000000" transform="translate(73.9228515625,19.8388671875)"/>
</svg>
