<?xml version="1.0" encoding="UTF-8"?>
<svg version="1.1" xmlns="http://www.w3.org/2000/svg" width="512" height="512">
<path d="M0 0 C1.44728153 -0.00258604 2.89456234 -0.00559986 4.34184217 -0.0090034 C8.31042511 -0.01704881 12.27898993 -0.0188616 16.24758005 -0.01960087 C20.53136076 -0.02145575 24.81513217 -0.02900532 29.09890747 -0.03573608 C38.46283655 -0.04930303 47.82676135 -0.05534173 57.19069862 -0.05974674 C63.0418011 -0.06251226 68.89290193 -0.06675021 74.7440033 -0.07125092 C90.9556391 -0.08344206 107.16727359 -0.09374128 123.37891388 -0.09712601 C124.41599376 -0.09734557 125.45307364 -0.09756514 126.52158019 -0.09779136 C127.56109329 -0.09800964 128.60060639 -0.09822791 129.67161989 -0.09845281 C131.77794679 -0.09889627 133.88427369 -0.09934283 135.99060059 -0.09979248 C137.03540382 -0.10001391 138.08020705 -0.10023534 139.15667099 -0.10046348 C156.07547867 -0.10440911 172.99424323 -0.12185665 189.91303426 -0.145152 C207.2985708 -0.16889603 224.68408572 -0.18132927 242.06963873 -0.18249393 C251.82475478 -0.18340904 261.57981464 -0.18911987 271.33491516 -0.20731354 C279.64386817 -0.22275582 287.95274762 -0.22781075 296.26171225 -0.21957543 C300.49648184 -0.21568334 304.7311035 -0.21652755 308.96585464 -0.23063278 C312.85233431 -0.24345885 316.73855619 -0.2420988 320.62503594 -0.23004207 C322.02145293 -0.2281 323.41788873 -0.23109347 324.81427938 -0.23988643 C349.31077942 -0.38421338 371.55947371 7.69683129 389.89587402 24.14044189 C390.53009277 24.69216064 391.16431152 25.24387939 391.81774902 25.81231689 C405.93557842 38.89397533 417.13425978 60.62667506 418.02582586 79.95813382 C418.0281565 80.99700171 418.03048714 82.0358696 418.03288841 83.10621834 C418.03796296 84.30971117 418.0430375 85.513204 418.04826581 86.75316632 C418.04901245 88.73128176 418.04901245 88.73128176 418.04977417 90.74935913 C418.0537911 92.16731539 418.05822971 93.58527051 418.06305373 95.00322425 C418.07500029 98.90018957 418.08066327 102.79714252 418.08523488 106.69412255 C418.0911986 110.89758122 418.10280685 115.10102516 418.11352539 119.30447388 C418.138037 129.45903738 418.15267743 139.61360575 418.16558546 149.76818973 C418.16929916 152.63869767 418.17327227 155.50920512 418.17733812 158.37971258 C418.20258319 176.22149072 418.22462714 194.06326966 418.23706627 211.90506172 C418.23999578 216.03706999 418.24295746 220.16907822 418.24597168 224.30108643 C418.24671773 225.32802773 418.24746378 226.35496904 418.24823244 227.41302978 C418.26086889 244.02536821 418.29406907 260.6375992 418.33577351 277.24988748 C418.3782828 294.32349558 418.40177191 311.39704883 418.40698683 328.47070968 C418.41039143 338.04941572 418.42203335 347.62795406 418.45508957 357.20660782 C418.48321549 365.36986751 418.49403492 373.53292511 418.48289411 381.69622947 C418.47773875 385.85462679 418.48038803 390.01260178 418.50535965 394.17093658 C418.68768664 426.31333658 413.52937123 451.38503857 391.08337402 475.39044189 C372.46914558 493.07395892 348.99936676 500.29890363 323.79174805 500.28088379 C322.34446652 500.28346983 320.89718571 500.28648365 319.44990587 500.28988719 C315.48132294 500.2979326 311.51275812 500.29974539 307.544168 500.30048466 C303.26038729 500.30233954 298.97661588 500.30988911 294.69284058 500.31661987 C285.32891149 500.33018682 275.9649867 500.33622552 266.60104942 500.34063053 C260.74994695 500.34339605 254.89884611 500.347634 249.04774475 500.3521347 C232.83610895 500.36432585 216.62447446 500.37462507 200.41283417 500.3780098 C199.37575429 500.37822936 198.3386744 500.37844893 197.27016786 500.37867515 C196.23065476 500.37889343 195.19114165 500.3791117 194.12012815 500.3793366 C192.01380126 500.37978006 189.90747436 500.38022662 187.80114746 500.38067627 C186.75634423 500.3808977 185.711541 500.38111913 184.63507706 500.38134727 C167.71626937 500.3852929 150.79750482 500.40274043 133.87871379 500.42603579 C116.49317725 500.44977981 99.10766233 500.46221306 81.72210932 500.46337771 C71.96699327 500.46429282 62.21193341 500.47000366 52.45683289 500.48819733 C44.14787988 500.50363961 35.83900043 500.50869454 27.53003579 500.50045922 C23.2952662 500.49656713 19.06064455 500.49741134 14.8258934 500.51151657 C10.93941374 500.52434264 7.05319185 500.52298259 3.16671211 500.51092586 C1.77029512 500.50898379 0.37385932 500.51197726 -1.02253133 500.52077022 C-25.51903137 500.66509717 -47.76772566 492.5840525 -66.10412598 476.14044189 C-66.73834473 475.58872314 -67.37256348 475.03700439 -68.02600098 474.46856689 C-82.14136136 461.38919626 -93.35039482 439.64948549 -94.23292714 420.31929797 C-94.23471571 419.27880386 -94.23650428 418.23830975 -94.23834705 417.16628551 C-94.2428049 415.96094258 -94.24726274 414.75559965 -94.25185567 413.51373118 C-94.25176638 412.17959987 -94.25157655 410.84546856 -94.251297 409.51133728 C-94.25459774 408.09124314 -94.25832375 406.67114994 -94.26243848 405.25105792 C-94.27244315 401.34829852 -94.27617282 397.4455545 -94.27882779 393.54278409 C-94.28273553 389.33324938 -94.29231371 385.12372679 -94.30104065 380.91419983 C-94.32079437 370.74630072 -94.33087103 360.57840064 -94.33976844 350.41048715 C-94.34415414 345.61835666 -94.34952031 340.82622728 -94.35475731 336.03409767 C-94.3717704 320.09619597 -94.38626269 304.15829494 -94.39350605 288.22038555 C-94.39541585 284.08525784 -94.3973362 279.95013013 -94.39929199 275.81500244 C-94.39977573 274.7872742 -94.40025947 273.75954597 -94.40075787 272.70067445 C-94.4090511 256.06692777 -94.43437571 239.43325316 -94.46687267 222.79953792 C-94.49998887 205.70899338 -94.51795903 188.61848541 -94.52115029 171.52790862 C-94.52331144 161.93758889 -94.53200178 152.34737419 -94.55761147 142.7570858 C-94.57938104 134.58607232 -94.58733832 126.41518938 -94.57764468 118.24415018 C-94.57311771 114.08010827 -94.57489193 109.91633533 -94.59440613 105.75233078 C-94.61216692 101.92918379 -94.61093708 98.10649942 -94.59550884 94.28334663 C-94.59204826 92.26831992 -94.60806218 90.25328761 -94.62511331 88.23833007 C-94.45502364 63.77753646 -83.8565749 41.66957175 -66.5958252 24.56329346 C-48.15652449 6.9750374 -25.08041232 -0.01792891 0 0 Z " fill="#54001A" transform="translate(94.1041259765625,5.85955810546875)"/>
<path d="M0 0 C15.51 0 31.02 0 47 0 C47.33 76.89 47.66 153.78 48 233 C29.43938013 239.96023245 29.43938013 239.96023245 22.3125 241.75 C21.58740234 241.94464844 20.86230469 242.13929688 20.11523438 242.33984375 C7.78713066 245.5261186 -4.35117959 246.39809025 -17.02685547 246.42553711 C-19.60091684 246.43738911 -22.1725378 246.48670053 -24.74609375 246.53710938 C-48.24999456 246.76710778 -71.12419645 239.12229062 -88.390625 222.73046875 C-106.96994023 203.17163179 -111.87855297 178.64388229 -111.3046875 152.43359375 C-110.30314704 128.82289818 -98.48299946 108.60809202 -81.734375 92.4609375 C-60.96800237 73.77120214 -35.48445733 68.79171 -8.4140625 68.8671875 C-7.28411865 68.86887939 -7.28411865 68.86887939 -6.13134766 68.87060547 C-4 69 -4 69 0 70 C0 46.9 0 23.8 0 0 Z " fill="#FE2F67" transform="translate(330,116)"/>
<path d="M0 0 C0.79196274 0.00142502 1.58392548 0.00285004 2.39988708 0.00431824 C3.74621971 -0.00029671 3.74621971 -0.00029671 5.11975098 -0.00500488 C6.09061142 0.00218063 7.06147186 0.00936615 8.06175232 0.01676941 C9.05537277 0.01722763 10.04899323 0.01768585 11.07272339 0.01815796 C13.17511691 0.02118206 15.27750816 0.02907306 17.37986755 0.04142761 C20.61049776 0.05968251 23.84084156 0.06193736 27.07151794 0.06169128 C29.1099319 0.06660636 31.1483439 0.07243463 33.18675232 0.07926941 C34.15963699 0.08038223 35.13252167 0.08149506 36.1348877 0.0826416 C37.02929062 0.08902145 37.92369354 0.09540131 38.84519958 0.10197449 C39.63636673 0.10578629 40.42753387 0.10959808 41.24267578 0.11352539 C43.05784607 0.24723816 43.05784607 0.24723816 44.05784607 1.24723816 C44.15800607 4.11489556 44.19223415 6.95854393 44.18482971 9.82670593 C44.1863897 10.73748697 44.18794969 11.648268 44.18955696 12.58664846 C44.19357109 15.66298089 44.19037572 18.73926467 44.1872406 21.81559753 C44.18859446 24.01113921 44.1903743 26.20668066 44.19255066 28.40222168 C44.19712684 34.38344945 44.19533468 40.36466005 44.19217157 46.34588814 C44.18964892 52.5901456 44.19198524 58.83440154 44.19355774 65.07865906 C44.19549659 76.23979097 44.19237881 87.40091655 44.1872984 98.56204695 C44.18283036 108.69165233 44.18360629 118.82124626 44.18821716 128.95085144 C44.19356287 140.70039274 44.19556379 152.44992845 44.1926049 164.199471 C44.19104169 170.42411099 44.19084956 176.64874308 44.19414139 182.87338257 C44.19701896 188.72389707 44.19504652 194.57438982 44.18924713 200.42490196 C44.18791892 202.57885896 44.18831468 204.73281777 44.1905098 206.88677406 C44.1932189 209.813798 44.18984313 212.74075104 44.18482971 215.66777039 C44.18706043 216.53185689 44.18929116 217.3959434 44.19158947 218.28621435 C44.17199589 224.13308834 44.17199589 224.13308834 43.05784607 225.24723816 C41.62044254 225.34537803 40.1782828 225.37522096 38.73753357 225.37663269 C37.8198822 225.37978485 36.90223083 225.38293701 35.95677185 225.38618469 C34.95887634 225.38416046 33.96098083 225.38213623 32.93284607 225.38005066 C31.91561462 225.38100739 30.89838318 225.38196411 29.85032654 225.38294983 C27.69488971 225.38363177 25.53945085 225.38177651 23.38401794 225.37760925 C20.07212236 225.37226121 16.7603624 225.37755379 13.44847107 225.38395691 C11.3599291 225.38329613 9.27138722 225.38201497 7.18284607 225.38005066 C5.68600281 225.38308701 5.68600281 225.38308701 4.15892029 225.38618469 C3.24126892 225.38303253 2.32361755 225.37988037 1.37815857 225.37663269 C0.56621033 225.3758371 -0.24573792 225.3750415 -1.08229065 225.3742218 C-2.94215393 225.24723816 -2.94215393 225.24723816 -3.94215393 224.24723816 C-4.04452803 221.3944896 -4.08100762 218.56580306 -4.0758667 215.71246338 C-4.07813226 214.80647146 -4.08039781 213.90047954 -4.08273202 212.96703333 C-4.08910268 209.90685781 -4.08824071 206.84672624 -4.0874176 203.7865448 C-4.09040718 201.60247744 -4.09380923 199.41841061 -4.09759521 197.23434448 C-4.10645975 191.28404314 -4.10877435 185.33375615 -4.109411 179.38344884 C-4.110358 174.42535576 -4.11403386 169.46726607 -4.1175831 164.50917429 C-4.12527057 153.48583376 -4.12825087 142.46249998 -4.12757774 131.43915696 C-4.12753779 130.77713479 -4.12749783 130.11511262 -4.12745667 129.43302917 C-4.12741578 128.77020282 -4.1273749 128.10737646 -4.12733278 127.42446446 C-4.1269262 116.67849714 -4.13649785 105.93256485 -4.15059503 95.18660767 C-4.164941 84.16442257 -4.17168283 73.14225541 -4.17100126 62.12006086 C-4.17074557 55.92723395 -4.17363546 49.73444665 -4.18417931 43.54162788 C-4.19382017 37.7198204 -4.19396721 31.89809073 -4.18666267 26.07628059 C-4.18561182 23.93403002 -4.18800909 21.79177471 -4.19402313 19.64953232 C-4.20167573 16.73592719 -4.19714331 13.82259531 -4.18939209 10.90899658 C-4.19453565 10.05171386 -4.19967922 9.19443114 -4.20497864 8.31117016 C-4.15890219 0.52943245 -4.15890219 0.52943245 0 0 Z " fill="#FD2F67" transform="translate(141.94215393066406,133.7527618408203)"/>
<path d="M0 0 C0.94488281 0.00064453 1.88976562 0.00128906 2.86328125 0.00195312 C9.82708824 0.04652941 9.82708824 0.04652941 13.25 1.1875 C13.27312166 13.42630329 13.29091418 25.66510143 13.30181217 37.90392208 C13.30704139 43.58626512 13.31413973 49.26859327 13.32543945 54.95092773 C13.33626696 60.42979136 13.34227654 65.90864062 13.34487724 71.38751411 C13.34673174 73.48279611 13.35035282 75.57807728 13.35573006 77.6733532 C13.36293868 80.59727584 13.36399102 83.52113833 13.36352539 86.44506836 C13.36712067 87.3204425 13.37071594 88.19581665 13.37442017 89.09771729 C13.36405216 95.07344784 13.36405216 95.07344784 12.25 96.1875 C-4.9743747 97.51654126 -21.24476532 97.60329287 -35.30859375 86.5078125 C-45.35756926 76.95726617 -48.86110459 64.69389876 -49.21118164 51.25073242 C-49.2239917 50.19861572 -49.23680176 49.14649902 -49.25 48.0625 C-49.26861084 47.06130127 -49.28722168 46.06010254 -49.30639648 45.02856445 C-49.20540867 33.08552957 -44.87846592 22.8155029 -36.78515625 14.0625 C-26.3540139 4.10292828 -14.21194577 -0.18725865 0 0 Z " fill="#55001A" transform="translate(316.75,224.8125)"/>
</svg>
