<?xml version="1.0" encoding="UTF-8"?>
<svg version="1.1" xmlns="http://www.w3.org/2000/svg" width="512" height="512">
<path d="M0 0 C11.68241286 7.95159336 22.28158662 17.0344443 32.52854824 26.74276638 C33.55104121 27.70588678 33.55104121 27.70588678 34.5941906 28.68846416 C82.24992483 73.92019208 92.27457972 126.95327935 94.00883318 189.84456405 C95.31244282 242.52481429 92.40632083 295.4295948 87.90037441 347.90438747 C87.80458662 349.0404742 87.70879883 350.17656092 87.61010838 351.34707451 C87.33699298 354.52579683 87.04748361 357.70250327 86.75063992 360.8790884 C86.67204351 361.78984406 86.59344711 362.70059973 86.51246899 363.63895404 C85.21143699 376.82912376 80.62006396 388.20412629 70.86057949 397.42245388 C60.45861844 405.54190757 49.25004618 407.55189048 36.42861843 407.50346279 C35.34317047 407.50728834 34.25772251 407.51111389 33.13938218 407.51505536 C29.51929841 407.52533532 25.89937473 407.52140268 22.27928066 407.51742458 C19.67676555 407.52177384 17.07425171 407.5269577 14.47173977 407.53291225 C8.14625972 407.54563191 1.82082217 407.54745633 -4.50466851 407.54511199 C-9.6492833 407.54332546 -14.79388524 407.54508565 -19.9384985 407.54933643 C-21.03884151 407.55022922 -21.03884151 407.55022922 -22.16141367 407.55114004 C-23.65189309 407.55235185 -25.1423725 407.55356599 -26.63285192 407.55478241 C-40.59669006 407.56564761 -54.56050402 407.56350041 -68.52434351 407.55739757 C-81.28061829 407.5522304 -94.03681665 407.56348036 -106.79307631 407.58249579 C-119.91061035 407.60189889 -133.02810829 407.61012579 -146.14565676 407.60637254 C-153.50235108 407.6044641 -160.85898039 407.60691299 -168.21566296 407.62108707 C-175.13583244 407.63428584 -182.05584691 407.63170732 -188.97601604 407.61867619 C-191.51076147 407.61631399 -194.04551769 407.61903222 -196.58025074 407.62729931 C-200.05053322 407.63779849 -203.52030639 407.62964013 -206.99057102 407.61698818 C-207.98447009 407.62436247 -208.97836917 407.63173675 -210.00238639 407.6393345 C-223.41943318 407.53700842 -234.62212931 403.73930397 -244.65895176 394.74276638 C-252.31121165 386.70167214 -256.59010142 376.10674121 -256.60287952 365.09567642 C-256.60864124 363.2298608 -256.60864124 363.2298608 -256.61451936 361.32635194 C-256.61373917 359.94878402 -256.61286039 358.57121614 -256.61189365 357.19364834 C-256.61447809 355.72803027 -256.61749147 354.2624129 -256.62089705 352.7967965 C-256.62896109 348.76843556 -256.63075629 344.74009245 -256.63149452 340.7117244 C-256.63334612 336.36733563 -256.64089399 332.02295609 -256.64762974 327.67857265 C-256.66120936 318.17850154 -256.66723721 308.67843466 -256.6716404 299.17835546 C-256.67440345 293.24589305 -256.67864092 287.31343226 -256.68314457 281.38097095 C-256.69533676 264.95408925 -256.70563617 248.52720885 -256.70901966 232.10032272 C-256.70923923 231.04904434 -256.70945879 229.99776596 -256.70968501 228.91463066 C-256.70990329 227.86084427 -256.71012157 226.80705788 -256.71034646 225.72133857 C-256.71078993 223.58598443 -256.71123649 221.45063029 -256.71168613 219.31527615 C-256.71190756 218.2560679 -256.71212899 217.19685965 -256.71235713 216.10555419 C-256.71630485 198.94398035 -256.73375828 181.78244898 -256.75704566 164.62089155 C-256.78076421 146.9992699 -256.79322174 129.37766956 -256.79438758 111.75603169 C-256.79530406 101.86299399 -256.80104952 91.97001163 -256.81920719 82.07698917 C-256.83461497 73.65256194 -256.83972463 65.22820714 -256.83146909 56.80376849 C-256.82756499 52.5068499 -256.82848044 48.21007715 -256.84252644 43.91317654 C-256.85527967 39.97568444 -256.85405544 36.03844757 -256.84193572 32.10095575 C-256.83998119 30.68034204 -256.84304591 29.25971017 -256.85178009 27.83912198 C-256.93559896 13.27849194 -253.83284185 1.91343413 -243.84645176 -9.00723362 C-202.0538398 -48.48247321 -44.40960487 -29.31148499 0 0 Z M-63.47145176 24.24276638 C-63.47145176 58.89276638 -63.47145176 93.54276638 -63.47145176 129.24276638 C-28.82145176 129.24276638 5.82854824 129.24276638 41.52854824 129.24276638 C36.4416641 123.30531769 36.4416641 123.30531769 31.09329128 117.68052578 C30.26190136 116.84631603 29.43051144 116.01210629 28.57392788 115.15261745 C27.6806982 114.26141201 26.78746853 113.37020657 25.86717129 112.4519949 C24.90219741 111.4856635 23.93743586 110.51912005 22.97286892 109.55238247 C20.37225871 106.94724329 17.76853179 104.3452408 15.16406512 101.74395776 C12.43508322 99.01751864 9.70855436 96.28862813 6.98162746 93.56013393 C2.4097893 88.98648152 -2.16414256 84.4149309 -6.73927402 79.84457302 C-12.03425222 74.55505556 -17.32559203 69.26191891 -22.61509448 63.96692616 C-27.16027806 59.41721348 -31.7073962 54.86944117 -36.25615567 50.32330364 C-38.97177977 47.60924093 -41.68671791 44.8945013 -44.39991283 42.17800999 C-46.94461356 39.63043285 -49.49172453 37.08529095 -52.0407629 34.54205418 C-53.42700306 33.15777798 -54.81076687 31.77102332 -56.19447422 30.38421535 C-57.01176502 29.56974438 -57.82905582 28.7552734 -58.67111301 27.91612148 C-59.38508401 27.20252751 -60.099055 26.48893354 -60.83466148 25.75371552 C-62.22265557 24.12971704 -62.22265557 24.12971704 -63.47145176 24.24276638 Z M-191.47145176 238.24276638 C-191.47145176 265.63276638 -191.47145176 293.02276638 -191.47145176 321.24276638 C-185.53145176 321.24276638 -179.59145176 321.24276638 -173.47145176 321.24276638 C-173.14145176 311.34276638 -172.81145176 301.44276638 -172.47145176 291.24276638 C-168.51145176 291.24276638 -164.55145176 291.24276638 -160.47145176 291.24276638 C-151.8005553 290.12203827 -142.67884051 287.1134376 -136.81129551 280.32089138 C-132.30904395 273.5478249 -130.60769854 266.29996436 -131.47145176 258.24276638 C-132.70269366 252.42322457 -134.76917502 247.11258264 -139.47145176 243.24276638 C-148.7997726 237.26732954 -157.94929109 236.09234375 -168.78395176 235.99276638 C-169.92078403 235.97862698 -169.92078403 235.97862698 -171.08058262 235.96420193 C-178.16688409 236.00378186 -184.25156911 237.1320152 -191.47145176 238.24276638 Z M-118.47145176 238.24276638 C-118.47145176 265.63276638 -118.47145176 293.02276638 -118.47145176 321.24276638 C-96.92254969 323.20175748 -74.69531398 324.38167587 -56.59645176 310.49276638 C-47.88347663 302.33232138 -44.45403459 291.55330988 -44.06910801 279.96395779 C-43.9064093 267.65986776 -45.71836738 257.46187146 -54.47145176 248.24276638 C-65.78924476 237.72990263 -80.07679239 236.10379939 -94.90895176 235.99276638 C-95.75433506 235.98342068 -96.59971836 235.97407497 -97.47071934 235.96444607 C-104.78164657 236.00071128 -111.03657267 237.09893883 -118.47145176 238.24276638 Z M-30.47145176 237.24276638 C-30.47145176 264.96276638 -30.47145176 292.68276638 -30.47145176 321.24276638 C-24.53145176 321.24276638 -18.59145176 321.24276638 -12.47145176 321.24276638 C-12.47145176 310.02276638 -12.47145176 298.80276638 -12.47145176 287.24276638 C-2.24145176 287.24276638 7.98854824 287.24276638 18.52854824 287.24276638 C18.52854824 282.29276638 18.52854824 277.34276638 18.52854824 272.24276638 C8.29854824 272.24276638 -1.93145176 272.24276638 -12.47145176 272.24276638 C-12.47145176 265.64276638 -12.47145176 259.04276638 -12.47145176 252.24276638 C-1.58145176 252.24276638 9.30854824 252.24276638 20.52854824 252.24276638 C20.52854824 247.29276638 20.52854824 242.34276638 20.52854824 237.24276638 C3.69854824 237.24276638 -13.13145176 237.24276638 -30.47145176 237.24276638 Z " fill="#000000" transform="translate(341.4714517593384,62.75723361968994)"/>
<path d="M0 0 C7.73847877 0 14.11142 0.92371792 20.12109375 6.078125 C27.46043469 13.82944557 28.65113805 21.02092428 28.41015625 31.55078125 C27.69678566 39.26961131 25.21597338 46.18480736 19.8359375 51.87890625 C13.62353506 56.90082629 6.12822009 58.45862357 -1.6875 58.4375 C-3.13382813 58.44136719 -3.13382813 58.44136719 -4.609375 58.4453125 C-6.9375 58.3125 -6.9375 58.3125 -7.9375 57.3125 C-8.03637792 55.56867465 -8.06549032 53.82084457 -8.06689453 52.07421875 C-8.07004669 50.95635986 -8.07319885 49.83850098 -8.07644653 48.68676758 C-8.0744223 47.47013428 -8.07239807 46.25350098 -8.0703125 45 C-8.07126923 43.76080811 -8.07222595 42.52161621 -8.07321167 41.24487305 C-8.07389374 38.61861719 -8.07253538 35.99245367 -8.06787109 33.36621094 C-8.06217381 29.99321286 -8.06545302 26.62029435 -8.07144356 23.24729919 C-8.0759177 20.03986323 -8.07278882 16.832437 -8.0703125 13.625 C-8.07233673 12.4083667 -8.07436096 11.1917334 -8.07644653 9.93823242 C-8.07329437 8.82037354 -8.07014221 7.70251465 -8.06689453 6.55078125 C-8.06609894 5.56118408 -8.06530334 4.57158691 -8.06448364 3.55200195 C-7.79457845 -1.20808517 -3.9978098 0.0758825 0 0 Z " fill="#000000" transform="translate(249.9375,312.6875)"/>
<path d="M0 0 C3.5578125 -0.0928125 3.5578125 -0.0928125 7.1875 -0.1875 C8.29387817 -0.22846802 8.29387817 -0.22846802 9.42260742 -0.27026367 C14.81644918 -0.33800537 17.74518134 1.0672983 21.75 4.5 C24.30809263 7.56971116 24.3348752 11.07362728 24.28515625 14.9375 C23.69446317 19.20991019 21.09263335 22.00980103 18 24.8125 C12.2540539 28.2241555 6.86941926 27 0 27 C0 18.09 0 9.18 0 0 Z " fill="#000000" transform="translate(168,313)"/>
</svg>
