<?xml version="1.0" encoding="UTF-8"?>
<svg version="1.1" xmlns="http://www.w3.org/2000/svg" width="512" height="512">
<path d="M0 0 C1.10567825 -0.00852997 2.21135651 -0.01705994 3.35054016 -0.02584839 C5.17919113 -0.02448883 5.17919113 -0.02448883 7.04478455 -0.02310181 C8.96472984 -0.03317764 8.96472984 -0.03317764 10.92346191 -0.04345703 C14.44505276 -0.06117246 17.96654645 -0.0658154 21.48817754 -0.0670886 C23.69443409 -0.06851038 25.900666 -0.07278102 28.10691643 -0.07808304 C35.82287533 -0.09661844 43.53876506 -0.10475137 51.25474548 -0.10317993 C58.41184535 -0.10198529 65.56864032 -0.12294425 72.72566324 -0.15466726 C78.88983909 -0.18100089 85.05391665 -0.19153978 91.21814817 -0.19026911 C94.89027207 -0.18976342 98.5621266 -0.19522228 102.2341938 -0.21662521 C122.11892769 -0.32442897 139.57066852 0.45653724 157.78672791 9.26742554 C158.68520447 9.69668335 159.58368103 10.12594116 160.50938416 10.56820679 C176.94063174 18.9611462 192.44251552 32.57900077 200.78672791 49.26742554 C201.35049605 49.26981389 201.9142642 49.27220224 202.49511623 49.27466297 C216.24294114 49.33392137 229.9905902 49.40972685 243.73822689 49.50314045 C250.38663224 49.54781973 257.03494747 49.58708143 263.68345642 49.61386108 C270.10264106 49.63991804 276.5215909 49.68033812 282.94062996 49.7306118 C285.38652686 49.74726419 287.83246436 49.75878857 290.27840996 49.76503944 C293.71103763 49.77469789 297.14306678 49.80277952 300.57554626 49.83505249 C301.58112076 49.8336174 302.58669525 49.83218231 303.6227417 49.83070374 C315.0531932 49.98214636 322.72944207 53.48698092 330.92344666 61.30648804 C338.296503 69.02025863 341.89962793 77.81569229 341.92094898 88.50032806 C341.92540683 89.5403181 341.92986467 90.58030814 341.9344576 91.65181303 C341.93418106 93.35591927 341.93418106 93.35591927 341.93389893 95.0944519 C341.93757561 96.30645028 341.9412523 97.51844865 341.9450404 98.76717424 C341.95415032 102.12846218 341.95877322 105.48970135 341.96142972 108.85099697 C341.96534014 112.47764783 341.97491801 116.10428465 341.98364258 119.73092651 C342.00338699 128.4883404 342.013471 137.24575541 342.02237037 146.00318599 C342.02675691 150.13074109 342.0321228 154.25829491 342.03735924 158.385849 C342.05437011 172.11311324 342.068863 185.84037668 342.07610798 199.56764984 C342.07801777 203.12838238 342.07993811 206.6891149 342.08189392 210.24984741 C342.08237766 211.13481307 342.0828614 212.01977873 342.0833598 212.93156153 C342.09165533 227.2587905 342.11698482 241.58593584 342.1494746 255.91312832 C342.18258404 270.6340226 342.20056028 285.35487444 342.20375222 300.07580614 C342.20591381 308.33638222 342.21461081 316.59683639 342.24021339 324.8573761 C342.26197362 331.8943151 342.26994478 338.93110257 342.26024661 345.9680714 C342.25571713 349.55455709 342.25750841 353.14073047 342.27700806 356.72717285 C342.29802407 360.62641951 342.28760542 364.52524152 342.2744751 368.42453003 C342.29092897 370.10186761 342.29092897 370.10186761 342.30771524 371.8130908 C342.20492755 384.52068795 338.88440218 395.1108494 329.90391541 404.16586304 C322.72099948 410.84174961 315.60731876 414.39613738 305.76298523 414.38768005 C304.52902008 414.38905472 303.29505493 414.39042938 302.0236969 414.3918457 C300.65922522 414.38830681 299.29475379 414.38467201 297.93028259 414.38095093 C296.49128725 414.38066881 295.05229177 414.38082727 293.61329651 414.38139343 C289.70868662 414.38168044 285.80410742 414.37579925 281.89950466 414.36881948 C277.81823316 414.36256993 273.73696097 414.36198087 269.65568542 414.36079407 C261.92804778 414.35768548 254.20042428 414.34947844 246.47279286 414.33944458 C237.67480415 414.32826879 228.87681475 414.32276929 220.07882071 414.31774914 C201.98144679 414.30729545 183.88409226 414.28895582 165.78672791 414.26742554 C165.78672791 431.42742554 165.78672791 448.58742554 165.78672791 466.26742554 C180.46146083 466.10915204 180.46146083 466.10915204 195.13560486 465.90707397 C196.97373021 465.89539281 198.81186588 465.88519964 200.65000916 465.87680054 C201.60629211 465.85633667 202.56257507 465.8358728 203.5478363 465.81478882 C204.4610968 465.81430542 205.3743573 465.81382202 206.31529236 465.81332397 C207.10805069 465.80444153 207.90080902 465.79555908 208.71759033 465.78640747 C210.78672791 466.26742554 210.78672791 466.26742554 212.54193115 468.06484985 C214.41535931 471.37974226 214.21501217 474.68528954 214.18516541 478.39242554 C214.18803558 479.17633667 214.19090576 479.9602478 214.19386292 480.76791382 C214.19590054 482.4220553 214.19039171 484.07622104 214.17784119 485.73031616 C214.1617823 488.25886024 214.17769908 490.78580603 214.19688416 493.31430054 C214.19490167 494.92367906 214.19105788 496.53305658 214.18516541 498.14242554 C214.1912381 498.89668823 214.19731079 499.65095093 214.2035675 500.42807007 C214.16456672 503.34610964 214.00267411 505.78899595 212.79389191 508.46705723 C209.66973432 511.26933661 206.27458844 510.8150488 202.28392029 510.76863098 C201.40550995 510.77416538 200.52709962 510.77969977 199.62207079 510.78540188 C196.6669065 510.79905853 193.71257948 510.78401205 190.75743103 510.76913452 C188.64365275 510.77291587 186.52987694 510.77841439 184.41610718 510.7855072 C178.66616199 510.79950301 172.91651466 510.78826303 167.16658592 510.77179599 C161.15816877 510.75797679 155.14976946 510.76440199 149.14134216 510.76792908 C139.04994387 510.77063368 128.95866435 510.75713406 118.86729431 510.73397827 C107.18895439 510.70736703 95.5108131 510.70562054 83.83245325 510.71736664 C72.61283474 510.72813405 61.39328831 510.72196549 50.17367554 510.70781136 C45.39221499 510.70204256 40.61080704 510.70214125 35.8293457 510.70687675 C30.20197087 510.71163801 24.57481442 510.70158016 18.94748116 510.6799221 C16.87822265 510.67434244 14.8089432 510.67389968 12.73968315 510.67887497 C9.92272233 510.68480017 7.10643547 510.67237602 4.28953552 510.65510559 C3.05088202 510.66412066 3.05088202 510.66412066 1.78720522 510.67331785 C-3.7571897 510.61117832 -3.7571897 510.61117832 -5.92141676 508.97998387 C-8.16773844 506.00212961 -7.63872245 502.35408753 -7.61170959 498.76742554 C-7.61457977 497.93533569 -7.61744995 497.10324585 -7.6204071 496.24594116 C-7.62244772 494.48747069 -7.61691802 492.72897753 -7.60438538 490.97055054 C-7.58833111 488.2773264 -7.60423355 485.58560294 -7.62342834 482.89242554 C-7.62144591 481.18408889 -7.61760223 479.47575317 -7.61170959 477.76742554 C-7.61778229 476.96111694 -7.62385498 476.15480835 -7.63011169 475.32406616 C-7.55984867 469.74492793 -7.55984867 469.74492793 -5.96847534 467.55238342 C-3.73660441 465.9184643 -2.49186241 465.9037399 0.25816345 465.92684937 C1.17142395 465.92721191 2.08468445 465.92757446 3.02561951 465.927948 C3.98190247 465.9432959 4.93818542 465.9586438 5.92344666 465.97445679 C6.80504456 465.97747803 7.68664246 465.98049927 8.59495544 465.98361206 C11.88816535 465.99930815 15.18120838 466.0411922 18.47422791 466.07992554 C25.83735291 466.14180054 33.20047791 466.20367554 40.78672791 466.26742554 C40.78672791 449.10742554 40.78672791 431.94742554 40.78672791 414.26742554 C36.3965033 414.29360962 32.00627869 414.3197937 27.48301697 414.34677124 C12.95847752 414.42971484 -1.56607139 414.48514237 -16.09078598 414.5264864 C-24.89492151 414.55221568 -33.6988319 414.58726463 -42.50282288 414.6446228 C-50.18067212 414.69462009 -57.85835822 414.72675486 -65.53636575 414.73786801 C-69.59801966 414.74435932 -73.65920707 414.75950388 -77.72071075 414.79607582 C-81.55230154 414.83029435 -85.38323864 414.8404272 -89.21496773 414.83296394 C-90.61288838 414.83432707 -92.01083342 414.84410509 -93.40862083 414.86345291 C-106.03730773 415.02951802 -116.07590822 412.28671091 -125.31092834 403.36898804 C-133.78995088 394.00201858 -135.66547011 384.05406744 -135.60095215 371.71813965 C-135.60633769 370.47681113 -135.61172322 369.23548261 -135.61727196 367.95653808 C-135.6290586 364.53186067 -135.6275015 361.10767302 -135.62010515 357.68301558 C-135.61536037 353.98147462 -135.62789489 350.27998501 -135.63812256 346.57846069 C-135.65529052 339.33488056 -135.65615471 332.09138724 -135.65090965 324.84779204 C-135.64686285 318.9580271 -135.64831757 313.06828775 -135.65365791 307.17852402 C-135.65440634 306.33920956 -135.65515476 305.49989511 -135.65592586 304.63514688 C-135.65745739 302.92989572 -135.65899574 301.22464457 -135.66054083 299.51939343 C-135.67425871 283.53927287 -135.66883327 267.55920131 -135.65735561 251.57908188 C-135.64742478 236.97268673 -135.66036258 222.36641829 -135.68428981 207.76004268 C-135.70869637 192.74747672 -135.7182848 177.73496973 -135.71163708 162.72238433 C-135.70814822 154.29986186 -135.71035487 145.87743679 -135.72788811 137.45492935 C-135.74262961 130.2847983 -135.74322019 123.11483325 -135.7258172 115.94470538 C-135.71732063 112.28959518 -135.71512435 108.63478128 -135.73046875 104.97968674 C-135.74692746 101.00986673 -135.73213241 97.04050102 -135.71447754 93.07067871 C-135.72408255 91.92601076 -135.73368755 90.78134281 -135.74358362 89.60198796 C-135.63770184 78.00104255 -132.27667527 68.71008899 -124.21327209 60.26742554 C-116.20129771 52.80512923 -107.10053179 49.63249982 -96.26551819 49.81332397 C-95.32771515 49.81273987 -94.38991211 49.81215576 -93.4236908 49.81155396 C-90.36097119 49.81431395 -87.29925662 49.84530647 -84.23670959 49.87680054 C-82.09866365 49.88427035 -79.96061081 49.88995978 -77.82255554 49.89395142 C-72.22306578 49.90914937 -66.62399777 49.94838062 -61.02467346 49.99276733 C-55.29983727 50.0338464 -49.57493226 50.05198934 -43.84999084 50.07211304 C-32.637567 50.11488072 -21.42545476 50.18306084 -10.21327209 50.26742554 C-10.54327209 49.60742554 -10.87327209 48.94742554 -11.21327209 48.26742554 C-13.0972723 33.51893905 -12.85829531 16.23885801 -7.21327209 2.26742554 C-4.62590627 -0.31994029 -3.60047149 0.01251522 0 0 Z M3.78672791 12.26742554 C3.46526794 13.53723267 3.14380798 14.80703979 2.81260681 16.11532593 C2.54137497 17.18672569 2.54137497 17.18672569 2.2646637 18.2797699 C-2.58840844 38.46289152 2.6773557 61.88905533 13.00157166 79.59164429 C16.80867618 85.29813575 20.92496829 91.40566593 25.78672791 96.26742554 C58.46679444 98.13048428 94.97109478 88.65694319 119.97813416 66.91976929 C123.17375321 65.03973193 125.21479749 64.55679472 128.87974548 64.75350952 C132.3686849 65.69374988 133.99277155 68.4581586 135.84922791 71.32992554 C136.70404254 72.53406814 137.56210438 73.73591234 138.42344666 74.93539429 C138.82998474 75.51466675 139.23652283 76.09393921 139.65538025 76.69076538 C146.67172181 86.46882619 158.03095381 93.05734001 169.78672791 95.26742554 C173.56985819 95.7993447 177.36089131 96.2446129 181.16246033 96.62216187 C186.69364465 97.17434228 186.69364465 97.17434228 187.78672791 98.26742554 C188.02200563 100.61729816 188.20059207 102.97298593 188.34922791 105.32992554 C188.43301697 106.6202771 188.51680603 107.91062866 188.60313416 109.24008179 C188.66372009 110.23910522 188.72430603 111.23812866 188.78672791 112.26742554 C192.08672791 112.26742554 195.38672791 112.26742554 198.78672791 112.26742554 C202.1629662 98.76247236 200.49712959 83.21333344 195.78672791 70.26742554 C195.41289978 69.21426147 195.03907166 68.16109741 194.65391541 67.07601929 C186.53514774 46.0263667 170.09750313 29.40090088 149.75938416 19.99008179 C130.49149657 11.46606062 110.28236398 11.97999484 89.62657166 12.07211304 C87.13980219 12.07585147 84.65303124 12.07869451 82.16625977 12.08068848 C75.67762558 12.08825964 69.18908348 12.10785084 62.70048523 12.13009644 C56.05671773 12.15069663 49.41294089 12.15972026 42.76914978 12.16976929 C29.77497028 12.19110394 16.78085403 12.22476523 3.78672791 12.26742554 Z M-117.02577209 72.14242554 C-121.91563636 79.12794591 -122.64879534 84.48072422 -122.57403564 92.82795715 C-122.57659892 93.87932753 -122.57916219 94.93069791 -122.58180314 96.013928 C-122.58673701 99.53014337 -122.57025416 103.04592757 -122.55384827 106.56210327 C-122.55300191 109.0852711 -122.5534773 111.60843966 -122.55517578 114.13160706 C-122.55585852 119.56035771 -122.54735996 124.98896998 -122.53046227 130.41769218 C-122.5060473 138.26661334 -122.49826445 146.11548224 -122.49449829 153.96443725 C-122.48793772 166.69982177 -122.46798727 179.43514854 -122.43959045 192.17050171 C-122.41203967 204.53931388 -122.39081108 216.90811035 -122.37806702 229.27694702 C-122.37727885 230.03977882 -122.37649068 230.80261063 -122.37567862 231.58855855 C-122.37176342 235.41558625 -122.36797231 239.24261406 -122.36424291 243.06964195 C-122.33315927 274.80228766 -122.27786283 306.53482594 -122.21327209 338.26742554 C-101.42327209 338.26742554 -80.63327209 338.26742554 -59.21327209 338.26742554 C-57.23327209 333.31742554 -55.25327209 328.36742554 -53.21327209 323.26742554 C-36.45022952 288.97938391 -5.90923257 276.02091974 28.11894226 263.57803345 C32.22483488 262.07437556 36.3260571 260.55803266 40.42791176 259.04340267 C43.60912211 257.86894621 46.79119867 256.69705762 49.97505188 255.5297699 C51.10448212 255.11521042 52.23391235 254.70065094 53.39756775 254.27352905 C54.39299591 253.90905167 55.38842407 253.54457428 56.41401672 253.16905212 C58.7567221 252.32423379 58.7567221 252.32423379 60.78672791 251.26742554 C60.78672791 246.31742554 60.78672791 241.36742554 60.78672791 236.26742554 C58.65204041 236.24615601 58.65204041 236.24615601 56.47422791 236.22445679 C54.57836323 236.17752944 52.6825309 236.12928222 50.78672791 236.07992554 C49.38487244 236.07122437 49.38487244 236.07122437 47.95469666 236.06234741 C41.34579598 235.85437501 36.92380347 234.50004748 31.78672791 230.26742554 C29.47909978 227.77269243 27.99913212 225.77826147 26.69688416 222.64633179 C24.89218946 219.84818272 24.89218946 219.84818272 21.02110291 219.70101929 C19.526481 219.67845395 18.03132308 219.68065433 16.53672791 219.70492554 C9.09403717 219.78935397 4.479359 218.68789059 -1.17420959 213.45101929 C-1.64085022 212.87480835 -2.10749084 212.29859741 -2.58827209 211.70492554 C-3.07038147 211.12613647 -3.55249084 210.54734741 -4.04920959 209.95101929 C-6.21103527 206.82435195 -6.33341903 204.04904895 -6.35389709 200.37289429 C-6.37323303 199.41705444 -6.39256897 198.4612146 -6.41249084 197.47640991 C-6.4461447 195.47400557 -6.46455874 193.47128283 -6.46717834 191.46859741 C-6.63652081 184.83304668 -7.49116591 181.93944878 -12.21327209 177.26742554 C-14.00532338 174.32910356 -14.47066237 172.12338411 -14.50379944 168.70175171 C-14.51655914 167.80369308 -14.52931885 166.90563446 -14.54246521 165.98036194 C-14.54469086 165.01677261 -14.5469165 164.05318329 -14.54920959 163.06039429 C-14.55919479 161.56225945 -14.55919479 161.56225945 -14.56938171 160.03385925 C-14.57950114 157.92154785 -14.58419895 155.80920452 -14.58387756 153.6968689 C-14.58824216 150.47700801 -14.62454632 147.25852758 -14.66249084 144.03890991 C-14.66836097 141.98357604 -14.67232905 139.92823568 -14.67420959 137.87289429 C-14.68858063 136.91537766 -14.70295166 135.95786102 -14.71775818 134.97132874 C-14.66997579 127.92413089 -13.28701285 123.58574351 -8.39686584 118.30648804 C-7.82065491 117.83984741 -7.24444397 117.37320679 -6.65077209 116.89242554 C-6.07198303 116.41031616 -5.49319397 115.92820679 -4.89686584 115.43148804 C-2.10976889 113.50444653 0.50674522 113.12426673 3.79844666 112.95101929 C4.55577087 112.90912476 5.31309509 112.86723022 6.09336853 112.82406616 C6.87905212 112.78474976 7.66473572 112.74543335 8.47422791 112.70492554 C9.67015564 112.64015015 9.67015564 112.64015015 10.89024353 112.57406616 C12.85554237 112.46815185 14.82111287 112.36730003 16.78672791 112.26742554 C17.22033786 107.90937105 17.15534155 105.8227575 14.69688416 102.11898804 C13.75929051 101.03331799 12.80930515 99.95826463 11.84922791 98.89242554 C7.53835388 93.76079916 3.97796246 88.57302192 0.84922791 82.64242554 C0.49674988 81.98709839 0.14427185 81.33177124 -0.21888733 80.65658569 C-2.32862031 76.54600918 -3.89714383 72.38362271 -5.33656311 67.99252319 C-5.69001297 66.91846222 -6.04346283 65.84440125 -6.40762329 64.73779297 C-6.80641945 63.51496109 -6.80641945 63.51496109 -7.21327209 62.26742554 C-18.7923611 62.22099357 -30.37142779 62.18550121 -41.95059109 62.16380119 C-47.32781715 62.15338394 -52.70497929 62.13926239 -58.08216858 62.11654663 C-63.27578417 62.09474479 -68.46933845 62.08284144 -73.66299629 62.07767105 C-75.64003018 62.07398846 -77.61706088 62.06679737 -79.59406853 62.05596542 C-82.37272654 62.0413529 -85.1511343 62.03945166 -87.92982483 62.04037476 C-88.73903381 62.0331842 -89.5482428 62.02599365 -90.38197327 62.01858521 C-100.70440022 62.05545898 -109.91934626 64.20868445 -117.02577209 72.14242554 Z M206.78672791 62.26742554 C207.06387634 63.35281616 207.34102478 64.43820679 207.62657166 65.55648804 C207.9925842 67.00176835 208.3584625 68.44708266 208.72422791 69.89242554 C208.99783142 70.96170288 208.99783142 70.96170288 209.27696228 72.05258179 C210.95046237 78.6857276 211.90963135 84.72899259 211.67344666 91.60726929 C211.64132319 93.01413635 211.61077253 94.42104004 211.58164978 95.82797241 C211.5323237 98.01868827 211.4741307 100.20742644 211.38902283 102.39706421 C210.67550112 112.09918002 210.67550112 112.09918002 214.68125916 120.52133179 C215.21211121 120.97967407 215.74296326 121.43801636 216.28990173 121.9102478 C218.64922497 124.04945476 219.66306402 126.28700706 220.06088257 129.44094849 C220.07152237 130.22512146 220.08216217 131.00929443 220.09312439 131.81723022 C220.10911179 132.71206116 220.12509918 133.60689209 220.14157104 134.52883911 C220.14693375 135.48929138 220.15229645 136.44974365 220.15782166 137.43930054 C220.16685013 138.43568542 220.1758786 139.43207031 220.18518066 140.45864868 C220.19968086 142.5667521 220.20856932 144.67490049 220.21226501 146.78305054 C220.22413448 149.99216629 220.27330061 153.199342 220.32383728 156.40805054 C220.33330515 158.46012453 220.34053844 160.51221028 220.34532166 162.56430054 C220.36485397 163.51665588 220.38438629 164.46901123 220.4045105 165.45022583 C220.36088441 171.96385001 218.95358463 176.21552044 214.78672791 181.26742554 C211.48641927 184.32624817 208.12674745 187.24990377 203.4717865 187.28475952 C202.63470154 187.19525024 201.79761658 187.10574097 200.93516541 187.01351929 C192.23116599 186.43595208 192.23116599 186.43595208 183.78672791 188.26742554 C179.04865338 192.66530532 177.04394296 199.07146772 174.76182556 204.97592163 C172.71816106 209.77858437 169.29307623 213.47818711 165.78672791 217.26742554 C165.27239197 217.87199585 164.75805603 218.47656616 164.22813416 219.09945679 C161.42160481 222.19993684 159.01648955 224.15115452 155.23594666 226.06430054 C149.43249836 228.90273073 149.43249836 228.90273073 144.78672791 233.26742554 C143.07488826 239.12072744 143.97847136 245.32096665 144.78672791 251.26742554 C145.79811829 251.64943115 145.79811829 251.64943115 146.8299408 252.03915405 C151.4557934 253.78748654 156.08126324 255.53676975 160.70298767 257.29598999 C161.36764542 257.54897354 162.03230316 257.80195709 162.71710205 258.06260681 C164.12507709 258.59853849 165.53302506 259.13454128 166.94094849 259.67060852 C171.72846154 261.4912381 176.5224062 263.29398812 181.31988525 265.08818054 C184.77390666 266.3824978 188.22406003 267.68693246 191.67366028 268.99298096 C193.35219254 269.62603808 195.03227655 270.25499846 196.71400452 270.8795166 C212.06595065 276.58553779 225.44764842 283.222938 237.78672791 294.26742554 C238.40805603 294.80625366 239.02938416 295.34508179 239.66954041 295.90023804 C251.87444991 307.19687521 259.59914631 322.70468075 264.78672791 338.26742554 C285.90672791 338.26742554 307.02672791 338.26742554 328.78672791 338.26742554 C328.8528895 306.18991053 328.90827228 274.11246185 328.93992389 242.03489912 C328.94367592 238.24611549 328.9475589 234.457332 328.95152283 230.66854858 C328.95230976 229.91428384 328.95309669 229.1600191 328.95390747 228.38289785 C328.9669542 216.17692017 328.990604 203.97098497 329.01818629 191.76503248 C329.04626089 179.23654418 329.06290851 166.70807811 329.06899339 154.17955965 C329.07310558 146.45149649 329.08608414 138.72355339 329.11047731 130.9955272 C329.12823992 125.06532677 329.13008833 119.13518765 329.12605095 113.20495987 C329.12687577 110.77538375 329.13283633 108.34580305 329.14434433 105.91625404 C329.15930104 102.59552795 329.15566952 99.27531285 329.14749146 95.95457458 C329.15622998 94.99638024 329.1649685 94.03818589 329.17397183 93.05095536 C329.11491203 84.15988245 327.08477304 75.84429038 320.78672791 69.26742554 C312.75251257 62.50648986 302.94232449 61.956068 292.838974 62.04037476 C291.90117096 62.0400827 290.96336792 62.03979065 289.99714661 62.03948975 C286.93472139 62.04086961 283.87254748 62.05636685 280.81016541 62.07211304 C278.67211541 62.07584795 276.53406368 62.07869266 274.39601135 62.08068848 C268.79666839 62.08828725 263.19743087 62.10790317 257.59812927 62.13009644 C251.87324957 62.15063613 246.14835266 62.1597075 240.42344666 62.16976929 C229.21116101 62.19115287 217.99895326 62.22524303 206.78672791 62.26742554 Z M124.78672791 79.26742554 C124.26207947 79.66832397 123.73743103 80.06922241 123.19688416 80.48226929 C99.10149751 98.16291073 70.00119955 106.75647137 40.34922791 107.82992554 C39.23612244 107.87310913 38.12301697 107.91629272 36.97618103 107.96078491 C34.24646946 108.06622441 31.51667647 108.16834583 28.78672791 108.26742554 C28.73529188 114.64963264 28.70069188 121.0317848 28.67686462 127.41415405 C28.66691338 129.57758582 28.65334756 131.74100454 28.635849 133.90438843 C28.47019385 154.93772072 29.0932108 174.1524842 38.78672791 193.26742554 C39.93149597 193.24647827 41.07626404 193.22553101 42.25572205 193.20394897 C46.52528754 193.13124753 50.7947989 193.08551675 55.06480408 193.04769897 C56.90864785 193.02765192 58.75242859 193.00040673 60.59605408 192.96566772 C63.25482281 192.91684345 65.91274706 192.89438782 68.57188416 192.87680054 C69.38883255 192.8561554 70.20578094 192.83551025 71.04748535 192.8142395 C76.81514715 192.81200627 79.95713054 194.13818365 84.78672791 197.26742554 C85.44672791 197.26742554 86.10672791 197.26742554 86.78672791 197.26742554 C87.45339457 198.60075887 88.12006124 199.9340922 88.78672791 201.26742554 C89.29590759 202.1659021 89.80508728 203.06437866 90.32969666 203.99008179 C92.82650268 209.60622189 92.53907068 215.24196597 91.78672791 221.26742554 C90.50169895 224.59154558 88.90491736 227.40786978 86.78672791 230.26742554 C108.21540789 233.7151092 127.50540054 231.11048288 145.78672791 218.26742554 C161.18140889 205.97885925 172.56993535 190.0541711 175.78672791 170.26742554 C176.64187788 162.21935852 176.92484612 154.24649501 176.88438416 146.15805054 C176.88296921 145.06522766 176.88155426 143.97240479 176.88009644 142.84646606 C176.87456085 139.40342305 176.86202097 135.96044843 176.84922791 132.51742554 C176.84420456 130.16325982 176.83964313 127.80909307 176.83555603 125.45492554 C176.82461263 119.72573608 176.80794025 113.9965857 176.78672791 108.26742554 C175.65815369 108.0943689 174.52957947 107.92131226 173.36680603 107.74301147 C157.96643684 105.27711852 157.96643684 105.27711852 151.28672791 101.51742554 C150.63003113 101.16744507 149.97333435 100.8174646 149.29673767 100.45687866 C141.39085159 96.13302651 135.04765827 91.01251052 129.29454041 84.06430054 C127.86994381 82.36659475 126.37656365 80.80966141 124.78672791 79.26742554 Z M-0.21327209 127.26742554 C-2.84316726 132.24827592 -3.59639339 136.00438134 -3.61170959 141.70492554 C-3.61457977 142.38869263 -3.61744995 143.07245972 -3.6204071 143.77694702 C-3.6224345 145.21225826 -3.61699805 146.64759797 -3.60438538 148.08285522 C-3.58831062 150.26220305 -3.6042773 152.43969692 -3.62342834 154.61898804 C-3.62144568 156.02263791 -3.6176015 157.42628663 -3.61170959 158.82992554 C-3.60832581 160.0893396 -3.60494202 161.34875366 -3.60145569 162.64633179 C-3.14671589 166.88828193 -2.192464 169.50130941 -0.21327209 173.26742554 C5.70636579 177.17186755 11.88930908 176.57322243 18.78672791 176.26742554 C18.62825378 175.329552 18.46977966 174.39167847 18.3065033 173.42538452 C17.61224209 168.54230951 17.55712979 163.6651816 17.47032166 158.74008179 C17.44954056 157.7511644 17.42875946 156.76224701 17.40734863 155.74336243 C17.34232236 152.60561616 17.28318772 149.46779107 17.22422791 146.32992554 C17.180998 144.1938499 17.13738232 142.05778204 17.09336853 139.92172241 C16.98668952 134.70370511 16.88483878 129.4856106 16.78672791 124.26742554 C15.20220115 124.23854044 13.61752026 124.2180406 12.03282166 124.20101929 C11.15037781 124.18869263 10.26793396 124.17636597 9.35874939 124.16366577 C5.34500048 124.3255873 3.20849942 125.10263132 -0.21327209 127.26742554 Z M188.78672791 124.26742554 C188.45672791 141.42742554 188.12672791 158.58742554 187.78672791 176.26742554 C197.69614605 176.77512036 197.69614605 176.77512036 205.78672791 173.26742554 C208.41173803 168.2841464 209.16984736 164.53115693 209.18516541 158.82992554 C209.18803558 158.14615845 209.19090576 157.46239136 209.19386292 156.75790405 C209.19589031 155.32259281 209.19045386 153.8872531 209.17784119 152.45199585 C209.16176643 150.27264803 209.17773311 148.09515415 209.19688416 145.91586304 C209.19490149 144.51221317 209.19105731 143.10856444 209.18516541 141.70492554 C209.18178162 140.44551147 209.17839783 139.18609741 209.1749115 137.88851929 C208.71974234 133.64256396 207.77541395 131.03386756 205.78672791 127.26742554 C199.79056328 123.47393363 196.4534758 124.26742554 188.78672791 124.26742554 Z M4.78672791 188.26742554 C4.38346392 197.22708123 4.38346392 197.22708123 7.78672791 205.26742554 C13.2916636 208.75013995 18.40604687 208.61406213 24.78672791 208.26742554 C26.86432124 205.72648405 28.16737746 203.51164215 28.78672791 200.26742554 C27.30226379 195.82486869 25.19235326 192.33848383 22.78672791 188.26742554 C16.84672791 188.26742554 10.90672791 188.26742554 4.78672791 188.26742554 Z M39.78672791 207.26742554 C37.33551394 210.94424649 36.96254029 213.99663516 37.78672791 218.26742554 C40.48294674 221.78748902 42.46783478 223.50191646 46.78672791 224.26742554 C50.72096374 224.51640393 54.65790346 224.4986013 58.59922791 224.51742554 C59.66721619 224.53805054 60.73520447 224.55867554 61.83555603 224.57992554 C67.92055493 224.61003066 72.4803064 224.36585447 77.78672791 221.26742554 C80.23794187 217.59060458 80.61091552 214.53821591 79.78672791 210.26742554 C77.09050907 206.74736205 75.10562103 205.03293461 70.78672791 204.26742554 C66.85249207 204.01844715 62.91555235 204.03624977 58.97422791 204.01742554 C57.90623962 203.99680054 56.83825134 203.97617554 55.73789978 203.95492554 C49.65290088 203.92482041 45.09314941 204.16899661 39.78672791 207.26742554 Z M72.78672791 239.26742554 C72.41317124 250.18358143 72.82867634 261.66087856 80.50938416 270.17758179 C87.25350092 276.49264937 93.50580482 279.45806143 102.78672791 279.76742554 C112.06765099 279.45806143 118.31995489 276.49264937 125.06407166 270.17758179 C132.74477947 261.66087856 133.16028457 250.18358143 132.78672791 239.26742554 C131.86118103 239.55617554 130.93563416 239.84492554 129.98204041 240.14242554 C111.25145113 245.50219701 91.34813254 245.05817016 72.78672791 239.26742554 Z M56.495224 266.16000366 C55.36249054 266.57463867 54.22975708 266.98927368 53.06269836 267.41647339 C47.81606454 269.34901032 42.57074866 271.28502642 37.32774353 273.22738647 C34.57755881 274.24555606 31.8253056 275.25778132 29.07090759 276.26449585 C1.6404393 285.97108279 1.6404393 285.97108279 -22.21327209 302.26742554 C-22.96995178 302.93129272 -23.72663147 303.59515991 -24.50624084 304.27914429 C-33.36175697 312.52498632 -40.8008112 323.98128183 -45.21327209 335.26742554 C-45.21327209 336.25742554 -45.21327209 337.24742554 -45.21327209 338.26742554 C52.46672791 338.26742554 150.14672791 338.26742554 250.78672791 338.26742554 C247.39355374 321.30155471 233.89654009 305.36427219 219.90075684 295.71925354 C205.26076016 286.12783279 188.20096962 280.62883469 171.90000916 274.56674194 C168.36665189 273.25063561 164.83839547 271.92142573 161.31016541 270.59164429 C159.06566928 269.75361274 156.8208882 268.91634387 154.57579041 268.07992554 C153.5207431 267.68112183 152.4656958 267.28231812 151.37867737 266.87142944 C150.40941315 266.51355347 149.44014893 266.15567749 148.44151306 265.78695679 C147.58820404 265.46831665 146.73489502 265.14967651 145.85572815 264.82138062 C143.74602169 264.01139355 143.74602169 264.01139355 141.78672791 265.26742554 C140.96277595 266.80257812 140.20089659 268.37140323 139.47422791 269.95492554 C134.49394692 280.05901145 127.14958284 285.84560552 116.72422791 290.20492554 C106.01428974 293.29247528 92.5545162 292.61320735 82.78672791 287.26742554 C72.93515728 281.55539618 67.71082771 274.35122802 62.78672791 264.26742554 C60.66013109 264.26742554 58.45032788 265.44354741 56.495224 266.16000366 Z M-122.21327209 350.26742554 C-124.65730541 376.17230049 -124.65730541 376.17230049 -113.83827209 395.70492554 C-106.63589548 401.23560086 -99.11449646 402.39089175 -90.25597 402.39605999 C-89.23705514 402.39868955 -89.23705514 402.39868955 -88.19755614 402.40137222 C-85.92284669 402.40602177 -83.64820146 402.40356942 -81.37348938 402.40113831 C-79.7255173 402.40300681 -78.07754566 402.40530767 -76.42957473 402.40800363 C-71.90180238 402.41412325 -67.37404849 402.41398784 -62.84627295 402.41280925 C-57.96270303 402.41260529 -53.07913905 402.41812363 -48.1955719 402.42286682 C-38.62780914 402.43117493 -29.06005254 402.43392174 -19.49228647 402.4344792 C-11.7150538 402.4349543 -3.93782316 402.43700877 3.83940887 402.44017982 C25.88831575 402.448987 47.93721775 402.45359913 69.98612639 402.45284935 C71.17490497 402.45280939 72.36368355 402.45276944 73.58848572 402.45272827 C74.77871551 402.45268739 75.96894531 402.45264651 77.19524267 402.45260439 C96.4842289 402.45219795 115.77319561 402.46176687 135.0621762 402.47586664 C154.86701316 402.49022927 174.6718406 402.49713688 194.4766829 402.49627286 C205.59594691 402.49594084 216.71519045 402.49869005 227.83444977 402.50945091 C237.30187887 402.51855444 246.76927822 402.52073239 256.2367098 402.51394149 C261.06624666 402.51067549 265.89572644 402.51062251 270.72525787 402.51929474 C275.14932107 402.5271571 279.57328192 402.52573096 283.99734262 402.51701061 C285.59490847 402.51547504 287.19248194 402.51729392 288.79003879 402.52287068 C306.66187081 402.73877071 306.66187081 402.73877071 321.78672791 394.26742554 C332.28470638 380.48331515 328.78672791 369.26875848 328.78672791 350.26742554 C179.95672791 350.26742554 31.12672791 350.26742554 -122.21327209 350.26742554 Z M53.78672791 414.26742554 C53.78672791 431.42742554 53.78672791 448.58742554 53.78672791 466.26742554 C86.45672791 466.26742554 119.12672791 466.26742554 152.78672791 466.26742554 C152.78672791 449.10742554 152.78672791 431.94742554 152.78672791 414.26742554 C120.11672791 414.26742554 87.44672791 414.26742554 53.78672791 414.26742554 Z M5.78672791 478.26742554 C5.78672791 484.86742554 5.78672791 491.46742554 5.78672791 498.26742554 C70.13672791 498.26742554 134.48672791 498.26742554 200.78672791 498.26742554 C200.78672791 491.66742554 200.78672791 485.06742554 200.78672791 478.26742554 C136.43672791 478.26742554 72.08672791 478.26742554 5.78672791 478.26742554 Z " fill="#000000" transform="translate(153.21327209472656,1.732574462890625)"/>
<path d="M0 0 C0.70125 0.00515625 1.4025 0.0103125 2.125 0.015625 C2.82625 0.01046875 3.5275 0.0053125 4.25 0 C6.125 0.265625 6.125 0.265625 8.125 2.265625 C8.38378906 4.6640625 8.38378906 4.6640625 8.390625 7.640625 C8.39320313 8.70796875 8.39578125 9.7753125 8.3984375 10.875 C8.39070313 11.99390625 8.38296875 13.1128125 8.375 14.265625 C8.38273437 15.38453125 8.39046875 16.5034375 8.3984375 17.65625 C8.39585937 18.72359375 8.39328125 19.7909375 8.390625 20.890625 C8.38836914 21.87289062 8.38611328 22.85515625 8.38378906 23.8671875 C8.125 26.265625 8.125 26.265625 6.125 28.265625 C4.25 28.53125 4.25 28.53125 2.125 28.515625 C1.073125 28.52335937 1.073125 28.52335937 0 28.53125 C-1.875 28.265625 -1.875 28.265625 -3.875 26.265625 C-4.13378906 23.8671875 -4.13378906 23.8671875 -4.140625 20.890625 C-4.14320313 19.82328125 -4.14578125 18.7559375 -4.1484375 17.65625 C-4.13683594 15.97789062 -4.13683594 15.97789062 -4.125 14.265625 C-4.13273438 13.14671875 -4.14046875 12.0278125 -4.1484375 10.875 C-4.14585937 9.80765625 -4.14328125 8.7403125 -4.140625 7.640625 C-4.13836914 6.65835938 -4.13611328 5.67609375 -4.13378906 4.6640625 C-3.81173786 1.67931627 -3.07833009 0.43609676 0 0 Z " fill="#000000" transform="translate(253.875,153.734375)"/>
<path d="M0 0 C2.5 1.5 2.5 1.5 4 4 C4.791013 8.02098277 4.62153384 10.96411027 2.5 14.5 C-1.03588973 16.62153384 -3.97901723 16.791013 -8 16 C-10.5 14.5 -10.5 14.5 -12 12 C-12.791013 7.97901723 -12.62153384 5.03588973 -10.5 1.5 C-6.96411027 -0.62153384 -4.02098277 -0.791013 0 0 Z " fill="#000000" transform="translate(300,128)"/>
<path d="M0 0 C2.5 1.5 2.5 1.5 4 4 C4.791013 8.02098277 4.62153384 10.96411027 2.5 14.5 C-1.03588973 16.62153384 -3.97901723 16.791013 -8 16 C-10.5 14.5 -10.5 14.5 -12 12 C-12.791013 7.97901723 -12.62153384 5.03588973 -10.5 1.5 C-6.96411027 -0.62153384 -4.02098277 -0.791013 0 0 Z " fill="#000000" transform="translate(220,128)"/>
</svg>
